<svg xmlns="http://www.w3.org/2000/svg" xmlns:xlink="http://www.w3.org/1999/xlink" width="500" zoomAndPan="magnify" viewBox="0 0 375 299.999988" height="400" preserveAspectRatio="xMidYMid meet" version="1.0"><defs><clipPath id="7ad3a5d9a8"><path d="M 70.359375 153 L 159 153 L 159 157 L 70.359375 157 Z M 70.359375 153 " clip-rule="nonzero"/></clipPath><clipPath id="6f17787f10"><path d="M 103 140.210938 L 182.625 140.210938 L 182.625 144 L 103 144 Z M 103 140.210938 " clip-rule="nonzero"/></clipPath><clipPath id="04be35cc00"><path d="M 103 173 L 174 173 L 174 176.742188 L 103 176.742188 Z M 103 173 " clip-rule="nonzero"/></clipPath><clipPath id="e2c0aa2809"><path d="M 169.078125 78.71875 L 304.511719 78.71875 L 304.511719 221.28125 L 169.078125 221.28125 Z M 169.078125 78.71875 " clip-rule="nonzero"/></clipPath><clipPath id="dcd5db4958"><path d="M 169.078125 78.71875 L 304.511719 78.71875 L 304.511719 221.28125 L 169.078125 221.28125 Z M 169.078125 78.71875 " clip-rule="nonzero"/></clipPath></defs><rect x="-37.5" width="450" fill="#ffffff" y="-29.999999" height="359.999986" fill-opacity="1"/><rect x="-37.5" width="450" fill="#45bbbc" y="-29.999999" height="359.999986" fill-opacity="1"/><path fill="#ffffff" d="M 163.886719 150.328125 C 165.992188 150.328125 167.707031 149.546875 167.707031 148.558594 C 167.707031 147.570312 165.992188 146.789062 163.886719 146.789062 L 95.578125 148.558594 Z M 163.886719 150.328125 " fill-opacity="1" fill-rule="nonzero"/><g clip-path="url(#7ad3a5d9a8)"><path fill="#ffffff" d="M 154.785156 156.921875 C 156.890625 156.921875 158.605469 156.140625 158.605469 155.152344 C 158.605469 154.160156 156.890625 153.382812 154.785156 153.382812 L 70.363281 155.152344 Z M 154.785156 156.921875 " fill-opacity="1" fill-rule="nonzero"/></g><g clip-path="url(#6f17787f10)"><path fill="#ffffff" d="M 178.730469 140.210938 L 103.523438 141.980469 L 178.730469 143.75 C 180.847656 143.75 182.550781 142.96875 182.550781 141.980469 C 182.5625 141.003906 180.835938 140.210938 178.730469 140.210938 Z M 178.730469 140.210938 " fill-opacity="1" fill-rule="nonzero"/></g><path fill="#ffffff" d="M 152.640625 163.5 C 154.742188 163.5 156.445312 162.71875 156.457031 161.730469 C 156.457031 160.753906 154.742188 159.960938 152.640625 159.960938 L 78.769531 161.730469 Z M 152.640625 163.5 " fill-opacity="1" fill-rule="nonzero"/><path fill="#ffffff" d="M 159.132812 170.078125 C 161.238281 170.078125 162.953125 169.296875 162.953125 168.308594 C 162.953125 167.332031 161.238281 166.539062 159.132812 166.539062 L 87.1875 168.308594 Z M 159.132812 170.078125 " fill-opacity="1" fill-rule="nonzero"/><g clip-path="url(#04be35cc00)"><path fill="#ffffff" d="M 169.796875 173.132812 L 103.523438 174.902344 L 169.796875 176.671875 C 171.914062 176.671875 173.617188 175.890625 173.617188 174.902344 C 173.628906 173.910156 171.886719 173.132812 169.796875 173.132812 Z M 169.796875 173.132812 " fill-opacity="1" fill-rule="nonzero"/></g><g clip-path="url(#e2c0aa2809)"><path fill="#ffffff" d="M 301.257812 153.308594 C 299.128906 150.949219 296.121094 149.605469 292.882812 149.46875 L 293.066406 147.339844 C 293.066406 147.199219 293.113281 147.015625 293.066406 146.875 C 293.066406 145.859375 292.652344 144.933594 291.910156 144.238281 C 291.171875 143.542969 290.246094 143.171875 289.226562 143.171875 C 288.949219 143.171875 288.671875 143.21875 288.394531 143.265625 C 288.117188 143.21875 287.882812 143.171875 287.558594 143.171875 C 287.558594 143.171875 287.515625 143.171875 287.515625 143.171875 C 285.199219 143.21875 283.300781 144.976562 283.070312 147.246094 L 282.886719 149.46875 L 276.359375 149.46875 L 278.351562 126.605469 L 283.71875 117.441406 L 291.492188 126.652344 L 292.1875 126.652344 L 294.457031 100.824219 C 294.734375 97.910156 293.902344 95.179688 292.28125 93.375 C 291.125 92.078125 289.597656 91.382812 287.976562 91.382812 C 287.835938 91.382812 287.699219 91.382812 287.558594 91.429688 L 219.941406 90.644531 C 219.203125 88.375 217.953125 86.292969 216.332031 84.488281 C 213.046875 80.878906 208.371094 78.84375 203.234375 78.84375 C 203.234375 78.84375 203.1875 78.84375 203.1875 78.84375 C 202.726562 78.84375 202.308594 78.84375 201.847656 78.886719 C 201.476562 78.84375 201.011719 78.84375 200.597656 78.84375 C 200.597656 78.84375 200.550781 78.84375 200.550781 78.84375 C 189.90625 78.84375 180.464844 87.449219 179.539062 98.050781 C 179.074219 103.234375 180.648438 108.09375 184.027344 111.75 C 187.3125 115.3125 191.894531 117.347656 196.941406 117.394531 L 189.257812 204.773438 L 170.191406 204.636719 L 169.773438 204.636719 L 169.355469 209.125 C 169.078125 212.363281 170.050781 215.371094 172.132812 217.640625 C 174.214844 219.910156 177.132812 221.15625 180.324219 221.15625 L 254.929688 221.15625 C 263.261719 221.15625 270.667969 214.355469 271.40625 206.023438 L 271.453125 205.5625 L 287.375 205.5625 C 294.640625 205.5625 301.027344 199.683594 301.675781 192.417969 L 304.269531 162.703125 C 304.636719 159.140625 303.574219 155.808594 301.257812 153.308594 Z M 301.257812 153.308594 " fill-opacity="1" fill-rule="nonzero"/></g><path fill="#a6a6a6" d="M 283.671875 115.867188 L 278.90625 124.011719 L 280.941406 100.824219 C 281.265625 97.214844 283.257812 94.023438 285.941406 92.820312 C 286.632812 92.496094 287.328125 92.355469 288.070312 92.355469 C 289.457031 92.355469 290.707031 92.910156 291.679688 94.023438 C 293.160156 95.640625 293.855469 98.09375 293.621094 100.734375 L 291.492188 125.078125 Z M 246 216.160156 C 245.769531 215.417969 245.628906 214.632812 245.582031 213.890625 L 244.84375 206.164062 L 190.089844 205.746094 L 189.164062 205.746094 L 170.605469 205.605469 L 170.28125 209.261719 C 170.003906 212.226562 170.929688 215.003906 172.828125 217.085938 C 174.726562 219.167969 177.410156 220.277344 180.324219 220.277344 L 249.007812 220.277344 C 247.757812 219.539062 246.648438 218.289062 246 216.160156 Z M 214.992188 140.074219 L 206.289062 140.074219 L 204.855469 156.503906 L 213.554688 156.503906 Z M 240.214844 134.148438 L 231.511719 134.148438 L 229.570312 156.550781 L 238.269531 156.550781 Z M 250.671875 152.152344 L 253.171875 123.644531 L 244.472656 123.644531 L 241.601562 156.503906 L 246.601562 156.503906 C 247.664062 154.789062 249.054688 153.308594 250.671875 152.152344 Z M 256.597656 147.246094 C 256.828125 144.980469 258.726562 143.21875 261.039062 143.171875 C 261.320312 143.171875 261.640625 143.21875 261.921875 143.265625 C 262.199219 143.21875 262.476562 143.171875 262.753906 143.171875 C 263.308594 143.171875 263.863281 143.265625 264.371094 143.496094 L 266.59375 118.042969 L 257.894531 118.042969 L 255.117188 150.023438 C 255.535156 149.882812 255.996094 149.792969 256.457031 149.699219 Z M 225.820312 156.503906 L 228.414062 127.113281 L 219.710938 127.113281 L 217.121094 156.503906 Z M 264.605469 149.46875 L 265.390625 149.46875 L 265.578125 147.246094 C 265.578125 147.109375 265.578125 147.015625 265.578125 146.875 C 265.578125 146.136719 265.253906 145.394531 264.695312 144.886719 C 264.558594 144.746094 264.371094 144.609375 264.1875 144.46875 C 264.050781 144.375 263.863281 144.285156 263.679688 144.238281 C 263.863281 144.421875 264.003906 144.609375 264.140625 144.792969 C 264.558594 145.394531 264.789062 146.089844 264.789062 146.828125 C 264.789062 146.96875 264.789062 147.152344 264.789062 147.292969 Z M 291.171875 149.46875 L 291.957031 149.46875 L 292.140625 147.246094 C 292.140625 147.109375 292.140625 147.015625 292.140625 146.875 C 292.140625 146.136719 291.816406 145.394531 291.261719 144.886719 C 290.984375 144.609375 290.613281 144.375 290.246094 144.238281 C 290.9375 144.886719 291.355469 145.8125 291.355469 146.828125 C 291.355469 146.96875 291.355469 147.152344 291.355469 147.292969 Z M 300.566406 153.957031 C 298.761719 151.96875 296.261719 150.765625 293.53125 150.484375 C 295.058594 151.132812 296.445312 152.105469 297.558594 153.355469 C 299.871094 155.855469 300.933594 159.1875 300.613281 162.703125 L 298.019531 192.417969 C 297.558594 197.878906 293.808594 202.554688 288.855469 204.542969 C 295.011719 203.800781 300.195312 198.617188 300.75 192.324219 L 303.34375 162.613281 C 303.710938 159.324219 302.695312 156.269531 300.566406 153.957031 Z M 274.738281 163.121094 L 299.6875 163.121094 L 299.730469 162.613281 C 300.011719 159.324219 298.992188 156.269531 296.910156 153.957031 C 295.75 152.707031 294.316406 151.734375 292.742188 151.132812 C 292.605469 151.085938 292.464844 151.042969 292.28125 150.996094 C 292.140625 150.949219 292.003906 150.902344 291.816406 150.855469 C 291.585938 150.765625 291.308594 150.71875 291.078125 150.671875 L 290.9375 152.523438 C 291.402344 153.585938 291.355469 154.882812 290.890625 155.992188 C 290.707031 156.503906 290.382812 156.964844 290.011719 157.382812 C 289.921875 157.519531 289.78125 157.613281 289.644531 157.753906 C 289.410156 157.9375 289.226562 158.121094 288.996094 158.308594 C 287.097656 159.601562 284.644531 159.464844 283.117188 157.9375 C 281.730469 156.503906 281.636719 154.28125 282.652344 152.523438 L 282.839844 150.441406 L 264.511719 150.441406 L 264.328125 152.523438 C 264.789062 153.585938 264.742188 154.835938 264.28125 155.992188 C 264.1875 156.179688 264.09375 156.363281 264.003906 156.550781 C 263.816406 156.828125 263.632812 157.105469 263.402344 157.382812 C 263.308594 157.519531 263.167969 157.613281 263.03125 157.753906 C 262.800781 157.9375 262.613281 158.121094 262.382812 158.308594 C 260.484375 159.601562 258.03125 159.464844 256.503906 157.9375 C 256.136719 157.519531 255.855469 157.058594 255.671875 156.59375 C 255.164062 155.300781 255.300781 153.816406 256.089844 152.523438 L 256.136719 152.152344 L 256.179688 151.597656 L 256.226562 151.042969 L 256.273438 150.71875 C 255.8125 150.808594 255.394531 150.949219 254.929688 151.085938 C 253.359375 151.597656 251.878906 152.429688 250.582031 153.449219 C 249.46875 154.328125 248.5 155.390625 247.710938 156.59375 C 246.695312 158.078125 246 159.789062 245.675781 161.59375 C 245.582031 161.964844 245.535156 162.378906 245.488281 162.796875 L 245.445312 163.214844 L 274.738281 163.214844 Z M 266.132812 173.671875 L 266.6875 167.054688 L 260.070312 167.054688 L 259.511719 173.671875 Z M 274.417969 167.101562 L 268.953125 167.101562 L 268.398438 173.71875 L 274.972656 173.71875 L 275.527344 167.101562 Z M 277.75 167.101562 L 277.191406 173.71875 L 283.8125 173.71875 L 284.367188 167.101562 Z M 292.417969 173.671875 L 292.976562 167.054688 L 286.355469 167.054688 L 285.800781 173.671875 Z M 272.195312 192.277344 L 266.964844 192.277344 L 266.410156 198.898438 L 272.980469 198.898438 L 273.535156 192.277344 Z M 275.019531 198.898438 L 281.636719 198.898438 L 282.191406 192.277344 L 275.574219 192.277344 Z M 250.210938 182.234375 L 256.828125 182.234375 L 257.382812 175.617188 L 250.765625 175.617188 Z M 259.003906 182.234375 L 265.621094 182.234375 L 266.179688 175.617188 L 259.605469 175.617188 Z M 273.675781 175.664062 L 268.398438 175.664062 L 267.84375 182.28125 L 274.417969 182.28125 L 274.972656 175.664062 Z M 276.5 182.234375 L 283.117188 182.234375 L 283.671875 175.617188 L 277.054688 175.617188 Z M 291.492188 184.316406 L 284.875 184.316406 L 284.320312 190.9375 L 290.9375 190.9375 Z M 249.425781 190.890625 L 256.042969 190.890625 L 256.597656 184.273438 L 249.980469 184.273438 Z M 258.265625 190.890625 L 264.882812 190.890625 L 265.4375 184.273438 L 258.820312 184.273438 Z M 275.710938 190.890625 L 282.332031 190.890625 L 282.886719 184.273438 L 276.265625 184.273438 Z M 184.675781 111.148438 C 181.527344 107.675781 180 103.046875 180.417969 98.140625 C 181.160156 89.902344 187.269531 82.960938 194.949219 80.601562 C 196.0625 80.277344 197.21875 80.046875 198.375 79.90625 C 199.117188 79.8125 199.855469 79.769531 200.550781 79.769531 C 200.550781 79.769531 200.597656 79.769531 200.597656 79.769531 C 201.011719 79.769531 201.429688 79.769531 201.894531 79.8125 C 206.242188 80.136719 210.175781 81.988281 213.046875 85.136719 C 214.066406 86.246094 214.898438 87.449219 215.546875 88.746094 C 215.871094 89.347656 216.101562 89.996094 216.332031 90.644531 C 216.378906 90.78125 216.425781 90.96875 216.519531 91.105469 C 216.5625 91.246094 216.609375 91.429688 216.65625 91.570312 C 217.257812 93.652344 217.488281 95.875 217.257812 98.140625 C 217.257812 98.140625 217.257812 98.1875 217.257812 98.1875 C 217.210938 98.464844 217.210938 98.742188 217.164062 99.019531 C 216.703125 102.351562 215.359375 105.5 213.417969 108.136719 C 212.445312 109.433594 211.335938 110.636719 210.085938 111.65625 C 206.84375 114.386719 202.820312 116.144531 198.515625 116.46875 C 198.328125 116.46875 198.144531 116.515625 197.957031 116.515625 C 197.820312 116.515625 197.636719 116.515625 197.496094 116.515625 C 197.402344 116.515625 197.3125 116.515625 197.21875 116.515625 C 197.171875 116.515625 197.125 116.515625 197.035156 116.515625 C 196.476562 116.515625 195.875 116.46875 195.320312 116.421875 C 194.257812 116.332031 193.191406 116.097656 192.171875 115.820312 C 189.257812 114.941406 186.710938 113.367188 184.675781 111.148438 Z M 184.445312 107.8125 C 184.90625 108.554688 185.417969 109.25 186.019531 109.898438 C 186.433594 110.3125 186.851562 110.730469 187.269531 111.101562 C 189.953125 113.414062 193.378906 114.710938 197.125 114.757812 C 197.21875 114.757812 197.3125 114.757812 197.402344 114.757812 C 197.449219 114.757812 197.542969 114.757812 197.589844 114.757812 C 197.726562 114.757812 197.914062 114.757812 198.050781 114.757812 C 198.28125 114.757812 198.46875 114.757812 198.699219 114.710938 C 199.71875 114.617188 200.691406 114.480469 201.660156 114.203125 C 202.679688 113.921875 203.699219 113.597656 204.667969 113.136719 C 210.546875 110.546875 214.992188 104.851562 215.546875 98.234375 C 215.777344 95.875 215.453125 93.605469 214.757812 91.523438 C 214.710938 91.382812 214.667969 91.199219 214.574219 91.058594 C 214.527344 90.921875 214.433594 90.738281 214.390625 90.597656 C 213.742188 89.070312 212.816406 87.636719 211.660156 86.339844 C 210.363281 84.90625 208.789062 83.746094 207.078125 82.960938 C 206.242188 82.542969 205.363281 82.265625 204.484375 81.988281 C 203.558594 81.757812 202.632812 81.574219 201.613281 81.527344 C 201.199219 81.480469 200.734375 81.480469 200.320312 81.480469 C 196.664062 81.480469 193.191406 82.636719 190.230469 84.628906 C 188.796875 85.597656 187.5 86.757812 186.386719 88.097656 C 184.214844 90.644531 182.730469 93.792969 182.269531 97.167969 C 182.222656 97.449219 182.175781 97.726562 182.175781 98.050781 C 182.175781 98.050781 182.175781 98.09375 182.175781 98.09375 C 182.175781 98.328125 182.128906 98.558594 182.128906 98.789062 C 181.945312 102.074219 182.777344 105.175781 184.445312 107.8125 Z M 205.550781 170.386719 L 228.644531 170.386719 C 230.355469 170.386719 231.746094 171.777344 231.746094 173.488281 C 231.746094 173.582031 231.746094 173.671875 231.746094 173.765625 L 229.941406 194.128906 C 229.800781 195.75 228.457031 196.953125 226.839844 196.953125 L 203.789062 196.953125 C 202.078125 196.953125 200.691406 195.5625 200.691406 193.851562 C 200.691406 193.757812 200.691406 193.667969 200.691406 193.574219 L 202.496094 173.210938 C 202.585938 171.636719 203.929688 170.386719 205.550781 170.386719 Z M 222.347656 182.421875 C 221.46875 183.160156 220.542969 183.761719 219.617188 184.457031 C 218.785156 185.011719 218.046875 185.660156 217.304688 186.308594 C 216.195312 187.371094 215.824219 188.714844 215.636719 190.148438 C 215.683594 190.148438 215.777344 190.195312 215.824219 190.195312 C 218.878906 190.195312 221.933594 190.195312 224.988281 190.195312 C 225.265625 190.195312 225.3125 190.101562 225.359375 189.824219 C 225.402344 189.222656 225.449219 188.667969 225.496094 188.066406 C 225.542969 187.695312 225.402344 187.605469 225.035156 187.605469 C 223.414062 187.605469 221.746094 187.605469 220.128906 187.605469 C 219.941406 187.605469 219.757812 187.605469 219.527344 187.605469 C 219.574219 187.511719 219.617188 187.417969 219.710938 187.324219 C 220.3125 186.769531 220.914062 186.214844 221.5625 185.707031 C 222.535156 184.917969 223.597656 184.273438 224.570312 183.4375 C 226.375 181.863281 226.792969 179.179688 225.679688 177.375 C 224.386719 175.292969 220.867188 175.246094 219.109375 176.21875 C 217.351562 177.191406 216.703125 179.089844 216.65625 180.660156 C 216.65625 180.753906 216.84375 180.894531 216.933594 180.894531 C 217.628906 180.9375 218.324219 180.894531 219.015625 180.894531 C 219.25 180.894531 219.339844 180.800781 219.386719 180.570312 C 219.433594 180.199219 219.480469 179.78125 219.574219 179.410156 C 219.804688 178.53125 220.636719 177.882812 221.5625 177.929688 C 222.441406 177.839844 223.230469 178.488281 223.320312 179.367188 C 223.644531 180.476562 223.230469 181.679688 222.347656 182.421875 Z M 206.476562 180.335938 C 207.261719 180.335938 208.046875 180.335938 208.835938 180.335938 C 209.484375 180.335938 209.484375 180.335938 209.4375 180.9375 C 209.160156 183.855469 208.925781 186.769531 208.648438 189.6875 C 208.605469 190.101562 208.742188 190.195312 209.113281 190.195312 C 209.761719 190.148438 210.363281 190.148438 211.011719 190.195312 C 211.378906 190.195312 211.472656 190.058594 211.519531 189.734375 C 211.703125 187.511719 211.890625 185.289062 212.074219 183.066406 C 212.167969 182.1875 212.214844 181.261719 212.304688 180.382812 C 212.445312 179.042969 212.539062 177.652344 212.675781 176.3125 C 212.722656 175.988281 212.628906 175.847656 212.261719 175.894531 C 211.890625 175.941406 211.566406 175.941406 211.195312 175.894531 C 210.964844 175.847656 210.734375 176.035156 210.640625 176.265625 C 210.269531 177.144531 209.53125 177.792969 208.648438 178.070312 C 208.003906 178.253906 207.308594 178.347656 206.613281 178.441406 C 206.335938 178.488281 206.195312 178.53125 206.195312 178.855469 C 206.195312 179.226562 206.152344 179.597656 206.105469 179.96875 C 206.058594 180.246094 206.195312 180.335938 206.476562 180.335938 Z M 206.476562 180.335938 " fill-opacity="1" fill-rule="nonzero"/><g clip-path="url(#dcd5db4958)"><path fill="#d9d9d9" d="M 197.3125 97.910156 C 197.636719 93.929688 198.003906 89.996094 198.328125 86.015625 C 198.421875 85.042969 198.976562 84.441406 199.765625 84.441406 C 200.550781 84.441406 201.011719 85.042969 200.921875 86.015625 C 200.644531 89.347656 200.367188 92.632812 200.042969 95.964844 C 200.042969 96.242188 199.996094 96.476562 199.949219 96.84375 C 200.320312 96.84375 200.550781 96.84375 200.78125 96.84375 C 201.152344 96.84375 201.523438 96.84375 201.894531 96.84375 C 202.125 96.84375 202.308594 96.84375 202.539062 96.84375 C 202.726562 96.84375 202.910156 96.84375 203.097656 96.84375 C 205.226562 96.84375 207.398438 96.84375 209.53125 96.84375 C 210.453125 96.84375 210.964844 97.355469 210.917969 98.140625 C 210.871094 98.929688 210.222656 99.484375 209.25 99.484375 C 206.566406 99.484375 203.835938 99.484375 201.152344 99.484375 C 200.96875 99.484375 200.828125 99.484375 200.644531 99.484375 C 200.457031 99.484375 200.273438 99.484375 200.089844 99.484375 C 199.578125 99.484375 199.117188 99.484375 198.605469 99.484375 C 197.636719 99.4375 197.21875 99.019531 197.3125 97.910156 Z M 304.3125 162.703125 L 301.722656 192.417969 C 301.074219 199.683594 294.6875 205.5625 287.421875 205.5625 L 271.5 205.5625 L 271.453125 206.023438 C 270.714844 214.355469 263.355469 221.15625 254.976562 221.15625 L 180.371094 221.15625 C 177.179688 221.15625 174.261719 219.910156 172.179688 217.640625 C 170.097656 215.371094 169.078125 212.316406 169.402344 209.125 L 169.820312 204.636719 L 170.234375 204.636719 L 189.304688 204.773438 L 196.941406 117.441406 C 191.894531 117.394531 187.269531 115.359375 184.027344 111.792969 C 180.648438 108.09375 179.074219 103.234375 179.539062 98.050781 C 180.464844 87.449219 189.90625 78.84375 200.550781 78.84375 C 200.550781 78.84375 200.597656 78.84375 200.597656 78.84375 C 201.011719 78.84375 201.429688 78.84375 201.894531 78.886719 C 202.308594 78.84375 202.773438 78.84375 203.1875 78.84375 C 203.1875 78.84375 203.234375 78.84375 203.234375 78.84375 C 208.371094 78.84375 213.046875 80.878906 216.332031 84.488281 C 218 86.292969 219.203125 88.375 219.941406 90.644531 L 287.558594 91.429688 C 287.699219 91.429688 287.835938 91.382812 287.976562 91.382812 C 289.597656 91.382812 291.125 92.078125 292.28125 93.375 C 293.945312 95.179688 294.734375 97.863281 294.457031 100.824219 L 292.1875 126.652344 L 291.492188 126.652344 L 283.71875 117.441406 L 278.351562 126.605469 L 276.359375 149.46875 L 282.886719 149.46875 L 283.070312 147.246094 C 283.300781 144.980469 285.199219 143.21875 287.515625 143.171875 C 287.515625 143.171875 287.558594 143.171875 287.558594 143.171875 C 287.835938 143.171875 288.117188 143.21875 288.394531 143.265625 C 288.671875 143.21875 288.949219 143.171875 289.226562 143.171875 C 290.246094 143.171875 291.171875 143.542969 291.910156 144.238281 C 292.652344 144.933594 293.019531 145.859375 293.066406 146.875 C 293.066406 147.015625 293.066406 147.199219 293.066406 147.339844 L 292.882812 149.46875 C 296.167969 149.605469 299.128906 150.949219 301.257812 153.308594 C 303.574219 155.808594 304.636719 159.140625 304.3125 162.703125 Z M 290.246094 144.285156 C 290.9375 144.933594 291.355469 145.859375 291.355469 146.875 C 291.355469 147.015625 291.355469 147.199219 291.355469 147.339844 L 291.171875 149.46875 L 291.957031 149.46875 L 292.140625 147.246094 C 292.140625 147.109375 292.140625 147.015625 292.140625 146.875 C 292.140625 146.136719 291.816406 145.394531 291.261719 144.886719 C 290.984375 144.609375 290.613281 144.421875 290.246094 144.285156 Z M 283.394531 154.699219 C 283.394531 155.902344 284.179688 156.917969 285.292969 157.335938 C 285.570312 157.429688 285.894531 157.519531 286.21875 157.519531 C 286.21875 157.519531 286.21875 157.519531 286.265625 157.519531 C 286.542969 157.519531 286.820312 157.472656 287.097656 157.382812 C 288.53125 157.011719 289.644531 155.808594 289.78125 154.28125 L 290.058594 151.273438 L 290.105469 150.578125 L 290.105469 150.484375 L 290.152344 150.117188 L 290.152344 150.023438 L 290.199219 149.652344 L 290.199219 149.558594 L 290.382812 147.339844 C 290.382812 147.199219 290.382812 147.109375 290.382812 146.96875 C 290.382812 145.71875 289.503906 144.65625 288.347656 144.285156 C 288.070312 144.191406 287.835938 144.144531 287.558594 144.144531 C 287.558594 144.144531 287.515625 144.144531 287.515625 144.144531 C 287.46875 144.144531 287.421875 144.144531 287.375 144.144531 C 286.957031 144.144531 286.589844 144.238281 286.21875 144.421875 C 285.015625 144.933594 284.136719 146.042969 283.996094 147.386719 L 283.8125 149.515625 L 283.765625 149.976562 L 283.71875 150.441406 L 283.625 151.273438 L 283.347656 154.375 C 283.394531 154.464844 283.394531 154.558594 283.394531 154.699219 Z M 276.3125 150.394531 L 264.511719 150.394531 L 264.328125 152.476562 C 264.789062 153.539062 264.742188 154.789062 264.28125 155.945312 C 264.1875 156.132812 264.09375 156.316406 264.003906 156.503906 C 263.816406 156.78125 263.632812 157.058594 263.402344 157.335938 C 263.308594 157.472656 263.167969 157.566406 263.03125 157.707031 C 262.800781 157.890625 262.613281 158.078125 262.382812 158.261719 C 260.484375 159.558594 258.03125 159.417969 256.503906 157.890625 C 256.136719 157.472656 255.855469 157.011719 255.671875 156.550781 C 255.164062 155.253906 255.300781 153.773438 256.089844 152.476562 L 256.136719 152.105469 L 256.179688 151.550781 L 256.226562 150.996094 L 256.273438 150.671875 C 255.8125 150.765625 255.394531 150.902344 254.929688 151.042969 C 253.359375 151.550781 251.878906 152.382812 250.582031 153.402344 C 249.46875 154.28125 248.5 155.34375 247.710938 156.550781 C 246.695312 158.03125 246 159.742188 245.675781 161.546875 C 245.582031 161.917969 245.535156 162.335938 245.488281 162.75 L 245.445312 163.167969 L 299.640625 163.167969 L 299.6875 162.65625 C 299.964844 159.371094 298.945312 156.316406 296.863281 154.003906 C 295.707031 152.753906 294.269531 151.78125 292.699219 151.179688 C 292.558594 151.132812 292.417969 151.085938 292.234375 151.042969 C 292.09375 150.996094 291.957031 150.949219 291.773438 150.902344 C 291.539062 150.808594 291.261719 150.765625 291.03125 150.71875 L 290.890625 152.570312 C 291.355469 153.632812 291.308594 154.929688 290.847656 156.039062 C 290.660156 156.550781 290.335938 157.011719 289.964844 157.429688 C 289.875 157.566406 289.734375 157.660156 289.597656 157.796875 C 289.363281 157.984375 289.179688 158.167969 288.949219 158.355469 C 287.050781 159.648438 284.597656 159.511719 283.070312 157.984375 C 281.683594 156.550781 281.589844 154.328125 282.609375 152.570312 L 282.792969 150.484375 L 276.3125 150.484375 Z M 264.835938 146.875 C 264.835938 147.015625 264.835938 147.199219 264.835938 147.339844 L 264.652344 149.46875 L 265.4375 149.46875 L 265.621094 147.246094 C 265.621094 147.109375 265.621094 147.015625 265.621094 146.875 C 265.621094 146.136719 265.296875 145.394531 264.742188 144.886719 C 264.605469 144.746094 264.417969 144.609375 264.234375 144.46875 C 264.09375 144.375 263.910156 144.285156 263.726562 144.238281 C 263.910156 144.421875 264.050781 144.609375 264.1875 144.792969 C 264.605469 145.441406 264.835938 146.136719 264.835938 146.875 Z M 263.03125 144.886719 C 262.707031 144.5625 262.289062 144.332031 261.875 144.191406 C 261.597656 144.097656 261.320312 144.054688 261.039062 144.054688 C 261.039062 144.054688 260.996094 144.054688 260.996094 144.054688 C 260.949219 144.054688 260.902344 144.054688 260.855469 144.054688 C 260.4375 144.054688 260.070312 144.144531 259.699219 144.332031 C 258.496094 144.839844 257.617188 145.949219 257.476562 147.292969 L 257.292969 149.515625 L 257.246094 149.976562 L 257.199219 150.441406 L 257.199219 150.484375 L 257.152344 150.996094 L 257.152344 151.132812 L 257.105469 151.503906 L 256.875 154.234375 C 256.875 154.375 256.875 154.464844 256.875 154.605469 C 256.875 155.300781 257.152344 155.945312 257.617188 156.457031 C 257.664062 156.503906 257.707031 156.550781 257.753906 156.59375 C 258.03125 156.871094 258.402344 157.105469 258.773438 157.242188 C 259.050781 157.335938 259.375 157.382812 259.746094 157.382812 C 259.746094 157.382812 259.746094 157.382812 259.792969 157.382812 C 260.070312 157.382812 260.347656 157.335938 260.625 157.242188 C 261.179688 157.105469 261.734375 156.828125 262.152344 156.410156 C 262.800781 155.808594 263.214844 155.023438 263.308594 154.097656 L 263.585938 151.085938 L 263.679688 150.253906 L 263.726562 149.792969 L 263.769531 149.328125 L 263.957031 147.109375 C 263.957031 146.96875 263.957031 146.875 263.957031 146.738281 C 263.910156 146.136719 263.585938 145.441406 263.03125 144.886719 Z M 280.894531 100.871094 L 278.859375 124.058594 L 283.671875 115.867188 L 291.492188 125.078125 L 293.621094 100.734375 C 293.855469 98.050781 293.160156 95.597656 291.679688 94.023438 C 290.660156 92.910156 289.410156 92.355469 288.070312 92.355469 C 287.328125 92.355469 286.589844 92.542969 285.941406 92.820312 C 283.210938 94.070312 281.21875 97.261719 280.894531 100.871094 Z M 196.988281 116.515625 C 197.035156 116.515625 197.078125 116.515625 197.171875 116.515625 C 197.265625 116.515625 197.355469 116.515625 197.449219 116.515625 C 197.589844 116.515625 197.773438 116.515625 197.914062 116.515625 C 198.097656 116.515625 198.28125 116.515625 198.46875 116.46875 C 202.773438 116.144531 206.84375 114.386719 210.039062 111.65625 C 211.289062 110.589844 212.398438 109.433594 213.371094 108.136719 C 215.316406 105.5 216.65625 102.351562 217.121094 99.019531 C 217.164062 98.742188 217.164062 98.464844 217.210938 98.1875 C 217.210938 98.1875 217.210938 98.140625 217.210938 98.140625 C 217.398438 95.875 217.210938 93.652344 216.609375 91.570312 C 216.5625 91.429688 216.519531 91.246094 216.472656 91.105469 C 216.425781 90.96875 216.378906 90.78125 216.285156 90.644531 C 216.054688 89.996094 215.777344 89.394531 215.5 88.746094 C 214.851562 87.449219 214.019531 86.246094 213 85.136719 C 210.175781 81.988281 206.242188 80.136719 201.894531 79.8125 C 201.476562 79.769531 201.011719 79.769531 200.597656 79.769531 C 200.597656 79.769531 200.550781 79.769531 200.550781 79.769531 C 199.808594 79.769531 199.117188 79.8125 198.375 79.90625 C 197.21875 80.046875 196.0625 80.277344 194.949219 80.601562 C 187.269531 82.960938 181.160156 89.902344 180.417969 98.140625 C 180 103.046875 181.484375 107.675781 184.675781 111.148438 C 186.710938 113.367188 189.257812 114.941406 192.128906 115.773438 C 193.144531 116.050781 194.210938 116.285156 195.273438 116.375 C 195.875 116.46875 196.429688 116.515625 196.988281 116.515625 Z M 249.101562 220.230469 C 247.804688 219.539062 246.695312 218.289062 246.046875 216.113281 C 245.8125 215.371094 245.675781 214.585938 245.628906 213.84375 L 244.886719 206.117188 L 190.136719 205.699219 L 189.210938 205.699219 L 170.652344 205.5625 L 170.328125 209.21875 C 170.050781 212.179688 170.976562 214.957031 172.875 217.039062 C 174.773438 219.121094 177.457031 220.230469 180.371094 220.230469 Z M 262.429688 218.242188 L 248.359375 204.171875 C 247.15625 203.523438 246.046875 202.691406 245.074219 201.671875 C 242.757812 199.175781 241.695312 195.84375 242.019531 192.324219 L 244.609375 162.613281 C 244.65625 162.242188 244.703125 161.871094 244.75 161.5 L 198.929688 161.5 L 199.347656 156.503906 L 246.601562 156.503906 C 247.664062 154.789062 249.054688 153.308594 250.671875 152.152344 C 251.96875 151.226562 253.449219 150.484375 255.023438 150.023438 C 255.441406 149.882812 255.902344 149.792969 256.367188 149.699219 L 256.597656 147.246094 C 256.828125 144.980469 258.726562 143.21875 261.039062 143.171875 C 261.320312 143.171875 261.640625 143.21875 261.921875 143.265625 C 262.199219 143.21875 262.476562 143.171875 262.753906 143.171875 C 263.308594 143.171875 263.863281 143.265625 264.371094 143.496094 C 264.742188 143.683594 265.113281 143.914062 265.4375 144.238281 C 266.179688 144.933594 266.546875 145.859375 266.59375 146.875 C 266.59375 147.015625 266.59375 147.199219 266.59375 147.339844 L 266.410156 149.46875 L 275.574219 149.46875 L 279.738281 101.707031 C 280.0625 97.863281 280.664062 94.253906 283.441406 92.355469 L 220.265625 91.617188 C 220.820312 93.699219 221.054688 95.921875 220.820312 98.234375 C 219.851562 108.832031 210.453125 117.441406 199.808594 117.441406 C 199.394531 117.441406 198.929688 117.441406 198.515625 117.394531 C 198.28125 117.394531 198.097656 117.441406 197.867188 117.441406 L 190.230469 204.773438 L 245.769531 205.191406 L 246.554688 213.753906 C 246.601562 214.492188 246.738281 215.1875 246.925781 215.882812 C 247.898438 219.261719 250.070312 220.046875 253.035156 220.230469 L 255.023438 220.230469 C 257.664062 220.230469 260.207031 219.539062 262.429688 218.242188 Z M 297.140625 192.324219 L 299.59375 164.046875 L 245.398438 164.046875 L 242.898438 192.417969 C 242.621094 195.425781 243.453125 198.25 245.210938 200.46875 C 245.398438 200.65625 245.535156 200.886719 245.722656 201.070312 C 247.527344 203.0625 250.027344 204.265625 252.757812 204.542969 C 253.171875 204.589844 253.589844 204.589844 254.050781 204.589844 L 283.765625 204.589844 C 290.570312 204.636719 296.539062 199.128906 297.140625 192.324219 Z M 300.566406 153.957031 C 298.761719 151.96875 296.261719 150.765625 293.53125 150.484375 C 295.058594 151.132812 296.445312 152.105469 297.558594 153.355469 C 299.871094 155.855469 300.933594 159.1875 300.613281 162.703125 L 298.019531 192.417969 C 297.558594 197.878906 293.808594 202.554688 288.855469 204.542969 C 295.011719 203.800781 300.195312 198.617188 300.75 192.324219 L 303.34375 162.613281 C 303.710938 159.324219 302.695312 156.269531 300.566406 153.957031 Z M 248.867188 191.816406 L 256.414062 191.816406 L 255.765625 199.265625 L 255.765625 199.3125 L 248.222656 199.3125 L 248.265625 198.988281 Z M 249.238281 198.433594 L 254.886719 198.433594 L 255.394531 192.742188 L 249.703125 192.742188 Z M 257.707031 191.816406 L 265.253906 191.816406 L 264.605469 199.359375 L 257.058594 199.359375 Z M 258.078125 198.433594 L 263.769531 198.433594 L 264.28125 192.742188 L 258.585938 192.742188 Z M 285.246094 175.199219 L 292.789062 175.199219 L 292.140625 182.746094 L 284.597656 182.746094 Z M 285.570312 181.773438 L 291.261719 181.773438 L 291.773438 176.078125 L 286.078125 176.078125 Z M 273.398438 183.855469 L 274.738281 183.855469 L 274.09375 191.398438 L 266.59375 191.398438 L 267.242188 183.855469 Z M 273.769531 184.78125 L 268.121094 184.78125 L 267.613281 190.472656 L 273.257812 190.472656 Z M 197.171875 114.804688 C 193.421875 114.757812 190 113.460938 187.3125 111.148438 C 186.851562 110.777344 186.433594 110.359375 186.066406 109.941406 C 185.464844 109.296875 184.953125 108.601562 184.492188 107.859375 C 182.6875 105.039062 181.898438 101.660156 182.175781 98.09375 C 182.222656 97.816406 182.222656 97.492188 182.269531 97.214844 C 182.730469 93.835938 184.214844 90.691406 186.386719 88.144531 C 187.5 86.800781 188.796875 85.644531 190.230469 84.671875 C 193.144531 82.636719 196.664062 81.480469 200.320312 81.480469 C 200.734375 81.480469 201.199219 81.480469 201.613281 81.527344 C 202.585938 81.617188 203.558594 81.757812 204.484375 81.988281 C 205.363281 82.21875 206.242188 82.542969 207.078125 82.960938 C 208.789062 83.792969 210.363281 84.90625 211.660156 86.339844 C 212.816406 87.589844 213.742188 89.023438 214.390625 90.597656 C 214.433594 90.738281 214.527344 90.921875 214.574219 91.058594 C 214.621094 91.199219 214.667969 91.382812 214.757812 91.523438 C 215.5 93.605469 215.777344 95.875 215.546875 98.234375 C 214.992188 104.851562 210.546875 110.546875 204.714844 113.183594 C 203.742188 113.597656 202.726562 113.96875 201.707031 114.246094 C 200.734375 114.480469 199.765625 114.664062 198.746094 114.757812 C 198.515625 114.757812 198.328125 114.804688 198.097656 114.804688 C 197.957031 114.804688 197.773438 114.804688 197.636719 114.804688 C 197.589844 114.804688 197.496094 114.804688 197.449219 114.804688 C 197.3125 114.804688 197.21875 114.804688 197.171875 114.804688 Z M 195.96875 113.785156 C 196.386719 113.832031 196.800781 113.832031 197.21875 113.832031 C 197.265625 113.832031 197.355469 113.832031 197.402344 113.832031 C 197.496094 113.832031 197.589844 113.832031 197.679688 113.832031 C 197.820312 113.832031 198.003906 113.832031 198.144531 113.832031 C 198.328125 113.832031 198.515625 113.785156 198.699219 113.785156 C 206.84375 113.136719 213.878906 106.378906 214.574219 98.140625 C 214.757812 95.828125 214.480469 93.558594 213.695312 91.523438 C 213.648438 91.382812 213.554688 91.199219 213.507812 91.058594 C 213.464844 90.921875 213.371094 90.738281 213.324219 90.597656 C 212.722656 89.300781 211.9375 88.050781 210.917969 86.988281 C 208.511719 84.351562 205.226562 82.777344 201.570312 82.453125 C 201.152344 82.40625 200.691406 82.40625 200.273438 82.40625 C 199.71875 82.40625 199.207031 82.453125 198.652344 82.5 C 197.589844 82.589844 196.570312 82.824219 195.550781 83.101562 C 189.164062 84.996094 184.027344 90.597656 183.101562 97.308594 C 183.054688 97.585938 183.011719 97.863281 183.011719 98.140625 C 183.011719 98.140625 183.011719 98.140625 183.011719 98.1875 C 182.964844 98.511719 182.964844 98.789062 182.964844 99.113281 C 182.871094 102.953125 184.121094 106.566406 186.667969 109.339844 C 188.425781 111.285156 190.691406 112.628906 193.238281 113.367188 C 194.164062 113.554688 195.042969 113.738281 195.96875 113.785156 Z M 233.6875 110.265625 L 245.675781 120.355469 L 258.957031 108.277344 L 260.53125 112.164062 C 260.855469 109.480469 262.152344 106.054688 263.449219 103.601562 C 260.855469 104.667969 257.292969 105.59375 254.652344 105.683594 L 258.355469 107.628906 L 245.628906 119.105469 L 233.6875 109.0625 L 208.558594 130.675781 L 209.160156 131.371094 Z M 233.6875 110.265625 " fill-opacity="1" fill-rule="nonzero"/></g></svg>