<svg xmlns="http://www.w3.org/2000/svg" xmlns:xlink="http://www.w3.org/1999/xlink" width="500" zoomAndPan="magnify" viewBox="0 0 375 299.999988" height="400" preserveAspectRatio="xMidYMid meet" version="1.0"><defs><clipPath id="82d1b83258"><path d="M 102.425781 226 L 272.675781 226 L 272.675781 232.046875 L 102.425781 232.046875 Z M 102.425781 226 " clip-rule="nonzero"/></clipPath><clipPath id="e284175935"><path d="M 113 67.796875 L 171 67.796875 L 171 125 L 113 125 Z M 113 67.796875 " clip-rule="nonzero"/></clipPath></defs><rect x="-37.5" width="450" fill="#ffffff" y="-29.999999" height="359.999986" fill-opacity="1"/><rect x="-37.5" width="450" fill="#45bbbc" y="-29.999999" height="359.999986" fill-opacity="1"/><g clip-path="url(#82d1b83258)"><path fill="#ffffff" d="M 269.699219 226.527344 L 105.296875 226.527344 C 103.730469 226.527344 102.460938 227.796875 102.460938 229.363281 C 102.460938 230.929688 103.730469 232.199219 105.296875 232.199219 L 269.699219 232.199219 C 271.261719 232.199219 272.53125 230.929688 272.53125 229.363281 C 272.53125 227.796875 271.261719 226.527344 269.699219 226.527344 Z M 269.699219 226.527344 " fill-opacity="1" fill-rule="nonzero"/></g><path fill="#ffffff" d="M 249.855469 107.480469 L 261.195312 107.480469 L 261.195312 215.191406 L 249.855469 215.191406 Z M 249.855469 107.480469 " fill-opacity="1" fill-rule="nonzero"/><path fill="#ffffff" d="M 221.511719 130.15625 L 232.847656 130.15625 L 232.847656 215.191406 L 221.511719 215.191406 Z M 221.511719 130.15625 " fill-opacity="1" fill-rule="nonzero"/><path fill="#ffffff" d="M 193.164062 149.996094 L 204.503906 149.996094 L 204.503906 215.191406 L 193.164062 215.191406 Z M 193.164062 149.996094 " fill-opacity="1" fill-rule="nonzero"/><path fill="#ffffff" d="M 164.820312 172.671875 L 176.160156 172.671875 L 176.160156 215.191406 L 164.820312 215.191406 Z M 164.820312 172.671875 " fill-opacity="1" fill-rule="nonzero"/><path fill="#ffffff" d="M 136.476562 189.679688 L 147.8125 189.679688 L 147.8125 215.191406 L 136.476562 215.191406 Z M 136.476562 189.679688 " fill-opacity="1" fill-rule="nonzero"/><path fill="#ffffff" d="M 116.363281 178.203125 C 117.117188 178.273438 117.855469 178.050781 118.4375 177.566406 L 228.484375 86.796875 C 229.367188 86.070312 230.605469 85.945312 231.617188 86.480469 C 232.628906 87.019531 233.21875 88.113281 233.109375 89.253906 L 231.976562 101.027344 C 231.828125 102.582031 232.972656 103.96875 234.527344 104.117188 C 236.082031 104.265625 237.472656 103.125 237.621094 101.566406 L 240.058594 76.171875 C 240.132812 75.421875 239.90625 74.683594 239.425781 74.097656 C 238.941406 73.515625 238.261719 73.152344 237.507812 73.082031 L 212.113281 70.644531 C 212.023438 70.636719 211.929688 70.628906 211.839844 70.628906 C 211.183594 70.628906 210.550781 70.855469 210.039062 71.277344 C 209.457031 71.761719 209.09375 72.441406 209.023438 73.195312 C 208.949219 73.949219 209.175781 74.683594 209.65625 75.269531 C 210.136719 75.851562 210.820312 76.214844 211.570312 76.285156 L 223.34375 77.417969 C 224.484375 77.527344 225.445312 78.3125 225.78125 79.410156 C 226.117188 80.503906 225.761719 81.695312 224.875 82.425781 L 114.832031 173.195312 C 114.246094 173.675781 113.882812 174.355469 113.8125 175.109375 C 113.738281 175.863281 113.964844 176.601562 114.449219 177.183594 C 114.929688 177.769531 115.609375 178.128906 116.363281 178.203125 Z M 116.363281 178.203125 " fill-opacity="1" fill-rule="nonzero"/><path fill="#ffffff" d="M 133.640625 84.804688 C 133.640625 85.179688 133.570312 85.539062 133.425781 85.886719 C 133.28125 86.234375 133.078125 86.542969 132.8125 86.808594 C 132.542969 87.074219 132.238281 87.277344 131.890625 87.421875 C 131.542969 87.566406 131.183594 87.636719 130.804688 87.636719 C 130.429688 87.636719 130.070312 87.566406 129.722656 87.421875 C 129.375 87.277344 129.066406 87.074219 128.800781 86.808594 C 128.535156 86.542969 128.332031 86.234375 128.1875 85.886719 C 128.042969 85.539062 127.972656 85.179688 127.972656 84.804688 C 127.972656 84.425781 128.042969 84.066406 128.1875 83.71875 C 128.332031 83.371094 128.535156 83.066406 128.800781 82.796875 C 129.066406 82.53125 129.375 82.328125 129.722656 82.183594 C 130.070312 82.039062 130.429688 81.96875 130.804688 81.96875 C 131.183594 81.96875 131.542969 82.039062 131.890625 82.183594 C 132.238281 82.328125 132.542969 82.53125 132.8125 82.796875 C 133.078125 83.066406 133.28125 83.371094 133.425781 83.71875 C 133.570312 84.066406 133.640625 84.425781 133.640625 84.804688 Z M 133.640625 84.804688 " fill-opacity="1" fill-rule="nonzero"/><path fill="#ffffff" d="M 156.316406 107.480469 C 156.316406 107.855469 156.246094 108.214844 156.101562 108.5625 C 155.957031 108.910156 155.753906 109.21875 155.488281 109.484375 C 155.222656 109.75 154.914062 109.953125 154.566406 110.097656 C 154.21875 110.242188 153.859375 110.3125 153.484375 110.3125 C 153.105469 110.3125 152.746094 110.242188 152.398438 110.097656 C 152.050781 109.953125 151.742188 109.75 151.476562 109.484375 C 151.210938 109.21875 151.007812 108.910156 150.863281 108.5625 C 150.71875 108.214844 150.648438 107.855469 150.648438 107.480469 C 150.648438 107.101562 150.71875 106.742188 150.863281 106.394531 C 151.007812 106.046875 151.210938 105.742188 151.476562 105.476562 C 151.742188 105.210938 152.050781 105.003906 152.398438 104.859375 C 152.746094 104.714844 153.105469 104.644531 153.484375 104.644531 C 153.859375 104.644531 154.21875 104.714844 154.566406 104.859375 C 154.914062 105.003906 155.222656 105.210938 155.488281 105.476562 C 155.753906 105.742188 155.957031 106.046875 156.101562 106.394531 C 156.246094 106.742188 156.316406 107.101562 156.316406 107.480469 Z M 156.316406 107.480469 " fill-opacity="1" fill-rule="nonzero"/><g clip-path="url(#e284175935)"><path fill="#ffffff" d="M 142.144531 124.488281 C 157.773438 124.488281 170.488281 111.769531 170.488281 96.140625 C 170.488281 80.511719 157.773438 67.796875 142.144531 67.796875 C 126.515625 67.796875 113.800781 80.511719 113.800781 96.140625 C 113.800781 111.769531 126.515625 124.488281 142.144531 124.488281 Z M 161.984375 107.480469 C 161.984375 112.167969 158.171875 115.984375 153.484375 115.984375 C 148.792969 115.984375 144.980469 112.167969 144.980469 107.480469 C 144.980469 102.789062 148.792969 98.976562 153.484375 98.976562 C 158.171875 98.976562 161.984375 102.789062 161.984375 107.480469 Z M 152.894531 81.382812 C 154.003906 80.273438 155.796875 80.273438 156.902344 81.382812 C 158.011719 82.488281 158.011719 84.28125 156.902344 85.390625 L 131.394531 110.902344 C 130.839844 111.453125 130.113281 111.730469 129.390625 111.730469 C 128.664062 111.730469 127.9375 111.453125 127.386719 110.902344 C 126.277344 109.792969 126.277344 108 127.386719 106.890625 Z M 130.804688 76.300781 C 135.496094 76.300781 139.308594 80.113281 139.308594 84.804688 C 139.308594 89.492188 135.496094 93.304688 130.804688 93.304688 C 126.117188 93.304688 122.304688 89.492188 122.304688 84.804688 C 122.304688 80.113281 126.117188 76.300781 130.804688 76.300781 Z M 130.804688 76.300781 " fill-opacity="1" fill-rule="nonzero"/></g></svg>