<svg xmlns="http://www.w3.org/2000/svg" xmlns:xlink="http://www.w3.org/1999/xlink" width="500" zoomAndPan="magnify" viewBox="0 0 375 299.999988" height="400" preserveAspectRatio="xMidYMid meet" version="1.0"><defs><clipPath id="ed041196d6"><path d="M 111 171 L 246.878906 171 L 246.878906 190 L 111 190 Z M 111 171 " clip-rule="nonzero"/></clipPath><clipPath id="583cdbbfa5"><path d="M 111 137 L 246.878906 137 L 246.878906 225.046875 L 111 225.046875 Z M 111 137 " clip-rule="nonzero"/></clipPath><clipPath id="0ce92c07e5"><path d="M 96.878906 118.546875 L 147 118.546875 L 147 169 L 96.878906 169 Z M 96.878906 118.546875 " clip-rule="nonzero"/></clipPath></defs><rect x="-37.5" width="450" fill="#ffffff" y="-29.999999" height="359.999986" fill-opacity="1"/><rect x="-37.5" width="450" fill="#45bbbc" y="-29.999999" height="359.999986" fill-opacity="1"/><path fill="#ffffff" d="M 274.546875 121.335938 C 273.664062 119.144531 273.613281 116.710938 274.410156 114.480469 C 277.550781 105.582031 273.214844 95.707031 264.542969 91.996094 C 262.371094 91.058594 260.609375 89.375 259.589844 87.242188 C 255.523438 78.738281 245.46875 74.8125 236.714844 78.320312 C 234.523438 79.207031 232.085938 79.246094 229.855469 78.457031 C 220.960938 75.320312 211.085938 79.648438 207.375 88.320312 C 206.4375 90.5 204.746094 92.257812 202.613281 93.277344 C 194.105469 97.347656 190.1875 107.398438 193.695312 116.15625 C 194.574219 118.347656 194.628906 120.78125 193.828125 123.011719 C 190.691406 131.914062 195.027344 141.785156 203.695312 145.496094 C 205.871094 146.433594 207.628906 148.121094 208.648438 150.253906 C 211.710938 156.652344 218.152344 160.453125 224.882812 160.453125 C 227.101562 160.453125 229.355469 160.039062 231.527344 159.167969 C 233.710938 158.289062 236.144531 158.234375 238.378906 159.027344 L 238.382812 159.03125 C 247.277344 162.167969 257.160156 157.839844 260.867188 149.167969 C 261.804688 146.992188 263.488281 145.234375 265.621094 144.214844 C 274.132812 140.144531 278.050781 130.101562 274.546875 121.335938 Z M 223.859375 131.164062 L 209.597656 131.164062 L 209.597656 106.328125 L 223.828125 106.328125 L 223.828125 110.507812 L 214.617188 110.507812 L 214.617188 116.378906 L 222.425781 116.378906 L 222.425781 120.417969 L 214.617188 120.417969 L 214.617188 127.007812 L 223.859375 127.007812 Z M 249.207031 131.164062 L 244.179688 131.164062 L 244.179688 124.445312 L 244.636719 114.085938 L 239.671875 131.160156 L 236.261719 131.160156 L 231.296875 114.085938 L 231.757812 124.445312 L 231.757812 131.164062 L 226.738281 131.164062 L 226.738281 106.328125 L 233.289062 106.328125 L 237.984375 124.292969 L 242.65625 106.328125 L 249.207031 106.328125 Z M 258.476562 131.164062 L 253.460938 131.164062 L 253.460938 106.328125 L 258.476562 106.328125 Z M 258.476562 131.164062 " fill-opacity="1" fill-rule="nonzero"/><path fill="#d9d9d9" d="M 131.203125 152.910156 C 132.796875 151.316406 132.796875 148.738281 131.203125 147.144531 C 129.613281 145.550781 127.035156 145.550781 125.441406 147.144531 C 123.847656 148.738281 123.847656 151.316406 125.441406 152.910156 C 127.035156 154.503906 129.613281 154.503906 131.203125 152.910156 Z M 131.203125 152.910156 " fill-opacity="1" fill-rule="evenodd"/><path fill="#d9d9d9" d="M 119.339844 136.96875 C 119.339844 137.234375 119.3125 137.5 119.261719 137.761719 C 119.210938 138.027344 119.132812 138.28125 119.03125 138.527344 C 118.925781 138.777344 118.800781 139.011719 118.652344 139.234375 C 118.503906 139.457031 118.335938 139.660156 118.144531 139.851562 C 117.957031 140.039062 117.75 140.207031 117.527344 140.359375 C 117.304688 140.507812 117.070312 140.632812 116.824219 140.734375 C 116.578125 140.835938 116.320312 140.914062 116.058594 140.964844 C 115.796875 141.019531 115.53125 141.042969 115.265625 141.042969 C 114.996094 141.042969 114.730469 141.019531 114.46875 140.964844 C 114.207031 140.914062 113.953125 140.835938 113.703125 140.734375 C 113.457031 140.632812 113.222656 140.507812 113 140.359375 C 112.777344 140.207031 112.570312 140.039062 112.382812 139.851562 C 112.191406 139.660156 112.023438 139.457031 111.875 139.234375 C 111.726562 139.011719 111.601562 138.777344 111.496094 138.527344 C 111.394531 138.28125 111.316406 138.027344 111.265625 137.761719 C 111.214844 137.5 111.1875 137.234375 111.1875 136.96875 C 111.1875 136.699219 111.214844 136.4375 111.265625 136.171875 C 111.316406 135.910156 111.394531 135.65625 111.496094 135.410156 C 111.601562 135.160156 111.726562 134.925781 111.875 134.703125 C 112.023438 134.480469 112.191406 134.277344 112.382812 134.085938 C 112.570312 133.898438 112.777344 133.726562 113 133.578125 C 113.222656 133.429688 113.457031 133.304688 113.703125 133.203125 C 113.953125 133.101562 114.207031 133.023438 114.46875 132.96875 C 114.730469 132.917969 114.996094 132.890625 115.265625 132.890625 C 115.53125 132.890625 115.796875 132.917969 116.058594 132.96875 C 116.320312 133.023438 116.578125 133.101562 116.824219 133.203125 C 117.070312 133.304688 117.304688 133.429688 117.527344 133.578125 C 117.75 133.726562 117.957031 133.898438 118.144531 134.085938 C 118.335938 134.277344 118.503906 134.480469 118.652344 134.703125 C 118.800781 134.925781 118.925781 135.160156 119.03125 135.410156 C 119.132812 135.65625 119.210938 135.910156 119.261719 136.171875 C 119.3125 136.4375 119.339844 136.699219 119.339844 136.96875 Z M 119.339844 136.96875 " fill-opacity="1" fill-rule="nonzero"/><path fill="#d9d9d9" d="M 144.769531 139.601562 C 142.914062 128.589844 133.335938 120.199219 121.792969 120.199219 C 108.925781 120.199219 98.496094 130.628906 98.496094 143.496094 C 98.496094 153.359375 104.625 161.796875 113.285156 165.191406 C 115.921875 166.222656 118.792969 166.796875 121.796875 166.796875 C 134.664062 166.796875 145.09375 156.363281 145.09375 143.496094 C 145.09375 143.492188 145.09375 143.488281 145.09375 143.484375 C 145.089844 142.160156 144.976562 140.863281 144.769531 139.601562 Z M 131.203125 147.144531 C 132.796875 148.738281 132.796875 151.316406 131.203125 152.910156 C 129.613281 154.503906 127.035156 154.503906 125.441406 152.910156 C 123.847656 151.316406 123.847656 148.738281 125.441406 147.144531 C 127.035156 145.550781 129.613281 145.550781 131.203125 147.144531 Z M 118.144531 134.085938 C 119.738281 135.675781 119.738281 138.253906 118.144531 139.847656 C 116.550781 141.441406 113.972656 141.441406 112.378906 139.847656 C 110.785156 138.253906 110.785156 135.675781 112.378906 134.085938 C 113.972656 132.492188 116.554688 132.492188 118.144531 134.085938 Z M 118.144531 134.085938 " fill-opacity="1" fill-rule="evenodd"/><path fill="#ffffff" d="M 245.234375 146.769531 C 245.234375 142.828125 242.007812 139.601562 238.066406 139.601562 L 144.769531 139.601562 C 144.980469 140.863281 145.089844 142.160156 145.089844 143.484375 C 145.089844 143.488281 145.089844 143.488281 145.089844 143.496094 C 145.089844 156.363281 134.660156 166.796875 121.792969 166.796875 C 118.789062 166.796875 115.917969 166.226562 113.285156 165.191406 L 113.285156 172.703125 L 245.230469 172.703125 L 245.230469 146.769531 Z M 229.582031 155.691406 C 230.304688 156.214844 230.210938 157.351562 229.582031 157.984375 L 219.925781 164.933594 C 219.382812 165.324219 218.78125 165.542969 218.160156 165.285156 C 217.542969 165.03125 217.160156 164.457031 217.160156 163.789062 L 217.160156 149.886719 C 217.160156 149.21875 217.542969 148.644531 218.160156 148.386719 C 218.78125 148.128906 219.382812 148.347656 219.925781 148.742188 Z M 229.582031 155.691406 " fill-opacity="1" fill-rule="evenodd"/><path fill="#a6a6a6" d="M 229.582031 155.691406 L 219.925781 148.742188 C 219.382812 148.351562 218.78125 148.132812 218.160156 148.386719 C 217.542969 148.644531 217.160156 149.21875 217.160156 149.886719 L 217.160156 163.789062 C 217.160156 164.457031 217.542969 165.03125 218.160156 165.285156 C 218.78125 165.542969 219.382812 165.328125 219.925781 164.933594 L 229.582031 157.984375 C 230.210938 157.351562 230.304688 156.210938 229.582031 155.691406 Z M 229.582031 155.691406 " fill-opacity="1" fill-rule="evenodd"/><path fill="#fdfdfd" d="M 113.285156 172.703125 L 245.234375 172.703125 L 245.234375 187.996094 L 113.285156 187.996094 Z M 113.285156 172.703125 " fill-opacity="1" fill-rule="evenodd"/><path fill="#ffffff" d="M 245.234375 187.996094 L 113.285156 187.996094 L 113.285156 216.445312 C 113.285156 220.386719 116.511719 223.613281 120.453125 223.613281 L 238.070312 223.613281 C 242.007812 223.613281 245.238281 220.390625 245.238281 216.445312 L 245.238281 187.996094 Z M 245.234375 187.996094 " fill-opacity="1" fill-rule="evenodd"/><path fill="#737373" d="M 124.585938 205.949219 C 123.683594 205.949219 122.953125 205.21875 122.953125 204.320312 L 122.953125 198.613281 C 122.953125 197.710938 123.683594 196.980469 124.585938 196.980469 C 125.484375 196.980469 126.214844 197.710938 126.214844 198.613281 L 126.214844 204.320312 C 126.214844 205.21875 125.484375 205.949219 124.585938 205.949219 Z M 124.585938 205.949219 " fill-opacity="1" fill-rule="nonzero"/><path fill="#737373" d="M 132.578125 205.949219 C 131.675781 205.949219 130.945312 205.21875 130.945312 204.320312 L 130.945312 198.613281 C 130.945312 197.710938 131.675781 196.980469 132.578125 196.980469 C 133.476562 196.980469 134.207031 197.710938 134.207031 198.613281 L 134.207031 204.320312 C 134.207031 205.21875 133.476562 205.949219 132.578125 205.949219 Z M 132.578125 205.949219 " fill-opacity="1" fill-rule="nonzero"/><path fill="#737373" d="M 140.566406 205.949219 C 139.664062 205.949219 138.9375 205.21875 138.9375 204.320312 L 138.9375 198.613281 C 138.9375 197.710938 139.664062 196.980469 140.566406 196.980469 C 141.464844 196.980469 142.195312 197.710938 142.195312 198.613281 L 142.195312 204.320312 C 142.195312 205.21875 141.464844 205.949219 140.566406 205.949219 Z M 140.566406 205.949219 " fill-opacity="1" fill-rule="nonzero"/><path fill="#737373" d="M 148.554688 205.949219 C 147.65625 205.949219 146.925781 205.21875 146.925781 204.320312 L 146.925781 198.613281 C 146.925781 197.710938 147.65625 196.980469 148.554688 196.980469 C 149.457031 196.980469 150.1875 197.710938 150.1875 198.613281 L 150.1875 204.320312 C 150.1875 205.21875 149.457031 205.949219 148.554688 205.949219 Z M 148.554688 205.949219 " fill-opacity="1" fill-rule="nonzero"/><path fill="#737373" d="M 167.273438 205.949219 C 166.375 205.949219 165.644531 205.21875 165.644531 204.320312 L 165.644531 198.613281 C 165.644531 197.710938 166.375 196.980469 167.273438 196.980469 C 168.175781 196.980469 168.90625 197.710938 168.90625 198.613281 L 168.90625 204.320312 C 168.90625 205.21875 168.175781 205.949219 167.273438 205.949219 Z M 167.273438 205.949219 " fill-opacity="1" fill-rule="nonzero"/><path fill="#737373" d="M 175.265625 205.949219 C 174.363281 205.949219 173.632812 205.21875 173.632812 204.320312 L 173.632812 198.613281 C 173.632812 197.710938 174.363281 196.980469 175.265625 196.980469 C 176.164062 196.980469 176.894531 197.710938 176.894531 198.613281 L 176.894531 204.320312 C 176.894531 205.21875 176.164062 205.949219 175.265625 205.949219 Z M 175.265625 205.949219 " fill-opacity="1" fill-rule="nonzero"/><path fill="#737373" d="M 183.253906 205.949219 C 182.351562 205.949219 181.621094 205.21875 181.621094 204.320312 L 181.621094 198.613281 C 181.621094 197.710938 182.351562 196.980469 183.253906 196.980469 C 184.152344 196.980469 184.882812 197.710938 184.882812 198.613281 L 184.882812 204.320312 C 184.882812 205.21875 184.15625 205.949219 183.253906 205.949219 Z M 183.253906 205.949219 " fill-opacity="1" fill-rule="nonzero"/><path fill="#737373" d="M 191.246094 205.949219 C 190.34375 205.949219 189.613281 205.21875 189.613281 204.320312 L 189.613281 198.613281 C 189.613281 197.710938 190.34375 196.980469 191.246094 196.980469 C 192.144531 196.980469 192.875 197.710938 192.875 198.613281 L 192.875 204.320312 C 192.875 205.21875 192.144531 205.949219 191.246094 205.949219 Z M 191.246094 205.949219 " fill-opacity="1" fill-rule="nonzero"/><path fill="#737373" d="M 209.964844 205.949219 C 209.066406 205.949219 208.335938 205.21875 208.335938 204.320312 L 208.335938 198.613281 C 208.335938 197.710938 209.066406 196.980469 209.964844 196.980469 C 210.863281 196.980469 211.59375 197.710938 211.59375 198.613281 L 211.59375 204.320312 C 211.59375 205.21875 210.863281 205.949219 209.964844 205.949219 Z M 209.964844 205.949219 " fill-opacity="1" fill-rule="nonzero"/><path fill="#737373" d="M 217.953125 205.949219 C 217.054688 205.949219 216.324219 205.21875 216.324219 204.320312 L 216.324219 198.613281 C 216.324219 197.710938 217.054688 196.980469 217.953125 196.980469 C 218.855469 196.980469 219.585938 197.710938 219.585938 198.613281 L 219.585938 204.320312 C 219.585938 205.21875 218.855469 205.949219 217.953125 205.949219 Z M 217.953125 205.949219 " fill-opacity="1" fill-rule="nonzero"/><path fill="#737373" d="M 225.941406 205.949219 C 225.042969 205.949219 224.3125 205.21875 224.3125 204.320312 L 224.3125 198.613281 C 224.3125 197.710938 225.042969 196.980469 225.941406 196.980469 C 226.84375 196.980469 227.574219 197.710938 227.574219 198.613281 L 227.574219 204.320312 C 227.574219 205.21875 226.84375 205.949219 225.941406 205.949219 Z M 225.941406 205.949219 " fill-opacity="1" fill-rule="nonzero"/><path fill="#737373" d="M 233.933594 205.949219 C 233.03125 205.949219 232.300781 205.21875 232.300781 204.320312 L 232.300781 198.613281 C 232.300781 197.710938 233.03125 196.980469 233.933594 196.980469 C 234.832031 196.980469 235.5625 197.710938 235.5625 198.613281 L 235.5625 204.320312 C 235.5625 205.21875 234.832031 205.949219 233.933594 205.949219 Z M 233.933594 205.949219 " fill-opacity="1" fill-rule="nonzero"/><path fill="#737373" d="M 149.242188 216.5625 L 124.589844 216.5625 C 123.6875 216.5625 122.957031 215.832031 122.957031 214.933594 C 122.957031 214.035156 123.6875 213.304688 124.589844 213.304688 L 149.242188 213.304688 C 150.140625 213.304688 150.871094 214.035156 150.871094 214.933594 C 150.871094 215.832031 150.140625 216.5625 149.242188 216.5625 Z M 149.242188 216.5625 " fill-opacity="1" fill-rule="nonzero"/><path fill="#737373" d="M 188.050781 216.5625 L 163.394531 216.5625 C 162.496094 216.5625 161.765625 215.832031 161.765625 214.933594 C 161.765625 214.035156 162.496094 213.304688 163.394531 213.304688 L 188.050781 213.304688 C 188.949219 213.304688 189.679688 214.035156 189.679688 214.933594 C 189.679688 215.832031 188.949219 216.5625 188.050781 216.5625 Z M 188.050781 216.5625 " fill-opacity="1" fill-rule="nonzero"/><g clip-path="url(#ed041196d6)"><path fill="#737373" d="M 245.234375 189.628906 L 113.285156 189.628906 C 112.386719 189.628906 111.65625 188.898438 111.65625 187.996094 L 111.65625 172.703125 C 111.65625 171.800781 112.386719 171.070312 113.285156 171.070312 L 245.234375 171.070312 C 246.132812 171.070312 246.863281 171.800781 246.863281 172.703125 L 246.863281 187.996094 C 246.863281 188.898438 246.132812 189.628906 245.234375 189.628906 Z M 114.917969 186.367188 L 243.601562 186.367188 L 243.601562 174.332031 L 114.917969 174.332031 Z M 114.917969 186.367188 " fill-opacity="1" fill-rule="nonzero"/></g><path fill="#737373" d="M 218.714844 167.03125 C 218.253906 167.03125 217.855469 166.925781 217.535156 166.792969 C 216.316406 166.285156 215.527344 165.105469 215.527344 163.785156 L 215.527344 149.882812 C 215.527344 148.5625 216.316406 147.382812 217.535156 146.875 C 218.289062 146.5625 219.484375 146.40625 220.882812 147.410156 L 230.535156 154.359375 C 231.226562 154.855469 231.644531 155.609375 231.710938 156.484375 C 231.789062 157.449219 231.425781 158.4375 230.734375 159.128906 C 230.675781 159.191406 230.605469 159.246094 230.535156 159.296875 L 220.882812 166.25 C 220.074219 166.835938 219.335938 167.03125 218.714844 167.03125 Z M 218.78125 149.945312 L 218.785156 163.726562 C 218.832031 163.703125 218.894531 163.667969 218.972656 163.613281 L 228.386719 156.835938 L 218.976562 150.058594 C 218.890625 150 218.828125 149.964844 218.78125 149.945312 Z M 229.582031 157.984375 Z M 229.582031 157.984375 " fill-opacity="1" fill-rule="nonzero"/><g clip-path="url(#583cdbbfa5)"><path fill="#737373" d="M 238.066406 225.238281 L 120.449219 225.238281 C 115.601562 225.238281 111.652344 221.292969 111.652344 216.441406 L 111.652344 165.191406 C 111.652344 164.652344 111.917969 164.148438 112.367188 163.84375 C 112.8125 163.542969 113.378906 163.476562 113.882812 163.671875 C 116.402344 164.660156 119.0625 165.164062 121.792969 165.164062 C 133.738281 165.164062 143.460938 155.441406 143.460938 143.496094 C 143.460938 142.289062 143.359375 141.066406 143.15625 139.871094 C 143.078125 139.402344 143.210938 138.914062 143.519531 138.546875 C 143.832031 138.179688 144.285156 137.96875 144.769531 137.96875 L 238.070312 137.96875 C 242.921875 137.96875 246.867188 141.917969 246.867188 146.769531 L 246.867188 216.445312 C 246.863281 221.292969 242.917969 225.238281 238.066406 225.238281 Z M 114.917969 167.464844 L 114.917969 216.441406 C 114.917969 219.496094 117.402344 221.980469 120.453125 221.980469 L 238.070312 221.980469 C 241.125 221.980469 243.605469 219.496094 243.605469 216.441406 L 243.605469 146.769531 C 243.605469 143.714844 241.125 141.230469 238.070312 141.230469 L 146.617188 141.230469 C 146.6875 141.984375 146.722656 142.742188 146.722656 143.496094 C 146.722656 157.242188 135.539062 168.425781 121.792969 168.425781 C 119.445312 168.425781 117.140625 168.101562 114.917969 167.464844 Z M 114.917969 167.464844 " fill-opacity="1" fill-rule="nonzero"/></g><g clip-path="url(#0ce92c07e5)"><path fill="#737373" d="M 121.792969 168.425781 C 108.046875 168.425781 96.863281 157.242188 96.863281 143.496094 C 96.863281 129.75 108.046875 118.566406 121.792969 118.566406 C 135.539062 118.566406 146.722656 129.75 146.722656 143.496094 C 146.722656 157.242188 135.539062 168.425781 121.792969 168.425781 Z M 121.792969 121.828125 C 109.847656 121.828125 100.125 131.550781 100.125 143.496094 C 100.125 155.441406 109.847656 165.164062 121.792969 165.164062 C 133.738281 165.164062 143.460938 155.441406 143.460938 143.496094 C 143.460938 131.546875 133.742188 121.828125 121.792969 121.828125 Z M 121.792969 121.828125 " fill-opacity="1" fill-rule="nonzero"/></g><path fill="#737373" d="M 115.082031 151.835938 C 114.667969 151.835938 114.25 151.675781 113.933594 151.355469 C 113.296875 150.722656 113.296875 149.6875 113.933594 149.050781 L 127.351562 135.628906 C 127.988281 134.992188 129.019531 134.992188 129.660156 135.628906 C 130.292969 136.265625 130.292969 137.296875 129.660156 137.9375 L 116.238281 151.355469 C 115.917969 151.679688 115.5 151.835938 115.082031 151.835938 Z M 115.082031 151.835938 " fill-opacity="1" fill-rule="nonzero"/><path fill="#737373" d="M 115.265625 142.671875 C 113.804688 142.671875 112.34375 142.113281 111.230469 141.003906 C 109.003906 138.777344 109.003906 135.15625 111.230469 132.933594 C 113.453125 130.707031 117.074219 130.707031 119.300781 132.933594 C 121.523438 135.15625 121.523438 138.777344 119.300781 141.003906 C 118.183594 142.113281 116.722656 142.671875 115.265625 142.671875 Z M 115.265625 134.523438 C 114.640625 134.523438 114.011719 134.761719 113.535156 135.238281 C 113.074219 135.703125 112.816406 136.316406 112.816406 136.96875 C 112.816406 137.621094 113.074219 138.234375 113.535156 138.699219 C 114.488281 139.652344 116.042969 139.652344 116.992188 138.699219 C 117.453125 138.234375 117.710938 137.621094 117.710938 136.96875 C 117.710938 136.316406 117.453125 135.703125 116.992188 135.238281 C 116.515625 134.761719 115.890625 134.523438 115.265625 134.523438 Z M 115.265625 134.523438 " fill-opacity="1" fill-rule="nonzero"/><path fill="#737373" d="M 128.324219 155.730469 C 126.863281 155.730469 125.402344 155.175781 124.289062 154.0625 C 122.0625 151.839844 122.0625 148.21875 124.289062 145.992188 C 126.515625 143.769531 130.136719 143.769531 132.359375 145.992188 C 134.585938 148.21875 134.585938 151.839844 132.359375 154.0625 C 131.246094 155.175781 129.785156 155.730469 128.324219 155.730469 Z M 128.324219 147.582031 C 127.699219 147.582031 127.070312 147.820312 126.59375 148.300781 C 125.640625 149.253906 125.640625 150.808594 126.59375 151.757812 C 127.550781 152.710938 129.097656 152.710938 130.054688 151.757812 C 131.007812 150.804688 131.007812 149.25 130.054688 148.300781 C 129.574219 147.820312 128.949219 147.582031 128.324219 147.582031 Z M 128.324219 147.582031 " fill-opacity="1" fill-rule="nonzero"/></svg>