<svg xmlns="http://www.w3.org/2000/svg" xmlns:xlink="http://www.w3.org/1999/xlink" width="500" zoomAndPan="magnify" viewBox="0 0 375 299.999988" height="400" preserveAspectRatio="xMidYMid meet" version="1.0"><defs><clipPath id="331245c56b"><path d="M 151.222656 94 L 293 94 L 293 172 L 151.222656 172 Z M 151.222656 94 " clip-rule="nonzero"/></clipPath><clipPath id="67df1847a0"><path d="M 272.503906 90 L 295.972656 90 L 295.972656 113.359375 L 272.503906 113.359375 Z M 272.503906 90 " clip-rule="nonzero"/></clipPath><clipPath id="e5db6ad114"><path d="M 160.066406 172.347656 L 166.796875 172.347656 L 166.796875 210 L 160.066406 210 Z M 160.066406 172.347656 " clip-rule="nonzero"/></clipPath><clipPath id="6539ecccf1"><path d="M 184 159 L 190.550781 159 L 190.550781 210 L 184 210 Z M 184 159 " clip-rule="nonzero"/></clipPath><clipPath id="ceab6a5ced"><path d="M 207.574219 146.613281 L 214 146.613281 L 214 210 L 207.574219 210 Z M 207.574219 146.613281 " clip-rule="nonzero"/></clipPath><clipPath id="44269e46a7"><path d="M 231.328125 165.617188 L 238 165.617188 L 238 210 L 231.328125 210 Z M 231.328125 165.617188 " clip-rule="nonzero"/></clipPath><clipPath id="132a617609"><path d="M 255.085938 148.59375 L 261.816406 148.59375 L 261.816406 210 L 255.085938 210 Z M 255.085938 148.59375 " clip-rule="nonzero"/></clipPath><clipPath id="4b6cf43871"><path d="M 275.671875 121.671875 L 282 121.671875 L 282 210 L 275.671875 210 Z M 275.671875 121.671875 " clip-rule="nonzero"/></clipPath><clipPath id="aaed5ccf38"><path d="M 78.761719 152.300781 L 129 152.300781 L 129 201 L 78.761719 201 Z M 78.761719 152.300781 " clip-rule="nonzero"/></clipPath><clipPath id="9bb50cd71c"><path d="M 100 161 L 151.511719 161 L 151.511719 210 L 100 210 Z M 100 161 " clip-rule="nonzero"/></clipPath></defs><rect x="-37.5" width="450" fill="#ffffff" y="-29.999999" height="359.999986" fill-opacity="1"/><rect x="-37.5" width="450" fill="#45bbbc" y="-29.999999" height="359.999986" fill-opacity="1"/><g clip-path="url(#331245c56b)"><path fill="#ffffff" d="M 151.355469 166.820312 L 205.703125 126.0625 L 207.8125 124.480469 L 231.367188 148.035156 L 288.664062 94.011719 L 292.820312 98.429688 L 233.378906 154.476562 L 231.230469 156.5 L 229.152344 154.414062 L 207.226562 132.492188 L 154.992188 171.667969 L 151.355469 166.820312 " fill-opacity="1" fill-rule="nonzero"/></g><g clip-path="url(#67df1847a0)"><path fill="#ffffff" d="M 272.660156 90 L 296.082031 90 L 296.082031 113.171875 L 290 113.171875 L 290 96.082031 L 272.660156 96.082031 L 272.660156 90 " fill-opacity="1" fill-rule="nonzero"/></g><g clip-path="url(#e5db6ad114)"><path fill="#ffffff" d="M 166.402344 172.640625 L 166.402344 210.003906 L 160.320312 210.003906 L 160.320312 172.640625 L 166.402344 172.640625 " fill-opacity="1" fill-rule="nonzero"/></g><g clip-path="url(#6539ecccf1)"><path fill="#ffffff" d="M 190.179688 159.054688 L 190.179688 210.003906 L 184.097656 210.003906 L 184.097656 159.054688 L 190.179688 159.054688 " fill-opacity="1" fill-rule="nonzero"/></g><g clip-path="url(#ceab6a5ced)"><path fill="#ffffff" d="M 213.957031 146.65625 L 213.957031 210.003906 L 207.875 210.003906 L 207.875 146.65625 L 213.957031 146.65625 " fill-opacity="1" fill-rule="nonzero"/></g><g clip-path="url(#44269e46a7)"><path fill="#ffffff" d="M 237.734375 165.847656 L 237.734375 210.003906 L 231.652344 210.003906 L 231.652344 165.847656 L 237.734375 165.847656 " fill-opacity="1" fill-rule="nonzero"/></g><g clip-path="url(#132a617609)"><path fill="#ffffff" d="M 261.507812 148.863281 L 261.507812 210.003906 L 255.425781 210.003906 L 255.425781 148.863281 L 261.507812 148.863281 " fill-opacity="1" fill-rule="nonzero"/></g><g clip-path="url(#4b6cf43871)"><path fill="#ffffff" d="M 281.886719 121.691406 L 281.886719 210.003906 L 275.804688 210.003906 L 275.804688 121.691406 L 281.886719 121.691406 " fill-opacity="1" fill-rule="nonzero"/></g><g clip-path="url(#aaed5ccf38)"><path fill="#ffffff" d="M 93.492188 181.140625 C 93.492188 175.429688 95.71875 170.058594 99.757812 166.015625 C 103.796875 161.976562 109.167969 159.753906 114.882812 159.753906 C 117.816406 159.753906 120.660156 160.339844 123.28125 161.460938 L 128.828125 155.910156 C 124.609375 153.570312 119.839844 152.324219 114.882812 152.324219 C 107.183594 152.324219 99.949219 155.320312 94.503906 160.765625 C 89.0625 166.207031 86.066406 173.445312 86.066406 181.140625 L 78.757812 181.140625 L 89.96875 200.558594 L 101.179688 181.140625 Z M 93.492188 181.140625 " fill-opacity="1" fill-rule="nonzero"/></g><g clip-path="url(#9bb50cd71c)"><path fill="#ffffff" d="M 140.003906 161.722656 L 128.792969 181.140625 L 136.269531 181.140625 C 136.269531 186.855469 134.046875 192.226562 130.007812 196.265625 C 125.964844 200.304688 120.59375 202.53125 114.882812 202.53125 C 111.949219 202.53125 109.105469 201.941406 106.484375 200.824219 L 100.9375 206.371094 C 105.15625 208.710938 109.921875 209.957031 114.882812 209.957031 C 122.578125 209.957031 129.816406 206.960938 135.257812 201.519531 C 140.703125 196.074219 143.699219 188.839844 143.699219 181.140625 L 151.214844 181.140625 Z M 140.003906 161.722656 " fill-opacity="1" fill-rule="nonzero"/></g></svg>