<svg xmlns="http://www.w3.org/2000/svg" xmlns:xlink="http://www.w3.org/1999/xlink" width="500" zoomAndPan="magnify" viewBox="0 0 375 299.999988" height="400" preserveAspectRatio="xMidYMid meet" version="1.0"><defs><clipPath id="3c0f1fef9a"><path d="M 143 93.363281 L 178 93.363281 L 178 131 L 143 131 Z M 143 93.363281 " clip-rule="nonzero"/></clipPath><clipPath id="e3d7c5231e"><path d="M 115.003906 143 L 186 143 L 186 206.613281 L 115.003906 206.613281 Z M 115.003906 143 " clip-rule="nonzero"/></clipPath><clipPath id="2375a3a7a3"><path d="M 190 156 L 259.753906 156 L 259.753906 206.613281 L 190 206.613281 Z M 190 156 " clip-rule="nonzero"/></clipPath></defs><rect x="-37.5" width="450" fill="#ffffff" y="-29.999999" height="359.999986" fill-opacity="1"/><rect x="-37.5" width="450" fill="#45bbbc" y="-29.999999" height="359.999986" fill-opacity="1"/><path fill="#ffffff" d="M 178.425781 145.09375 L 214.742188 94.074219 L 200.140625 94.074219 L 166.941406 140.714844 C 173.300781 141.730469 176.679688 143.28125 178.425781 145.09375 Z M 178.425781 145.09375 " fill-opacity="1" fill-rule="nonzero"/><g clip-path="url(#3c0f1fef9a)"><path fill="#ffffff" d="M 160.71875 130.96875 C 171.207031 130.96875 177.851562 123.800781 177.851562 112.351562 C 177.851562 100.984375 171.207031 93.816406 160.71875 93.816406 C 150.222656 93.816406 143.589844 100.984375 143.589844 112.351562 C 143.589844 123.800781 150.222656 130.96875 160.71875 130.96875 Z M 160.71875 102.300781 C 165.257812 102.300781 167.972656 106.054688 167.972656 112.351562 C 167.972656 118.644531 165.257812 122.488281 160.71875 122.488281 C 156.171875 122.488281 153.457031 118.640625 153.457031 112.351562 C 153.457031 106.054688 156.171875 102.300781 160.71875 102.300781 Z M 160.71875 102.300781 " fill-opacity="1" fill-rule="nonzero"/></g><path fill="#ffffff" d="M 203.363281 154.207031 C 207.667969 153.554688 213.28125 153.148438 220.585938 153.042969 C 225.292969 149.980469 228.027344 144.421875 228.027344 137.089844 C 228.027344 125.722656 221.386719 118.554688 210.898438 118.554688 C 200.414062 118.554688 193.765625 125.722656 193.765625 137.089844 C 193.761719 145.472656 197.335938 151.546875 203.363281 154.207031 Z M 210.894531 127.039062 C 215.441406 127.039062 218.152344 130.792969 218.152344 137.089844 C 218.152344 143.382812 215.441406 147.230469 210.894531 147.230469 C 206.347656 147.230469 203.632812 143.378906 203.632812 137.089844 C 203.640625 130.792969 206.347656 127.039062 210.894531 127.039062 Z M 210.894531 127.039062 " fill-opacity="1" fill-rule="nonzero"/><g clip-path="url(#e3d7c5231e)"><path fill="#ffffff" d="M 176.128906 158.308594 C 176.140625 158.214844 176.195312 158.121094 176.195312 158.023438 L 176.195312 149.570312 C 176.195312 144.179688 157.03125 143.375 145.601562 143.375 C 134.167969 143.375 115.003906 144.179688 115.003906 149.574219 L 115.003906 158.027344 C 115.003906 160.457031 118.914062 161.945312 124.246094 162.855469 C 124.234375 162.953125 124.179688 163.042969 124.179688 163.144531 L 124.179688 171.59375 C 124.179688 172.539062 124.800781 173.339844 125.832031 174.019531 C 123.019531 174.917969 121.21875 176.136719 121.21875 177.78125 L 121.21875 186.230469 C 121.21875 187.5625 122.394531 188.609375 124.328125 189.4375 C 123.617188 190.039062 123.1875 190.703125 123.1875 191.476562 L 123.1875 199.929688 C 123.1875 205.316406 142.351562 206.121094 153.777344 206.121094 C 165.203125 206.121094 184.375 205.316406 184.375 199.929688 L 184.375 191.476562 C 184.375 190.144531 183.199219 189.097656 181.265625 188.269531 C 181.972656 187.671875 182.402344 187.007812 182.402344 186.230469 L 182.402344 177.78125 C 182.402344 176.835938 181.789062 176.039062 180.753906 175.351562 C 183.5625 174.457031 185.371094 173.242188 185.371094 171.59375 L 185.371094 163.144531 C 185.371094 160.71875 181.460938 159.222656 176.128906 158.308594 Z M 145.601562 147.3125 C 158.722656 147.3125 167.152344 148.539062 170.714844 149.574219 C 167.152344 150.609375 158.726562 151.835938 145.601562 151.835938 C 132.472656 151.835938 124.046875 150.605469 120.484375 149.574219 C 124.046875 148.535156 132.472656 147.3125 145.601562 147.3125 Z M 145.601562 164.214844 C 153.605469 164.214844 165.394531 163.8125 171.746094 161.726562 C 175.484375 162.144531 178.238281 162.664062 179.894531 163.144531 C 176.332031 164.179688 167.90625 165.402344 154.773438 165.402344 C 144.382812 165.402344 136.984375 164.632812 132.566406 163.800781 C 137.105469 164.125 141.78125 164.214844 145.601562 164.214844 Z M 178.898438 191.488281 C 175.339844 192.523438 166.910156 193.75 153.78125 193.75 C 140.65625 193.75 132.234375 192.519531 128.667969 191.488281 C 129.144531 191.351562 129.722656 191.203125 130.375 191.0625 C 136.878906 192.183594 145.519531 192.433594 151.816406 192.433594 C 158.769531 192.433594 168.585938 192.128906 175.214844 190.675781 C 176.753906 190.945312 177.984375 191.21875 178.898438 191.488281 Z M 176.929688 177.785156 C 173.371094 178.824219 164.941406 180.046875 151.816406 180.046875 C 138.691406 180.046875 130.261719 178.820312 126.703125 177.785156 C 128.199219 177.347656 130.59375 176.890625 133.785156 176.496094 C 140.226562 177.550781 148.613281 177.789062 154.769531 177.789062 C 160.015625 177.789062 166.890625 177.613281 172.796875 176.910156 C 174.539062 177.199219 175.9375 177.5 176.929688 177.785156 Z M 176.929688 177.785156 " fill-opacity="1" fill-rule="nonzero"/></g><g clip-path="url(#2375a3a7a3)"><path fill="#ffffff" d="M 253.703125 173.5625 C 254.355469 172.988281 254.742188 172.339844 254.742188 171.597656 L 254.742188 163.148438 C 254.742188 157.761719 235.570312 156.953125 224.144531 156.953125 C 212.71875 156.953125 193.554688 157.761719 193.554688 163.148438 L 193.554688 171.597656 C 193.554688 173.554688 196.085938 174.898438 199.835938 175.824219 C 199.179688 176.40625 198.800781 177.050781 198.800781 177.789062 L 198.800781 186.242188 C 198.800781 186.410156 198.871094 186.558594 198.90625 186.710938 C 193.777344 187.632812 190.054688 189.113281 190.054688 191.488281 L 190.054688 199.9375 C 190.054688 205.324219 209.226562 206.128906 220.652344 206.128906 C 232.078125 206.128906 251.242188 205.324219 251.242188 199.9375 L 251.242188 191.488281 C 251.242188 191.320312 251.171875 191.175781 251.140625 191.015625 C 256.273438 190.09375 259.988281 188.613281 259.988281 186.234375 L 259.988281 177.785156 C 259.988281 175.832031 257.457031 174.492188 253.703125 173.5625 Z M 224.148438 160.886719 C 237.269531 160.886719 245.703125 162.109375 249.265625 163.148438 C 245.703125 164.183594 237.277344 165.410156 224.148438 165.410156 C 211.023438 165.410156 202.601562 164.179688 199.035156 163.148438 C 202.601562 162.105469 211.023438 160.886719 224.148438 160.886719 Z M 220.652344 193.75 C 207.53125 193.75 199.097656 192.519531 195.539062 191.488281 C 197.183594 191.011719 199.914062 190.492188 203.617188 190.070312 C 210.050781 192.054688 221.542969 192.429688 229.390625 192.429688 C 233.691406 192.429688 239.09375 192.316406 244.152344 191.886719 C 239.960938 192.816406 232.097656 193.75 220.652344 193.75 Z M 229.398438 180.046875 C 216.277344 180.046875 207.839844 178.820312 204.28125 177.785156 C 205.089844 177.550781 206.183594 177.304688 207.503906 177.066406 C 213.078125 177.640625 219.304688 177.789062 224.148438 177.789062 C 230.617188 177.789062 239.550781 177.53125 246.101562 176.335938 C 249.980469 176.761719 252.8125 177.292969 254.511719 177.785156 C 250.945312 178.824219 242.523438 180.046875 229.398438 180.046875 Z M 229.398438 180.046875 " fill-opacity="1" fill-rule="nonzero"/></g></svg>