<svg xmlns="http://www.w3.org/2000/svg" xmlns:xlink="http://www.w3.org/1999/xlink" width="500" zoomAndPan="magnify" viewBox="0 0 375 299.999988" height="400" preserveAspectRatio="xMidYMid meet" version="1.0"><defs><clipPath id="978a1f4f97"><path d="M 97.132812 238 L 139 238 L 139 244.46875 L 97.132812 244.46875 Z M 97.132812 238 " clip-rule="nonzero"/></clipPath><clipPath id="0d60e59628"><path d="M 97.132812 227 L 139 227 L 139 234 L 97.132812 234 Z M 97.132812 227 " clip-rule="nonzero"/></clipPath><clipPath id="076c2c8a70"><path d="M 97.132812 216 L 139 216 L 139 222 L 97.132812 222 Z M 97.132812 216 " clip-rule="nonzero"/></clipPath><clipPath id="39733e2abe"><path d="M 143 238 L 185 238 L 185 244.46875 L 143 244.46875 Z M 143 238 " clip-rule="nonzero"/></clipPath><clipPath id="4a9ee67305"><path d="M 190 238 L 232 238 L 232 244.46875 L 190 244.46875 Z M 190 238 " clip-rule="nonzero"/></clipPath><clipPath id="eeff96bcfb"><path d="M 236 238 L 277.882812 238 L 277.882812 244.46875 L 236 244.46875 Z M 236 238 " clip-rule="nonzero"/></clipPath><clipPath id="6f69080044"><path d="M 236 227 L 277.882812 227 L 277.882812 234 L 236 234 Z M 236 227 " clip-rule="nonzero"/></clipPath><clipPath id="a88751c46b"><path d="M 236 216 L 277.882812 216 L 277.882812 222 L 236 222 Z M 236 216 " clip-rule="nonzero"/></clipPath><clipPath id="be0dff12e9"><path d="M 236 204 L 277.882812 204 L 277.882812 211 L 236 211 Z M 236 204 " clip-rule="nonzero"/></clipPath><clipPath id="6d6d9a8891"><path d="M 236 193 L 277.882812 193 L 277.882812 200 L 236 200 Z M 236 193 " clip-rule="nonzero"/></clipPath><clipPath id="d4d8752941"><path d="M 236 182 L 277.882812 182 L 277.882812 189 L 236 189 Z M 236 182 " clip-rule="nonzero"/></clipPath><clipPath id="667d736e23"><path d="M 236 171 L 277.882812 171 L 277.882812 177 L 236 177 Z M 236 171 " clip-rule="nonzero"/></clipPath><clipPath id="09e4503465"><path d="M 236 159 L 277.882812 159 L 277.882812 166 L 236 166 Z M 236 159 " clip-rule="nonzero"/></clipPath><clipPath id="11922ba224"><path d="M 236 148 L 277.882812 148 L 277.882812 155 L 236 155 Z M 236 148 " clip-rule="nonzero"/></clipPath><clipPath id="32b2ee8e6a"><path d="M 236 137 L 277.882812 137 L 277.882812 144 L 236 144 Z M 236 137 " clip-rule="nonzero"/></clipPath><clipPath id="f0812cee65"><path d="M 236 126 L 277.882812 126 L 277.882812 132 L 236 132 Z M 236 126 " clip-rule="nonzero"/></clipPath><clipPath id="5cafbd959e"><path d="M 236 114 L 277.882812 114 L 277.882812 121 L 236 121 Z M 236 114 " clip-rule="nonzero"/></clipPath><clipPath id="40cdc91ef7"><path d="M 112 89.21875 L 265 89.21875 L 265 211 L 112 211 Z M 112 89.21875 " clip-rule="nonzero"/></clipPath><clipPath id="1b5de5ed83"><path d="M 246.746094 55.578125 L 270.746094 55.578125 L 270.746094 89.328125 L 246.746094 89.328125 Z M 246.746094 55.578125 " clip-rule="nonzero"/></clipPath></defs><rect x="-37.5" width="450" fill="#ffffff" y="-29.999999" height="359.999986" fill-opacity="1"/><rect x="-37.5" width="450" fill="#45bbbc" y="-29.999999" height="359.999986" fill-opacity="1"/><g clip-path="url(#978a1f4f97)"><path fill="#ffffff" d="M 135.386719 238.789062 L 100.175781 238.789062 C 98.621094 238.789062 97.359375 240.050781 97.359375 241.605469 C 97.359375 243.160156 98.621094 244.421875 100.175781 244.421875 L 135.386719 244.421875 C 136.941406 244.421875 138.203125 243.160156 138.203125 241.605469 C 138.203125 240.050781 136.941406 238.789062 135.386719 238.789062 Z M 135.386719 238.789062 " fill-opacity="1" fill-rule="nonzero"/></g><g clip-path="url(#0d60e59628)"><path fill="#ffffff" d="M 135.386719 227.519531 L 100.175781 227.519531 C 98.621094 227.519531 97.359375 228.78125 97.359375 230.335938 C 97.359375 231.894531 98.621094 233.15625 100.175781 233.15625 L 135.386719 233.15625 C 136.941406 233.15625 138.203125 231.894531 138.203125 230.335938 C 138.203125 228.78125 136.941406 227.519531 135.386719 227.519531 Z M 135.386719 227.519531 " fill-opacity="1" fill-rule="nonzero"/></g><g clip-path="url(#076c2c8a70)"><path fill="#ffffff" d="M 135.386719 216.253906 L 100.175781 216.253906 C 98.621094 216.253906 97.359375 217.515625 97.359375 219.070312 C 97.359375 220.625 98.621094 221.886719 100.175781 221.886719 L 135.386719 221.886719 C 136.941406 221.886719 138.203125 220.625 138.203125 219.070312 C 138.203125 217.515625 136.941406 216.253906 135.386719 216.253906 Z M 135.386719 216.253906 " fill-opacity="1" fill-rule="nonzero"/></g><g clip-path="url(#39733e2abe)"><path fill="#ffffff" d="M 181.863281 238.789062 L 146.652344 238.789062 C 145.097656 238.789062 143.835938 240.050781 143.835938 241.605469 C 143.835938 243.160156 145.097656 244.421875 146.652344 244.421875 L 181.863281 244.421875 C 183.417969 244.421875 184.679688 243.160156 184.679688 241.605469 C 184.679688 240.050781 183.417969 238.789062 181.863281 238.789062 Z M 181.863281 238.789062 " fill-opacity="1" fill-rule="nonzero"/></g><path fill="#ffffff" d="M 181.863281 227.519531 L 146.652344 227.519531 C 145.097656 227.519531 143.835938 228.78125 143.835938 230.335938 C 143.835938 231.894531 145.097656 233.15625 146.652344 233.15625 L 181.863281 233.15625 C 183.417969 233.15625 184.679688 231.894531 184.679688 230.335938 C 184.679688 228.78125 183.417969 227.519531 181.863281 227.519531 Z M 181.863281 227.519531 " fill-opacity="1" fill-rule="nonzero"/><path fill="#ffffff" d="M 181.863281 216.253906 L 146.652344 216.253906 C 145.097656 216.253906 143.835938 217.515625 143.835938 219.070312 C 143.835938 220.625 145.097656 221.886719 146.652344 221.886719 L 181.863281 221.886719 C 183.417969 221.886719 184.679688 220.625 184.679688 219.070312 C 184.679688 217.515625 183.417969 216.253906 181.863281 216.253906 Z M 181.863281 216.253906 " fill-opacity="1" fill-rule="nonzero"/><path fill="#ffffff" d="M 181.863281 204.988281 L 146.652344 204.988281 C 145.097656 204.988281 143.835938 206.25 143.835938 207.804688 C 143.835938 209.359375 145.097656 210.621094 146.652344 210.621094 L 181.863281 210.621094 C 183.417969 210.621094 184.679688 209.359375 184.679688 207.804688 C 184.679688 206.25 183.417969 204.988281 181.863281 204.988281 Z M 181.863281 204.988281 " fill-opacity="1" fill-rule="nonzero"/><path fill="#ffffff" d="M 181.863281 193.71875 L 146.652344 193.71875 C 145.097656 193.71875 143.835938 194.980469 143.835938 196.535156 C 143.835938 198.09375 145.097656 199.351562 146.652344 199.351562 L 181.863281 199.351562 C 183.417969 199.351562 184.679688 198.09375 184.679688 196.535156 C 184.679688 194.980469 183.417969 193.71875 181.863281 193.71875 Z M 181.863281 193.71875 " fill-opacity="1" fill-rule="nonzero"/><path fill="#ffffff" d="M 181.863281 182.453125 L 146.652344 182.453125 C 145.097656 182.453125 143.835938 183.714844 143.835938 185.269531 C 143.835938 186.824219 145.097656 188.085938 146.652344 188.085938 L 181.863281 188.085938 C 183.417969 188.085938 184.679688 186.824219 184.679688 185.269531 C 184.679688 183.714844 183.417969 182.453125 181.863281 182.453125 Z M 181.863281 182.453125 " fill-opacity="1" fill-rule="nonzero"/><g clip-path="url(#4a9ee67305)"><path fill="#ffffff" d="M 228.339844 238.789062 L 193.128906 238.789062 C 191.574219 238.789062 190.3125 240.050781 190.3125 241.605469 C 190.3125 243.160156 191.574219 244.421875 193.128906 244.421875 L 228.339844 244.421875 C 229.894531 244.421875 231.15625 243.160156 231.15625 241.605469 C 231.15625 240.050781 229.894531 238.789062 228.339844 238.789062 Z M 228.339844 238.789062 " fill-opacity="1" fill-rule="nonzero"/></g><path fill="#ffffff" d="M 228.339844 227.519531 L 193.128906 227.519531 C 191.574219 227.519531 190.3125 228.78125 190.3125 230.335938 C 190.3125 231.894531 191.574219 233.15625 193.128906 233.15625 L 228.339844 233.15625 C 229.894531 233.15625 231.15625 231.894531 231.15625 230.335938 C 231.15625 228.78125 229.894531 227.519531 228.339844 227.519531 Z M 228.339844 227.519531 " fill-opacity="1" fill-rule="nonzero"/><path fill="#ffffff" d="M 228.339844 216.253906 L 193.128906 216.253906 C 191.574219 216.253906 190.3125 217.515625 190.3125 219.070312 C 190.3125 220.625 191.574219 221.886719 193.128906 221.886719 L 228.339844 221.886719 C 229.894531 221.886719 231.15625 220.625 231.15625 219.070312 C 231.15625 217.515625 229.894531 216.253906 228.339844 216.253906 Z M 228.339844 216.253906 " fill-opacity="1" fill-rule="nonzero"/><path fill="#ffffff" d="M 228.339844 204.988281 L 193.128906 204.988281 C 191.574219 204.988281 190.3125 206.25 190.3125 207.804688 C 190.3125 209.359375 191.574219 210.621094 193.128906 210.621094 L 228.339844 210.621094 C 229.894531 210.621094 231.15625 209.359375 231.15625 207.804688 C 231.15625 206.25 229.894531 204.988281 228.339844 204.988281 Z M 228.339844 204.988281 " fill-opacity="1" fill-rule="nonzero"/><path fill="#ffffff" d="M 228.339844 193.71875 L 193.128906 193.71875 C 191.574219 193.71875 190.3125 194.980469 190.3125 196.535156 C 190.3125 198.09375 191.574219 199.351562 193.128906 199.351562 L 228.339844 199.351562 C 229.894531 199.351562 231.15625 198.09375 231.15625 196.535156 C 231.15625 194.980469 229.894531 193.71875 228.339844 193.71875 Z M 228.339844 193.71875 " fill-opacity="1" fill-rule="nonzero"/><path fill="#ffffff" d="M 228.339844 182.453125 L 193.128906 182.453125 C 191.574219 182.453125 190.3125 183.714844 190.3125 185.269531 C 190.3125 186.824219 191.574219 188.085938 193.128906 188.085938 L 228.339844 188.085938 C 229.894531 188.085938 231.15625 186.824219 231.15625 185.269531 C 231.15625 183.714844 229.894531 182.453125 228.339844 182.453125 Z M 228.339844 182.453125 " fill-opacity="1" fill-rule="nonzero"/><path fill="#ffffff" d="M 228.339844 171.1875 L 193.128906 171.1875 C 191.574219 171.1875 190.3125 172.445312 190.3125 174.003906 C 190.3125 175.558594 191.574219 176.820312 193.128906 176.820312 L 228.339844 176.820312 C 229.894531 176.820312 231.15625 175.558594 231.15625 174.003906 C 231.15625 172.445312 229.894531 171.1875 228.339844 171.1875 Z M 228.339844 171.1875 " fill-opacity="1" fill-rule="nonzero"/><path fill="#ffffff" d="M 228.339844 159.917969 L 193.128906 159.917969 C 191.574219 159.917969 190.3125 161.179688 190.3125 162.734375 C 190.3125 164.292969 191.574219 165.550781 193.128906 165.550781 L 228.339844 165.550781 C 229.894531 165.550781 231.15625 164.292969 231.15625 162.734375 C 231.15625 161.179688 229.894531 159.917969 228.339844 159.917969 Z M 228.339844 159.917969 " fill-opacity="1" fill-rule="nonzero"/><path fill="#ffffff" d="M 228.339844 148.652344 L 193.128906 148.652344 C 191.574219 148.652344 190.3125 149.914062 190.3125 151.46875 C 190.3125 153.023438 191.574219 154.285156 193.128906 154.285156 L 228.339844 154.285156 C 229.894531 154.285156 231.15625 153.023438 231.15625 151.46875 C 231.15625 149.914062 229.894531 148.652344 228.339844 148.652344 Z M 228.339844 148.652344 " fill-opacity="1" fill-rule="nonzero"/><g clip-path="url(#eeff96bcfb)"><path fill="#ffffff" d="M 274.816406 238.789062 L 239.605469 238.789062 C 238.050781 238.789062 236.789062 240.050781 236.789062 241.605469 C 236.789062 243.160156 238.050781 244.421875 239.605469 244.421875 L 274.816406 244.421875 C 276.371094 244.421875 277.632812 243.160156 277.632812 241.605469 C 277.632812 240.050781 276.371094 238.789062 274.816406 238.789062 Z M 274.816406 238.789062 " fill-opacity="1" fill-rule="nonzero"/></g><g clip-path="url(#6f69080044)"><path fill="#ffffff" d="M 274.816406 227.519531 L 239.605469 227.519531 C 238.050781 227.519531 236.789062 228.78125 236.789062 230.335938 C 236.789062 231.894531 238.050781 233.15625 239.605469 233.15625 L 274.816406 233.15625 C 276.371094 233.15625 277.632812 231.894531 277.632812 230.335938 C 277.632812 228.78125 276.371094 227.519531 274.816406 227.519531 Z M 274.816406 227.519531 " fill-opacity="1" fill-rule="nonzero"/></g><g clip-path="url(#a88751c46b)"><path fill="#ffffff" d="M 274.816406 216.253906 L 239.605469 216.253906 C 238.050781 216.253906 236.789062 217.515625 236.789062 219.070312 C 236.789062 220.625 238.050781 221.886719 239.605469 221.886719 L 274.816406 221.886719 C 276.371094 221.886719 277.632812 220.625 277.632812 219.070312 C 277.632812 217.515625 276.371094 216.253906 274.816406 216.253906 Z M 274.816406 216.253906 " fill-opacity="1" fill-rule="nonzero"/></g><g clip-path="url(#be0dff12e9)"><path fill="#ffffff" d="M 274.816406 204.988281 L 239.605469 204.988281 C 238.050781 204.988281 236.789062 206.25 236.789062 207.804688 C 236.789062 209.359375 238.050781 210.621094 239.605469 210.621094 L 274.816406 210.621094 C 276.371094 210.621094 277.632812 209.359375 277.632812 207.804688 C 277.632812 206.25 276.371094 204.988281 274.816406 204.988281 Z M 274.816406 204.988281 " fill-opacity="1" fill-rule="nonzero"/></g><g clip-path="url(#6d6d9a8891)"><path fill="#ffffff" d="M 274.816406 193.71875 L 239.605469 193.71875 C 238.050781 193.71875 236.789062 194.980469 236.789062 196.535156 C 236.789062 198.09375 238.050781 199.351562 239.605469 199.351562 L 274.816406 199.351562 C 276.371094 199.351562 277.632812 198.09375 277.632812 196.535156 C 277.632812 194.980469 276.371094 193.71875 274.816406 193.71875 Z M 274.816406 193.71875 " fill-opacity="1" fill-rule="nonzero"/></g><g clip-path="url(#d4d8752941)"><path fill="#ffffff" d="M 274.816406 182.453125 L 239.605469 182.453125 C 238.050781 182.453125 236.789062 183.714844 236.789062 185.269531 C 236.789062 186.824219 238.050781 188.085938 239.605469 188.085938 L 274.816406 188.085938 C 276.371094 188.085938 277.632812 186.824219 277.632812 185.269531 C 277.632812 183.714844 276.371094 182.453125 274.816406 182.453125 Z M 274.816406 182.453125 " fill-opacity="1" fill-rule="nonzero"/></g><g clip-path="url(#667d736e23)"><path fill="#ffffff" d="M 274.816406 171.1875 L 239.605469 171.1875 C 238.050781 171.1875 236.789062 172.445312 236.789062 174.003906 C 236.789062 175.558594 238.050781 176.820312 239.605469 176.820312 L 274.816406 176.820312 C 276.371094 176.820312 277.632812 175.558594 277.632812 174.003906 C 277.632812 172.445312 276.371094 171.1875 274.816406 171.1875 Z M 274.816406 171.1875 " fill-opacity="1" fill-rule="nonzero"/></g><g clip-path="url(#09e4503465)"><path fill="#ffffff" d="M 274.816406 159.917969 L 239.605469 159.917969 C 238.050781 159.917969 236.789062 161.179688 236.789062 162.734375 C 236.789062 164.292969 238.050781 165.550781 239.605469 165.550781 L 274.816406 165.550781 C 276.371094 165.550781 277.632812 164.292969 277.632812 162.734375 C 277.632812 161.179688 276.371094 159.917969 274.816406 159.917969 Z M 274.816406 159.917969 " fill-opacity="1" fill-rule="nonzero"/></g><g clip-path="url(#11922ba224)"><path fill="#ffffff" d="M 274.816406 148.652344 L 239.605469 148.652344 C 238.050781 148.652344 236.789062 149.914062 236.789062 151.46875 C 236.789062 153.023438 238.050781 154.285156 239.605469 154.285156 L 274.816406 154.285156 C 276.371094 154.285156 277.632812 153.023438 277.632812 151.46875 C 277.632812 149.914062 276.371094 148.652344 274.816406 148.652344 Z M 274.816406 148.652344 " fill-opacity="1" fill-rule="nonzero"/></g><g clip-path="url(#32b2ee8e6a)"><path fill="#ffffff" d="M 274.816406 137.386719 L 239.605469 137.386719 C 238.050781 137.386719 236.789062 138.644531 236.789062 140.203125 C 236.789062 141.757812 238.050781 143.019531 239.605469 143.019531 L 274.816406 143.019531 C 276.371094 143.019531 277.632812 141.757812 277.632812 140.203125 C 277.632812 138.644531 276.371094 137.386719 274.816406 137.386719 Z M 274.816406 137.386719 " fill-opacity="1" fill-rule="nonzero"/></g><g clip-path="url(#f0812cee65)"><path fill="#ffffff" d="M 274.816406 126.117188 L 239.605469 126.117188 C 238.050781 126.117188 236.789062 127.378906 236.789062 128.933594 C 236.789062 130.488281 238.050781 131.75 239.605469 131.75 L 274.816406 131.75 C 276.371094 131.75 277.632812 130.488281 277.632812 128.933594 C 277.632812 127.378906 276.371094 126.117188 274.816406 126.117188 Z M 274.816406 126.117188 " fill-opacity="1" fill-rule="nonzero"/></g><g clip-path="url(#5cafbd959e)"><path fill="#ffffff" d="M 236.789062 117.667969 C 236.789062 119.222656 238.050781 120.484375 239.605469 120.484375 L 274.816406 120.484375 C 276.371094 120.484375 277.632812 119.222656 277.632812 117.667969 C 277.632812 116.113281 276.371094 114.851562 274.816406 114.851562 L 239.605469 114.851562 C 238.050781 114.851562 236.789062 116.113281 236.789062 117.667969 Z M 236.789062 117.667969 " fill-opacity="1" fill-rule="nonzero"/></g><g clip-path="url(#40cdc91ef7)"><path fill="#ffffff" d="M 115.667969 210.621094 C 117.222656 210.621094 118.484375 209.359375 118.484375 207.804688 C 118.484375 204.359375 120.5625 192.695312 129.796875 184.53125 C 137.460938 177.75 148.113281 175.148438 161.46875 176.785156 C 162.257812 176.882812 163.054688 176.640625 163.65625 176.121094 C 164.257812 175.597656 164.613281 174.84375 164.628906 174.046875 C 164.632812 173.878906 165.105469 157.085938 176.839844 147.734375 C 184.527344 141.605469 195.449219 139.957031 209.289062 142.832031 C 210.140625 143.011719 211.023438 142.785156 211.683594 142.222656 C 212.34375 141.664062 212.710938 140.832031 212.679688 139.964844 C 212.671875 139.789062 212.125 122.152344 223.792969 111.113281 C 230.703125 104.578125 240.585938 101.613281 253.191406 102.273438 L 249.71875 103.832031 C 248.300781 104.46875 247.664062 106.132812 248.300781 107.554688 C 248.773438 108.597656 249.800781 109.21875 250.875 109.21875 C 251.257812 109.21875 251.652344 109.136719 252.027344 108.96875 L 263.292969 103.914062 C 264.160156 103.527344 264.769531 102.726562 264.921875 101.789062 C 265.070312 100.851562 264.738281 99.902344 264.039062 99.261719 L 254.136719 90.234375 C 252.988281 89.1875 251.207031 89.269531 250.160156 90.417969 C 249.113281 91.570312 249.191406 93.351562 250.34375 94.398438 L 252.777344 96.621094 C 238.90625 96.027344 227.863281 99.511719 219.921875 107.023438 C 209.660156 116.730469 207.542969 130.355469 207.132812 136.703125 C 193.097656 134.398438 181.738281 136.625 173.328125 143.328125 C 162.683594 151.8125 159.941406 164.976562 159.238281 170.894531 C 145.558594 169.777344 134.402344 172.933594 126.0625 180.308594 C 115.226562 189.898438 112.851562 203.40625 112.851562 207.804688 C 112.851562 209.359375 114.113281 210.621094 115.667969 210.621094 Z M 115.667969 210.621094 " fill-opacity="1" fill-rule="nonzero"/></g><g clip-path="url(#1b5de5ed83)"><path fill="#ffffff" d="M 270.9375 55.625 L 268.652344 60.679688 L 263.410156 60.679688 C 263.671875 60.984375 263.921875 61.378906 264.167969 61.859375 C 264.410156 62.339844 264.570312 62.824219 264.648438 63.3125 L 270.9375 63.3125 L 268.652344 68.367188 L 264.648438 68.367188 C 264.464844 69.464844 264.085938 70.460938 263.515625 71.351562 C 262.945312 72.246094 262.230469 73.019531 261.375 73.671875 C 260.523438 74.328125 259.554688 74.859375 258.46875 75.265625 C 257.390625 75.667969 256.246094 75.921875 255.039062 76.03125 L 267.484375 89.160156 L 259.386719 89.160156 L 247.902344 76.394531 L 247.902344 71.339844 L 251.289062 71.339844 C 251.714844 71.339844 252.257812 71.308594 252.910156 71.25 C 253.566406 71.1875 254.21875 71.054688 254.867188 70.847656 C 255.515625 70.644531 256.105469 70.34375 256.640625 69.957031 C 257.175781 69.566406 257.539062 69.039062 257.738281 68.367188 L 246.757812 68.367188 L 249.046875 63.3125 L 257.714844 63.3125 C 257.53125 62.703125 257.199219 62.222656 256.707031 61.871094 C 256.21875 61.519531 255.636719 61.257812 254.957031 61.082031 C 254.28125 60.90625 253.519531 60.796875 252.683594 60.75 C 251.84375 60.703125 250.976562 60.679688 250.074219 60.679688 L 246.757812 60.679688 L 249.046875 55.625 Z M 270.9375 55.625 " fill-opacity="1" fill-rule="nonzero"/></g></svg>