<svg xmlns="http://www.w3.org/2000/svg" xmlns:xlink="http://www.w3.org/1999/xlink" width="500" zoomAndPan="magnify" viewBox="0 0 375 299.999988" height="400" preserveAspectRatio="xMidYMid meet" version="1.0"><defs><clipPath id="39f3eb7a82"><path d="M 165.382812 85.148438 L 295 85.148438 L 295 214.835938 L 165.382812 214.835938 Z M 165.382812 85.148438 " clip-rule="nonzero"/></clipPath><clipPath id="b0cc555cf6"><path d="M 80.183594 114 L 184.71875 114 L 184.71875 215 L 80.183594 215 Z M 80.183594 114 " clip-rule="nonzero"/></clipPath><clipPath id="8e5ecebe87"><path d="M 80.183594 110.699219 L 129 110.699219 L 129 160 L 80.183594 160 Z M 80.183594 110.699219 " clip-rule="nonzero"/></clipPath></defs><rect x="-37.5" width="450" fill="#ffffff" y="-29.999999" height="359.999986" fill-opacity="1"/><rect x="-37.5" width="450" fill="#45bbbc" y="-29.999999" height="359.999986" fill-opacity="1"/><path fill="#ffffff" d="M 226.746094 122.152344 C 226.945312 122.152344 227.140625 122.113281 227.328125 122.039062 C 227.511719 121.960938 227.675781 121.851562 227.820312 121.707031 C 227.960938 121.566406 228.070312 121.402344 228.148438 121.214844 C 228.226562 121.03125 228.265625 120.835938 228.265625 120.632812 L 228.265625 115.570312 L 234.949219 115.570312 L 234.949219 120.632812 C 234.949219 120.835938 234.984375 121.03125 235.0625 121.214844 C 235.140625 121.402344 235.25 121.566406 235.390625 121.707031 C 235.535156 121.851562 235.699219 121.960938 235.886719 122.039062 C 236.070312 122.113281 236.265625 122.152344 236.464844 122.152344 C 236.667969 122.152344 236.863281 122.113281 237.046875 122.039062 C 237.234375 121.960938 237.398438 121.851562 237.539062 121.707031 C 237.683594 121.566406 237.792969 121.402344 237.871094 121.214844 C 237.945312 121.03125 237.984375 120.835938 237.984375 120.632812 L 237.984375 109.292969 C 237.984375 108.875 237.945312 108.460938 237.863281 108.050781 C 237.78125 107.640625 237.660156 107.242188 237.496094 106.855469 C 237.335938 106.46875 237.140625 106.101562 236.90625 105.753906 C 236.675781 105.40625 236.410156 105.082031 236.113281 104.785156 C 235.820312 104.492188 235.496094 104.226562 235.148438 103.996094 C 234.800781 103.761719 234.433594 103.566406 234.046875 103.40625 C 233.660156 103.246094 233.261719 103.125 232.851562 103.042969 C 232.4375 102.960938 232.023438 102.921875 231.605469 102.921875 C 231.1875 102.921875 230.773438 102.960938 230.363281 103.042969 C 229.953125 103.125 229.554688 103.246094 229.167969 103.40625 C 228.78125 103.566406 228.410156 103.761719 228.0625 103.996094 C 227.714844 104.226562 227.394531 104.492188 227.097656 104.785156 C 226.800781 105.082031 226.535156 105.40625 226.304688 105.753906 C 226.070312 106.101562 225.875 106.46875 225.714844 106.855469 C 225.554688 107.242188 225.433594 107.640625 225.351562 108.050781 C 225.269531 108.460938 225.226562 108.875 225.226562 109.292969 L 225.226562 120.632812 C 225.226562 120.835938 225.265625 121.03125 225.34375 121.214844 C 225.417969 121.402344 225.53125 121.566406 225.671875 121.707031 C 225.8125 121.851562 225.976562 121.960938 226.164062 122.039062 C 226.351562 122.113281 226.542969 122.152344 226.746094 122.152344 Z M 228.265625 109.292969 C 228.265625 108.851562 228.347656 108.425781 228.519531 108.015625 C 228.6875 107.605469 228.929688 107.242188 229.242188 106.929688 C 229.554688 106.617188 229.917969 106.375 230.328125 106.207031 C 230.738281 106.035156 231.164062 105.953125 231.605469 105.953125 C 232.050781 105.953125 232.476562 106.035156 232.886719 106.207031 C 233.292969 106.375 233.65625 106.617188 233.96875 106.929688 C 234.28125 107.242188 234.523438 107.605469 234.691406 108.015625 C 234.863281 108.425781 234.949219 108.851562 234.949219 109.292969 L 234.949219 112.535156 L 228.265625 112.535156 Z M 228.265625 109.292969 " fill-opacity="1" fill-rule="nonzero"/><path fill="#ffffff" d="M 221.785156 120.632812 C 221.785156 120.433594 221.746094 120.238281 221.667969 120.054688 C 221.589844 119.867188 221.480469 119.703125 221.339844 119.558594 C 221.195312 119.417969 221.03125 119.308594 220.847656 119.230469 C 220.660156 119.152344 220.464844 119.117188 220.265625 119.117188 L 212.0625 119.117188 L 212.0625 104.433594 C 212.0625 104.230469 212.023438 104.039062 211.949219 103.851562 C 211.871094 103.664062 211.761719 103.5 211.617188 103.359375 C 211.476562 103.214844 211.3125 103.105469 211.125 103.03125 C 210.941406 102.953125 210.746094 102.914062 210.542969 102.914062 C 210.34375 102.914062 210.148438 102.953125 209.964844 103.03125 C 209.777344 103.105469 209.613281 103.214844 209.46875 103.359375 C 209.328125 103.5 209.21875 103.664062 209.140625 103.851562 C 209.0625 104.039062 209.027344 104.230469 209.027344 104.433594 L 209.027344 119.117188 C 209.027344 119.519531 209.105469 119.90625 209.257812 120.277344 C 209.414062 120.648438 209.632812 120.976562 209.917969 121.261719 C 210.203125 121.546875 210.53125 121.765625 210.902344 121.921875 C 211.273438 122.074219 211.660156 122.152344 212.0625 122.152344 L 220.265625 122.152344 C 220.464844 122.152344 220.660156 122.113281 220.847656 122.039062 C 221.03125 121.960938 221.195312 121.851562 221.339844 121.707031 C 221.480469 121.566406 221.589844 121.402344 221.667969 121.214844 C 221.746094 121.03125 221.785156 120.835938 221.785156 120.632812 Z M 221.785156 120.632812 " fill-opacity="1" fill-rule="nonzero"/><path fill="#ffffff" d="M 200.957031 102.914062 L 196.167969 102.914062 C 195.761719 102.914062 195.375 102.992188 195.003906 103.144531 C 194.632812 103.300781 194.304688 103.519531 194.019531 103.804688 C 193.734375 104.089844 193.515625 104.417969 193.359375 104.789062 C 193.207031 105.160156 193.128906 105.550781 193.128906 105.953125 L 193.128906 120.632812 C 193.128906 120.835938 193.167969 121.03125 193.242188 121.214844 C 193.320312 121.402344 193.429688 121.566406 193.574219 121.707031 C 193.714844 121.851562 193.878906 121.960938 194.066406 122.039062 C 194.253906 122.113281 194.445312 122.152344 194.648438 122.152344 C 194.847656 122.152344 195.042969 122.113281 195.226562 122.039062 C 195.414062 121.960938 195.578125 121.851562 195.722656 121.707031 C 195.863281 121.566406 195.972656 121.402344 196.050781 121.214844 C 196.128906 121.03125 196.167969 120.835938 196.167969 120.632812 L 196.167969 114.050781 L 200.957031 114.050781 C 201.308594 114.050781 201.652344 114.019531 201.996094 113.949219 C 202.339844 113.878906 202.675781 113.777344 202.996094 113.644531 C 203.320312 113.511719 203.628906 113.347656 203.917969 113.152344 C 204.210938 112.957031 204.480469 112.734375 204.726562 112.488281 C 204.976562 112.242188 205.195312 111.972656 205.390625 111.679688 C 205.585938 111.390625 205.75 111.082031 205.882812 110.757812 C 206.019531 110.433594 206.121094 110.101562 206.1875 109.757812 C 206.257812 109.414062 206.292969 109.066406 206.292969 108.71875 L 206.292969 108.25 C 206.292969 107.898438 206.257812 107.550781 206.1875 107.210938 C 206.121094 106.867188 206.019531 106.53125 205.882812 106.207031 C 205.75 105.886719 205.585938 105.578125 205.390625 105.285156 C 205.195312 104.996094 204.976562 104.726562 204.726562 104.480469 C 204.480469 104.230469 204.210938 104.011719 203.917969 103.816406 C 203.628906 103.621094 203.320312 103.457031 202.996094 103.320312 C 202.675781 103.1875 202.339844 103.085938 201.996094 103.019531 C 201.652344 102.949219 201.308594 102.914062 200.957031 102.914062 Z M 203.253906 108.71875 C 203.253906 109.023438 203.195312 109.316406 203.078125 109.597656 C 202.960938 109.878906 202.796875 110.125 202.582031 110.339844 C 202.363281 110.554688 202.117188 110.722656 201.835938 110.839844 C 201.554688 110.957031 201.261719 111.015625 200.957031 111.015625 L 196.167969 111.015625 L 196.167969 105.953125 L 200.957031 105.953125 C 201.261719 105.953125 201.554688 106.011719 201.835938 106.128906 C 202.117188 106.246094 202.363281 106.410156 202.582031 106.625 C 202.796875 106.839844 202.960938 107.089844 203.078125 107.371094 C 203.195312 107.652344 203.253906 107.945312 203.253906 108.25 Z M 203.253906 108.71875 " fill-opacity="1" fill-rule="nonzero"/><path fill="#ffffff" d="M 253.375 102.914062 C 253.175781 102.914062 252.980469 102.953125 252.796875 103.03125 C 252.609375 103.105469 252.445312 103.214844 252.300781 103.359375 C 252.160156 103.5 252.050781 103.664062 251.972656 103.851562 C 251.894531 104.039062 251.859375 104.230469 251.859375 104.433594 L 251.859375 116.007812 L 245.546875 104.019531 C 245.332031 103.609375 245.011719 103.304688 244.585938 103.117188 C 244.160156 102.925781 243.722656 102.886719 243.269531 102.996094 C 242.820312 103.109375 242.449219 103.347656 242.164062 103.714844 C 241.875 104.082031 241.730469 104.496094 241.730469 104.964844 L 241.730469 120.632812 C 241.730469 120.835938 241.769531 121.03125 241.847656 121.214844 C 241.925781 121.402344 242.035156 121.566406 242.175781 121.707031 C 242.320312 121.851562 242.484375 121.960938 242.667969 122.039062 C 242.855469 122.113281 243.050781 122.152344 243.25 122.152344 C 243.453125 122.152344 243.644531 122.113281 243.832031 122.039062 C 244.019531 121.960938 244.183594 121.851562 244.324219 121.707031 C 244.46875 121.566406 244.578125 121.402344 244.652344 121.214844 C 244.730469 121.03125 244.769531 120.835938 244.769531 120.632812 L 244.769531 109.0625 L 251.078125 121.046875 C 251.296875 121.460938 251.617188 121.761719 252.039062 121.953125 C 252.464844 122.140625 252.902344 122.179688 253.355469 122.070312 C 253.808594 121.957031 254.175781 121.71875 254.464844 121.351562 C 254.75 120.984375 254.894531 120.570312 254.894531 120.105469 L 254.894531 104.433594 C 254.894531 104.230469 254.855469 104.039062 254.78125 103.851562 C 254.703125 103.664062 254.59375 103.5 254.449219 103.359375 C 254.308594 103.214844 254.144531 103.105469 253.957031 103.03125 C 253.769531 102.953125 253.578125 102.914062 253.375 102.914062 Z M 253.375 102.914062 " fill-opacity="1" fill-rule="nonzero"/><path fill="#ffffff" d="M 199.710938 131.773438 C 199.3125 131.773438 198.917969 131.8125 198.523438 131.890625 C 198.132812 131.96875 197.753906 132.082031 197.386719 132.234375 C 197.015625 132.386719 196.667969 132.574219 196.335938 132.796875 C 196.003906 133.019531 195.695312 133.269531 195.414062 133.550781 C 195.132812 133.835938 194.878906 134.140625 194.660156 134.472656 C 194.4375 134.804688 194.25 135.15625 194.097656 135.523438 C 193.945312 135.890625 193.828125 136.269531 193.75 136.664062 C 193.671875 137.054688 193.632812 137.449219 193.632812 137.847656 C 193.632812 138.246094 193.671875 138.640625 193.75 139.035156 C 193.828125 139.425781 193.945312 139.804688 194.097656 140.171875 C 194.25 140.542969 194.4375 140.890625 194.660156 141.222656 C 194.878906 141.554688 195.132812 141.863281 195.414062 142.144531 C 195.695312 142.425781 196.003906 142.679688 196.335938 142.898438 C 196.667969 143.121094 197.015625 143.308594 197.386719 143.460938 C 197.753906 143.613281 198.132812 143.730469 198.523438 143.808594 C 198.917969 143.882812 199.3125 143.921875 199.710938 143.921875 C 200.109375 143.921875 200.503906 143.882812 200.894531 143.808594 C 201.285156 143.730469 201.667969 143.613281 202.035156 143.460938 C 202.402344 143.308594 202.753906 143.121094 203.085938 142.898438 C 203.417969 142.679688 203.722656 142.425781 204.007812 142.144531 C 204.289062 141.863281 204.539062 141.554688 204.761719 141.222656 C 204.984375 140.890625 205.171875 140.542969 205.324219 140.171875 C 205.476562 139.804688 205.589844 139.425781 205.667969 139.035156 C 205.746094 138.640625 205.785156 138.246094 205.785156 137.847656 C 205.785156 137.449219 205.746094 137.054688 205.667969 136.664062 C 205.589844 136.273438 205.472656 135.890625 205.320312 135.523438 C 205.167969 135.15625 204.980469 134.804688 204.757812 134.472656 C 204.539062 134.144531 204.285156 133.835938 204.003906 133.554688 C 203.722656 133.273438 203.414062 133.019531 203.082031 132.796875 C 202.753906 132.578125 202.402344 132.390625 202.035156 132.238281 C 201.664062 132.085938 201.285156 131.96875 200.894531 131.890625 C 200.503906 131.8125 200.109375 131.773438 199.710938 131.773438 Z M 199.710938 140.886719 C 199.308594 140.886719 198.917969 140.808594 198.546875 140.65625 C 198.175781 140.5 197.847656 140.28125 197.5625 139.996094 C 197.277344 139.710938 197.058594 139.382812 196.902344 139.011719 C 196.75 138.636719 196.671875 138.25 196.671875 137.847656 C 196.671875 137.445312 196.75 137.058594 196.902344 136.683594 C 197.058594 136.3125 197.277344 135.984375 197.5625 135.699219 C 197.847656 135.414062 198.175781 135.195312 198.546875 135.042969 C 198.917969 134.886719 199.308594 134.808594 199.710938 134.808594 C 200.113281 134.808594 200.5 134.886719 200.871094 135.042969 C 201.246094 135.195312 201.574219 135.414062 201.859375 135.699219 C 202.144531 135.984375 202.363281 136.3125 202.515625 136.683594 C 202.671875 137.058594 202.746094 137.445312 202.746094 137.847656 C 202.746094 138.25 202.671875 138.636719 202.515625 139.011719 C 202.363281 139.382812 202.140625 139.710938 201.855469 139.996094 C 201.574219 140.28125 201.242188 140.5 200.871094 140.652344 C 200.5 140.808594 200.113281 140.886719 199.710938 140.886719 Z M 199.710938 140.886719 " fill-opacity="1" fill-rule="nonzero"/><path fill="#ffffff" d="M 251.230469 132.785156 L 220.082031 132.785156 C 219.664062 132.785156 219.261719 132.867188 218.875 133.027344 C 218.488281 133.1875 218.148438 133.414062 217.851562 133.710938 C 217.554688 134.007812 217.328125 134.347656 217.164062 134.734375 C 217.003906 135.121094 216.925781 135.527344 216.921875 135.945312 L 216.921875 139.75 C 216.925781 140.171875 217.003906 140.574219 217.164062 140.960938 C 217.328125 141.347656 217.554688 141.6875 217.851562 141.984375 C 218.148438 142.28125 218.488281 142.507812 218.875 142.667969 C 219.261719 142.828125 219.664062 142.910156 220.082031 142.910156 L 251.230469 142.910156 C 251.648438 142.910156 252.050781 142.828125 252.4375 142.667969 C 252.824219 142.507812 253.164062 142.28125 253.460938 141.984375 C 253.757812 141.6875 253.988281 141.347656 254.148438 140.960938 C 254.308594 140.574219 254.386719 140.171875 254.390625 139.75 L 254.390625 135.945312 C 254.386719 135.527344 254.308594 135.121094 254.148438 134.734375 C 253.988281 134.347656 253.757812 134.007812 253.460938 133.710938 C 253.164062 133.414062 252.824219 133.1875 252.4375 133.027344 C 252.050781 132.867188 251.648438 132.785156 251.230469 132.785156 Z M 251.351562 139.75 C 251.351562 139.832031 251.3125 139.875 251.230469 139.875 L 220.082031 139.875 C 220.003906 139.875 219.960938 139.832031 219.960938 139.75 L 219.960938 135.945312 C 219.960938 135.863281 220.003906 135.824219 220.082031 135.824219 L 251.230469 135.824219 C 251.3125 135.824219 251.351562 135.863281 251.351562 135.945312 Z M 251.351562 139.75 " fill-opacity="1" fill-rule="nonzero"/><path fill="#ffffff" d="M 199.710938 153.035156 C 199.3125 153.035156 198.917969 153.074219 198.523438 153.152344 C 198.132812 153.230469 197.753906 153.347656 197.386719 153.5 C 197.015625 153.652344 196.667969 153.839844 196.335938 154.058594 C 196.003906 154.28125 195.695312 154.535156 195.414062 154.816406 C 195.132812 155.097656 194.878906 155.40625 194.660156 155.738281 C 194.4375 156.066406 194.25 156.417969 194.097656 156.785156 C 193.945312 157.15625 193.828125 157.535156 193.75 157.925781 C 193.671875 158.316406 193.632812 158.714844 193.632812 159.113281 C 193.632812 159.511719 193.671875 159.90625 193.75 160.296875 C 193.828125 160.6875 193.945312 161.070312 194.097656 161.4375 C 194.25 161.804688 194.4375 162.15625 194.660156 162.488281 C 194.878906 162.820312 195.132812 163.125 195.414062 163.40625 C 195.695312 163.691406 196.003906 163.941406 196.335938 164.164062 C 196.667969 164.386719 197.015625 164.570312 197.386719 164.726562 C 197.753906 164.878906 198.132812 164.992188 198.523438 165.070312 C 198.917969 165.148438 199.3125 165.1875 199.710938 165.1875 C 200.109375 165.1875 200.503906 165.148438 200.894531 165.070312 C 201.285156 164.992188 201.667969 164.878906 202.035156 164.726562 C 202.402344 164.570312 202.753906 164.386719 203.085938 164.164062 C 203.417969 163.941406 203.722656 163.691406 204.007812 163.40625 C 204.289062 163.125 204.539062 162.820312 204.761719 162.488281 C 204.984375 162.15625 205.171875 161.804688 205.324219 161.4375 C 205.476562 161.070312 205.589844 160.6875 205.667969 160.296875 C 205.746094 159.90625 205.785156 159.511719 205.785156 159.113281 C 205.785156 158.714844 205.746094 158.316406 205.667969 157.925781 C 205.589844 157.535156 205.472656 157.15625 205.320312 156.789062 C 205.167969 156.417969 204.980469 156.070312 204.757812 155.738281 C 204.539062 155.40625 204.285156 155.101562 204.003906 154.816406 C 203.722656 154.535156 203.414062 154.285156 203.082031 154.0625 C 202.753906 153.839844 202.402344 153.652344 202.035156 153.5 C 201.664062 153.347656 201.285156 153.234375 200.894531 153.15625 C 200.503906 153.078125 200.109375 153.035156 199.710938 153.035156 Z M 199.710938 162.148438 C 199.308594 162.148438 198.917969 162.074219 198.546875 161.917969 C 198.175781 161.765625 197.847656 161.542969 197.5625 161.261719 C 197.277344 160.976562 197.058594 160.648438 196.902344 160.273438 C 196.75 159.902344 196.671875 159.515625 196.671875 159.113281 C 196.671875 158.710938 196.75 158.320312 196.902344 157.949219 C 197.058594 157.578125 197.277344 157.25 197.5625 156.964844 C 197.847656 156.679688 198.175781 156.460938 198.546875 156.304688 C 198.917969 156.152344 199.308594 156.074219 199.710938 156.074219 C 200.113281 156.074219 200.5 156.152344 200.871094 156.304688 C 201.246094 156.460938 201.574219 156.679688 201.859375 156.964844 C 202.144531 157.25 202.363281 157.578125 202.515625 157.949219 C 202.671875 158.320312 202.746094 158.710938 202.746094 159.113281 C 202.746094 159.515625 202.671875 159.902344 202.515625 160.273438 C 202.363281 160.644531 202.140625 160.972656 201.855469 161.257812 C 201.574219 161.542969 201.242188 161.761719 200.871094 161.917969 C 200.5 162.070312 200.113281 162.148438 199.710938 162.148438 Z M 199.710938 162.148438 " fill-opacity="1" fill-rule="nonzero"/><path fill="#ffffff" d="M 251.230469 154.050781 L 220.082031 154.050781 C 219.664062 154.050781 219.261719 154.128906 218.875 154.289062 C 218.488281 154.453125 218.148438 154.679688 217.851562 154.976562 C 217.554688 155.273438 217.328125 155.613281 217.164062 156 C 217.003906 156.386719 216.925781 156.789062 216.921875 157.207031 L 216.921875 161.015625 C 216.925781 161.433594 217.003906 161.835938 217.164062 162.222656 C 217.328125 162.609375 217.554688 162.953125 217.851562 163.246094 C 218.148438 163.542969 218.488281 163.773438 218.875 163.933594 C 219.261719 164.09375 219.664062 164.175781 220.082031 164.175781 L 251.230469 164.175781 C 251.648438 164.175781 252.050781 164.09375 252.4375 163.933594 C 252.824219 163.773438 253.164062 163.542969 253.460938 163.246094 C 253.757812 162.953125 253.988281 162.609375 254.148438 162.222656 C 254.308594 161.835938 254.386719 161.433594 254.390625 161.015625 L 254.390625 157.207031 C 254.386719 156.789062 254.308594 156.386719 254.148438 156 C 253.988281 155.613281 253.757812 155.273438 253.460938 154.976562 C 253.164062 154.679688 252.824219 154.453125 252.4375 154.289062 C 252.050781 154.128906 251.648438 154.050781 251.230469 154.050781 Z M 251.351562 161.015625 C 251.351562 161.097656 251.3125 161.136719 251.230469 161.136719 L 220.082031 161.136719 C 220.003906 161.136719 219.960938 161.097656 219.960938 161.015625 L 219.960938 157.207031 C 219.960938 157.128906 220.003906 157.085938 220.082031 157.085938 L 251.230469 157.085938 C 251.3125 157.085938 251.351562 157.128906 251.351562 157.207031 Z M 251.351562 161.015625 " fill-opacity="1" fill-rule="nonzero"/><path fill="#ffffff" d="M 199.710938 174.300781 C 199.3125 174.300781 198.917969 174.339844 198.523438 174.417969 C 198.132812 174.496094 197.753906 174.609375 197.386719 174.761719 C 197.015625 174.914062 196.667969 175.101562 196.335938 175.324219 C 196.003906 175.546875 195.695312 175.796875 195.414062 176.078125 C 195.132812 176.363281 194.878906 176.667969 194.660156 177 C 194.4375 177.332031 194.25 177.683594 194.097656 178.050781 C 193.945312 178.417969 193.828125 178.800781 193.75 179.191406 C 193.671875 179.582031 193.632812 179.976562 193.632812 180.375 C 193.632812 180.773438 193.671875 181.171875 193.75 181.5625 C 193.828125 181.953125 193.945312 182.332031 194.097656 182.699219 C 194.25 183.070312 194.4375 183.417969 194.660156 183.75 C 194.878906 184.082031 195.132812 184.390625 195.414062 184.671875 C 195.695312 184.953125 196.003906 185.207031 196.335938 185.425781 C 196.667969 185.648438 197.015625 185.835938 197.386719 185.988281 C 197.753906 186.140625 198.132812 186.257812 198.523438 186.335938 C 198.917969 186.414062 199.3125 186.453125 199.710938 186.453125 C 200.109375 186.453125 200.503906 186.414062 200.894531 186.335938 C 201.285156 186.257812 201.667969 186.140625 202.035156 185.988281 C 202.402344 185.835938 202.753906 185.648438 203.085938 185.425781 C 203.417969 185.207031 203.722656 184.953125 204.007812 184.671875 C 204.289062 184.390625 204.539062 184.082031 204.761719 183.75 C 204.984375 183.417969 205.171875 183.070312 205.324219 182.699219 C 205.476562 182.332031 205.589844 181.953125 205.667969 181.5625 C 205.746094 181.171875 205.785156 180.773438 205.785156 180.375 C 205.785156 179.976562 205.746094 179.582031 205.667969 179.191406 C 205.589844 178.800781 205.472656 178.421875 205.320312 178.050781 C 205.167969 177.683594 204.980469 177.332031 204.757812 177.003906 C 204.539062 176.671875 204.285156 176.363281 204.003906 176.082031 C 203.722656 175.800781 203.414062 175.546875 203.082031 175.328125 C 202.753906 175.105469 202.402344 174.917969 202.035156 174.765625 C 201.664062 174.613281 201.285156 174.496094 200.894531 174.417969 C 200.503906 174.339844 200.109375 174.300781 199.710938 174.300781 Z M 199.710938 183.414062 C 199.308594 183.414062 198.917969 183.335938 198.546875 183.183594 C 198.175781 183.027344 197.847656 182.808594 197.5625 182.523438 C 197.277344 182.238281 197.058594 181.910156 196.902344 181.539062 C 196.75 181.167969 196.671875 180.777344 196.671875 180.375 C 196.671875 179.972656 196.75 179.585938 196.902344 179.214844 C 197.058594 178.839844 197.277344 178.511719 197.5625 178.226562 C 197.847656 177.941406 198.175781 177.722656 198.546875 177.570312 C 198.917969 177.414062 199.308594 177.339844 199.710938 177.339844 C 200.113281 177.339844 200.5 177.414062 200.871094 177.570312 C 201.246094 177.722656 201.574219 177.941406 201.859375 178.226562 C 202.144531 178.511719 202.363281 178.839844 202.515625 179.214844 C 202.671875 179.585938 202.746094 179.972656 202.746094 180.375 C 202.746094 180.777344 202.671875 181.164062 202.515625 181.539062 C 202.363281 181.910156 202.140625 182.238281 201.855469 182.523438 C 201.574219 182.808594 201.242188 183.027344 200.871094 183.179688 C 200.5 183.335938 200.113281 183.414062 199.710938 183.414062 Z M 199.710938 183.414062 " fill-opacity="1" fill-rule="nonzero"/><path fill="#ffffff" d="M 251.230469 175.3125 L 220.082031 175.3125 C 219.664062 175.3125 219.261719 175.394531 218.875 175.554688 C 218.488281 175.714844 218.148438 175.945312 217.851562 176.238281 C 217.554688 176.535156 217.328125 176.878906 217.164062 177.265625 C 217.003906 177.652344 216.925781 178.054688 216.921875 178.472656 L 216.921875 182.28125 C 216.925781 182.699219 217.003906 183.101562 217.164062 183.488281 C 217.328125 183.875 217.554688 184.214844 217.851562 184.511719 C 218.148438 184.808594 218.488281 185.035156 218.875 185.195312 C 219.261719 185.359375 219.664062 185.4375 220.082031 185.4375 L 251.230469 185.4375 C 251.648438 185.4375 252.050781 185.359375 252.4375 185.195312 C 252.824219 185.035156 253.164062 184.808594 253.460938 184.511719 C 253.757812 184.214844 253.988281 183.875 254.148438 183.488281 C 254.308594 183.101562 254.386719 182.699219 254.390625 182.28125 L 254.390625 178.472656 C 254.386719 178.054688 254.308594 177.652344 254.148438 177.265625 C 253.988281 176.878906 253.757812 176.535156 253.460938 176.238281 C 253.164062 175.945312 252.824219 175.714844 252.4375 175.554688 C 252.050781 175.394531 251.648438 175.3125 251.230469 175.3125 Z M 251.351562 182.28125 C 251.351562 182.359375 251.3125 182.402344 251.230469 182.402344 L 220.082031 182.402344 C 220.003906 182.402344 219.960938 182.359375 219.960938 182.28125 L 219.960938 178.472656 C 219.960938 178.390625 220.003906 178.351562 220.082031 178.351562 L 251.230469 178.351562 C 251.3125 178.351562 251.351562 178.390625 251.351562 178.472656 Z M 251.351562 182.28125 " fill-opacity="1" fill-rule="nonzero"/><g clip-path="url(#39f3eb7a82)"><path fill="#ffffff" d="M 294.574219 99.085938 C 293.191406 90.90625 287.703125 85.195312 281.222656 85.195312 L 190.089844 85.195312 C 182.554688 85.195312 176.421875 93.144531 176.421875 102.914062 L 176.421875 195.566406 L 170.09375 195.566406 C 169.421875 195.5625 168.785156 195.703125 168.175781 195.988281 C 167.570312 196.269531 167.050781 196.664062 166.621094 197.175781 C 166.183594 197.695312 165.875 198.277344 165.695312 198.933594 C 165.519531 199.585938 165.484375 200.246094 165.601562 200.914062 C 166.980469 209.089844 172.472656 214.804688 178.953125 214.804688 L 256.921875 214.804688 C 264.457031 214.804688 270.589844 206.855469 270.589844 197.082031 L 270.589844 104.433594 L 290.082031 104.433594 C 290.75 104.433594 291.386719 104.292969 291.996094 104.011719 C 292.601562 103.730469 293.121094 103.332031 293.554688 102.820312 C 293.992188 102.304688 294.296875 101.71875 294.476562 101.066406 C 294.65625 100.414062 294.6875 99.75 294.574219 99.085938 Z M 178.953125 211.765625 C 174.0625 211.765625 169.707031 206.988281 168.597656 200.40625 C 168.515625 199.929688 168.628906 199.507812 168.941406 199.136719 C 169.242188 198.777344 169.625 198.597656 170.09375 198.601562 L 241.929688 198.601562 C 242.113281 198.601562 242.289062 198.636719 242.460938 198.699219 C 242.632812 198.765625 242.789062 198.859375 242.925781 198.980469 C 243.066406 199.105469 243.175781 199.246094 243.261719 199.410156 C 243.347656 199.570312 243.402344 199.742188 243.425781 199.925781 C 244.042969 204.921875 246.214844 209.117188 249.242188 211.765625 Z M 267.550781 102.914062 L 267.550781 197.082031 C 267.550781 205.179688 262.78125 211.765625 256.921875 211.765625 C 251.808594 211.765625 247.300781 206.515625 246.441406 199.554688 C 246.371094 199.003906 246.207031 198.484375 245.949219 197.992188 C 245.691406 197.503906 245.355469 197.074219 244.9375 196.707031 C 244.523438 196.339844 244.054688 196.058594 243.539062 195.859375 C 243.019531 195.664062 242.484375 195.566406 241.929688 195.566406 L 179.457031 195.566406 L 179.457031 102.914062 C 179.457031 94.820312 184.226562 88.230469 190.089844 88.230469 L 273.578125 88.230469 C 269.945312 91.421875 267.550781 96.8125 267.550781 102.914062 Z M 291.234375 100.859375 C 290.933594 101.21875 290.550781 101.398438 290.082031 101.394531 L 270.648438 101.394531 C 271.199219 94.011719 275.730469 88.230469 281.222656 88.230469 C 286.113281 88.230469 290.46875 93.007812 291.578125 99.589844 C 291.660156 100.066406 291.546875 100.488281 291.234375 100.859375 Z M 291.234375 100.859375 " fill-opacity="1" fill-rule="nonzero"/></g><g clip-path="url(#b0cc555cf6)"><path fill="#ffffff" d="M 182.453125 211.109375 L 178.734375 211.109375 L 178.734375 153.464844 C 178.734375 152.351562 177.988281 151.605469 176.875 151.605469 L 172.96875 151.605469 C 178.550781 149.191406 180.035156 145.46875 180.59375 138.777344 C 180.59375 138.21875 180.410156 137.660156 180.035156 137.101562 C 179.476562 136.730469 178.921875 136.730469 178.359375 136.730469 C 172.96875 138.03125 169.621094 139.335938 167.574219 141.378906 L 167.574219 136.359375 C 172.78125 135.429688 176.871094 130.96875 176.871094 125.386719 C 176.871094 119.253906 171.851562 114.230469 165.714844 114.230469 C 159.578125 114.230469 154.558594 119.253906 154.558594 125.386719 C 154.558594 130.96875 158.648438 135.429688 163.855469 136.359375 L 163.855469 141.378906 C 161.8125 139.335938 158.648438 138.035156 153.070312 136.730469 C 152.511719 136.546875 151.957031 136.730469 151.394531 137.101562 C 151.023438 137.472656 150.652344 138.03125 150.835938 138.777344 C 151.582031 145.46875 153.066406 149.191406 158.460938 151.605469 L 154.558594 151.605469 C 153.441406 151.605469 152.695312 152.351562 152.695312 153.464844 L 152.695312 211.109375 L 145.257812 211.109375 L 145.257812 168.34375 C 145.257812 167.226562 144.511719 166.484375 143.398438 166.484375 L 121.082031 166.484375 C 119.96875 166.484375 119.222656 167.226562 119.222656 168.34375 L 119.222656 211.109375 L 111.785156 211.109375 L 111.785156 190.65625 C 111.785156 189.539062 111.039062 188.796875 109.925781 188.796875 L 87.621094 188.796875 C 86.503906 188.796875 85.761719 189.539062 85.761719 190.65625 L 85.761719 211.109375 L 82.042969 211.109375 C 80.925781 211.109375 80.183594 211.855469 80.183594 212.96875 C 80.183594 214.085938 80.925781 214.832031 82.042969 214.832031 L 182.453125 214.832031 C 183.570312 214.832031 184.3125 214.085938 184.3125 212.96875 C 184.3125 211.855469 183.570312 211.109375 182.453125 211.109375 Z M 108.074219 211.109375 L 89.476562 211.109375 L 89.476562 207.390625 L 108.074219 207.390625 Z M 108.074219 203.675781 L 89.476562 203.675781 L 89.476562 199.953125 L 108.074219 199.953125 Z M 108.074219 196.234375 L 89.476562 196.234375 L 89.476562 192.515625 L 108.074219 192.515625 Z M 141.546875 211.109375 L 122.949219 211.109375 L 122.949219 207.390625 L 141.546875 207.390625 Z M 141.546875 203.675781 L 122.949219 203.675781 L 122.949219 199.953125 L 141.546875 199.953125 Z M 141.546875 196.234375 L 122.949219 196.234375 L 122.949219 192.515625 L 141.546875 192.515625 Z M 141.546875 188.796875 L 122.949219 188.796875 L 122.949219 185.078125 L 141.546875 185.078125 Z M 141.546875 181.359375 L 122.949219 181.359375 L 122.949219 177.640625 L 141.546875 177.640625 Z M 141.546875 173.921875 L 122.949219 173.921875 L 122.949219 170.203125 L 141.546875 170.203125 Z M 176.503906 141.007812 C 175.757812 145.472656 174.457031 147.703125 167.949219 149.191406 C 169.066406 144.539062 170.367188 142.867188 176.503906 141.007812 Z M 158.28125 125.574219 C 158.28125 121.484375 161.628906 118.136719 165.722656 118.136719 C 169.8125 118.136719 173.160156 121.480469 173.160156 125.574219 C 173.160156 129.667969 169.8125 133.011719 165.722656 133.011719 C 161.628906 133.011719 158.28125 129.667969 158.28125 125.574219 Z M 154.933594 141.007812 C 161.070312 142.683594 162.558594 144.542969 163.488281 149.191406 C 156.976562 147.703125 155.492188 145.46875 154.933594 141.007812 Z M 175.015625 211.109375 L 156.421875 211.109375 L 156.421875 207.390625 L 175.015625 207.390625 Z M 175.015625 203.675781 L 156.421875 203.675781 L 156.421875 199.953125 L 175.015625 199.953125 Z M 175.015625 196.234375 L 156.421875 196.234375 L 156.421875 192.515625 L 175.015625 192.515625 Z M 175.015625 188.796875 L 156.421875 188.796875 L 156.421875 185.078125 L 175.015625 185.078125 Z M 175.015625 181.359375 L 156.421875 181.359375 L 156.421875 177.640625 L 175.015625 177.640625 Z M 175.015625 173.921875 L 156.421875 173.921875 L 156.421875 170.203125 L 175.015625 170.203125 Z M 175.015625 166.484375 L 156.421875 166.484375 L 156.421875 162.761719 L 175.015625 162.761719 Z M 175.015625 159.046875 L 156.421875 159.046875 L 156.421875 155.328125 L 175.015625 155.328125 Z M 175.015625 159.046875 " fill-opacity="1" fill-rule="nonzero"/></g><g clip-path="url(#8e5ecebe87)"><path fill="#ffffff" d="M 104.355469 159.046875 C 117.746094 159.046875 128.527344 148.261719 128.527344 134.875 C 128.527344 121.484375 117.746094 110.699219 104.355469 110.699219 C 90.964844 110.699219 80.183594 121.484375 80.183594 134.871094 C 80.183594 148.257812 90.96875 159.042969 104.355469 159.042969 Z M 104.355469 114.417969 C 115.695312 114.417969 124.808594 123.527344 124.808594 134.875 C 124.808594 146.21875 115.699219 155.328125 104.355469 155.328125 C 93.011719 155.328125 83.902344 146.214844 83.902344 134.871094 C 83.902344 123.527344 93.011719 114.417969 104.355469 114.417969 Z M 104.355469 114.417969 " fill-opacity="1" fill-rule="nonzero"/></g><path fill="#ffffff" d="M 93.199219 131.152344 C 93.199219 132.269531 93.941406 133.011719 95.058594 133.011719 L 107.703125 133.011719 C 106.957031 135.246094 104.914062 136.734375 102.496094 136.734375 L 95.058594 136.734375 C 94.3125 136.734375 93.570312 137.292969 93.382812 138.035156 C 93.199219 138.777344 93.382812 139.519531 93.941406 140.078125 L 106.957031 151.234375 C 107.328125 151.605469 107.703125 151.605469 108.257812 151.605469 C 108.816406 151.605469 109.375 151.421875 109.75 151.046875 C 110.492188 150.304688 110.308594 149.1875 109.5625 148.445312 L 100.078125 140.449219 L 102.496094 140.449219 C 106.957031 140.449219 110.675781 137.285156 111.605469 133.007812 L 113.652344 133.007812 C 114.765625 133.007812 115.511719 132.265625 115.511719 131.148438 C 115.511719 130.03125 114.765625 129.289062 113.652344 129.289062 L 111.605469 129.289062 C 111.234375 127.988281 110.675781 126.683594 109.929688 125.570312 L 113.652344 125.570312 C 114.765625 125.570312 115.511719 124.824219 115.511719 123.710938 C 115.511719 122.59375 114.765625 121.847656 113.652344 121.847656 L 95.058594 121.847656 C 93.941406 121.847656 93.199219 122.59375 93.199219 123.710938 C 93.199219 124.824219 93.941406 125.570312 95.058594 125.570312 L 102.496094 125.570312 C 104.914062 125.570312 106.960938 127.054688 107.703125 129.289062 L 95.058594 129.289062 C 93.941406 129.289062 93.199219 130.03125 93.199219 131.148438 Z M 93.199219 131.152344 " fill-opacity="1" fill-rule="nonzero"/></svg>