<svg width="507" height="498" viewBox="0 0 507 498" fill="none" xmlns="http://www.w3.org/2000/svg">
<path d="M291.176 442.35C291.176 442.35 225.21 469.466 146.229 444.323C212.293 452.408 253.706 439.984 274.512 430.42C286.64 424.799 300.642 422.728 314.347 424.208C484.34 442.449 501.595 350.452 501.595 350.452C502.68 352.819 503.666 355.382 504.455 358.143C518.851 407.248 417.191 477.946 291.176 442.35Z" fill="#DDF3F4"/>
<path d="M215.35 455.957C188.135 455.957 162.301 451.224 139.623 443.238C44.1745 409.712 76.615 286.064 185.67 302.531C186.656 299.277 190.699 287.247 200.461 274.823C210.814 261.709 229.943 245.932 261.891 245.045C291.669 244.256 311.883 257.962 323.617 269.597C334.463 280.345 340.281 291.487 341.76 294.445C345.309 293.36 359.212 289.318 375.088 289.712C399.048 290.304 416.402 300.657 425.375 319.589C455.351 315.152 489.763 322.547 502.582 350.156C503.666 352.522 504.652 355.185 505.54 358.044C510.076 373.426 503.371 391.569 487.298 407.74C468.958 426.278 441.053 440.477 408.81 447.675C371.636 456.056 331.012 454.577 291.275 443.435C287.725 444.717 257.552 455.957 215.35 455.957ZM215.35 453.985C259.524 453.985 290.289 441.66 290.782 441.463C290.979 441.364 291.176 441.364 291.472 441.463C330.913 452.605 371.341 454.084 408.317 445.703C440.264 438.505 467.775 424.503 485.819 406.261C501.398 390.485 507.906 373.131 503.568 358.439C502.779 355.776 501.793 353.213 500.708 350.846C482.664 311.898 425.375 321.462 424.882 321.561C424.389 321.66 423.995 321.364 423.798 320.969C415.12 302.038 398.752 292.079 374.989 291.487C357.142 291.093 341.661 296.319 341.464 296.417C340.971 296.614 340.478 296.319 340.281 295.924C340.182 295.826 334.562 283.106 322.137 270.78C310.7 259.441 290.979 246.129 261.891 246.918C230.732 247.806 212.096 263.188 201.94 275.908C190.896 289.811 187.248 303.615 187.248 303.812C187.149 304.305 186.656 304.601 186.163 304.503C79.5731 287.74 46.1466 408.233 140.214 441.266C163.189 449.45 188.826 453.985 215.35 453.985Z" fill="#112544"/>
<path d="M139.623 361.989C139.425 361.989 139.13 361.89 138.932 361.693C124.438 347.987 109.549 358.341 108.957 358.735C108.464 359.031 107.872 358.932 107.577 358.538C107.281 358.144 107.379 357.453 107.774 357.158C107.971 357.059 124.536 345.424 140.214 360.214C140.609 360.609 140.609 361.2 140.214 361.595C140.116 361.89 139.918 361.989 139.623 361.989Z" fill="#112544"/>
<path d="M73.6568 158.964C73.6568 158.964 71.6847 157.288 72.375 155.316C73.4596 152.16 75.4317 143.779 70.5015 142.694C65.5713 141.61 62.8104 153.344 62.8104 153.344C62.8104 153.344 54.4292 154.625 51.5697 147.033C50.3864 143.976 45.259 145.85 46.6395 149.498C44.766 148.118 42.0051 149.498 43.0898 153.837C41.2163 152.456 37.075 153.935 39.5401 158.175C36.6806 156.104 31.0602 160.344 43.3856 170.698C49.2032 174.543 54.9222 175.726 56.4012 175.036C65.3741 172.374 73.7554 169.81 73.6568 158.964Z" fill="#FCBBA4"/>
<path d="M47.1323 152.654C46.0476 151.175 45.6532 149.893 45.6532 149.893C45.456 149.4 45.7518 148.808 46.2448 148.611C46.7379 148.414 47.3295 148.71 47.5267 149.203C47.5267 149.203 47.9211 150.287 48.7099 151.471C49.0057 151.865 48.9071 152.555 48.5127 152.851C48.0197 153.245 47.4281 153.147 47.1323 152.654ZM46.3435 159.457C46.1462 159.457 45.949 159.359 45.7518 159.26C42.9909 157.19 41.9063 154.231 41.9063 154.034C41.7091 153.541 42.0049 152.95 42.4979 152.752C42.9909 152.555 43.5825 152.851 43.7798 153.344C43.7798 153.344 44.6672 155.908 46.9351 157.584C47.7239 158.274 47.3295 159.457 46.3435 159.457ZM40.1314 161.725C38.751 160.049 38.258 158.471 38.1594 158.373C37.9622 157.88 38.258 157.288 38.751 157.091C39.244 156.894 39.8356 157.19 40.0328 157.683C40.0328 157.683 40.5258 159.063 41.6105 160.345C41.9063 160.739 41.9063 161.43 41.5119 161.725C41.1175 162.218 40.5258 162.12 40.1314 161.725Z" fill="#E2805D"/>
<path d="M47.1323 152.654C46.0476 151.175 45.6532 149.893 45.6532 149.893C45.456 149.4 45.7518 148.808 46.2448 148.611C46.7379 148.414 47.3295 148.71 47.5267 149.203C47.5267 149.203 47.9211 150.287 48.7099 151.471C49.0057 151.865 48.9071 152.555 48.5127 152.851C48.0197 153.245 47.4281 153.147 47.1323 152.654ZM46.3435 159.457C46.1462 159.457 45.949 159.359 45.7518 159.26C42.9909 157.19 41.9063 154.231 41.9063 154.034C41.7091 153.541 42.0049 152.95 42.4979 152.752C42.9909 152.555 43.5825 152.851 43.7798 153.344C43.7798 153.344 44.6672 155.908 46.9351 157.584C47.7239 158.274 47.3295 159.457 46.3435 159.457ZM40.1314 161.725C38.751 160.049 38.258 158.471 38.1594 158.373C37.9622 157.88 38.258 157.288 38.751 157.091C39.244 156.894 39.8356 157.19 40.0328 157.683C40.0328 157.683 40.5258 159.063 41.6105 160.345C41.9063 160.739 41.9063 161.43 41.5119 161.725C41.1175 162.218 40.5258 162.12 40.1314 161.725Z" fill="#E2805D"/>
<path d="M73.657 158.964C73.657 158.964 71.685 157.288 72.3752 155.316C73.4598 152.16 75.4319 143.779 70.5017 142.694C65.5716 141.61 62.8107 153.344 62.8107 153.344C62.8107 153.344 56.9931 155.217 60.5428 161.528" fill="#FCBBA4"/>
<path d="M59.5564 162.02C57.0913 157.484 58.5704 154.132 61.8243 152.653C62.5145 150.089 65.374 140.623 70.6 141.806C75.826 142.99 74.9385 150.582 73.1637 155.71C72.9664 156.203 72.3748 156.498 71.8818 156.301C71.3888 156.104 71.093 155.512 71.2902 155.019C72.572 151.47 73.8539 144.567 70.107 143.68C66.853 142.99 64.1907 150.779 63.5005 153.54C63.4019 153.836 63.2047 154.132 62.8103 154.23C62.8103 154.23 60.9368 154.822 60.3452 156.498C59.8522 157.682 60.148 159.259 61.134 161.034C61.4299 161.527 61.2327 162.119 60.7396 162.415C60.4438 162.71 59.8522 162.513 59.5564 162.02Z" fill="#E2805D"/>
<path d="M427.939 158.471C427.939 158.471 429.911 156.794 429.221 154.822C428.136 151.667 426.164 143.286 431.094 142.201C436.024 141.117 438.785 152.85 438.785 152.85C438.785 152.85 447.166 154.132 450.026 146.54C451.209 143.483 456.337 145.356 454.956 149.005C456.83 147.624 459.59 149.005 458.506 153.343C460.379 151.963 464.521 153.442 462.056 157.682C464.915 155.611 470.535 159.851 458.21 170.205C452.392 174.05 446.673 175.233 445.194 174.543C436.221 171.881 427.84 169.317 427.939 158.471Z" fill="#FCBBA4"/>
<path d="M453.181 152.358C452.787 152.062 452.688 151.47 452.984 150.977C453.871 149.794 454.167 148.71 454.167 148.71C454.364 148.217 454.857 147.921 455.449 148.118C455.942 148.315 456.238 148.808 456.041 149.4C456.041 149.498 455.548 150.682 454.562 152.161C454.167 152.555 453.576 152.654 453.181 152.358ZM455.252 158.964C454.266 158.964 453.871 157.781 454.66 157.189C456.928 155.513 457.816 152.949 457.816 152.949C458.013 152.456 458.506 152.161 459.097 152.358C459.59 152.555 459.886 153.048 459.689 153.64C459.689 153.738 458.604 156.795 455.843 158.866C455.646 158.964 455.449 158.964 455.252 158.964ZM460.083 161.331C459.689 161.035 459.59 160.345 459.985 159.95C461.069 158.57 461.562 157.288 461.562 157.288C461.76 156.795 462.253 156.499 462.844 156.696C463.337 156.894 463.633 157.387 463.436 157.978C463.436 158.077 462.844 159.655 461.464 161.331C461.069 161.627 460.478 161.725 460.083 161.331Z" fill="#E2805D"/>
<path d="M453.181 152.358C452.787 152.062 452.688 151.47 452.984 150.977C453.871 149.794 454.167 148.71 454.167 148.71C454.364 148.217 454.857 147.921 455.449 148.118C455.942 148.315 456.238 148.808 456.041 149.4C456.041 149.498 455.548 150.682 454.562 152.161C454.167 152.555 453.576 152.654 453.181 152.358ZM455.252 158.964C454.266 158.964 453.871 157.781 454.66 157.189C456.928 155.513 457.816 152.949 457.816 152.949C458.013 152.456 458.506 152.161 459.097 152.358C459.59 152.555 459.886 153.048 459.689 153.64C459.689 153.738 458.604 156.795 455.843 158.866C455.646 158.964 455.449 158.964 455.252 158.964ZM460.083 161.331C459.689 161.035 459.59 160.345 459.985 159.95C461.069 158.57 461.562 157.288 461.562 157.288C461.76 156.795 462.253 156.499 462.844 156.696C463.337 156.894 463.633 157.387 463.436 157.978C463.436 158.077 462.844 159.655 461.464 161.331C461.069 161.627 460.478 161.725 460.083 161.331Z" fill="#E2805D"/>
<path d="M427.939 158.471C427.939 158.471 429.911 156.794 429.221 154.822C428.136 151.667 426.164 143.286 431.094 142.201C436.024 141.117 438.785 152.85 438.785 152.85C438.785 152.85 444.603 154.724 441.053 161.034" fill="#FCBBA4"/>
<path d="M440.659 161.922C440.166 161.626 439.969 161.034 440.264 160.541C441.25 158.767 441.546 157.189 441.053 156.006C440.363 154.428 438.588 153.738 438.588 153.738C438.292 153.639 437.997 153.343 437.898 153.048C437.208 150.287 434.545 142.398 431.292 143.187C427.545 143.976 428.925 150.977 430.108 154.527C430.306 155.02 430.01 155.611 429.517 155.808C429.024 156.006 428.432 155.71 428.235 155.217C426.46 150.188 425.573 142.497 430.799 141.314C436.025 140.131 438.884 149.596 439.574 152.16C442.927 153.738 444.307 157.09 441.842 161.527C441.743 162.02 441.152 162.218 440.659 161.922Z" fill="#E2805D"/>
<path d="M297.881 492.934C297.881 492.934 291.472 497.864 288.612 496.878C283.189 494.906 258.538 465.226 255.58 449.351C253.115 435.547 280.921 425.095 281.02 424.996L301.726 448.661C300.05 450.534 298.867 452.408 297.979 454.084C293.542 462.86 298.078 469.368 301.923 474.692C306.163 480.806 304.389 489.286 297.881 492.934Z" fill="#FFC25E"/>
<path d="M301.727 448.661C300.05 450.534 298.867 452.408 297.98 454.084C284.964 450.436 269.582 443.731 266.427 432.589C273.329 427.856 281.02 424.996 281.02 424.996L301.727 448.661Z" fill="#EFA130"/>
<path d="M317.404 461.479C308.826 469.564 268.004 425.784 276.583 417.699L333.082 360.805C314.348 354.987 295.416 348.874 278.949 345.62C283.09 356.565 282.696 398.57 277.273 398.668C277.273 398.668 133.115 411.191 133.115 336.647C133.115 273.837 284.372 281.33 284.372 281.33C284.372 281.33 410.782 276.203 429.319 339.408C442.236 383.385 317.404 461.479 317.404 461.479Z" fill="#45BBBC"/>
<path d="M314.643 463.451C313.756 463.451 312.77 463.254 311.685 462.958C298.275 458.817 267.314 424.996 275.892 417.009L331.209 361.2C314.545 355.974 294.824 349.762 278.752 346.508C278.259 346.409 277.864 345.916 277.963 345.325C278.061 344.832 278.554 344.437 279.146 344.536C295.711 347.79 315.826 354.199 333.378 359.721C334.068 359.918 334.265 360.805 333.772 361.397L277.272 418.291C270.962 424.207 298.176 456.648 312.277 460.986C314.347 461.578 315.826 461.479 316.714 460.691C317.108 460.296 317.7 460.296 318.094 460.691C318.489 461.085 318.489 461.677 318.094 462.071C317.207 463.057 316.122 463.451 314.643 463.451Z" fill="#112544"/>
<path d="M310.897 416.516C309.22 419.08 301.135 418.981 301.135 418.981C293.74 419.967 287.232 414.347 286.936 406.951C286.739 401.232 286.443 394.527 280.724 390.09C278.555 388.414 275.498 386.935 271.357 386.048L273.526 354.692C273.625 354.692 302.22 346.212 308.53 358.636C315.728 373.131 314.052 411.783 310.897 416.516Z" fill="#FFC25E"/>
<path d="M297.782 352.325C296.895 362.876 293.444 381.709 280.724 390.09C278.555 388.414 275.498 386.935 271.357 386.047L273.526 354.692C273.526 354.692 287.232 350.649 297.782 352.325Z" fill="#EFA130"/>
<path d="M333.279 361.89C332.392 361.89 331.998 360.805 332.589 360.214C335.942 356.96 348.662 346.114 369.368 343.944C369.861 343.846 370.354 344.24 370.453 344.832C370.552 345.325 370.157 345.818 369.565 345.916C349.45 347.987 337.224 358.538 333.97 361.693C333.772 361.792 333.575 361.89 333.279 361.89Z" fill="#112544"/>
<path d="M448.251 174.741C448.251 174.741 423.798 246.228 374.989 248.595C364.636 249.088 353.691 245.538 344.422 241.101C346.788 251.454 348.662 258.948 350.437 264.766C354.381 278.176 357.438 282.416 363.058 289.614C264.948 264.273 239.902 321.66 207.955 285.571C207.955 285.571 202.532 265.358 198.982 240.016C197.897 232.325 197.01 224.141 196.418 215.859C178.275 230.748 150.075 250.173 126.706 249.088C77.8969 246.721 53.4432 175.234 53.4432 175.234C60.1483 174.938 70.6988 166.951 73.7555 158.669C78.3899 159.753 83.1229 162.021 87.7572 164.979C108.267 177.995 127.494 204.716 127.494 204.716C181.726 119.227 317.7 115.283 374.101 204.223C374.101 204.223 393.329 177.502 413.839 164.486C418.572 161.528 423.305 159.26 427.84 158.176C430.996 166.458 441.546 174.445 448.251 174.741Z" fill="white"/>
<path d="M362.959 289.614C264.849 264.273 239.804 321.66 207.856 285.571C207.856 285.571 202.433 265.357 198.883 240.016C202.137 244.65 206.278 248.496 211.11 251.553C220.181 257.272 230.732 260.033 241.184 262.103C268.596 267.526 296.895 269.006 324.701 266.54C333.181 265.752 341.759 264.568 350.239 264.864C354.381 278.176 357.437 282.416 362.959 289.614ZM53.3445 175.234C53.3445 175.234 77.7982 246.721 126.607 249.088C134.988 249.482 143.961 247.214 153.033 243.467C151.652 243.566 150.272 243.763 148.891 243.862C110.436 247.214 74.6429 222.958 63.5993 185.686C62.7118 182.728 62.0216 179.572 63.3035 176.811C66.2616 170.008 74.6429 171.783 80.3619 171.092C83.813 170.698 86.4753 168.134 87.7571 165.078C83.0241 162.119 78.2912 159.852 73.7554 158.767C70.6001 166.951 60.0496 174.938 53.3445 175.234ZM448.251 174.741C448.251 174.741 423.797 246.228 374.989 248.595C366.607 248.989 357.635 246.721 348.563 242.974C349.944 243.073 351.324 243.27 352.704 243.369C371.242 244.946 390.272 240.016 405.753 229.466C421.135 219.014 432.77 203.04 437.996 185.193C438.884 182.235 439.574 179.079 438.292 176.318C435.334 169.515 426.953 171.29 421.234 170.599C417.783 170.205 415.12 167.641 413.839 164.585C418.571 161.626 423.304 159.359 427.84 158.274C430.996 166.458 441.546 174.445 448.251 174.741Z" fill="#DDF3F4"/>
<path d="M232.112 298.882C223.435 298.882 215.547 295.628 207.166 286.261C207.067 286.162 206.968 285.965 206.968 285.867C206.87 285.571 198.094 252.144 195.53 217.83C177.486 232.424 149.877 251.158 126.607 250.074C106.294 249.088 87.0667 235.875 70.8958 211.816C58.7675 193.771 52.5555 175.727 52.4569 175.529C52.2597 174.938 52.6541 174.248 53.3444 174.248C59.3592 174.05 69.7125 166.458 72.7692 158.372C72.9664 157.879 73.4594 157.682 73.9525 157.781C78.3896 158.767 83.2212 160.936 88.3486 164.289C106.294 175.727 123.55 197.912 127.494 203.138C182.811 117.945 317.601 115.381 374.2 202.645C378.144 197.321 395.4 175.234 413.345 163.796C418.473 160.542 423.304 158.372 427.741 157.288C428.234 157.189 428.727 157.485 428.925 157.879C431.981 166.064 442.335 173.557 448.35 173.755C449.04 173.755 449.434 174.445 449.237 175.036C449.138 175.234 442.926 193.278 430.798 211.322C414.627 235.382 395.4 248.595 375.087 249.581C365.227 250.074 354.874 246.918 345.901 242.876C353.197 274.33 355.958 278.866 363.846 289.121C364.142 289.416 364.142 289.909 363.846 290.304C363.649 290.698 363.156 290.797 362.762 290.698C311.784 277.485 280.625 286.754 257.946 293.558C248.086 296.417 239.705 298.882 232.112 298.882ZM208.743 285.078C223.534 301.643 236.944 297.6 257.355 291.586C279.836 284.881 310.601 275.711 360.494 288.036C353.493 278.767 350.634 272.555 343.436 241.397C343.238 240.608 344.027 239.918 344.816 240.312C354.085 244.65 364.734 248.2 374.989 247.707C419.163 245.636 443.518 184.897 446.969 175.727C439.87 174.642 430.7 166.951 427.446 159.457C423.501 160.542 419.163 162.514 414.529 165.472C394.414 178.29 375.186 204.716 374.989 205.012C374.594 205.505 373.707 205.604 373.312 205.012C317.996 117.846 183.008 119.424 128.382 205.505C128.184 205.801 127.889 205.998 127.593 205.998C127.297 205.998 127.001 205.899 126.804 205.604C126.607 205.308 107.379 178.882 87.2639 166.064C82.6296 163.105 78.291 161.133 74.3469 160.049C71.093 167.543 61.8243 175.135 54.8234 176.318C58.2745 185.587 82.6296 246.228 126.804 248.299C149.877 249.383 177.979 229.959 195.826 215.267C196.418 214.774 197.404 215.168 197.404 215.957C199.573 249.088 207.954 282.021 208.743 285.078Z" fill="#112544"/>
<path d="M275.005 94.3789C273.427 90.3362 271.06 85.7018 267.905 80.4759C264.257 59.9664 224.618 81.8563 228.168 96.351L237.93 141.018C240.888 154.626 268.3 148.611 265.341 135.004L263.172 123.763C264.257 123.763 281.512 122.678 277.667 102.957C277.174 100.394 276.286 97.5342 275.005 94.3789Z" fill="#FCBBA4"/>
<path d="M236.944 141.216L236.451 138.948C236.352 138.455 236.648 137.863 237.24 137.765C237.733 137.666 238.324 137.962 238.423 138.553L238.916 140.821C241.282 151.766 261.693 148.512 264.257 139.145C264.356 138.652 264.947 138.356 265.44 138.455C265.933 138.553 266.229 139.145 266.131 139.638C262.975 150.978 239.803 154.231 236.944 141.216ZM271.554 86.8853L267.905 80.4761C267.905 80.4761 261.891 89.2518 242.86 87.2797C223.83 85.209 231.817 92.9001 233.69 95.168C234.972 96.7456 237.338 100.394 230.338 102.563C231.619 103.451 233.197 107.198 232.704 109.564C232.704 109.564 238.916 116.861 234.183 124.157C233.986 124.453 235.169 127.115 235.169 128.595C235.169 128.595 197.7 96.3512 220.477 85.8007C220.477 85.8007 204.109 69.7283 212.49 66.1786C224.224 61.1498 232.211 73.278 261.989 53.7546C271.258 47.7398 287.429 63.6149 271.554 86.8853Z" fill="#112544"/>
<path d="M255.594 98.2134C256.285 98.0622 256.704 97.2928 256.53 96.4947C256.356 95.6967 255.654 95.1723 254.962 95.3235C254.27 95.4746 253.851 96.2441 254.025 97.0421C254.2 97.8401 254.902 98.3645 255.594 98.2134Z" fill="#112544"/>
<path d="M269.59 93.6675C270.282 93.5163 270.701 92.7469 270.527 91.9488C270.352 91.1508 269.65 90.6264 268.959 90.7776C268.267 90.9287 267.848 91.6982 268.022 92.4962C268.196 93.2942 268.899 93.8186 269.59 93.6675Z" fill="#112544"/>
<path d="M268.99 86.1946C269.286 86.7862 267.905 87.8709 265.835 88.8569C263.764 89.8429 261.792 90.2373 261.496 89.7443C261.2 89.1527 262.778 87.7723 264.849 86.7862C266.919 85.8002 268.793 85.603 268.99 86.1946ZM254.791 90.1387C255.087 90.7304 253.706 91.815 251.636 92.801C249.565 93.7871 247.593 94.1815 247.297 93.6885C247.001 93.0968 248.579 91.7164 250.65 90.7304C252.72 89.8429 254.495 89.5471 254.791 90.1387Z" fill="#112544"/>
<path d="M261.398 110.747C261.398 110.747 264.356 115.874 269.385 110.451L261.398 110.747Z" fill="#FCBBA4"/>
<path d="M260.609 111.24C260.313 110.747 260.51 110.156 261.003 109.86C261.496 109.564 262.088 109.761 262.384 110.254C263.567 112.325 265.933 112.916 268.793 109.761C269.187 109.367 269.779 109.367 270.173 109.663C270.568 110.057 270.568 110.649 270.272 111.043C266.229 115.283 262.384 114.198 260.609 111.24Z" fill="#E2805D"/>
<path d="M261.102 93.2939C261.102 93.2939 271.061 98.9143 263.369 101.182L261.102 93.2939Z" fill="#FCBBA4"/>
<path d="M262.383 101.478C262.186 100.985 262.482 100.393 263.074 100.295C264.454 99.9004 265.243 99.4074 265.342 98.8158C265.44 97.5339 262.679 95.3647 260.707 94.1814C260.214 93.8856 260.017 93.294 260.313 92.801C260.609 92.308 261.2 92.1108 261.693 92.4066C262.679 92.9982 267.708 95.9563 267.314 98.9144C267.116 100.295 265.933 101.379 263.665 102.07C263.172 102.267 262.581 101.971 262.383 101.478Z" fill="#E2805D"/>
<path d="M233.69 103.154C236.352 106.605 236.056 111.141 233.197 113.31C230.337 115.48 225.9 114.592 223.238 111.141C220.576 107.69 220.871 103.154 223.731 100.985C226.59 98.717 231.028 99.703 233.69 103.154Z" fill="#FCBBA4"/>
<path d="M228.168 108.479L226.985 107.099C226.591 106.704 226.689 106.014 227.084 105.718C227.478 105.324 228.168 105.423 228.464 105.817L229.647 107.197C230.042 107.592 229.943 108.282 229.549 108.578C229.154 108.972 228.464 108.972 228.168 108.479ZM263.172 123.763C263.172 123.763 257.749 125.34 249.269 123.27C248.382 123.073 247.692 124.157 248.382 124.847C250.748 127.411 255.777 131.059 264.553 130.862L263.172 123.763Z" fill="#E2805D"/>
<path d="M198.686 339.409L276.878 343.057C283.09 342.958 283.583 398.571 277.371 398.669L248.283 399.36" fill="#45BBBC"/>
<path d="M248.185 400.345C247.692 400.345 247.199 399.951 247.199 399.359C247.199 398.768 247.593 398.373 248.185 398.373L277.273 397.683C277.273 397.683 278.653 397.289 279.738 389.795C280.428 384.766 280.822 378.061 280.724 370.863C280.625 363.665 280.231 356.861 279.442 351.931C278.259 344.437 276.878 344.141 276.878 344.141L198.587 340.493C197.996 340.493 197.601 340 197.601 339.507C197.601 338.915 198.094 338.521 198.587 338.521C226.788 339.803 276.977 342.169 276.78 342.169C278.85 342.169 280.231 345.127 281.315 351.635C282.104 356.763 282.597 363.566 282.696 370.863C282.795 378.16 282.4 385.062 281.71 390.09C280.822 396.697 279.442 399.655 277.273 399.655L248.185 400.345C248.283 400.345 248.283 400.345 248.185 400.345ZM195.432 215.957C195.432 215.858 194.84 206.491 195.826 197.222C195.925 196.729 196.319 196.236 196.911 196.335C197.404 196.433 197.798 196.828 197.798 197.42C196.812 206.491 197.404 215.661 197.404 215.76C197.404 216.351 197.01 216.746 196.517 216.844C195.826 216.844 195.432 216.45 195.432 215.957ZM343.436 241.199C343.436 240.904 338.407 208.463 323.222 179.967C322.926 179.474 323.123 178.882 323.616 178.586C324.109 178.29 324.701 178.488 324.997 178.981C340.379 207.871 345.408 240.608 345.408 240.904C345.506 241.397 345.112 241.988 344.619 241.988C344.027 242.087 343.436 241.791 343.436 241.199Z" fill="#112544"/>
<path d="M287.626 490.075C271.85 476.467 259.919 447.971 259.426 446.788C259.228 446.295 259.426 445.703 259.919 445.506C260.412 445.309 261.003 445.506 261.2 445.999C261.299 446.295 273.427 475.284 288.908 488.596C289.302 488.99 289.401 489.582 289.007 489.976C288.612 490.37 288.021 490.469 287.626 490.075ZM303.994 413.854C303.501 413.756 303.107 413.164 303.304 412.671C309.812 387.429 303.304 359.228 303.206 358.932C303.107 358.439 303.403 357.847 303.896 357.749C304.389 357.65 304.98 357.946 305.079 358.439C305.178 358.735 311.784 387.33 305.178 413.164C305.079 413.657 304.586 413.953 303.994 413.854Z" fill="white"/>
<path d="M293.641 459.408C293.148 459.112 292.95 458.521 293.246 458.028C293.542 457.535 294.134 457.337 294.627 457.633C296.599 458.718 297.486 458.126 297.683 457.929C298.078 457.633 298.768 457.732 299.064 458.126C299.36 458.521 299.261 459.211 298.867 459.507C297.289 460.69 295.416 460.296 293.641 459.408ZM293.936 463.648C293.443 463.352 293.246 462.761 293.542 462.268C293.838 461.775 294.43 461.577 294.923 461.873C296.895 462.958 297.782 462.366 297.979 462.169C298.374 461.873 299.064 461.972 299.36 462.366C299.655 462.761 299.557 463.451 299.162 463.747C297.486 464.93 295.613 464.634 293.936 463.648ZM294.528 467.987C294.035 467.691 293.838 467.099 294.134 466.606C294.429 466.113 295.021 465.916 295.514 466.212C297.486 467.296 298.374 466.705 298.571 466.508C298.965 466.212 299.655 466.31 299.951 466.705C300.247 467.099 300.148 467.789 299.754 468.085C298.078 469.269 296.204 468.874 294.528 467.987ZM282.498 394.922C282.005 394.823 281.611 394.33 281.71 393.738C281.808 393.147 282.301 392.851 282.893 392.949C283.189 393.048 284.175 393.245 285.654 391.47C285.95 391.076 286.64 390.977 287.034 391.273C287.429 391.569 287.527 392.259 287.231 392.654C285.95 394.33 284.372 395.415 282.498 394.922ZM284.076 398.964C283.583 398.866 283.189 398.373 283.287 397.781C283.386 397.288 283.879 396.894 284.471 396.992C284.766 397.091 285.752 397.288 287.231 395.513C287.527 395.119 288.217 395.02 288.612 395.316C289.006 395.612 289.105 396.302 288.809 396.696C287.527 398.274 285.95 399.359 284.076 398.964ZM285.259 403.106C284.766 403.007 284.372 402.514 284.471 401.922C284.569 401.429 285.062 401.035 285.654 401.134C285.95 401.232 286.936 401.429 288.415 399.654C288.711 399.26 289.401 399.161 289.795 399.457C290.19 399.753 290.288 400.443 289.992 400.838C288.711 402.415 287.231 403.5 285.259 403.106ZM371.833 215.463C370.058 207.97 373.214 203.828 373.411 203.73C373.707 203.335 374.397 203.237 374.791 203.631C375.186 203.927 375.284 204.617 374.988 205.011C374.89 205.11 372.228 208.561 373.805 215.069C373.904 215.562 373.608 216.154 373.115 216.252C372.425 216.252 371.932 215.956 371.833 215.463ZM131.832 214.083C131.241 214.083 130.846 213.689 130.846 213.097C130.846 210.533 127.888 206.786 126.705 205.504C126.311 205.11 126.409 204.518 126.804 204.124C127.198 203.73 127.79 203.828 128.184 204.223C128.381 204.42 132.819 209.35 132.819 213.196C132.819 213.59 132.424 214.083 131.832 214.083Z" fill="#112544"/>
<path d="M499.328 97.3364C499.328 126.227 475.86 149.695 446.969 149.695C418.079 149.695 394.611 126.227 394.611 97.3364C394.611 68.4456 418.079 44.978 446.969 44.978C475.86 44.978 499.328 68.347 499.328 97.3364Z" fill="white"/>
<path d="M499.328 97.3369C499.328 126.228 475.86 149.695 446.969 149.695C428.432 149.695 412.162 140.032 402.894 125.537C412.458 136.482 426.558 143.483 442.335 143.483C471.226 143.483 494.693 120.016 494.693 91.1249C494.693 80.7715 491.637 71.0098 486.411 62.9243C494.496 72.0944 499.328 84.124 499.328 97.3369Z" fill="#E1E5FF"/>
<path d="M446.969 150.681C417.586 150.681 393.625 126.72 393.625 97.3366C393.625 67.9528 417.586 43.9922 446.969 43.9922C476.353 43.9922 500.314 67.9528 500.314 97.3366C500.314 126.72 476.353 150.681 446.969 150.681ZM446.969 45.9643C418.67 45.9643 395.597 69.0374 395.597 97.3366C395.597 125.636 418.67 148.709 446.969 148.709C475.269 148.709 498.342 125.636 498.342 97.3366C498.342 69.0374 475.269 45.9643 446.969 45.9643Z" fill="#112544"/>
<path d="M485.326 97.3367C485.326 118.536 468.169 135.693 446.969 135.693C425.769 135.693 408.612 118.536 408.612 97.3367C408.612 76.137 425.769 58.98 446.969 58.98C468.169 58.98 485.326 76.137 485.326 97.3367Z" fill="#45BBBC"/>
<path d="M457.027 87.5754C458.309 91.3223 457.125 94.7735 452.886 96.6469V96.8441C455.548 97.4357 457.52 98.619 458.802 100.394C459.492 101.676 459.788 102.958 459.788 104.141V104.535C459.788 107.296 458.407 109.564 455.745 111.437C453.379 112.719 450.125 113.311 446.18 113.311C442.729 113.311 440.659 113.015 440.264 112.325C439.968 112.128 439.87 106.704 439.87 96.0553C439.87 92.8014 439.87 88.9558 439.87 84.7159C439.87 84.3215 440.264 83.8285 441.053 83.2368C447.364 82.0536 454.167 81.955 457.027 87.5754ZM443.518 99.8022L443.715 109.268C443.913 109.465 444.8 109.465 446.279 109.465C451.308 109.465 454.365 108.479 455.449 106.507C455.745 105.817 455.942 105.225 455.942 104.732V104.141C455.942 102.366 454.759 101.084 452.294 100.492C450.42 99.9994 448.35 99.7036 446.18 99.7036L443.518 99.8022ZM443.715 86.9838V95.6609C444.406 95.5623 447.857 96.2525 451.899 93.1958C453.083 92.1112 453.674 91.1251 453.674 90.4349C453.477 90.0405 454.66 87.674 449.533 86.5894C448.843 86.4908 448.054 86.3922 447.265 86.3922C444.899 86.5894 443.814 86.7866 443.715 86.9838Z" fill="#2C9E9F"/>
<path d="M485.326 97.3368C485.326 118.536 468.169 135.693 446.969 135.693C432.967 135.693 420.642 128.2 414.036 116.959C421.036 125.143 431.488 130.27 443.124 130.27C464.323 130.27 481.48 113.113 481.48 91.9136C481.48 84.7155 479.508 78.0105 476.057 72.2915C481.776 78.9965 485.326 87.7722 485.326 97.3368Z" fill="#2C9E9F"/>
<path d="M105.703 102.464C105.703 131.355 82.2352 154.823 53.3444 154.823C24.4536 154.823 0.985992 131.355 0.985992 102.464C0.985992 73.5736 24.4536 50.106 53.3444 50.106C82.2352 50.106 105.703 73.5736 105.703 102.464Z" fill="white"/>
<path d="M105.703 102.464C105.703 131.355 82.2351 154.823 53.3443 154.823C34.8069 154.823 18.5373 145.16 9.26859 130.665C18.8331 141.61 32.9334 148.611 48.7099 148.611C77.6007 148.611 101.068 125.143 101.068 96.2523C101.068 85.899 98.0116 76.1372 92.7857 68.0518C100.871 77.2219 105.703 89.2515 105.703 102.464Z" fill="#DDF3F4"/>
<path d="M53.3444 155.808C23.9606 155.808 0 131.848 0 102.464C0 73.0802 23.9606 49.1196 53.3444 49.1196C82.7282 49.1196 106.689 73.0802 106.689 102.464C106.689 131.848 82.8269 155.808 53.3444 155.808ZM53.3444 51.0917C25.0453 51.0917 1.97207 74.1649 1.97207 102.464C1.97207 130.763 25.0453 153.836 53.3444 153.836C81.6436 153.836 104.717 130.763 104.717 102.464C104.717 74.1649 81.7422 51.0917 53.3444 51.0917Z" fill="#112544"/>
<path d="M91.7013 102.464C91.7013 123.664 74.5443 140.821 53.3446 140.821C32.1449 140.821 14.9879 123.664 14.9879 102.464C14.9879 81.2644 32.1449 64.1074 53.3446 64.1074C74.5443 64.1074 91.7013 81.2644 91.7013 102.464Z" fill="#387FD1"/>
<path d="M64.7825 114.593C64.8811 114.888 64.8811 115.184 64.8811 115.381C64.8811 115.973 64.6839 116.466 64.2895 116.762C63.9937 116.861 63.5992 117.058 63.2048 117.058C62.0216 117.058 61.2328 116.17 60.937 114.395L59.0635 107.493H58.9649L49.3018 107.197L48.9073 107.099L46.4423 114.79C46.1464 116.072 45.5548 116.663 44.4702 116.762C43.1883 116.762 42.4981 116.072 42.4981 114.79C48.0199 96.7454 51.1752 87.4767 51.964 86.9837C52.6543 86.4907 53.4431 86.2935 54.4291 86.2935C54.6263 86.2935 54.8235 86.2935 55.1193 86.2935C56.4012 86.3921 57.19 86.7865 57.683 87.3781C58.2747 88.1669 60.6411 97.2384 64.7825 114.593ZM50.0906 103.352H50.2878L58.1761 103.648V103.549C56.204 94.9706 55.0207 90.7306 54.7249 90.7306C54.4291 90.7306 53.7389 92.4069 52.6543 95.6608C51.5696 98.9147 50.6822 101.478 50.0906 103.352Z" fill="#2B66AB"/>
<path d="M91.7013 102.464C91.7013 123.664 74.5443 140.821 53.3446 140.821C39.3429 140.821 27.0175 133.327 20.4111 122.086C27.4119 130.27 37.8639 135.398 49.4991 135.398C70.6988 135.398 87.8558 118.241 87.8558 97.041C87.8558 89.843 85.8837 83.1379 82.4326 77.4189C88.2502 84.2226 91.7013 92.8997 91.7013 102.464Z" fill="#2B66AB"/>
<path d="M62.4161 112.719C62.5148 113.014 62.5147 113.31 62.5147 113.507C62.5147 114.099 62.3175 114.592 61.9231 114.888C61.6273 114.986 61.2329 115.184 60.8385 115.184C59.6552 115.184 58.8664 114.296 58.5706 112.521L56.6971 105.619H56.5985L46.9354 105.323L46.541 105.225L44.0759 112.916C43.7801 114.198 43.1885 114.789 42.1038 114.888C40.822 114.888 40.1318 114.198 40.1318 112.916C45.6536 94.8714 48.8089 85.6027 49.5977 85.1097C50.2879 84.6166 51.0768 84.4194 52.0628 84.4194C52.26 84.4194 52.4572 84.4194 52.753 84.4194C54.0349 84.518 54.8237 84.9124 55.3167 85.5041C55.9083 86.2929 58.2748 95.2658 62.4161 112.719ZM47.7242 101.478H47.9215L55.8097 101.774V101.576C53.8377 92.9979 52.6544 88.758 52.3586 88.758C52.0628 88.758 51.3726 90.4342 50.2879 93.6881C49.2033 97.0407 48.3159 99.6043 47.7242 101.478Z" fill="white"/>
<path d="M454.364 85.9978C454.66 86.8853 454.857 87.6741 454.857 88.2657C454.759 88.5615 455.548 92.7029 450.223 95.0693V95.2666C452.885 95.8582 454.857 97.0414 456.139 98.8163C456.829 100.098 457.125 101.38 457.125 102.563V102.958C457.125 105.718 455.745 107.986 453.082 109.86C450.716 111.142 447.462 111.733 443.518 111.733C440.067 111.733 437.996 111.438 437.602 110.747C437.306 110.55 437.207 105.127 437.207 94.4777C437.207 91.2238 437.207 87.3783 437.207 83.1383C437.207 82.7439 437.602 82.2509 438.391 81.6593C444.603 80.3774 451.406 80.2788 454.364 85.9978ZM440.856 98.126L441.053 107.592C441.25 107.789 442.138 107.789 443.617 107.789C448.645 107.789 451.702 106.803 452.787 104.831C453.082 104.141 453.28 103.549 453.28 103.056V102.465C453.28 100.69 452.096 99.4079 449.631 98.8163C447.758 98.3232 445.687 98.0274 443.518 98.0274L440.856 98.126ZM441.053 85.3076V93.9847H442.236C444.701 93.9847 447.068 93.1959 449.237 91.5196C450.42 90.435 451.012 89.4489 451.012 88.7587C450.815 88.3643 451.998 85.9978 446.87 84.9132C446.18 84.8146 445.391 84.716 444.603 84.716C442.236 84.9132 441.053 85.1104 441.053 85.3076Z" fill="white"/>
<path d="M183.501 395.119C168.316 337.633 125.818 366.918 125.818 366.918C125.818 366.918 118.916 370.764 113.69 379.441" fill="white"/>
<path d="M183.501 396.105C183.107 396.105 182.712 395.809 182.515 395.415C177.782 377.37 169.795 366.228 158.949 362.186C143.271 356.368 126.508 367.609 126.311 367.806C126.213 367.905 119.508 371.651 114.479 380.033C114.183 380.526 113.591 380.624 113.098 380.329C112.605 380.033 112.507 379.441 112.802 378.948C118.127 370.074 125.029 366.228 125.227 366.031C125.818 365.637 142.877 354.1 159.54 360.312C171.077 364.552 179.36 376.187 184.29 394.922C184.389 395.415 184.093 396.006 183.6 396.105H183.501Z" fill="#112544"/>
<path d="M371.045 37.3859L343.337 17.5666C342.943 17.2708 342.746 16.6792 343.14 16.1862C343.436 15.7917 344.027 15.5945 344.52 15.989L372.228 35.8082C372.622 36.1041 372.82 36.6957 372.425 37.1887C372.129 37.5831 371.538 37.6817 371.045 37.3859ZM388.005 49.5141L381.201 44.6826C380.806 44.3867 380.609 43.7951 381.004 43.3021C381.299 42.9077 381.891 42.7105 382.384 43.1049L389.188 47.9365C389.582 48.2323 389.779 48.8239 389.385 49.3169C389.089 49.7113 388.399 49.8099 388.005 49.5141ZM338.9 70.418C338.9 69.8264 339.294 69.432 339.787 69.3334L342.844 69.1362C343.436 69.1362 343.83 69.5306 343.929 70.0236C343.929 70.6152 343.534 71.0097 343.041 71.1083L339.985 71.3055C339.393 71.4041 338.9 71.0096 338.9 70.418ZM350.535 69.7278C350.535 69.1362 350.93 68.7418 351.423 68.6432L382.976 66.6711C383.567 66.6711 383.962 67.0655 384.06 67.5585C384.06 68.1502 383.666 68.5446 383.173 68.6432L351.62 70.6152C351.028 70.7139 350.634 70.2208 350.535 69.7278ZM395.301 5.4384L394.611 1.09985C394.512 0.606829 394.907 0.0152106 395.4 0.0152106C395.991 -0.0833928 396.484 0.311024 396.484 0.804041L397.175 5.14258C397.273 5.6356 396.879 6.22723 396.386 6.22723C395.893 6.42443 395.4 6.03002 395.301 5.4384ZM401.119 41.6258L397.372 18.2568C397.273 17.7638 397.668 17.1722 398.161 17.1722C398.752 17.0736 399.245 17.468 399.245 17.961L402.992 41.33C403.091 41.823 402.696 42.4147 402.203 42.4147C401.71 42.5133 401.217 42.2175 401.119 41.6258Z" fill="#DDF3F4"/>
<path d="M124.24 50.0077C123.945 49.5147 124.043 48.9231 124.536 48.6273L153.23 30.287C153.723 29.9912 154.314 30.0898 154.61 30.5828C154.906 31.0759 154.807 31.6675 154.314 31.9633L125.621 50.3035C125.128 50.5993 124.536 50.5007 124.24 50.0077ZM106.788 61.1499C106.492 60.6569 106.59 60.0653 107.083 59.7695L114.084 55.2337C114.577 54.9379 115.169 55.0365 115.465 55.5295C115.76 56.0225 115.662 56.6141 115.169 56.9099L108.168 61.4457C107.675 61.7415 107.083 61.6429 106.788 61.1499ZM155.005 85.8994L151.948 85.6035C151.455 85.5049 151.061 85.0119 151.061 84.5189C151.159 84.0259 151.652 83.5329 152.145 83.6315L155.202 83.9273C155.695 84.0259 156.089 84.5189 156.089 85.0119C155.991 85.5049 155.498 85.8994 155.005 85.8994ZM143.369 84.5189L111.915 80.9692C111.422 80.8706 111.028 80.3776 111.028 79.8845C111.126 79.3915 111.619 78.8985 112.112 78.9971L143.567 82.5468C144.06 82.6454 144.454 83.1385 144.454 83.6315C144.355 84.2231 143.862 84.6175 143.369 84.5189ZM101.956 17.9616C101.463 17.863 101.069 17.37 101.167 16.7784L102.055 12.5384C102.153 12.0454 102.646 11.651 103.238 11.7496C103.731 11.8482 104.125 12.3412 104.027 12.9328L103.139 17.1728C103.041 17.6658 102.449 18.0602 101.956 17.9616ZM94.2649 53.7546C93.7719 53.656 93.3775 53.163 93.4761 52.5714L98.4063 29.3996C98.5049 28.9066 98.9979 28.5122 99.5895 28.6108C100.083 28.7094 100.477 29.2024 100.378 29.794L95.4482 52.9658C95.3496 53.5574 94.758 53.8532 94.2649 53.7546Z" fill="#DDF3F4"/>
</svg>
