<svg width="210" height="63" viewBox="0 0 210 63" fill="none" xmlns="http://www.w3.org/2000/svg">
<g clip-path="url(#clip0_176_197)">
<path d="M89.9115 18.7605C94.9732 18.7605 99.3191 21.3042 101.121 26.0554H96.3529C95.7639 24.8562 94.835 23.8568 93.6819 23.1822C92.5287 22.5075 91.2024 22.1872 89.8684 22.2613C85.0741 22.2613 81.5646 25.6673 81.5646 31.1429C81.5646 36.6184 85.0138 40.0676 89.8684 40.0676C91.203 40.1452 92.5307 39.8264 93.6845 39.1513C94.8383 38.4761 95.7666 37.475 96.3529 36.2735H101.121C99.276 41.0075 94.93 43.5254 89.9115 43.5254C88.2753 43.568 86.6475 43.2774 85.1271 42.6712C83.6067 42.0651 82.2254 41.1562 81.0672 39.9996C79.909 38.843 78.9981 37.463 78.3899 35.9434C77.7817 34.4238 77.4888 32.7965 77.529 31.1602C77.4927 29.5233 77.7879 27.896 78.3971 26.3762C79.0062 24.8565 79.9167 23.4758 81.0736 22.3173C82.2305 21.1588 83.61 20.2463 85.1288 19.6351C86.6478 19.0238 88.2746 18.7263 89.9115 18.7605Z" fill="#5ECDD4"/>
<path d="M114.097 43.6209C108.63 43.6209 104.475 39.706 104.475 33.6873C104.475 27.6685 108.786 23.7969 114.27 23.7969C119.754 23.7969 124.057 27.6599 124.057 33.6873C124.057 39.7147 119.617 43.6209 114.097 43.6209ZM114.097 40.1717C117.056 40.1717 119.978 38.0418 119.978 33.6959C119.978 29.35 117.15 27.2374 114.201 27.2374C111.252 27.2374 108.51 29.3241 108.51 33.6959C108.51 38.0677 111.123 40.1631 114.097 40.1631V40.1717Z" fill="#5ECDD4"/>
<path d="M141.625 32.5827C141.625 29.056 139.711 27.2538 136.831 27.2538C133.951 27.2538 131.985 29.056 131.985 32.5827V43.3096H128.001V24.1064H131.985V26.2966C132.696 25.487 133.576 24.8422 134.561 24.4073C135.547 23.9724 136.616 23.7579 137.693 23.7787C142.177 23.7787 145.566 26.6071 145.566 31.9533V43.2837H141.625V32.5827Z" fill="#5ECDD4"/>
<path d="M152.623 24.1064L158.063 39.7829L163.504 24.1324H167.73L160.384 43.3097H155.658L148.363 24.1064H152.623Z" fill="#5ECDD4"/>
<path d="M178.942 43.6209C173.44 43.6209 169.361 39.706 169.361 33.6873C169.361 27.6685 173.319 23.7969 178.942 23.7969C184.408 23.7969 188.271 27.5909 188.271 33.282C188.283 33.9319 188.234 34.5815 188.125 35.2222H173.466C173.52 36.622 174.126 37.9435 175.153 38.8971C176.179 39.8507 177.541 40.3586 178.942 40.3097C179.881 40.3735 180.818 40.1504 181.628 39.6701C182.438 39.1896 183.083 38.4745 183.478 37.6193H187.746C186.668 40.9306 183.666 43.6209 178.942 43.6209ZM173.518 32.023H184.15C184.072 29.074 181.744 27.177 178.769 27.177C177.439 27.1544 176.151 27.6453 175.172 28.5478C174.194 29.4503 173.602 30.6949 173.518 32.023Z" fill="#5ECDD4"/>
<path d="M205.364 24.1064H209.459L197.681 52.3291H193.577L197.465 42.9992L189.877 24.1064H194.292L199.699 38.7654L205.364 24.1064Z" fill="#5ECDD4"/>
<path d="M30.3786 62.599C26.313 62.614 22.2872 61.7982 18.548 60.2019C13.0488 57.8767 8.3567 53.9826 5.05792 49.006C1.75914 44.0295 -2.96813e-05 38.1912 0.000200414 32.2206C-0.0146965 28.155 0.801031 24.1292 2.39736 20.39C4.72255 14.8908 8.61668 10.1987 13.5932 6.8999C18.5698 3.60112 24.4081 1.84195 30.3786 1.84218C34.4588 1.8214 38.4999 2.63724 42.2524 4.23934C47.7435 6.57111 52.4265 10.4681 55.7173 15.4441C59.0081 20.4201 60.7609 26.2549 60.7571 32.2206C60.7779 36.3008 59.962 40.3418 58.3599 44.0943C55.2802 51.3475 49.5055 57.1221 42.2524 60.2019C38.4999 61.804 34.4588 62.6198 30.3786 62.599ZM30.3786 5.42068C25.0823 5.42069 19.9047 6.99103 15.5008 9.93319C11.0967 12.8753 7.66394 17.0572 5.63631 21.9501C3.60869 26.843 3.0773 32.2272 4.10931 37.4221C5.14134 42.6169 7.69042 47.3892 11.4343 51.1355C15.1782 54.8819 19.9489 57.434 25.143 58.4693C30.3372 59.5047 35.7218 58.9767 40.616 56.9523C45.5102 54.9278 49.6943 51.4977 52.6392 47.0956C55.5842 42.6934 57.1579 37.517 57.1614 32.2206C57.159 25.1165 54.3371 18.3038 49.3154 13.2788C44.2937 8.25384 37.4828 5.42754 30.3786 5.42068Z" fill="#5ECDD4"/>
<path d="M50.2468 34.2388H28.6292C28.0826 34.2388 27.5585 34.0216 27.172 33.6352C26.7855 33.2487 26.5684 32.7245 26.5684 32.178C26.5672 31.9066 26.6197 31.6377 26.7227 31.3866C26.8258 31.1356 26.9774 30.9074 27.1689 30.7151C27.3604 30.5228 27.5879 30.3702 27.8385 30.2661C28.0891 30.1621 28.3578 30.1084 28.6292 30.1084H50.2468C50.7957 30.1084 51.3221 30.3264 51.7101 30.7146C52.0983 31.1026 52.3163 31.629 52.3163 32.178C52.3174 32.4496 52.2646 32.7188 52.1609 32.9699C52.0573 33.221 51.9047 33.4491 51.7122 33.6408C51.5197 33.8325 51.291 33.9841 51.0394 34.0867C50.7879 34.1894 50.5184 34.2411 50.2468 34.2388Z" fill="url(#paint0_linear_176_197)"/>
<path d="M23.017 34.3336C24.1837 34.3336 25.1295 33.3878 25.1295 32.2211C25.1295 31.0543 24.1837 30.1084 23.017 30.1084C21.8502 30.1084 20.9043 31.0543 20.9043 32.2211C20.9043 33.3878 21.8502 34.3336 23.017 34.3336Z" fill="#5ECDD4"/>
<path d="M16.8666 34.3336C18.0333 34.3336 18.9791 33.3878 18.9791 32.2211C18.9791 31.0543 18.0333 30.1084 16.8666 30.1084C15.6998 30.1084 14.7539 31.0543 14.7539 32.2211C14.7539 33.3878 15.6998 34.3336 16.8666 34.3336Z" fill="#9ADFE3"/>
<path d="M10.5355 34.3336C11.7022 34.3336 12.648 33.3878 12.648 32.2211C12.648 31.0543 11.7022 30.1084 10.5355 30.1084C9.3687 30.1084 8.42285 31.0543 8.42285 32.2211C8.42285 33.3878 9.3687 34.3336 10.5355 34.3336Z" fill="#AFE5E9"/>
</g>
<defs>
<linearGradient id="paint0_linear_176_197" x1="26.5684" y1="32.1693" x2="52.3163" y2="32.1693" gradientUnits="userSpaceOnUse">
<stop stop-color="#2CDDE9"/>
<stop offset="1" stop-color="#5ECDD4"/>
</linearGradient>
<clipPath id="clip0_176_197">
<rect width="210" height="62.2966" fill="white"/>
</clipPath>
</defs>
</svg>
