<svg width="27" height="27" viewBox="0 0 27 27" fill="none" xmlns="http://www.w3.org/2000/svg">
<path d="M7.07392 9.94043H19.3724C19.59 9.94134 19.8024 10.0067 19.9828 10.1284C20.1632 10.25 20.3034 10.4224 20.3859 10.6237C20.4683 10.8251 20.4892 11.0463 20.4458 11.2595C20.4025 11.4727 20.2969 11.6683 20.1425 11.8215L14.0042 17.9598C13.9019 18.0629 13.7803 18.1447 13.6462 18.2006C13.5122 18.2564 13.3684 18.2852 13.2232 18.2852C13.078 18.2852 12.9342 18.2564 12.8001 18.2006C12.6661 18.1447 12.5444 18.0629 12.4421 17.9598L6.30389 11.8215C6.14942 11.6683 6.04384 11.4727 6.00052 11.2595C5.95719 11.0463 5.97806 10.8251 6.06048 10.6237C6.1429 10.4224 6.28318 10.25 6.46357 10.1284C6.64396 10.0067 6.85636 9.94134 7.07392 9.94043V9.94043Z" fill="#DADADA"/>
</svg>
