<svg width="19" height="11" viewBox="0 0 19 11" fill="none" xmlns="http://www.w3.org/2000/svg">
<path d="M1.81357 0.375H17.1861C17.458 0.37614 17.7235 0.457891 17.949 0.609915C18.1745 0.761938 18.3498 0.977409 18.4528 1.22908C18.5558 1.48075 18.5819 1.75731 18.5278 2.02381C18.4736 2.2903 18.3417 2.53475 18.1486 2.72625L10.4761 10.3988C10.3482 10.5276 10.1962 10.6299 10.0286 10.6997C9.86106 10.7695 9.68134 10.8055 9.49982 10.8055C9.31831 10.8055 9.13859 10.7695 8.97103 10.6997C8.80347 10.6299 8.6514 10.5276 8.52357 10.3988L0.851072 2.72625C0.657992 2.53475 0.526032 2.2903 0.471877 2.02381C0.417722 1.75731 0.443805 1.48075 0.546828 1.22908C0.64985 0.977409 0.825186 0.761938 1.05066 0.609915C1.27614 0.457891 1.54163 0.37614 1.81357 0.375Z" fill="#45BBBC"/>
</svg>
