<svg width="80" height="80" viewBox="0 0 80 80" fill="none" xmlns="http://www.w3.org/2000/svg">
<rect x="0.54" y="0.54" width="78.92" height="78.92" rx="21.06" fill="#11484F" stroke="#1CBC00" stroke-width="1.08"/>
<path d="M53.162 20.2805L40.632 16.1025C40.2217 15.9658 39.7783 15.9658 39.368 16.1025L26.838 20.2805C24.8458 20.9422 23.1128 22.215 21.8853 23.9179C20.6577 25.6208 19.9981 27.6673 20 29.7665V40.0005C20 55.1265 38.4 63.4805 39.188 63.8285C39.4436 63.942 39.7203 64.0007 40 64.0007C40.2797 64.0007 40.5564 63.942 40.812 63.8285C41.6 63.4805 60 55.1265 60 40.0005V29.7665C60.0019 27.6673 59.3423 25.6208 58.1147 23.9179C56.8872 22.215 55.1542 20.9422 53.162 20.2805V20.2805ZM49.436 35.4345L40.892 43.9785C40.5424 44.3304 40.1263 44.6095 39.668 44.7993C39.2096 44.9892 38.7181 45.0861 38.222 45.0845H38.156C37.6498 45.0767 37.1504 44.9664 36.688 44.7601C36.2257 44.5539 35.81 44.256 35.466 43.8845L30.854 39.0845C30.6543 38.8992 30.4945 38.675 30.3845 38.4257C30.2745 38.1764 30.2166 37.9073 30.2144 37.6349C30.2121 37.3624 30.2656 37.0924 30.3714 36.8413C30.4773 36.5902 30.6333 36.3635 30.8299 36.1749C31.0266 35.9863 31.2597 35.8398 31.515 35.7446C31.7702 35.6493 32.0423 35.6072 32.3144 35.6208C32.5865 35.6345 32.853 35.7036 33.0974 35.8239C33.3419 35.9442 33.5592 36.1132 33.736 36.3205L38.224 41.0005L46.6 32.6005C46.9772 32.2362 47.4824 32.0346 48.0068 32.0391C48.5312 32.0437 49.0328 32.254 49.4036 32.6248C49.7745 32.9957 49.9848 33.4973 49.9893 34.0217C49.9939 34.5461 49.7923 35.0513 49.428 35.4285L49.436 35.4345Z" fill="#31AD1B"/>
</svg>
