<svg width="18" height="19" viewBox="0 0 18 19" fill="none" xmlns="http://www.w3.org/2000/svg">
<path d="M8.25 6.01855H9.75V7.51855H8.25V6.01855ZM8.25 9.01855H9.75V13.5186H8.25V9.01855ZM9 2.26855C4.86 2.26855 1.5 5.62855 1.5 9.76855C1.5 13.9086 4.86 17.2686 9 17.2686C13.14 17.2686 16.5 13.9086 16.5 9.76855C16.5 5.62855 13.14 2.26855 9 2.26855ZM9 15.7686C5.6925 15.7686 3 13.0761 3 9.76855C3 6.46105 5.6925 3.76855 9 3.76855C12.3075 3.76855 15 6.46105 15 9.76855C15 13.0761 12.3075 15.7686 9 15.7686Z" fill="#A3A3A3"/>
</svg>
