<svg width="61" height="62" viewBox="0 0 61 62" fill="none" xmlns="http://www.w3.org/2000/svg">
<path d="M30.3786 61.599C26.313 61.614 22.2872 60.7982 18.548 59.2019C13.0488 56.8767 8.3567 52.9826 5.05792 48.006C1.75914 43.0295 -2.96813e-05 37.1912 0.000200414 31.2206C-0.0146965 27.155 0.801031 23.1292 2.39736 19.39C4.72255 13.8908 8.61668 9.19868 13.5932 5.8999C18.5698 2.60112 24.4081 0.841954 30.3786 0.842184C34.4588 0.8214 38.4999 1.63724 42.2524 3.23934C47.7435 5.57111 52.4265 9.46806 55.7173 14.4441C59.0081 19.4201 60.7609 25.2549 60.7571 31.2206C60.7779 35.3008 59.962 39.3418 58.3599 43.0943C55.2802 50.3475 49.5055 56.1221 42.2524 59.2019C38.4999 60.804 34.4588 61.6198 30.3786 61.599ZM30.3786 4.42068C25.0823 4.42069 19.9047 5.99103 15.5008 8.93319C11.0967 11.8753 7.66394 16.0572 5.63631 20.9501C3.60869 25.843 3.0773 31.2272 4.10931 36.4221C5.14134 41.6169 7.69042 46.3892 11.4343 50.1355C15.1782 53.8819 19.9489 56.434 25.143 57.4693C30.3372 58.5047 35.7218 57.9767 40.616 55.9523C45.5102 53.9278 49.6943 50.4977 52.6392 46.0956C55.5842 41.6934 57.1579 36.517 57.1614 31.2206C57.159 24.1165 54.3371 17.3038 49.3154 12.2788C44.2937 7.25384 37.4828 4.42754 30.3786 4.42068Z" fill="#5ECDD4"/>
</svg>
