<svg width="154" height="29" viewBox="0 0 154 29" fill="none" xmlns="http://www.w3.org/2000/svg">
<path d="M138.037 4.68325L138.038 4.68203C138.54 3.67119 139.093 3.385 139.459 3.385C139.825 3.385 140.381 3.67247 140.889 4.68358C140.889 4.68388 140.889 4.68417 140.889 4.68447L142.925 8.75565C143.122 9.15722 143.458 9.50916 143.811 9.77098C144.165 10.0334 144.597 10.2502 145.032 10.324L145.034 10.3243L148.726 10.9378C148.726 10.9378 148.726 10.9378 148.726 10.9378C148.726 10.9378 148.726 10.9378 148.726 10.9378C149.794 11.1158 150.227 11.5516 150.34 11.9058C150.453 12.2606 150.352 12.8676 149.588 13.6319L146.717 16.5026C146.377 16.8432 146.143 17.3065 146.012 17.7619C145.882 18.2176 145.836 18.7333 145.941 19.2005L145.942 19.2048L145.942 19.2048L146.763 22.7585L146.763 22.7586C147.074 24.1008 146.788 24.7066 146.519 24.903C146.25 25.0997 145.584 25.1873 144.396 24.4827L144.396 24.4823L140.935 22.4335L140.93 22.431L140.93 22.431C140.49 22.1746 139.953 22.0648 139.453 22.0648C138.953 22.0648 138.417 22.1743 137.979 22.4335C137.979 22.4335 137.979 22.4336 137.979 22.4336L134.519 24.482L138.037 4.68325ZM138.037 4.68325L136.001 8.75565C135.803 9.15742 135.468 9.50965 135.112 9.77188C134.756 10.035 134.32 10.251 133.881 10.3243L133.88 10.3243M138.037 4.68325L133.88 10.3243M133.88 10.3243L130.188 10.9378C130.188 10.9378 130.188 10.9378 130.188 10.9378C129.12 11.1159 128.684 11.5523 128.57 11.907C128.456 12.2603 128.555 12.8662 129.324 13.6303L129.326 13.6319M133.88 10.3243L129.326 13.6319M129.326 13.6319L132.197 16.5026C132.537 16.8432 132.772 17.3065 132.902 17.7619C133.032 18.2176 133.078 18.7333 132.974 19.2005L132.974 19.2005M129.326 13.6319L132.974 19.2005M132.974 19.2005L132.973 19.2048M132.974 19.2005L132.973 19.2048M132.973 19.2048L132.151 22.758M132.973 19.2048L132.151 22.758M132.151 22.758C131.839 24.1095 132.124 24.7132 132.39 24.9071C132.658 25.1019 133.322 25.1886 134.518 24.4823L132.151 22.758Z" fill="#E8E8E8" stroke="#E8E8E8" stroke-width="1.30223" stroke-linecap="round" stroke-linejoin="round"/>
<g clip-path="url(#clip0_1_5396)">
<path d="M138.037 4.68325L138.038 4.68203C138.54 3.67119 139.093 3.385 139.459 3.385C139.825 3.385 140.381 3.67247 140.889 4.68358C140.889 4.68388 140.889 4.68417 140.889 4.68447L142.925 8.75565C143.122 9.15722 143.458 9.50916 143.811 9.77098C144.165 10.0334 144.597 10.2502 145.032 10.324L145.034 10.3243L148.726 10.9378C148.726 10.9378 148.726 10.9378 148.726 10.9378C148.726 10.9378 148.726 10.9378 148.726 10.9378C149.794 11.1158 150.227 11.5516 150.34 11.9058C150.453 12.2606 150.352 12.8676 149.588 13.6319L146.717 16.5026C146.377 16.8432 146.143 17.3065 146.012 17.7619C145.882 18.2176 145.836 18.7333 145.941 19.2005L145.942 19.2048L145.942 19.2048L146.763 22.7585L146.763 22.7586C147.074 24.1008 146.788 24.7066 146.519 24.903C146.25 25.0997 145.584 25.1873 144.396 24.4827L144.396 24.4823L140.935 22.4335L140.93 22.431L140.93 22.431C140.49 22.1746 139.953 22.0648 139.453 22.0648C138.953 22.0648 138.417 22.1743 137.979 22.4335C137.979 22.4335 137.979 22.4336 137.979 22.4336L134.519 24.482L138.037 4.68325ZM138.037 4.68325L136.001 8.75565C135.803 9.15742 135.468 9.50965 135.112 9.77188C134.756 10.035 134.32 10.251 133.881 10.3243L133.88 10.3243M138.037 4.68325L133.88 10.3243M133.88 10.3243L130.188 10.9378C130.188 10.9378 130.188 10.9378 130.188 10.9378C129.12 11.1159 128.684 11.5523 128.57 11.907C128.456 12.2603 128.555 12.8662 129.324 13.6303L129.326 13.6319M133.88 10.3243L129.326 13.6319M129.326 13.6319L132.197 16.5026C132.537 16.8432 132.772 17.3065 132.902 17.7619C133.032 18.2176 133.078 18.7333 132.974 19.2005L132.974 19.2005M129.326 13.6319L132.974 19.2005M132.974 19.2005L132.973 19.2048M132.974 19.2005L132.973 19.2048M132.973 19.2048L132.151 22.758M132.973 19.2048L132.151 22.758M132.151 22.758C131.839 24.1095 132.124 24.7132 132.39 24.9071C132.658 25.1019 133.322 25.1886 134.518 24.4823L132.151 22.758Z" fill="#FABF35" stroke="#FABF35" stroke-width="1.30223" stroke-linecap="round" stroke-linejoin="round"/>
</g>
<path d="M106.783 4.68325L106.784 4.68203C107.286 3.67119 107.839 3.385 108.205 3.385C108.571 3.385 109.127 3.67247 109.635 4.68358C109.635 4.68388 109.635 4.68417 109.636 4.68447L111.671 8.75565C111.869 9.15722 112.204 9.50916 112.557 9.77098C112.911 10.0334 113.343 10.2502 113.778 10.324L113.78 10.3243L117.472 10.9378C117.472 10.9378 117.472 10.9378 117.472 10.9378C117.472 10.9378 117.472 10.9378 117.473 10.9378C118.54 11.1158 118.973 11.5516 119.086 11.9058C119.199 12.2606 119.099 12.8676 118.334 13.6319L115.464 16.5026C115.123 16.8432 114.889 17.3065 114.758 17.7619C114.628 18.2176 114.582 18.7333 114.687 19.2005L114.688 19.2048L114.688 19.2048L115.51 22.7585L115.51 22.7586C115.82 24.1008 115.534 24.7066 115.265 24.903C114.996 25.0997 114.33 25.1873 113.142 24.4827L113.142 24.4823L109.681 22.4335L109.677 22.431L109.677 22.431C109.236 22.1746 108.699 22.0648 108.199 22.0648C107.699 22.0648 107.163 22.1743 106.726 22.4335C106.725 22.4335 106.725 22.4336 106.725 22.4336L103.265 24.482L106.783 4.68325ZM106.783 4.68325L104.747 8.75565C104.549 9.15742 104.214 9.50965 103.858 9.77188C103.502 10.035 103.066 10.251 102.627 10.3243L102.626 10.3243M106.783 4.68325L102.626 10.3243M102.626 10.3243L98.9341 10.9378C98.934 10.9378 98.9339 10.9378 98.9338 10.9378C97.8656 11.1159 97.4296 11.5523 97.3156 11.907C97.2021 12.2603 97.3011 12.8662 98.0705 13.6303L98.0721 13.6319M102.626 10.3243L98.0721 13.6319M98.0721 13.6319L100.943 16.5026C101.283 16.8432 101.518 17.3065 101.648 17.7619C101.778 18.2176 101.824 18.7333 101.72 19.2005L101.72 19.2005M98.0721 13.6319L101.72 19.2005M101.72 19.2005L101.719 19.2048M101.72 19.2005L101.719 19.2048M101.719 19.2048L100.897 22.758M101.719 19.2048L100.897 22.758M100.897 22.758C100.585 24.1095 100.87 24.7132 101.136 24.9071C101.404 25.1019 102.069 25.1886 103.264 24.4823L100.897 22.758Z" fill="#FABF35" stroke="#FABF35" stroke-width="1.30223" stroke-linecap="round" stroke-linejoin="round"/>
<path d="M75.5301 4.68325L75.5307 4.68203C76.0334 3.67119 76.5863 3.385 76.9517 3.385C77.3181 3.385 77.8737 3.67247 78.3821 4.68358C78.3823 4.68388 78.3824 4.68417 78.3826 4.68447L80.4182 8.75565C80.6156 9.15722 80.9509 9.50916 81.304 9.77098C81.658 10.0334 82.0903 10.2502 82.5248 10.324L82.527 10.3243L86.2193 10.9378C86.2193 10.9378 86.2194 10.9378 86.2194 10.9378C86.2195 10.9378 86.2196 10.9378 86.2196 10.9378C87.2871 11.1158 87.7199 11.5516 87.833 11.9058C87.9464 12.2606 87.8456 12.8676 87.0813 13.6319L84.2106 16.5026C83.87 16.8432 83.6357 17.3065 83.5054 17.7619C83.3749 18.2176 83.329 18.7333 83.4338 19.2005L83.4347 19.2048L83.4347 19.2048L84.2566 22.7585L84.2566 22.7586C84.5672 24.1008 84.2814 24.7066 84.0123 24.903C83.7427 25.0997 83.0768 25.1873 81.8895 24.4827L81.8889 24.4823L78.4279 22.4335L78.4236 22.431L78.4236 22.431C77.9829 22.1746 77.4464 22.0648 76.9459 22.0648C76.4461 22.0648 75.91 22.1743 75.4726 22.4335C75.4725 22.4335 75.4724 22.4336 75.4723 22.4336L72.0121 24.482L75.5301 4.68325ZM75.5301 4.68325L73.4939 8.75565C73.2964 9.15742 72.9608 9.50965 72.6054 9.77188C72.2488 10.035 71.8133 10.251 71.3737 10.3243L71.3734 10.3243M75.5301 4.68325L71.3734 10.3243M71.3734 10.3243L67.6812 10.9378C67.6811 10.9378 67.681 10.9378 67.6809 10.9378C66.6127 11.1159 66.1767 11.5523 66.0627 11.907C65.9491 12.2603 66.0482 12.8662 66.8176 13.6303L66.8191 13.6319M71.3734 10.3243L66.8191 13.6319M66.8191 13.6319L69.6898 16.5026C70.0305 16.8432 70.2647 17.3065 70.3951 17.7619C70.5256 18.2176 70.5714 18.7333 70.4667 19.2005L70.4667 19.2005M66.8191 13.6319L70.4667 19.2005M70.4667 19.2005L70.4657 19.2048M70.4667 19.2005L70.4657 19.2048M70.4657 19.2048L69.644 22.758M70.4657 19.2048L69.644 22.758M69.644 22.758C69.3325 24.1095 69.6175 24.7132 69.8836 24.9071C70.1507 25.1019 70.8157 25.1886 72.0115 24.4823L69.644 22.758Z" fill="#FABF35" stroke="#FABF35" stroke-width="1.30223" stroke-linecap="round" stroke-linejoin="round"/>
<path d="M44.2752 4.68325L44.2758 4.68203C44.7786 3.67119 45.3314 3.385 45.6968 3.385C46.0632 3.385 46.6188 3.67247 47.1273 4.68358C47.1274 4.68388 47.1276 4.68417 47.1277 4.68447L49.1633 8.75565C49.3607 9.15722 49.696 9.50916 50.0491 9.77098C50.4031 10.0334 50.8354 10.2502 51.2699 10.324L51.2722 10.3243L54.9644 10.9378C54.9645 10.9378 54.9645 10.9378 54.9646 10.9378C54.9646 10.9378 54.9647 10.9378 54.9647 10.9378C56.0322 11.1158 56.4651 11.5516 56.5782 11.9058C56.6915 12.2606 56.5907 12.8676 55.8264 13.6319L52.9557 16.5026C52.6151 16.8432 52.3808 17.3065 52.2505 17.7619C52.12 18.2176 52.0741 18.7333 52.1789 19.2005L52.1798 19.2048L52.1799 19.2048L53.0017 22.7585L53.0017 22.7586C53.3123 24.1008 53.0266 24.7066 52.7574 24.903C52.4878 25.0997 51.8219 25.1873 50.6347 24.4827L50.634 24.4823L47.173 22.4335L47.1688 22.431L47.1688 22.431C46.7281 22.1746 46.1915 22.0648 45.691 22.0648C45.1912 22.0648 44.6552 22.1743 44.2177 22.4335C44.2176 22.4335 44.2175 22.4336 44.2174 22.4336L40.7572 24.482L44.2752 4.68325ZM44.2752 4.68325L42.239 8.75565C42.0415 9.15742 41.7059 9.50965 41.3505 9.77188C40.9939 10.035 40.5585 10.251 40.1189 10.3243L40.1185 10.3243M44.2752 4.68325L40.1185 10.3243M40.1185 10.3243L36.4263 10.9378C36.4262 10.9378 36.4261 10.9378 36.426 10.9378C35.3578 11.1159 34.9218 11.5523 34.8078 11.907C34.6943 12.2603 34.7933 12.8662 35.5627 13.6303L35.5642 13.6319M40.1185 10.3243L35.5642 13.6319M35.5642 13.6319L38.435 16.5026C38.7756 16.8432 39.0099 17.3065 39.1402 17.7619C39.2707 18.2176 39.3165 18.7333 39.2118 19.2005L39.2118 19.2005M35.5642 13.6319L39.2118 19.2005M39.2118 19.2005L39.2108 19.2048M39.2118 19.2005L39.2108 19.2048M39.2108 19.2048L38.3891 22.758M39.2108 19.2048L38.3891 22.758M38.3891 22.758C38.0776 24.1095 38.3626 24.7132 38.6287 24.9071C38.8958 25.1019 39.5608 25.1886 40.7566 24.4823L38.3891 22.758Z" fill="#FABF35" stroke="#FABF35" stroke-width="1.30223" stroke-linecap="round" stroke-linejoin="round"/>
<path d="M13.0222 4.68325L13.0229 4.68203C13.5256 3.67119 14.0785 3.385 14.4439 3.385C14.8103 3.385 15.3659 3.67247 15.8743 4.68358C15.8745 4.68388 15.8746 4.68417 15.8748 4.68447L17.9104 8.75565C18.1078 9.15722 18.4431 9.50916 18.7962 9.77098C19.1501 10.0334 19.5825 10.2502 20.0169 10.324L20.0192 10.3243L23.7115 10.9378C23.7115 10.9378 23.7116 10.9378 23.7116 10.9378C23.7117 10.9378 23.7117 10.9378 23.7118 10.9378C24.7793 11.1158 25.2121 11.5516 25.3252 11.9058C25.4385 12.2606 25.3378 12.8676 24.5735 13.6319L21.7028 16.5026C21.3622 16.8432 21.1279 17.3065 20.9975 17.7619C20.8671 18.2176 20.8212 18.7333 20.9259 19.2005L20.9269 19.2048L20.9269 19.2048L21.7488 22.7585L21.7488 22.7586C22.0594 24.1008 21.7736 24.7066 21.5045 24.903C21.2349 25.0997 20.569 25.1873 19.3817 24.4827L19.3811 24.4823L15.9201 22.4335L15.9158 22.431L15.9158 22.431C15.4751 22.1746 14.9386 22.0648 14.4381 22.0648C13.9383 22.0648 13.4022 22.1743 12.9648 22.4335C12.9647 22.4335 12.9646 22.4336 12.9645 22.4336L9.50425 24.482L13.0222 4.68325ZM13.0222 4.68325L10.986 8.75565C10.7886 9.15742 10.453 9.50965 10.0976 9.77188C9.74098 10.035 9.30552 10.251 8.86593 10.3243L8.8656 10.3243M13.0222 4.68325L8.8656 10.3243M8.8656 10.3243L5.17337 10.9378C5.17326 10.9378 5.17315 10.9378 5.17304 10.9378C4.10489 11.1159 3.6689 11.5523 3.55489 11.907C3.44133 12.2603 3.54039 12.8662 4.30975 13.6303L4.31132 13.6319M8.8656 10.3243L4.31132 13.6319M4.31132 13.6319L7.18202 16.5026C7.52268 16.8432 7.75692 17.3065 7.88729 17.7619C8.01775 18.2176 8.06362 18.7333 7.95889 19.2005L7.9589 19.2005M4.31132 13.6319L7.9589 19.2005M7.9589 19.2005L7.95791 19.2048M7.9589 19.2005L7.95791 19.2048M7.95791 19.2048L7.13617 22.758M7.95791 19.2048L7.13617 22.758M7.13617 22.758C6.82471 24.1095 7.10971 24.7132 7.37576 24.9071C7.64289 25.1019 8.30784 25.1886 9.50372 24.4823L7.13617 22.758Z" fill="#FABF35" stroke="#FABF35" stroke-width="1.30223" stroke-linecap="round" stroke-linejoin="round"/>
<defs>
<clipPath id="clip0_1_5396">
<rect width="8.68156" height="22.5721" fill="white" transform="matrix(-1 0 0 1 136.853 2.93408)"/>
</clipPath>
</defs>
</svg>
