<svg width="23" height="23" viewBox="0 0 23 23" fill="none" xmlns="http://www.w3.org/2000/svg">
<path d="M17.3957 15.4487C18.8592 13.4929 19.5275 11.0554 19.266 8.62666C19.0045 6.19797 17.8327 3.95849 15.9865 2.35903C14.1402 0.759566 11.7566 -0.0811278 9.31547 0.006178C6.87431 0.0934838 4.55684 1.10231 2.82957 2.82957C1.10231 4.55684 0.0934838 6.87431 0.006178 9.31547C-0.0811278 11.7566 0.759566 14.1402 2.35903 15.9865C3.95849 17.8327 6.19797 19.0045 8.62666 19.266C11.0554 19.5275 13.4929 18.8592 15.4487 17.3957L20.1237 22.0707L22.0707 20.1274L17.3957 15.4487ZM9.69572 16.5707C8.33597 16.5707 7.00676 16.1675 5.87617 15.4121C4.74558 14.6566 3.8644 13.5829 3.34404 12.3267C2.82369 11.0704 2.68754 9.68809 2.95282 8.35447C3.21809 7.02085 3.87287 5.79584 4.83436 4.83436C5.79584 3.87287 7.02085 3.21809 8.35447 2.95282C9.68809 2.68754 11.0704 2.82369 12.3267 3.34404C13.5829 3.8644 14.6566 4.74558 15.4121 5.87617C16.1675 7.00676 16.5707 8.33597 16.5707 9.69572C16.569 11.5186 15.8441 13.2663 14.5552 14.5552C13.2663 15.8441 11.5186 16.569 9.69572 16.5707Z" fill="#263238" fill-opacity="0.35"/>
</svg>
