<svg width="91" height="21" viewBox="0 0 91 21" fill="none" xmlns="http://www.w3.org/2000/svg">
<path d="M10.6148 14.4039L14.8899 16.9356L13.7554 12.1641L17.5324 8.95362L12.5587 8.5328L10.6148 4.03955L8.67096 8.5328L3.6972 8.95362L7.4673 12.1641L6.33973 16.9356L10.6148 14.4039Z" fill="#FB8200"/>
<path d="M28.1171 14.4039L32.3922 16.9356L31.2577 12.1641L35.0347 8.95362L30.061 8.5328L28.1171 4.03955L26.1733 8.5328L21.1995 8.95362L24.9696 12.1641L23.842 16.9356L28.1171 14.4039Z" fill="#FB8200"/>
<path d="M45.6178 14.4039L49.8929 16.9356L48.7584 12.1641L52.5354 8.95362L47.5616 8.5328L45.6178 4.03955L43.674 8.5328L38.7002 8.95362L42.4703 12.1641L41.3427 16.9356L45.6178 14.4039Z" fill="#FB8200"/>
<path d="M63.1178 14.4039L67.3929 16.9356L66.2584 12.1641L70.0354 8.95362L65.0616 8.5328L63.1178 4.03955L61.1739 8.5328L56.2002 8.95362L59.9703 12.1641L58.8427 16.9356L63.1178 14.4039Z" fill="#FB8200"/>
<path d="M80.82 13.0344V6.26247L82.003 9.19699L85.0329 9.46641L82.7362 11.5708L83.4211 14.6874L80.82 13.0344ZM87.7376 8.54892L82.7639 8.10474L80.82 3.27698L78.8762 8.10474L73.9024 8.54892L77.6725 11.9932L76.545 17.1122L80.82 14.3961L85.0951 17.1122L83.9606 11.9932L87.7376 8.54892Z" fill="#FB8200"/>
</svg>
