<svg width="56" height="56" viewBox="0 0 56 56" fill="none" xmlns="http://www.w3.org/2000/svg">
<circle cx="28.2134" cy="27.8648" r="27.6011" fill="white"/>
<g clip-path="url(#clip0_107_3)">
<path fill-rule="evenodd" clip-rule="evenodd" d="M36.2092 23.5727V24.9418H33.8923V28.853C33.8923 29.6838 34.375 30.0992 35.1759 30.0992C35.6091 30.0914 36.037 30.0287 36.4518 29.9111L36.6631 31.2959C36.2691 31.45 35.5751 31.5571 34.9437 31.5571C33.3 31.5571 32.2668 30.6375 32.2668 29.0489V24.9418H30.8683V23.5727H32.2929V21.0646H33.8714V23.5727H36.2092ZM27.312 26.6766C26.3205 26.4728 25.9526 26.2272 25.9526 25.7387C25.9526 25.1613 26.5424 24.8268 27.7294 24.8268C28.546 24.8268 29.4827 25.0071 30.1193 25.2841L30.2915 23.8837C29.6366 23.5989 28.6139 23.4108 27.6485 23.4108C25.6839 23.4108 24.3741 24.3879 24.3741 25.7152C24.3741 26.9222 25.1099 27.7086 26.4928 27.9882L27.6538 28.2233C28.6687 28.4272 29.094 28.7119 29.094 29.2423C29.094 29.8458 28.5435 30.1385 27.3668 30.1385C26.4432 30.128 25.53 29.9346 24.6795 29.5741L24.4838 30.9693C25.1621 31.3351 26.2762 31.5545 27.4711 31.5545C29.3784 31.5545 30.6699 30.7968 30.6699 29.2162C30.6699 27.855 29.8193 27.1887 28.2225 26.8621L27.312 26.6766ZM36.4287 27.4839C36.4287 25.1952 38.2133 23.4108 40.6032 23.4108C42.9931 23.4108 44.7777 25.1952 44.7777 27.4839C44.7777 29.7726 42.9957 31.5571 40.6058 31.5571C38.2159 31.5571 36.4313 29.7726 36.4313 27.4839H36.4287ZM38.0489 27.4839C38.0489 28.9261 39.1238 30.0418 40.6058 30.0418C42.0878 30.0418 43.1601 28.9235 43.1601 27.4839C43.1601 26.0417 42.0878 24.9261 40.6058 24.9261C39.1238 24.9261 38.0515 26.0417 38.0515 27.4839H38.0489ZM46.1239 23.5727L48.1588 26.3265L50.1966 23.5727H52.062L49.166 27.4003L52.1273 31.3925L50.2644 31.3925L48.1588 28.4689L46.056 31.3925H44.1905L47.1518 27.4003L44.2557 23.5727H46.1239ZM17.3035 24.6413C17.8854 23.8993 18.7698 23.4108 20.103 23.4108C22.3364 23.4108 24.048 25.1221 24.048 27.5257C24.048 29.9294 22.3364 31.5571 20.103 31.5571C18.7698 31.5571 17.8854 31.0686 17.3035 30.3266V34.6532H15.6833V23.5754H17.3035V24.6413ZM17.3139 27.5257C17.3139 28.968 18.4019 30.107 19.9074 30.107C21.4206 30.107 22.4278 28.9654 22.4304 27.5257C22.4304 26.0835 21.4233 24.8608 19.91 24.8608H19.9074C18.3941 24.8634 17.3139 26.0835 17.3139 27.5257ZM7.35289 27.7635C7.59032 27.5963 7.8147 27.4082 8.02082 27.2017C8.40696 26.8177 8.72788 26.3762 8.97313 25.8928V27.9777C8.97313 29.2736 9.68541 30.0208 10.8882 30.0208C12.1249 30.0208 13.0981 29.2736 13.0981 27.9777V23.5727H14.7157V31.3925H13.0876V30.4075C12.8267 30.8073 12.0805 31.5545 10.6325 31.5545C8.48784 31.5545 7.35028 30.2194 7.35028 28.32L7.35289 27.7635ZM3.81238 28.6596V27.092C4.75687 27.0894 5.66221 26.7184 6.33535 26.0626C6.6641 25.736 6.92762 25.3494 7.10764 24.9235C7.28767 24.495 7.38159 24.0378 7.38159 23.5753H8.97052C8.97052 24.2442 8.83746 24.9052 8.57655 25.5218C8.31826 26.1384 7.93733 26.6975 7.45987 27.1678C6.48668 28.124 5.17693 28.6596 3.81238 28.6596Z" fill="#41246E"/>
</g>
<defs>
<clipPath id="clip0_107_3">
<rect width="48.802" height="14.0306" fill="white" transform="translate(3.81238 21.0646)"/>
</clipPath>
</defs>
</svg>
