<svg xmlns="http://www.w3.org/2000/svg" width="24" height="24" viewBox="0 0 24 24" fill="none">
<path d="M6.45001 9.75005C6.45001 9.45005 6.65001 9.25005 6.95001 9.25005H13.9C14.2 9.25005 14.4 9.45005 14.4 9.75005C14.4 10.05 14.2 10.25 13.9 10.25H6.95001C6.70001 10.25 6.45001 10.05 6.45001 9.75005ZM6.95001 13.5H13.9C14.2 13.5 14.4 13.3 14.4 13C14.4 12.7 14.2 12.5 13.9 12.5H6.95001C6.65001 12.5 6.45001 12.7 6.45001 13C6.45001 13.3 6.70001 13.5 6.95001 13.5ZM6.95001 16.7H11.05C11.35 16.7 11.55 16.5 11.55 16.2C11.55 15.9 11.35 15.7 11.05 15.7H6.95001C6.65001 15.7 6.45001 15.9 6.45001 16.2C6.45001 16.5 6.70001 16.7 6.95001 16.7ZM20.05 18.65L16.85 21.85C16.75 21.9501 16.6 22 16.5 22C16.4 22 16.25 21.9501 16.15 21.85C15.95 21.65 15.95 21.35 16.15 21.15L19.35 17.95C20.45 16.85 20.45 15.9 19.45 14.9C18.5 13.95 17.45 14 16.4 15.05L15.25 16.2L12.6 18.85C12.25 19.2001 12 20 12.6 20.6C13.25 21.25 14.05 20.9501 14.35 20.6L15.2 19.75L17.7 17.25C17.85 17.1 18.15 16.8 18.15 16.6C18.15 16.55 18.15 16.5 18 16.35C17.9 16.25 17.75 16.15 17.65 16.15C17.45 16.15 17.15 16.4 17 16.6L14.75 18.85C14.55 19.0501 14.25 19.0501 14.05 18.85C13.85 18.65 13.85 18.35 14.05 18.15L16.25 15.9C16.5 15.65 16.95 15.15 17.6 15.15C17.95 15.15 18.3 15.3 18.65 15.65C19 16 19.1 16.35 19.1 16.6C19.1 17.25 18.6 17.7 18.35 17.95L16.7 19.6L15 21.3C14.6 21.7 14 21.9501 13.4 21.9501C12.85 21.9501 12.3 21.75 11.85 21.3C10.85 20.3 11.05 18.9 11.85 18.1L13 16.95L15.65 14.3C16.1 13.85 16.55 13.55 17 13.4V6.30005H14.05C13.75 6.30005 13.55 6.10005 13.55 5.80005V3.05005H4.60001C4.20001 3.05005 3.85001 3.40005 3.85001 3.80005V19.25C3.85001 19.65 4.20001 20 4.60001 20H9.65001C9.95001 20 10.15 20.2001 10.15 20.5C10.15 20.8 9.95001 21 9.65001 21H4.60001C3.65001 21 2.85001 20.2001 2.85001 19.25V3.80005C2.85001 2.85005 3.65001 2.05005 4.60001 2.05005H14.15H14.2H14.35H14.4C14.45 2.05005 14.5 2.10005 14.55 2.15005L18 5.40005C18.05 5.45005 18.1 5.50005 18.1 5.55005V5.60005C18.1 5.65005 18.15 5.70005 18.15 5.75005V5.80005V13.15C18.9 13.15 19.6 13.5 20.25 14.15C21.55 15.55 21.5 17.15 20.05 18.65ZM14.6 5.30005H16.3L16.15 5.15005L14.6 3.65005V5.30005Z" fill="black"/>
</svg>