<svg width="64" height="64" viewBox="0 0 64 64" fill="none" xmlns="http://www.w3.org/2000/svg">
<rect width="64" height="64" rx="12.8" fill="url(#paint0_linear_0_400)" fill-opacity="0.12"/>
<g clip-path="url(#clip0_0_400)">
<path d="M39.2 48.8H33.2C33.0409 48.8 32.8883 48.7368 32.7758 48.6243C32.6632 48.5117 32.6 48.3591 32.6 48.2V47.18L31.904 46.1354C31.575 45.6436 31.3995 45.0651 31.4 44.4734V41.987C31.4004 41.5037 31.5176 41.0276 31.7416 40.5993C31.9655 40.1709 32.2897 39.8031 32.6864 39.527L37.0064 36.5204C37.2003 36.3855 37.4191 36.2905 37.65 36.2411C37.881 36.1916 38.1195 36.1886 38.3516 36.2323C38.5837 36.276 38.8048 36.3654 39.002 36.4954C39.1991 36.6255 39.3685 36.7935 39.5 36.9896C39.6352 37.19 39.728 37.4158 39.773 37.6532L45.0752 33.596C45.3645 33.3774 45.7089 33.2438 46.0699 33.2102C46.4309 33.1766 46.7941 33.2443 47.1187 33.4057C47.4433 33.5671 47.7164 33.8159 47.9075 34.124C48.0985 34.4322 48.1998 34.7875 48.2 35.15V35.21C48.2002 35.5756 48.0975 35.9338 47.9036 36.2438L42.1088 45.518C42.0693 45.5805 42.0189 45.6353 41.96 45.68L39.8 47.3V48.2C39.8 48.3591 39.7368 48.5117 39.6243 48.6243C39.5118 48.7368 39.3592 48.8 39.2 48.8ZM33.8 47.6H38.6V47C38.6 46.9069 38.6217 46.815 38.6634 46.7317C38.705 46.6484 38.7655 46.5759 38.84 46.52L41.1506 44.7872L46.8866 35.6108C46.9609 35.4912 47.0002 35.3532 47 35.2124V35.1524C47 35.0131 46.9612 34.8766 46.888 34.7581C46.8148 34.6396 46.71 34.5439 46.5854 34.4816C46.4609 34.4193 46.3214 34.3929 46.1827 34.4054C46.044 34.4179 45.9115 34.4688 45.8 34.5524L35.96 42.0794C35.8359 42.1722 35.6806 42.2134 35.5267 42.1943C35.3729 42.1752 35.2324 42.0973 35.1347 41.9769C35.0371 41.8565 34.9898 41.703 35.0028 41.5485C35.0158 41.394 35.0882 41.2505 35.2046 41.1482L38.3624 38.4326C38.4519 38.3664 38.52 38.2756 38.5585 38.1712C38.597 38.0668 38.6041 37.9534 38.579 37.845C38.5539 37.7366 38.4976 37.6379 38.4171 37.5611C38.3366 37.4843 38.2355 37.4327 38.126 37.4126C38.0505 37.3982 37.9728 37.3991 37.8976 37.4151C37.8223 37.4312 37.7511 37.4622 37.688 37.5062L33.368 40.5128C33.1309 40.6787 32.9374 40.8993 32.8037 41.1559C32.67 41.4126 32.6001 41.6976 32.6 41.987V44.4734C32.5988 44.8286 32.7032 45.1761 32.9 45.4718L33.6968 46.667C33.7632 46.7654 33.7991 46.8813 33.8 47V47.6Z" fill="#387EDB"/>
<path d="M30.8 48.8H24.8C24.6409 48.8 24.4883 48.7368 24.3758 48.6243C24.2633 48.5117 24.2 48.3591 24.2 48.2V47.3L22.04 45.68C21.9812 45.6353 21.9308 45.5805 21.8912 45.518L16.0964 36.2462C15.9026 35.9362 15.7999 35.578 15.8 35.2124V35.1524C15.8 34.7903 15.9009 34.4353 16.0913 34.1272C16.2817 33.8192 16.5541 33.5702 16.878 33.4083C17.2019 33.2463 17.5645 33.1778 17.9252 33.2103C18.2858 33.2428 18.6303 33.3751 18.92 33.5924L24.2258 37.6526C24.271 37.4151 24.3641 37.1893 24.4994 36.989C24.631 36.7929 24.8002 36.6249 24.9973 36.4949C25.1945 36.3649 25.4155 36.2754 25.6476 36.2317C25.8796 36.1881 26.1181 36.191 26.349 36.2405C26.5799 36.2899 26.7986 36.3849 26.9924 36.5198L31.3124 39.5264C31.7095 39.8024 32.0339 40.1703 32.2581 40.5987C32.4823 41.0272 32.5996 41.5034 32.6 41.987V44.4734C32.6008 45.0659 32.4254 45.6452 32.0961 46.1378L31.4 47.18V48.2C31.4 48.3591 31.3368 48.5117 31.2243 48.6243C31.1118 48.7368 30.9592 48.8 30.8 48.8ZM25.4 47.6H30.2V47C30.2002 46.8815 30.2353 46.7657 30.3008 46.667L31.1 45.4718C31.2969 45.1761 31.4013 44.8286 31.4 44.4734V41.987C31.4001 41.6967 31.33 41.4107 31.1956 41.1534C31.0613 40.8961 30.8667 40.675 30.6284 40.5092L26.3084 37.5026C26.2453 37.4587 26.1741 37.4278 26.0989 37.4117C26.0237 37.3957 25.946 37.3947 25.8704 37.409C25.7949 37.4229 25.723 37.4518 25.6588 37.4941C25.5947 37.5363 25.5398 37.5911 25.4972 37.655C25.4173 37.7733 25.3852 37.9175 25.4075 38.0585C25.4298 38.1995 25.5047 38.3267 25.6172 38.4146L28.7936 41.1452C28.9101 41.2475 28.9824 41.391 28.9955 41.5455C29.0085 41.7 28.9612 41.8535 28.8635 41.9739C28.7659 42.0943 28.6254 42.1722 28.4715 42.1913C28.3177 42.2104 28.1624 42.1692 28.0382 42.0764L18.1982 34.5464C18.0866 34.4632 17.9539 34.4127 17.8152 34.4006C17.6764 34.3885 17.537 34.4153 17.4126 34.4779C17.2882 34.5406 17.1837 34.6367 17.1109 34.7554C17.038 34.8741 16.9996 35.0107 17 35.15V35.21C16.9999 35.3508 17.0391 35.4888 17.1134 35.6084L22.8494 44.7848L25.16 46.52C25.2346 46.5759 25.295 46.6484 25.3367 46.7317C25.3784 46.815 25.4 46.9068 25.4 47V47.6Z" fill="#387EDB"/>
<path d="M33.8001 48.2H32.6001V50.6H33.8001V48.2Z" fill="#387EDB"/>
<path d="M39.8001 48.2H38.6001V50.6H39.8001V48.2Z" fill="#387EDB"/>
<path d="M25.4001 48.2H24.2001V50.6H25.4001V48.2Z" fill="#387EDB"/>
<path d="M31.4001 48.2H30.2001V50.6H31.4001V48.2Z" fill="#387EDB"/>
<path d="M30.2001 34.4C24.1815 34.4 21.8835 28.3454 21.3459 26.6H20.0001C19.8978 26.6 19.7972 26.5739 19.7078 26.5242C19.6185 26.4744 19.5433 26.4026 19.4895 26.3156C19.4357 26.2286 19.405 26.1293 19.4004 26.0271C19.3958 25.925 19.4173 25.8233 19.4631 25.7318L20.0031 24.6518C20.0601 23.1698 20.9877 20.6 24.2001 20.6C24.8987 20.5429 25.5991 20.6878 26.2177 21.0176C26.8363 21.3474 27.347 21.8481 27.6891 22.46C28.1349 23.1008 28.4391 23.54 29.3877 23.594C30.3969 22.7306 35.6001 18.1094 35.6001 14.6C35.6001 14.5088 35.6209 14.4189 35.6608 14.337C35.7008 14.2551 35.7589 14.1834 35.8307 14.1273C35.9026 14.0712 35.9862 14.0322 36.0754 14.0132C36.1645 13.9943 36.2568 13.9959 36.3453 14.018C36.4623 14.0474 39.2001 14.7986 39.2001 20.6C39.2001 26.324 33.6801 28.844 33.4437 28.9484L32.9559 27.8522C33.0063 27.8294 38.0001 25.535 38.0001 20.6C38.0001 17.6498 37.2567 16.2764 36.6861 15.6572C35.8131 19.8488 30.2367 24.4544 29.9799 24.6644C29.8727 24.7521 29.7385 24.8 29.6001 24.8C29.0105 24.8248 28.4259 24.6827 27.9135 24.3899C27.4011 24.0972 26.9818 23.6657 26.7039 23.1452C26.4723 22.6934 26.1088 22.3227 25.6616 22.0824C25.2144 21.8421 24.7046 21.7436 24.2001 21.8C21.3057 21.8 21.2001 24.4952 21.2001 24.8C21.1995 24.8924 21.178 24.9835 21.1371 25.0664L20.9709 25.4H21.8001C21.9357 25.3999 22.0674 25.4457 22.1736 25.5301C22.2799 25.6144 22.3544 25.7322 22.3851 25.8644C22.7389 27.1891 23.2994 28.4498 24.0459 29.6C25.6179 31.9886 27.6885 33.2 30.2001 33.2C32.4735 33.225 34.7059 32.5938 36.6296 31.3821C38.5534 30.1704 40.0869 28.4296 41.0463 26.3684C41.0919 26.2592 41.1689 26.166 41.2674 26.1004C41.366 26.0349 41.4817 25.9999 41.6001 26H46.0401C46.6439 24.5772 46.9626 23.0497 46.9779 21.5042L39.4287 24.614L38.9715 23.504L47.3715 20.045C47.4626 20.0074 47.5616 19.9929 47.6597 20.0027C47.7579 20.0125 47.852 20.0464 47.934 20.1012C48.0159 20.1561 48.083 20.2303 48.1294 20.3173C48.1758 20.4043 48.2001 20.5014 48.2001 20.6C48.2001 24.932 46.9527 26.8532 46.8993 26.933C46.8445 27.0151 46.7702 27.0825 46.6831 27.1291C46.596 27.1756 46.4988 27.2 46.4001 27.2H41.9769C40.8701 29.3705 39.1839 31.1921 37.1052 32.463C35.0265 33.7339 32.6365 34.4043 30.2001 34.4Z" fill="#387EDB"/>
<path d="M28.2914 21.5828L27.3086 20.894C27.5143 20.596 27.7018 20.2858 27.8702 19.9652L28.9298 20.5292C28.7383 20.8929 28.5251 21.2447 28.2914 21.5828Z" fill="#387EDB"/>
<path d="M34.4001 20H33.2001C33.2001 18.1526 31.9167 15.992 31.0695 14.7656C30.6253 16.4345 30.0546 18.0673 29.3625 19.6496L28.2717 19.1504C29.0846 17.247 29.7347 15.2782 30.2151 13.265C30.2402 13.156 30.2952 13.0561 30.374 12.9767C30.4528 12.8973 30.5522 12.8415 30.661 12.8156C30.7698 12.7897 30.8837 12.7947 30.9899 12.8301C31.096 12.8656 31.1901 12.9299 31.2615 13.016C31.3887 13.1696 34.4001 16.82 34.4001 20Z" fill="#387EDB"/>
<path d="M24.8 24.2H22.4C22.4 23.8817 22.5265 23.5765 22.7515 23.3515C22.9765 23.1264 23.2818 23 23.6 23C23.9183 23 24.2235 23.1264 24.4486 23.3515C24.6736 23.5765 24.8 23.8817 24.8 24.2Z" fill="#387EDB"/>
</g>
<defs>
<linearGradient id="paint0_linear_0_400" x1="2.78261" y1="74.5" x2="65.825" y2="67.7204" gradientUnits="userSpaceOnUse">
<stop stop-color="#30C9AB"/>
<stop offset="1" stop-color="#377BDC"/>
</linearGradient>
<clipPath id="clip0_0_400">
<rect width="38.4" height="38.4" fill="white" transform="translate(12.8 12.8)"/>
</clipPath>
</defs>
</svg>
