<svg width="58" height="58" viewBox="0 0 58 58" fill="none" xmlns="http://www.w3.org/2000/svg">
<g filter="url(#filter0_d_0_1084)">
<rect x="5" y="2" width="48" height="48" rx="24" fill="url(#paint0_linear_0_1084)"/>
<g clip-path="url(#clip0_0_1084)">
<path d="M30.4304 36.5578V27.8017H33.2608L33.6845 24.3894H30.4304V22.2107C30.4304 21.2228 30.6946 20.5494 32.0591 20.5494L33.7992 20.5486V17.4966C33.4981 17.4552 32.4652 17.3623 31.2635 17.3623C28.7546 17.3623 27.0369 18.9525 27.0369 21.8729V24.3895H24.1992V27.8018H27.0368V36.5578L30.4304 36.5578Z" fill="#3C5A9A"/>
</g>
<rect x="5.72" y="2.72" width="46.56" height="46.56" rx="23.28" stroke="white" stroke-width="1.44"/>
</g>
<defs>
<filter id="filter0_d_0_1084" x="0.2" y="0.0799999" width="57.6" height="57.6" filterUnits="userSpaceOnUse" color-interpolation-filters="sRGB">
<feFlood flood-opacity="0" result="BackgroundImageFix"/>
<feColorMatrix in="SourceAlpha" type="matrix" values="0 0 0 0 0 0 0 0 0 0 0 0 0 0 0 0 0 0 127 0" result="hardAlpha"/>
<feOffset dy="2.88"/>
<feGaussianBlur stdDeviation="2.4"/>
<feComposite in2="hardAlpha" operator="out"/>
<feColorMatrix type="matrix" values="0 0 0 0 0.475 0 0 0 0 0.475 0 0 0 0 0.475 0 0 0 0.1 0"/>
<feBlend mode="normal" in2="BackgroundImageFix" result="effect1_dropShadow_0_1084"/>
<feBlend mode="normal" in="SourceGraphic" in2="effect1_dropShadow_0_1084" result="shape"/>
</filter>
<linearGradient id="paint0_linear_0_1084" x1="17.8545" y1="2" x2="34.7738" y2="47.4224" gradientUnits="userSpaceOnUse">
<stop stop-color="#F5F5F5"/>
<stop offset="1" stop-color="white"/>
</linearGradient>
<clipPath id="clip0_0_1084">
<rect width="9.6" height="19.2" fill="white" transform="translate(24.1992 17.3599)"/>
</clipPath>
</defs>
</svg>
