<svg width="1440" height="206" viewBox="0 0 1440 206" fill="none" xmlns="http://www.w3.org/2000/svg">
<path d="M0 34.8938L48.4195 24.7718C124.756 8.81375 203.768 10.9513 279.13 31.0134L316.327 40.9154C383.493 58.7958 454.358 57.2253 520.666 36.3868V36.3868C587.959 15.2388 659.923 13.9418 727.934 32.651L777.877 46.3898C830.591 60.8909 885.327 66.6482 939.905 63.4324L1027.47 58.2732C1058.75 56.4298 1089.8 51.649 1120.19 43.994L1154.68 35.3058C1236.24 14.7615 1321.67 15.1243 1403.05 36.3604L1440 46.002V155.016L0 159.502V34.8938Z" fill="url(#paint0_linear_1_99)" fill-opacity="0.1"/>
<path d="M0 94.002L97.9977 69.1793C157.724 54.0507 220.551 56.5066 278.914 76.2514L308.771 86.3522C361.523 104.199 418.909 102.656 470.626 82.0012V82.0012C523.098 61.0449 581.378 59.7725 634.715 78.4186L653.144 84.8612C707.048 103.706 765.813 103.317 819.463 83.7605V83.7605C866.386 66.6563 917.388 64.1589 965.758 76.5968L993.746 83.7938C1052.44 98.8868 1114.39 95.2361 1170.9 73.3535V73.3535C1221.3 53.8402 1276.14 48.7785 1329.26 58.7379L1440 79.502V205.502H0V94.002Z" fill="url(#paint1_linear_1_99)" fill-opacity="0.3"/>
<path d="M0 57.502L98.0261 77.8944C159.266 90.6343 222.553 89.8175 283.444 75.5013V75.5013C334.059 63.601 386.417 61.0084 437.96 67.8501L476.714 72.9942C521.366 78.9213 566.615 78.7873 611.232 72.5958L637.298 68.9786C692.011 61.386 747.63 63.4234 801.641 74.9986V74.9986C867.779 89.1729 936.187 89.0156 1002.26 74.5372L1004.18 74.1172C1054.4 63.1111 1106.07 60.2016 1157.21 65.4988L1208.13 70.7728C1242.29 74.3103 1276.71 74.32 1310.87 70.802L1440 57.502V205.502H0V57.502Z" fill="white"/>
<path d="M0 57.502L98.0261 77.8944C159.266 90.6343 222.553 89.8175 283.444 75.5013V75.5013C334.059 63.601 386.417 61.0084 437.96 67.8501L476.714 72.9942C521.366 78.9213 566.615 78.7873 611.232 72.5958L637.298 68.9786C692.011 61.386 747.63 63.4234 801.641 74.9986V74.9986C867.779 89.1729 936.187 89.0156 1002.26 74.5372L1004.18 74.1172C1054.4 63.1111 1106.07 60.2016 1157.21 65.4988L1208.13 70.7728C1242.29 74.3103 1276.71 74.32 1310.87 70.802L1440 57.502V205.502H0V57.502Z" fill="url(#paint2_linear_1_99)" fill-opacity="0.3"/>
<defs>
<linearGradient id="paint0_linear_1_99" x1="766" y1="18.9175" x2="766.347" y2="160.903" gradientUnits="userSpaceOnUse">
<stop stop-color="#3783D8"/>
<stop offset="1" stop-color="#31C0B2"/>
</linearGradient>
<linearGradient id="paint1_linear_1_99" x1="766" y1="62.265" x2="766.36" y2="206.929" gradientUnits="userSpaceOnUse">
<stop stop-color="#3783D8"/>
<stop offset="1" stop-color="#31C0B2"/>
</linearGradient>
<linearGradient id="paint2_linear_1_99" x1="766" y1="74.6435" x2="766.3" y2="206.806" gradientUnits="userSpaceOnUse">
<stop stop-color="#3783D8"/>
<stop offset="1" stop-color="#31C0B2"/>
</linearGradient>
</defs>
</svg>
