<svg width="58" height="58" viewBox="0 0 58 58" fill="none" xmlns="http://www.w3.org/2000/svg">
<g filter="url(#filter0_d_0_1089)">
<rect x="5" y="2" width="48" height="48" rx="24" fill="url(#paint0_linear_0_1089)"/>
<g clip-path="url(#clip0_0_1089)">
<path d="M20.6602 17.7716C19.076 19.4172 19.4002 21.1652 19.4002 26.4757C19.4002 31.798 19.2675 32.7749 19.9059 34.0987C20.4393 35.2058 21.4582 36.0374 22.6578 36.3474C23.6187 36.5944 24.2571 36.5599 29.4618 36.5599C33.8247 36.5599 35.1822 36.638 36.3136 36.3457C37.9903 35.9131 39.3544 34.5532 39.5409 32.1818C39.567 31.8509 39.567 21.1064 39.5401 20.7688C39.3418 18.2429 37.787 16.7872 35.7382 16.4923C35.2678 16.4243 35.1738 16.4041 32.7646 16.3999C24.2193 16.4041 22.3461 16.0236 20.6602 17.7716Z" fill="url(#paint1_linear_0_1089)"/>
<path d="M29.4797 19.037C26.4296 19.037 23.5333 18.7656 22.427 21.6048C21.9701 22.7775 22.0364 24.3004 22.0364 26.481C22.0364 28.3946 21.9751 30.193 22.427 31.3564C23.5308 34.1973 26.4506 33.9251 29.478 33.9251C32.3987 33.9251 35.4101 34.2292 36.5298 31.3564C36.9876 30.172 36.9204 28.6718 36.9204 26.481C36.9204 23.573 37.0808 21.6956 35.6705 20.286C34.2425 18.858 32.3113 19.037 29.4763 19.037H29.4797ZM28.8127 20.3784C32.4633 20.3726 35.3739 19.8686 35.5377 23.4722C35.5982 24.8069 35.5982 28.1518 35.5377 29.4866C35.379 32.9616 32.733 32.5803 29.4805 32.5803C26.6144 32.5803 25.1931 32.6819 24.2355 31.7235C23.2637 30.7516 23.3796 29.3622 23.3796 26.4777C23.3796 23.058 23.0562 20.5758 26.4733 20.4188C27.1596 20.3877 27.4259 20.3784 28.8127 20.3768V20.3784ZM33.4529 21.6141C32.9598 21.6141 32.5599 22.0139 32.5599 22.507C32.5599 23.0001 32.9598 23.3999 33.4529 23.3999C33.9459 23.3999 34.3458 23.0001 34.3458 22.507C34.3458 22.0139 33.9459 21.6141 33.4529 21.6141ZM29.4797 22.6582C27.3687 22.6582 25.6577 24.3701 25.6577 26.481C25.6577 28.592 27.3687 30.303 29.4797 30.303C31.5906 30.303 33.3008 28.592 33.3008 26.481C33.3008 24.3701 31.5906 22.6582 29.4797 22.6582ZM29.4797 23.9997C30.8497 23.9997 31.9602 25.111 31.9602 26.481C31.9602 27.8511 30.8497 28.9624 29.4797 28.9624C28.1096 28.9624 26.9991 27.8511 26.9991 26.481C26.9991 25.1102 28.1096 23.9997 29.4797 23.9997Z" fill="white"/>
</g>
<rect x="5.72" y="2.72" width="46.56" height="46.56" rx="23.28" stroke="white" stroke-width="1.44"/>
</g>
<defs>
<filter id="filter0_d_0_1089" x="0.2" y="0.0800002" width="57.6" height="57.6" filterUnits="userSpaceOnUse" color-interpolation-filters="sRGB">
<feFlood flood-opacity="0" result="BackgroundImageFix"/>
<feColorMatrix in="SourceAlpha" type="matrix" values="0 0 0 0 0 0 0 0 0 0 0 0 0 0 0 0 0 0 127 0" result="hardAlpha"/>
<feOffset dy="2.88"/>
<feGaussianBlur stdDeviation="2.4"/>
<feComposite in2="hardAlpha" operator="out"/>
<feColorMatrix type="matrix" values="0 0 0 0 0.475 0 0 0 0 0.475 0 0 0 0 0.475 0 0 0 0.1 0"/>
<feBlend mode="normal" in2="BackgroundImageFix" result="effect1_dropShadow_0_1089"/>
<feBlend mode="normal" in="SourceGraphic" in2="effect1_dropShadow_0_1089" result="shape"/>
</filter>
<linearGradient id="paint0_linear_0_1089" x1="17.8545" y1="2" x2="34.7738" y2="47.4224" gradientUnits="userSpaceOnUse">
<stop stop-color="#F5F5F5"/>
<stop offset="1" stop-color="white"/>
</linearGradient>
<linearGradient id="paint1_linear_0_1089" x1="20.7145" y1="35.2523" x2="39.4279" y2="19.0553" gradientUnits="userSpaceOnUse">
<stop stop-color="#FFDD55"/>
<stop offset="0.5" stop-color="#FF543E"/>
<stop offset="1" stop-color="#C837AB"/>
</linearGradient>
<clipPath id="clip0_0_1089">
<rect width="20.16" height="20.16" fill="white" transform="translate(19.4002 16.3999)"/>
</clipPath>
</defs>
</svg>
