<svg width="58" height="58" viewBox="0 0 58 58" fill="none" xmlns="http://www.w3.org/2000/svg">
<g filter="url(#filter0_d_1276_1167)">
<rect x="5" y="2" width="48" height="48" rx="24" fill="url(#paint0_linear_1276_1167)"/>
<g clip-path="url(#clip0_1276_1167)">
<path d="M38.9951 36L39.0001 35.9991V28.6641C39.0001 25.0758 38.2276 22.3116 34.0326 22.3116C32.0159 22.3116 30.6626 23.4183 30.1101 24.4675H30.0517V22.6466H26.0742V35.9991H30.2159V29.3875C30.2159 27.6466 30.5459 25.9633 32.7017 25.9633C34.8259 25.9633 34.8576 27.95 34.8576 29.4991V36H38.9951Z" fill="#0077B5"/>
<path d="M19.33 22.6475H23.4766V36H19.33V22.6475Z" fill="#0077B5"/>
<path d="M21.4017 16C20.0758 16 19 17.0758 19 18.4017C19 19.7275 20.0758 20.8258 21.4017 20.8258C22.7275 20.8258 23.8033 19.7275 23.8033 18.4017C23.8025 17.0758 22.7267 16 21.4017 16Z" fill="#0077B5"/>
</g>
<rect x="5.72" y="2.72" width="46.56" height="46.56" rx="23.28" stroke="white" stroke-width="1.44"/>
</g>
<defs>
<filter id="filter0_d_1276_1167" x="0.2" y="0.0799999" width="57.6" height="57.6" filterUnits="userSpaceOnUse" color-interpolation-filters="sRGB">
<feFlood flood-opacity="0" result="BackgroundImageFix"/>
<feColorMatrix in="SourceAlpha" type="matrix" values="0 0 0 0 0 0 0 0 0 0 0 0 0 0 0 0 0 0 127 0" result="hardAlpha"/>
<feOffset dy="2.88"/>
<feGaussianBlur stdDeviation="2.4"/>
<feComposite in2="hardAlpha" operator="out"/>
<feColorMatrix type="matrix" values="0 0 0 0 0.475 0 0 0 0 0.475 0 0 0 0 0.475 0 0 0 0.1 0"/>
<feBlend mode="normal" in2="BackgroundImageFix" result="effect1_dropShadow_1276_1167"/>
<feBlend mode="normal" in="SourceGraphic" in2="effect1_dropShadow_1276_1167" result="shape"/>
</filter>
<linearGradient id="paint0_linear_1276_1167" x1="17.8545" y1="2" x2="34.7738" y2="47.4224" gradientUnits="userSpaceOnUse">
<stop stop-color="#F5F5F5"/>
<stop offset="1" stop-color="white"/>
</linearGradient>
<clipPath id="clip0_1276_1167">
<rect width="20" height="20" fill="white" transform="translate(19 16)"/>
</clipPath>
</defs>
</svg>
