<svg xmlns="http://www.w3.org/2000/svg" width="58" height="58" viewBox="0 0 58 58" fill="none">
<g opacity="0.12">
<path d="M11.3589 42.775C8.94219 40.1167 7.49219 37.2167 7.49219 32.3833C7.49219 23.925 13.5339 16.4333 21.9922 12.5667L24.1672 15.7083C16.1922 20.0583 14.5005 25.6167 14.0172 29.2417C15.2255 28.5167 16.9172 28.275 18.6089 28.5167C22.9589 29 26.3422 32.3833 26.3422 36.975C26.3422 39.15 25.3755 41.325 23.9255 43.0167C22.2339 44.7083 20.3005 45.4333 17.8839 45.4333C15.2255 45.4333 12.8089 44.225 11.3589 42.775ZM35.5255 42.775C33.1089 40.1167 31.6589 37.2167 31.6589 32.3833C31.6589 23.925 37.7005 16.4333 46.1589 12.5667L48.3339 15.7083C40.3589 20.0583 38.6672 25.6167 38.1839 29.2417C39.3922 28.5167 41.0839 28.275 42.7755 28.5167C47.1255 29 50.5089 32.3833 50.5089 36.975C50.5089 39.15 49.5422 41.325 48.0922 43.0167C46.6422 44.7083 44.4672 45.4333 42.0505 45.4333C39.3922 45.4333 36.9755 44.225 35.5255 42.775Z" fill="#31C5AE"/>
</g>
</svg>