<svg width="58" height="58" viewBox="0 0 58 58" fill="none" xmlns="http://www.w3.org/2000/svg">
<g filter="url(#filter0_d_1276_1182)">
<rect x="5" y="2" width="48" height="48" rx="24" fill="url(#paint0_linear_1276_1182)"/>
<g clip-path="url(#clip0_1276_1182)">
<path d="M39.5467 20.7189C39.2931 19.7764 38.5501 19.0335 37.6078 18.7797C35.8862 18.3086 28.9998 18.3086 28.9998 18.3086C28.9998 18.3086 22.1136 18.3086 20.392 18.7618C19.4678 19.0154 18.7066 19.7766 18.453 20.7189C18 22.4403 18 26.0104 18 26.0104C18 26.0104 18 29.5984 18.453 31.3019C18.7068 32.2442 19.4497 32.9872 20.3921 33.241C22.1317 33.7122 29 33.7122 29 33.7122C29 33.7122 35.8862 33.7122 37.6078 33.259C38.5502 33.0054 39.2931 32.2623 39.5469 31.32C39.9999 29.5984 39.9999 26.0285 39.9999 26.0285C39.9999 26.0285 40.018 22.4403 39.5467 20.7189Z" fill="#FF0000"/>
<path d="M26.8073 29.3086L32.5337 26.0105L26.8073 22.7123V29.3086Z" fill="white"/>
</g>
<rect x="5.72" y="2.72" width="46.56" height="46.56" rx="23.28" stroke="white" stroke-width="1.44"/>
</g>
<defs>
<filter id="filter0_d_1276_1182" x="0.2" y="0.0800002" width="57.6" height="57.6" filterUnits="userSpaceOnUse" color-interpolation-filters="sRGB">
<feFlood flood-opacity="0" result="BackgroundImageFix"/>
<feColorMatrix in="SourceAlpha" type="matrix" values="0 0 0 0 0 0 0 0 0 0 0 0 0 0 0 0 0 0 127 0" result="hardAlpha"/>
<feOffset dy="2.88"/>
<feGaussianBlur stdDeviation="2.4"/>
<feComposite in2="hardAlpha" operator="out"/>
<feColorMatrix type="matrix" values="0 0 0 0 0.475 0 0 0 0 0.475 0 0 0 0 0.475 0 0 0 0.1 0"/>
<feBlend mode="normal" in2="BackgroundImageFix" result="effect1_dropShadow_1276_1182"/>
<feBlend mode="normal" in="SourceGraphic" in2="effect1_dropShadow_1276_1182" result="shape"/>
</filter>
<linearGradient id="paint0_linear_1276_1182" x1="17.8545" y1="2" x2="34.7738" y2="47.4224" gradientUnits="userSpaceOnUse">
<stop stop-color="#F5F5F5"/>
<stop offset="1" stop-color="white"/>
</linearGradient>
<clipPath id="clip0_1276_1182">
<rect width="22" height="22" fill="white" transform="translate(18 15)"/>
</clipPath>
</defs>
</svg>
