<svg width="132" height="20" viewBox="0 0 132 20" fill="none" xmlns="http://www.w3.org/2000/svg">
<g clip-path="url(#clip0_170_97)">
<path d="M19.9479 7.67197C19.8169 7.26699 19.4577 6.97935 19.0328 6.94105L13.2602 6.4169L10.9776 1.0742C10.8093 0.682654 10.426 0.429199 10.0001 0.429199C9.57422 0.429199 9.19091 0.682654 9.0226 1.07512L6.73998 6.4169L0.966514 6.94105C0.542309 6.98027 0.184023 7.26699 0.0523365 7.67197C-0.0793503 8.07695 0.0422654 8.52114 0.363166 8.80115L4.72653 12.6278L3.43987 18.2956C3.34573 18.7123 3.50747 19.1431 3.85325 19.393C4.0391 19.5273 4.25655 19.5956 4.47582 19.5956C4.66488 19.5956 4.85242 19.5447 5.02073 19.444L10.0001 16.468L14.9776 19.444C15.3419 19.6631 15.801 19.6431 16.146 19.393C16.492 19.1423 16.6536 18.7114 16.5594 18.2956L15.2728 12.6278L19.6361 8.80191C19.957 8.52114 20.0796 8.07771 19.9479 7.67197Z" fill="#FFC107"/>
</g>
<g clip-path="url(#clip1_170_97)">
<path d="M47.9479 7.67197C47.8169 7.26699 47.4577 6.97935 47.0328 6.94105L41.2602 6.4169L38.9776 1.0742C38.8093 0.682654 38.426 0.429199 38.0001 0.429199C37.5742 0.429199 37.1909 0.682654 37.0226 1.07512L34.74 6.4169L28.9665 6.94105C28.5423 6.98027 28.184 7.26699 28.0523 7.67197C27.9206 8.07695 28.0423 8.52114 28.3632 8.80115L32.7265 12.6278L31.4399 18.2956C31.3457 18.7123 31.5075 19.1431 31.8532 19.393C32.0391 19.5273 32.2565 19.5956 32.4758 19.5956C32.6649 19.5956 32.8524 19.5447 33.0207 19.444L38.0001 16.468L42.9776 19.444C43.3419 19.6631 43.801 19.6431 44.146 19.393C44.492 19.1423 44.6536 18.7114 44.5594 18.2956L43.2728 12.6278L47.6361 8.80191C47.957 8.52114 48.0796 8.07771 47.9479 7.67197Z" fill="#FFC107"/>
</g>
<g clip-path="url(#clip2_170_97)">
<path d="M75.9479 7.67197C75.8169 7.26699 75.4577 6.97935 75.0328 6.94105L69.2602 6.4169L66.9776 1.0742C66.8093 0.682654 66.426 0.429199 66.0001 0.429199C65.5742 0.429199 65.1909 0.682654 65.0226 1.07512L62.74 6.4169L56.9665 6.94105C56.5423 6.98027 56.184 7.26699 56.0523 7.67197C55.9206 8.07695 56.0423 8.52114 56.3632 8.80115L60.7265 12.6278L59.4399 18.2956C59.3457 18.7123 59.5075 19.1431 59.8532 19.393C60.0391 19.5273 60.2565 19.5956 60.4758 19.5956C60.6649 19.5956 60.8524 19.5447 61.0207 19.444L66.0001 16.468L70.9776 19.444C71.3419 19.6631 71.801 19.6431 72.146 19.393C72.492 19.1423 72.6536 18.7114 72.5594 18.2956L71.2728 12.6278L75.6361 8.80191C75.957 8.52114 76.0796 8.07771 75.9479 7.67197Z" fill="#FFC107"/>
</g>
<g clip-path="url(#clip3_170_97)">
<path d="M103.948 7.67197C103.817 7.26699 103.458 6.97935 103.033 6.94105L97.2602 6.4169L94.9776 1.0742C94.8093 0.682654 94.426 0.429199 94.0001 0.429199C93.5742 0.429199 93.1909 0.682654 93.0226 1.07512L90.74 6.4169L84.9665 6.94105C84.5423 6.98027 84.184 7.26699 84.0523 7.67197C83.9206 8.07695 84.0423 8.52114 84.3632 8.80115L88.7265 12.6278L87.4399 18.2956C87.3457 18.7123 87.5075 19.1431 87.8532 19.393C88.0391 19.5273 88.2565 19.5956 88.4758 19.5956C88.6649 19.5956 88.8524 19.5447 89.0207 19.444L94.0001 16.468L98.9776 19.444C99.3419 19.6631 99.801 19.6431 100.146 19.393C100.492 19.1423 100.654 18.7114 100.559 18.2956L99.2728 12.6278L103.636 8.80191C103.957 8.52114 104.08 8.07771 103.948 7.67197Z" fill="#FFC107"/>
</g>
<g clip-path="url(#clip4_170_97)">
<path d="M127.273 7.875C127.142 7.47002 127.273 7.875 127.273 6.71875L125.26 6.4169L122.978 1.0742C122.809 0.682654 122.426 0.429199 122 0.429199C121.574 0.429199 121.191 0.682654 121.023 1.07512L118.74 6.4169L112.967 6.94105C112.542 6.98027 112.184 7.26699 112.052 7.67197C111.921 8.07695 112.042 8.52114 112.363 8.80115L116.727 12.6278L115.44 18.2956C115.346 18.7123 115.507 19.1431 115.853 19.393C116.039 19.5273 116.257 19.5956 116.476 19.5956C116.665 19.5956 116.852 19.5447 117.021 19.444L122 16.468L126.978 19.444C127.342 19.6631 127.801 19.6431 128.146 19.393C128.492 19.1423 128.654 18.7114 128.559 18.2956L127.273 12.6278V10.5C127.273 10 127.273 9 127.273 7.875Z" fill="#FFC107"/>
<path d="M131.472 7.82577L131.472 7.82632C131.542 8.04166 131.477 8.27642 131.307 8.42561L131.306 8.42596L126.943 12.2519L126.719 12.4482L126.785 12.7385L128.072 18.406C128.122 18.6272 128.036 18.8552 127.853 18.9881L127.853 18.9882C127.669 19.1209 127.427 19.131 127.235 19.0155L127.234 19.0148L122.257 16.0388L122 15.8854L121.744 16.0388L116.764 19.0148L116.764 19.0149C116.673 19.0693 116.574 19.0956 116.476 19.0956C116.361 19.0956 116.246 19.0601 116.146 18.9877C115.964 18.8558 115.877 18.6284 115.928 18.406C115.928 18.4059 115.928 18.4058 115.928 18.4057L117.214 12.7385L117.28 12.4482L117.056 12.2519L112.693 8.42523L112.692 8.42441C112.523 8.27678 112.458 8.04199 112.528 7.82659C112.598 7.61146 112.787 7.45995 113.012 7.43897C113.012 7.43896 113.012 7.43895 113.013 7.43893L118.785 6.91485L119.082 6.88786L119.2 6.61337L121.482 1.27219C121.482 1.27205 121.482 1.27191 121.482 1.27177C121.572 1.06247 121.775 0.929199 122 0.929199C122.225 0.929199 122.428 1.06262 122.518 1.2711C122.518 1.27128 122.518 1.27147 122.518 1.27166L124.8 6.61334L124.918 6.88786L125.215 6.91485L130.988 7.43901L130.988 7.43904C131.213 7.45932 131.403 7.61127 131.472 7.82577Z" stroke="#FFC107"/>
</g>
<defs>
<clipPath id="clip0_170_97">
<rect width="20" height="20" fill="white"/>
</clipPath>
<clipPath id="clip1_170_97">
<rect width="20" height="20" fill="white" transform="translate(28)"/>
</clipPath>
<clipPath id="clip2_170_97">
<rect width="20" height="20" fill="white" transform="translate(56)"/>
</clipPath>
<clipPath id="clip3_170_97">
<rect width="20" height="20" fill="white" transform="translate(84)"/>
</clipPath>
<clipPath id="clip4_170_97">
<rect width="20" height="20" fill="white" transform="translate(112)"/>
</clipPath>
</defs>
</svg>
