<svg width="64" height="64" viewBox="0 0 64 64" fill="none" xmlns="http://www.w3.org/2000/svg">
<rect width="64" height="64" rx="12.8" fill="url(#paint0_linear_0_390)" fill-opacity="0.12"/>
<path d="M49.0908 36.225C48.4265 35.2487 47.0886 34.9902 46.1092 35.6484L41.6518 38.6315L41.6388 29.3462L43.1874 30.7969C43.5167 31.1053 43.9461 31.275 44.3968 31.275C44.3977 31.275 44.3986 31.275 44.3995 31.275C44.8862 31.2744 45.3561 31.0704 45.6887 30.7153C46.0119 30.3703 46.1814 29.9202 46.166 29.4477C46.1505 28.9752 45.952 28.5371 45.607 28.2139L42.6712 25.4637C42.4703 25.2755 42.1548 25.2858 41.9665 25.4867C41.7783 25.6877 41.7886 26.0031 41.9895 26.1914L44.9253 28.9416C45.076 29.0827 45.1626 29.274 45.1694 29.4802C45.176 29.6864 45.1021 29.883 44.9609 30.0335C44.8136 30.1908 44.6137 30.2776 44.398 30.2779C44.3976 30.2779 44.3973 30.2779 44.3968 30.2779C44.2002 30.2779 44.0128 30.2038 43.869 30.0691L43.869 30.0691L32.2116 19.1486C32.0195 18.9688 31.7205 18.969 31.5289 19.1496L19.9018 30.1027C19.7517 30.2442 19.5553 30.3183 19.349 30.3125C19.1427 30.3064 18.9513 30.2202 18.8098 30.0699C18.6683 29.9198 18.5937 29.7235 18.5999 29.5172C18.6061 29.3109 18.6922 29.1195 18.8424 28.978L31.3385 17.2062C31.6347 16.9272 32.0994 16.9265 32.3964 17.2048L39.7072 24.0534C39.9081 24.2417 40.2236 24.2314 40.4119 24.0305C40.6001 23.8295 40.5898 23.514 40.3889 23.3258L33.0782 16.4771C32.3978 15.8397 31.3334 15.8411 30.6548 16.4805L26.6545 20.2489L26.6534 19.5767C26.6532 19.3648 26.5704 19.1658 26.4203 19.0162C26.2706 18.8669 26.0718 18.7847 25.8603 18.7847C25.8599 18.7847 25.8596 18.7847 25.8592 18.7847L22.9976 18.7887C22.7857 18.789 22.5867 18.8718 22.4371 19.0218C22.2876 19.1718 22.2053 19.3711 22.2056 19.5831L22.2136 24.4325L18.1587 28.2523C17.8146 28.5764 17.6174 29.0151 17.6033 29.4876C17.5891 29.9601 17.7599 30.4098 18.084 30.7538C18.408 31.0979 18.8467 31.2952 19.3193 31.3093C19.3374 31.3098 19.3555 31.3101 19.3735 31.3101C19.8262 31.3101 20.2548 31.1402 20.5856 30.8285L22.1307 29.373L22.1368 33.7588C21.6369 33.686 21.1311 33.6478 20.623 33.6478H19.77V33.3489C19.77 32.3453 18.9534 31.5288 17.9499 31.5288H16.3545C15.3509 31.5287 14.5344 32.3452 14.5344 33.3488V41.1611C14.5344 41.4364 14.7576 41.6597 15.033 41.6597C15.3083 41.6597 15.5315 41.4364 15.5315 41.1611V33.3488C15.5315 32.895 15.9007 32.5258 16.3545 32.5258H17.9498C18.4036 32.5258 18.7728 32.895 18.7728 33.3488V34.1463V44.3652V45.1549C18.7728 45.6087 18.4036 45.9778 17.9498 45.9778H16.3545C15.9007 45.9778 15.5315 45.6087 15.5315 45.1549V44.2825C15.5315 44.0071 15.3083 43.7839 15.033 43.7839C14.7576 43.7839 14.5344 44.0071 14.5344 44.2825V45.1549C14.5344 46.1584 15.3509 46.9749 16.3545 46.9749H17.9498C18.9534 46.9749 19.7699 46.1585 19.7699 45.1549V45.0871L27.0709 47.8519C27.0845 47.857 27.0982 47.8615 27.1121 47.8654C27.4295 47.955 27.7468 48 28.0601 48C28.2295 48 28.3978 47.9868 28.5644 47.9605L39.2939 46.4138C39.2965 46.4135 39.2989 46.4131 39.3014 46.4127C40.2137 46.267 41.0742 45.8814 41.7901 45.2976C41.7963 45.2925 41.8024 45.2873 41.8083 45.2819L48.7401 39.0475C49.5474 38.3309 49.6981 37.1174 49.0908 36.225ZM25.6566 19.7821L25.6589 21.1868L23.2091 23.4946L23.203 19.7855L25.6566 19.7821ZM31.8716 20.1965L40.6404 28.4109L40.6556 39.2981L39.2441 40.2428L37.7493 40.159L37.7098 39.7619C37.5707 38.3636 36.5384 37.2387 35.1734 36.9703L35.1644 30.4932C35.1638 29.9962 34.7591 29.5923 34.2621 29.5923C34.2617 29.5923 34.2614 29.5923 34.2609 29.5923L29.5092 29.599C29.2681 29.5993 29.0417 29.6934 28.8715 29.8641C28.7013 30.0347 28.6078 30.2615 28.6081 30.5025L28.616 36.1497C27.6748 35.9345 26.7761 35.5792 25.9359 35.0877C25.831 35.0263 25.7251 34.9671 25.6184 34.9095C25.5767 34.8871 25.5344 34.866 25.4925 34.8441C25.4276 34.8102 25.3627 34.7761 25.2971 34.7436C25.2449 34.7176 25.192 34.6931 25.1393 34.668C25.0835 34.6415 25.0277 34.6147 24.9714 34.5891C24.9141 34.5631 24.8563 34.5384 24.7986 34.5134C24.7458 34.4906 24.6931 34.4677 24.64 34.4458C24.5807 34.4213 24.521 34.3978 24.4612 34.3744C24.4082 34.3536 24.3551 34.333 24.3019 34.3131C24.2427 34.291 24.1833 34.2696 24.1238 34.2487C24.0679 34.229 24.0119 34.2097 23.9557 34.191C23.8987 34.172 23.8415 34.1533 23.7841 34.1353C23.7229 34.1159 23.6614 34.0975 23.5999 34.0793C23.547 34.0638 23.4942 34.0482 23.4411 34.0335C23.3717 34.0142 23.302 33.9961 23.2322 33.9782C23.1995 33.9698 23.167 33.9603 23.1342 33.9522L23.1265 28.4348L31.8716 20.1965ZM34.1762 36.8455L30.0063 36.3655L29.6135 36.3202L29.6054 30.5959L34.1675 30.5895L34.1762 36.8455ZM48.0758 38.3041L41.1508 44.5324C40.5738 45.0003 39.8816 45.3098 39.1479 45.4275L28.423 46.9735C28.4207 46.9738 28.4185 46.9742 28.4163 46.9745L28.4089 46.9757C28.0839 47.0271 27.7456 47.0054 27.403 46.9114L19.77 44.0209V34.6448H20.623C21.3492 34.6448 22.0705 34.7287 22.7729 34.8915C22.799 34.8976 22.8251 34.9038 22.8511 34.9101C22.9374 34.9309 23.0235 34.9523 23.1092 34.9755C23.1167 34.9776 23.1241 34.9797 23.1316 34.9818C23.2175 35.0052 23.3031 35.03 23.3884 35.0559C23.4036 35.0605 23.419 35.0651 23.4342 35.0698C23.5249 35.0978 23.6152 35.1271 23.7051 35.1578C23.7144 35.161 23.7236 35.1643 23.7329 35.1675C23.92 35.2321 24.1053 35.3025 24.2882 35.3788C24.2982 35.383 24.3081 35.3871 24.3181 35.3914C24.4093 35.4297 24.5 35.4693 24.59 35.5105C24.5924 35.5116 24.5949 35.5128 24.5973 35.514C24.6843 35.5539 24.7707 35.5954 24.8566 35.638C24.8667 35.643 24.8769 35.6479 24.887 35.653C24.9709 35.6949 25.0541 35.7384 25.1369 35.7829C25.1525 35.7913 25.168 35.7999 25.1837 35.8083C25.2672 35.8538 25.3502 35.9002 25.4324 35.9483C26.6188 36.6423 27.9103 37.0918 29.2711 37.2844C29.2754 37.285 29.2797 37.2855 29.284 37.286L34.8698 37.9291C34.9007 37.9335 34.9314 37.9387 34.9619 37.9444C35.7842 38.0988 36.4332 38.7065 36.6504 39.4977C36.6826 39.6149 36.7052 39.7362 36.7176 39.8606L36.7398 40.0837L26.2709 39.1665C25.9968 39.1425 25.7548 39.3453 25.7308 39.6196C25.7067 39.8939 25.9097 40.1357 26.1839 40.1597L37.2519 41.1295C37.2545 41.1297 37.2571 41.1296 37.2597 41.1298C37.2623 41.13 37.2648 41.1304 37.2675 41.1306L39.3548 41.2478C39.3641 41.2483 39.3734 41.2485 39.3827 41.2485C39.3926 41.2485 39.4023 41.2469 39.4122 41.2463C39.4233 41.2456 39.4344 41.2452 39.4454 41.2439C39.4603 41.242 39.4748 41.2388 39.4894 41.2355C39.4999 41.2332 39.5104 41.2315 39.5206 41.2285C39.5366 41.2239 39.5519 41.2177 39.5674 41.2115C39.5757 41.2082 39.5843 41.2057 39.5925 41.2018C39.6158 41.1911 39.6384 41.1786 39.66 41.1642L41.4318 39.9785L41.432 39.9783L46.6645 36.4765C47.191 36.1226 47.9096 36.2614 48.2664 36.7859C48.5926 37.2652 48.5117 37.917 48.0758 38.3041Z" fill="#387EDB"/>
<defs>
<linearGradient id="paint0_linear_0_390" x1="2.78261" y1="74.5" x2="65.825" y2="67.7204" gradientUnits="userSpaceOnUse">
<stop stop-color="#30C9AB"/>
<stop offset="1" stop-color="#377BDC"/>
</linearGradient>
</defs>
</svg>
