<svg width="19" height="19" viewBox="0 0 19 19" fill="none" xmlns="http://www.w3.org/2000/svg">
<path d="M18.3333 9.33301H9.66667V0.666341C9.66667 0.482258 9.51742 0.333008 9.33333 0.333008C4.17867 0.333008 0 4.51167 0 9.66634C0 14.821 4.17867 18.9997 9.33333 18.9997C14.488 18.9997 18.6667 14.821 18.6667 9.66634C18.6667 9.48226 18.5174 9.33301 18.3333 9.33301ZM9.33333 18.333C4.54688 18.3341 0.66575 14.4549 0.664583 9.66842C0.6635 5.01005 4.34504 1.18405 9 1.00601V9.66634C9 9.85042 9.14925 9.99967 9.33333 9.99967H17.9937C17.809 14.6505 13.9878 18.3274 9.33333 18.333Z" fill="#377FDB"/>
</svg>
