<svg width="48" height="48" viewBox="0 0 48 48" fill="none" xmlns="http://www.w3.org/2000/svg">
<g clip-path="url(#clip0_5797_254)">
<path d="M23.9846 48.0606C37.2207 48.0606 47.9507 37.3306 47.9507 24.0945C47.9507 10.8584 37.2207 0.128357 23.9846 0.128357C10.7485 0.128357 0.018486 10.8584 0.018486 24.0945C0.018486 37.3306 10.7485 48.0606 23.9846 48.0606Z" fill="#FFCC5B"/>
<path d="M27.2353 21.3449H12.0477C10.867 21.3449 9.89775 20.3756 9.89775 19.1949L9.91418 19.047V19.0142C9.89775 17.7677 10.9142 16.7492 12.1627 16.7492H22.6889C24.0832 16.7492 25.3152 15.7163 25.3974 14.3199C25.4631 12.8599 24.2988 11.6278 22.8367 11.6278H11.6863C10.4563 11.6278 9.53634 10.5949 9.55277 9.36282C9.55277 9.34639 9.55277 9.34639 9.55277 9.32997C9.55277 9.31354 9.55277 9.31354 9.55277 9.29711C9.53634 8.06708 10.4542 7.03213 11.6863 7.03213H23.3542C24.7321 7.03213 25.9641 5.99923 26.0463 4.61929C26.112 3.14284 24.9477 1.92719 23.4856 1.92719H14.9411C6.22819 5.51871 0.0882988 14.0858 0.0882988 24.0945C0.0882988 34.1031 6.22819 42.6681 14.9431 46.2556H25.7917C27.1695 46.2556 28.4016 45.2227 28.4838 43.8427C28.5495 42.3663 27.3852 41.1527 25.9231 41.1527L13.5817 41.1506C12.1258 41.1506 10.9532 39.9329 11.0313 38.4585C11.1031 37.0786 12.3434 36.0416 13.7254 36.0416H18.51C19.8859 36.0026 20.9968 34.8752 20.9968 33.4891C20.9968 32.0784 19.8489 30.9284 18.4361 30.9284H11.1832C10.0025 30.9284 9.03324 29.9612 9.04967 28.7784V28.5977C8.96753 27.4334 9.90391 26.4477 11.0682 26.4477H27.0874C28.4817 26.4477 29.7138 25.4148 29.7959 24.0349C29.8616 22.5605 28.6953 21.3449 27.2353 21.3449Z" fill="#FDBC4B"/>
<path d="M23.9846 41.1999C14.5509 41.1999 6.87709 33.524 6.87709 24.0924C6.87709 14.6608 14.5509 6.98694 23.9846 6.98694C33.4183 6.98694 41.0921 14.6628 41.0921 24.0944C41.0921 33.5261 33.4183 41.1999 23.9846 41.1999Z" fill="#FFDB70"/>
<path opacity="0.2" d="M41.0921 24.0945C41.0921 14.9935 33.9419 7.54962 24.9662 7.03625H23.3727C22.3213 7.03625 21.3828 7.82479 21.3192 8.87617C21.2699 10.0015 22.157 10.9296 23.272 10.9296L32.6852 10.9317C33.7961 10.9317 34.6894 11.8599 34.6298 12.9852C34.5744 14.0386 33.6298 14.8292 32.5743 14.8292H28.9253C27.8759 14.86 27.0279 15.7184 27.0279 16.7759C27.0279 17.8519 27.9047 18.7287 28.9807 18.7287H34.5128C35.4142 18.7287 36.1514 19.468 36.1391 20.3674V20.5029C36.2007 21.3921 35.4882 22.1416 34.599 22.1416H22.3829C21.3192 22.1416 20.3807 22.9302 20.3171 23.9815C20.2678 25.1068 21.1549 26.035 22.2699 26.035H33.8516C34.753 26.035 35.4902 26.7743 35.4902 27.6737L35.4779 27.7866V27.8113C35.4902 28.762 34.714 29.5382 33.7632 29.5382H25.7342C24.6705 29.5382 23.732 30.3268 23.6684 31.3905C23.6191 32.5035 24.5062 33.444 25.6212 33.444H34.1247C35.0631 33.444 35.7633 34.2325 35.751 35.1709C35.751 35.1832 35.751 35.1832 35.751 35.1956C35.751 35.2079 35.751 35.2079 35.751 35.2202C35.7633 36.1586 35.0631 36.9472 34.1247 36.9472H25.227C24.1756 36.9472 23.2371 37.7357 23.1735 38.7871C23.1242 39.9145 24.0113 40.8406 25.1263 40.8406H27.4735C35.2418 39.2224 41.0921 32.3289 41.0921 24.0945Z" fill="white"/>
<path d="M35.9276 20.3058H27.6069L25.0339 12.3917C24.7033 11.3752 23.2638 11.3752 22.9332 12.3917L20.3623 20.3058H12.0416C10.9717 20.3058 10.5261 21.6755 11.3927 22.3038L18.124 27.1952L15.553 35.1093C15.2224 36.1258 16.3867 36.9718 17.2533 36.3434L23.9846 31.4521L30.7159 36.3434C31.5825 36.9718 32.7468 36.1258 32.4162 35.1093L29.8452 27.1952L36.5765 22.3038C37.441 21.6755 36.9975 20.3058 35.9276 20.3058Z" fill="#EC9922"/>
</g>
<defs>
<clipPath id="clip0_5797_254">
<rect width="48" height="47.8717" fill="white" transform="translate(0 0.128357)"/>
</clipPath>
</defs>
</svg>
