<svg width="50" height="51" viewBox="0 0 50 51" fill="none" xmlns="http://www.w3.org/2000/svg">
<rect y="0.5" width="50" height="50" rx="12" fill="url(#paint0_linear_99_92)" fill-opacity="0.12"/>
<g clip-path="url(#clip0_99_92)">
<path d="M30.1056 30.425C28.6148 31.9159 28.8011 34.9242 28.8011 34.9242H21.2404C21.2404 34.9242 21.4001 31.9159 19.9359 30.425C18.312 28.9874 17.2737 26.9109 17.2737 24.5947C17.2737 20.3352 20.7346 16.8743 24.9941 16.8743C29.2537 16.8743 32.7146 20.3352 32.7146 24.5947C32.7146 26.9109 31.703 28.9874 30.1056 30.425Z" fill="#FFD517"/>
<path d="M29.0133 37.2938C29.0133 37.6931 28.6938 38.0126 28.2945 38.0126H21.7188C21.3195 38.0126 21 37.6931 21 37.2938C21 36.8944 21.3195 36.575 21.7188 36.575H28.2679C28.6672 36.575 29.0133 36.8944 29.0133 37.2938Z" fill="#E5E5E5"/>
<path d="M28.0276 40.2754C28.0276 40.6748 27.7082 40.9942 27.3088 40.9942H22.7032C22.3038 40.9942 21.9844 40.6748 21.9844 40.2754C21.9844 39.8761 22.3038 39.5566 22.7032 39.5566H27.3088C27.7082 39.5566 28.0276 39.8761 28.0276 40.2754Z" fill="#E5E5E5"/>
<path d="M30.5066 30.6915C32.2371 29.1207 33.2221 26.9111 33.2221 24.5949C33.2221 20.0692 29.5216 16.3687 24.9958 16.3687C20.47 16.3687 16.7695 20.0692 16.7695 24.5949C16.7695 26.9643 17.8078 29.2272 19.5649 30.7713C20.8694 32.0758 20.7363 34.8445 20.7363 34.8712C20.7363 35.0043 20.7895 35.1374 20.8694 35.2439C20.9759 35.3504 21.109 35.4036 21.2421 35.4036H28.7762C28.9093 35.4036 29.0424 35.3504 29.1489 35.2439C29.2554 35.1374 29.282 35.0043 29.282 34.8712C29.282 34.8445 29.1489 32.0758 30.4534 30.7713C30.48 30.7447 30.5066 30.7181 30.5066 30.6915ZM29.7612 30.0259C29.708 30.0525 29.6813 30.1058 29.6547 30.159C28.4833 31.4103 28.297 33.4602 28.2704 34.4186H21.7479C21.7213 33.4335 21.5083 31.3038 20.2571 30.0525C18.6863 28.6682 17.7812 26.6981 17.7812 24.6216C17.7812 20.6282 21.0291 17.4069 24.9958 17.4069C28.9892 17.4069 32.2105 20.6548 32.2105 24.6216C32.2105 26.6715 31.3319 28.6682 29.7612 30.0259Z" fill="#210B20"/>
<path d="M24.9941 18.4983C24.7279 18.4983 24.4883 18.7113 24.4883 19.0041C24.4883 19.2703 24.7013 19.5099 24.9941 19.5099C27.9758 19.5099 30.3984 21.9326 30.3984 24.9143C30.3984 25.1805 30.6114 25.4201 30.9043 25.4201C31.1705 25.4201 31.4101 25.2071 31.4101 24.9143C31.4101 21.3735 28.5349 18.4983 24.9941 18.4983Z" fill="#210B20"/>
<path d="M29.5211 37.2937C29.5211 36.6015 28.962 36.0691 28.2964 36.0691H21.7207C21.0285 36.0691 20.4961 36.6282 20.4961 37.2937C20.4961 37.9859 21.0552 38.5183 21.7207 38.5183H28.2698C28.962 38.5183 29.5211 37.9859 29.5211 37.2937ZM28.2698 37.5067H21.7207C21.5876 37.5067 21.5077 37.4002 21.5077 37.2937C21.5077 37.1606 21.6142 37.0807 21.7207 37.0807H28.2698C28.4029 37.0807 28.4828 37.1872 28.4828 37.2937C28.5094 37.4268 28.4029 37.5067 28.2698 37.5067Z" fill="#210B20"/>
<path d="M27.3108 39.0508H22.7051C22.0129 39.0508 21.4805 39.6098 21.4805 40.2754C21.4805 40.9676 22.0395 41.5 22.7051 41.5H27.3108C28.0029 41.5 28.5354 40.941 28.5354 40.2754C28.5354 39.6098 27.9763 39.0508 27.3108 39.0508ZM27.3108 40.4884H22.7051C22.572 40.4884 22.4921 40.3819 22.4921 40.2754C22.4921 40.1423 22.5986 40.0624 22.7051 40.0624H27.3108C27.4439 40.0624 27.5237 40.1689 27.5237 40.2754C27.5237 40.4085 27.4439 40.4884 27.3108 40.4884Z" fill="#210B20"/>
<path d="M25.4999 13.4135V10.0058C25.4999 9.7396 25.2869 9.5 24.9941 9.5C24.7279 9.5 24.4883 9.71298 24.4883 10.0058V13.4401C24.4883 13.7063 24.7013 13.9459 24.9941 13.9459C25.2869 13.9193 25.4999 13.7063 25.4999 13.4135Z" fill="#210B20"/>
<path d="M33.3815 12.0292C33.1419 11.8694 32.8491 11.9493 32.6894 12.1623L30.7992 15.0109C30.6394 15.2505 30.7193 15.5433 30.9323 15.703C31.0122 15.7563 31.1186 15.7829 31.1985 15.7829C31.3582 15.7829 31.518 15.703 31.6245 15.5699L33.5146 12.7213C33.6744 12.5084 33.5945 12.1889 33.3815 12.0292Z" fill="#210B20"/>
<path d="M18.9787 15.6764C19.0586 15.6764 19.1651 15.6498 19.245 15.5965C19.4846 15.4368 19.5378 15.1439 19.4047 14.9043L17.5678 12.0291C17.408 11.7895 17.1152 11.7363 16.8756 11.8694C16.636 12.0291 16.5827 12.322 16.7158 12.5616L18.5528 15.4368C18.6593 15.5965 18.819 15.6764 18.9787 15.6764Z" fill="#210B20"/>
<path d="M11.9233 18.0724L14.9316 19.6964C15.0115 19.7496 15.0914 19.7496 15.1712 19.7496C15.3576 19.7496 15.5173 19.6431 15.6238 19.4834C15.7569 19.2438 15.6771 18.9243 15.4108 18.7912L12.4025 17.1672C12.1629 17.0341 11.8435 17.114 11.7103 17.3802C11.6039 17.6464 11.6837 17.9393 11.9233 18.0724Z" fill="#210B20"/>
<path d="M34.8192 19.7761C34.899 19.7761 34.9789 19.7495 35.0588 19.7228L38.0671 18.0989C38.3067 17.9658 38.4132 17.6729 38.2801 17.4067C38.1469 17.1671 37.8541 17.0606 37.5879 17.1937L34.5796 18.8177C34.34 18.9508 34.2335 19.2436 34.3666 19.5099C34.4464 19.6696 34.6328 19.7761 34.8192 19.7761Z" fill="#210B20"/>
</g>
<defs>
<linearGradient id="paint0_linear_99_92" x1="26.5972" y1="6.29107" x2="27.5838" y2="50.919" gradientUnits="userSpaceOnUse">
<stop stop-color="#3783D8"/>
<stop offset="1" stop-color="#31C0B2"/>
</linearGradient>
<clipPath id="clip0_99_92">
<rect width="32" height="32" fill="white" transform="translate(9 9.5)"/>
</clipPath>
</defs>
</svg>
