<svg width="1440" height="149" viewBox="0 0 1440 149" fill="none" xmlns="http://www.w3.org/2000/svg">
<path d="M0 0.5L98.0261 20.8925C159.266 33.6324 222.553 32.8155 283.444 18.4993C334.059 6.59907 386.417 4.00648 437.96 10.8482L476.714 15.9923C521.366 21.9193 566.615 21.7853 611.232 15.5938L637.298 11.9766C692.011 4.38409 747.63 6.42146 801.641 17.9966C867.779 32.171 936.187 32.0136 1002.26 17.5352L1004.18 17.1153C1054.4 6.10913 1106.07 3.19964 1157.21 8.49682L1208.13 13.7709C1242.29 17.3083 1276.71 17.3181 1310.87 13.8001L1440 0.5V148.5H0V0.5Z" fill="url(#paint0_linear_4209_486)" fill-opacity="0.3"/>
<defs>
<linearGradient id="paint0_linear_4209_486" x1="766" y1="17.6416" x2="766.3" y2="149.804" gradientUnits="userSpaceOnUse">
<stop stop-color="#3783D8"/>
<stop offset="1" stop-color="#31C0B2"/>
</linearGradient>
</defs>
</svg>
