<svg width="1440" height="153" viewBox="0 0 1440 153" fill="none" xmlns="http://www.w3.org/2000/svg">
<path d="M0 41L97.9977 16.1774C157.724 1.04872 220.551 3.50465 278.914 23.2495L308.771 33.3503C361.523 51.1967 418.909 49.6541 470.626 28.9993C523.098 8.04297 581.378 6.77052 634.715 25.4167L653.144 31.8592C707.048 50.7039 765.813 50.315 819.463 30.7586C866.386 13.6544 917.388 11.1569 965.758 23.5948L993.746 30.7918C1052.44 45.8848 1114.39 42.2342 1170.9 20.3515C1221.3 0.83828 1276.14 -4.22345 1329.26 5.73592L1440 26.5V152.5H0V41Z" fill="url(#paint0_linear_4209_484)" fill-opacity="0.3"/>
<defs>
<linearGradient id="paint0_linear_4209_484" x1="766" y1="9.26305" x2="766.36" y2="153.927" gradientUnits="userSpaceOnUse">
<stop stop-color="#3783D8"/>
<stop offset="1" stop-color="#31C0B2"/>
</linearGradient>
</defs>
</svg>
