<svg width="29" height="28" viewBox="0 0 29 28" fill="none" xmlns="http://www.w3.org/2000/svg">
<g clip-path="url(#clip0_5793_63)">
<path d="M27.9163 24.4998H3.99995V0.583466C3.99995 0.261306 3.73877 0.00012207 3.41661 0.00012207C3.09445 0.00012207 2.83332 0.261306 2.83332 0.583466V24.4998H1.08334C0.761184 24.4998 0.5 24.761 0.5 25.0831C0.5 25.4053 0.761184 25.6665 1.08334 25.6665H2.83332V27.4165C2.83332 27.7386 3.0945 27.9998 3.41666 27.9998C3.73882 27.9998 3.99995 27.7386 3.99995 27.4165V25.6665H27.9163C28.2384 25.6665 28.4996 25.4053 28.4996 25.0831C28.4996 24.761 28.2384 24.4998 27.9163 24.4998Z" fill="#387EDB"/>
<path d="M5.74993 23.3332C5.42777 23.3328 5.16697 23.0712 5.16747 22.749C5.16763 22.617 5.21258 22.489 5.29494 22.3859L9.96153 16.5526C10.0647 16.4228 10.2183 16.343 10.3839 16.3332C10.5497 16.323 10.7118 16.3851 10.8284 16.5036L12.6332 18.3096L15.7481 13.1168C15.8474 12.9512 16.0221 12.8456 16.2148 12.8344C16.4047 12.8262 16.5875 12.9068 16.7094 13.0526L18.2704 15.0044L20.3459 5.13344C20.4124 4.81823 20.722 4.61665 21.0372 4.68326C21.1479 4.70667 21.2494 4.76174 21.3294 4.8418L24.3533 7.86576L27.4496 3.73346C27.6427 3.47556 28.0083 3.42295 28.2662 3.61594C28.5241 3.80893 28.5767 4.17457 28.3837 4.43247C28.3835 4.4328 28.3832 4.43313 28.383 4.4334L24.883 9.09998C24.6897 9.35767 24.3241 9.40984 24.0663 9.21652C24.0445 9.20017 24.0238 9.18223 24.0045 9.16298L21.2664 6.42367L19.1548 16.457C19.0884 16.7723 18.7791 16.974 18.4638 16.9077C18.3313 16.8798 18.2126 16.8067 18.1281 16.7008L16.3186 14.4399L13.2503 19.5533C13.0859 19.8303 12.7281 19.9217 12.451 19.7573C12.4099 19.7329 12.372 19.7036 12.338 19.6699L10.4714 17.8033L6.20613 23.1151C6.09512 23.2533 5.92723 23.3336 5.74993 23.3332Z" fill="#387EDB"/>
</g>
<defs>
<clipPath id="clip0_5793_63">
<rect width="28" height="28" fill="white" transform="translate(0.5)"/>
</clipPath>
</defs>
</svg>
