<svg width="24" height="24" viewBox="0 0 24 24" fill="none" xmlns="http://www.w3.org/2000/svg">
<g clip-path="url(#clip0_996_1179)">
<mask id="path-1-outside-1_996_1179" maskUnits="userSpaceOnUse" x="-1" y="4.18335" width="23" height="20" fill="black">
<rect fill="white" x="-1" y="4.18335" width="23" height="20"/>
<path d="M20.9207 9.99561C20.7044 9.57159 20.3234 9.25478 19.8671 9.1197C19.4106 8.98442 18.9187 9.04237 18.5062 9.28022L18.0137 9.56432C17.9477 9.31092 17.8227 9.07669 17.649 8.88084C17.414 8.61734 17.1037 8.43238 16.7602 8.35101L16.9084 8.20301C17.5907 7.54961 17.642 6.47623 17.0249 5.76064C16.7063 5.40527 16.2554 5.19669 15.7783 5.18397C15.301 5.17125 14.8396 5.35539 14.5024 5.6934L13.6753 6.52246C13.4898 5.74004 12.7916 5.1872 11.9873 5.18639H11.9849C11.5256 5.18538 11.0848 5.36832 10.7609 5.69421L7.92378 8.53092L7.91874 8.53596L7.60193 8.85257C7.54378 8.34091 7.30471 7.86662 6.92753 7.51569C6.41548 7.05391 5.63124 7.07591 5.14563 7.56536L2.1597 10.5551C-0.570799 13.2061 -0.732937 17.5359 1.79161 20.3838C2.30226 20.9427 2.89952 21.4157 3.56059 21.7846C3.69749 21.9306 3.8459 22.077 4.00642 22.2206C6.26989 24.2343 9.5698 24.5693 12.1917 23.0515L19.0693 19.0816C19.896 18.6261 20.2227 17.6044 19.8138 16.7539C19.6541 16.4373 19.4009 16.1775 19.0885 16.0095L19.968 15.502C20.7973 15.0494 21.1278 14.0269 20.7202 13.1744C20.5615 12.8594 20.3099 12.6009 19.9993 12.4337L20.1784 12.3304C21.0071 11.873 21.333 10.8475 20.9207 9.99561ZM2.40281 19.8267C0.174875 17.3054 0.324494 13.4776 2.74223 11.1378L5.72997 8.15051C5.89756 7.97181 6.17661 7.95788 6.36096 8.11901C6.62809 8.36878 6.78256 8.71607 6.78902 9.08174C6.79548 9.44721 6.65333 9.79995 6.39528 10.0588H6.39326L3.58543 12.8666C3.4239 13.0284 3.4241 13.2903 3.58563 13.4516C3.74716 13.6131 4.00905 13.6129 4.17058 13.4514L6.97337 10.6482L11.3402 6.28138C11.5098 6.11076 11.7404 6.01525 11.9809 6.01586C12.3494 6.01505 12.6821 6.23696 12.8233 6.57759C12.9644 6.91802 12.8859 7.31014 12.6246 7.57041L7.95306 12.2447C7.84564 12.3485 7.80243 12.5024 7.84039 12.647C7.87815 12.7915 7.99102 12.9044 8.13559 12.9422C8.28016 12.9801 8.43402 12.9369 8.53781 12.8295L13.2152 8.15253L15.0892 6.27855C15.266 6.10087 15.5081 6.00415 15.7587 6.01101C16.0091 6.01768 16.2457 6.12752 16.4125 6.31449C16.7285 6.705 16.6908 7.27298 16.3257 7.61826L15.133 8.81097V8.8134L9.82462 14.1167C9.7172 14.2207 9.67399 14.3743 9.71195 14.5189C9.74971 14.6635 9.86258 14.7764 10.0071 14.8143C10.1519 14.8521 10.3056 14.8091 10.4094 14.7015L15.7137 9.39734C15.8859 9.2144 16.1302 9.11688 16.381 9.13101C16.6314 9.13666 16.868 9.2463 17.0344 9.43328C17.2137 9.64165 17.2858 9.92171 17.2301 10.1909C17.2224 10.2329 17.2121 10.2743 17.199 10.3148C17.1933 10.3326 17.1875 10.35 17.1808 10.3673C17.1693 10.398 17.1568 10.4277 17.1428 10.4572C17.1285 10.4855 17.1128 10.5131 17.0956 10.5398C17.0841 10.5592 17.0734 10.5787 17.0605 10.5973C17.0269 10.6454 16.9892 10.6906 16.948 10.7326L15.1857 12.5016L15.183 12.504L11.6972 15.9889C11.5896 16.0926 11.5466 16.2463 11.5843 16.3909C11.6223 16.5354 11.7351 16.6485 11.8797 16.6863C12.0243 16.7242 12.1779 16.681 12.2819 16.5736L15.7603 13.0946C15.7603 13.0946 15.7654 13.092 15.7674 13.09C16.0579 12.7748 16.5359 12.7209 16.8892 12.9636C16.9092 12.9759 16.9306 12.985 16.9492 12.9991C16.9678 13.013 16.9886 13.0354 17.0088 13.0532C17.0364 13.0758 17.0627 13.0999 17.0877 13.1251C17.0895 13.1279 17.0916 13.1305 17.0936 13.133C17.1663 13.222 17.2222 13.3232 17.2589 13.432C17.2822 13.5087 17.2947 13.5881 17.2967 13.668V13.7141C17.2941 13.8768 17.2529 14.0367 17.1768 14.1805C17.1677 14.1979 17.1582 14.2152 17.1477 14.2326C17.1091 14.2976 17.0633 14.3582 17.0108 14.4129C17.0063 14.4178 17.0031 14.4236 16.9981 14.4287L11.3824 20.0441C11.2584 20.1683 11.1342 20.282 11.0036 20.3924C9.2435 21.8818 6.80295 22.2731 4.66547 21.4085C4.51505 21.3473 4.36603 21.2799 4.21864 21.2062C3.53333 20.8625 2.91769 20.3947 2.40281 19.8267ZM18.6542 18.3654L11.7773 22.3351C10.0661 23.3265 7.98416 23.441 6.17459 22.6432C6.68927 22.7052 7.20941 22.7082 7.7249 22.6519C7.76609 22.6478 7.80465 22.6391 7.84524 22.6345C8.052 22.6093 8.25371 22.577 8.45583 22.534C8.52751 22.5192 8.59737 22.4988 8.66845 22.4815C8.83846 22.4403 9.00666 22.3938 9.17344 22.3393C9.25279 22.3137 9.33053 22.2848 9.40907 22.2565C9.56576 22.1992 9.72002 22.1366 9.87267 22.0679C9.95162 22.0324 10.0302 21.9965 10.1083 21.9577C10.2581 21.8836 10.4045 21.8026 10.5495 21.7174C10.6236 21.676 10.6985 21.6322 10.7712 21.5854C10.9204 21.4902 11.0644 21.3865 11.2071 21.279C11.2695 21.2326 11.3335 21.1896 11.3949 21.1409C11.5738 20.997 11.7466 20.8431 11.9134 20.6794C11.932 20.6616 11.9522 20.6471 11.9704 20.6289L13.3297 19.2694H13.3343C13.4068 19.2692 13.4781 19.2502 13.5411 19.2139L17.8086 16.7497L17.8132 16.746C18.0303 16.6233 18.2881 16.595 18.5268 16.6673C18.7654 16.7398 18.9639 16.9068 19.0764 17.1293C19.2803 17.5882 19.0968 18.1265 18.655 18.3654H18.6542ZM19.5557 14.7842L17.393 16.0331C17.3906 16.0331 17.3892 16.0371 17.3868 16.0383L15.4336 17.1674L17.5881 15.0128C17.6616 14.9381 17.7284 14.8569 17.788 14.7705C17.8073 14.7432 17.8243 14.716 17.8421 14.6879C17.8774 14.6316 17.9097 14.5734 17.9388 14.5139C17.9574 14.4761 17.9774 14.4394 17.9929 14.4008C18.0446 14.27 18.0819 14.1339 18.1042 13.9947C18.1108 13.9534 18.1175 13.915 18.1211 13.8748C18.1266 13.8199 18.129 13.7654 18.129 13.7094C18.129 13.668 18.1262 13.6269 18.1233 13.5855C18.1233 13.5618 18.1233 13.5386 18.1203 13.5156L18.7141 13.1723C18.9306 13.0474 19.1888 13.0169 19.4285 13.0877C19.6682 13.1584 19.8683 13.3246 19.982 13.5469C20.1849 14.0073 19.9995 14.5462 19.5565 14.7842H19.5557ZM19.7625 11.6125L18.3006 12.4574L17.8215 12.734C17.7851 12.6779 17.7458 12.6237 17.7032 12.5723C17.6488 12.5135 17.5909 12.4582 17.5295 12.4069C17.5228 12.4014 17.5174 12.3946 17.5107 12.3891C17.476 12.3606 17.438 12.3378 17.4013 12.3122C17.3643 12.2865 17.3334 12.2605 17.2971 12.2385C17.1475 12.1498 16.9853 12.0842 16.8161 12.0442L17.5374 11.3234C17.6066 11.2511 17.6702 11.1734 17.7276 11.091C17.7498 11.0601 17.7688 11.029 17.7904 10.9971C17.8205 10.9493 17.8469 10.9 17.8732 10.8499C17.92 10.7584 17.9592 10.6631 17.9901 10.565C17.9943 10.5527 17.9996 10.541 18.0034 10.5287L18.9213 9.99844C19.1376 9.87386 19.3954 9.84337 19.6347 9.91444C19.8739 9.98531 20.0736 10.1515 20.1867 10.374C20.3892 10.834 20.2053 11.3725 19.7637 11.6125H19.7625Z"/>
</mask>
<path d="M20.9207 9.99561C20.7044 9.57159 20.3234 9.25478 19.8671 9.1197C19.4106 8.98442 18.9187 9.04237 18.5062 9.28022L18.0137 9.56432C17.9477 9.31092 17.8227 9.07669 17.649 8.88084C17.414 8.61734 17.1037 8.43238 16.7602 8.35101L16.9084 8.20301C17.5907 7.54961 17.642 6.47623 17.0249 5.76064C16.7063 5.40527 16.2554 5.19669 15.7783 5.18397C15.301 5.17125 14.8396 5.35539 14.5024 5.6934L13.6753 6.52246C13.4898 5.74004 12.7916 5.1872 11.9873 5.18639H11.9849C11.5256 5.18538 11.0848 5.36832 10.7609 5.69421L7.92378 8.53092L7.91874 8.53596L7.60193 8.85257C7.54378 8.34091 7.30471 7.86662 6.92753 7.51569C6.41548 7.05391 5.63124 7.07591 5.14563 7.56536L2.1597 10.5551C-0.570799 13.2061 -0.732937 17.5359 1.79161 20.3838C2.30226 20.9427 2.89952 21.4157 3.56059 21.7846C3.69749 21.9306 3.8459 22.077 4.00642 22.2206C6.26989 24.2343 9.5698 24.5693 12.1917 23.0515L19.0693 19.0816C19.896 18.6261 20.2227 17.6044 19.8138 16.7539C19.6541 16.4373 19.4009 16.1775 19.0885 16.0095L19.968 15.502C20.7973 15.0494 21.1278 14.0269 20.7202 13.1744C20.5615 12.8594 20.3099 12.6009 19.9993 12.4337L20.1784 12.3304C21.0071 11.873 21.333 10.8475 20.9207 9.99561ZM2.40281 19.8267C0.174875 17.3054 0.324494 13.4776 2.74223 11.1378L5.72997 8.15051C5.89756 7.97181 6.17661 7.95788 6.36096 8.11901C6.62809 8.36878 6.78256 8.71607 6.78902 9.08174C6.79548 9.44721 6.65333 9.79995 6.39528 10.0588H6.39326L3.58543 12.8666C3.4239 13.0284 3.4241 13.2903 3.58563 13.4516C3.74716 13.6131 4.00905 13.6129 4.17058 13.4514L6.97337 10.6482L11.3402 6.28138C11.5098 6.11076 11.7404 6.01525 11.9809 6.01586C12.3494 6.01505 12.6821 6.23696 12.8233 6.57759C12.9644 6.91802 12.8859 7.31014 12.6246 7.57041L7.95306 12.2447C7.84564 12.3485 7.80243 12.5024 7.84039 12.647C7.87815 12.7915 7.99102 12.9044 8.13559 12.9422C8.28016 12.9801 8.43402 12.9369 8.53781 12.8295L13.2152 8.15253L15.0892 6.27855C15.266 6.10087 15.5081 6.00415 15.7587 6.01101C16.0091 6.01768 16.2457 6.12752 16.4125 6.31449C16.7285 6.705 16.6908 7.27298 16.3257 7.61826L15.133 8.81097V8.8134L9.82462 14.1167C9.7172 14.2207 9.67399 14.3743 9.71195 14.5189C9.74971 14.6635 9.86258 14.7764 10.0071 14.8143C10.1519 14.8521 10.3056 14.8091 10.4094 14.7015L15.7137 9.39734C15.8859 9.2144 16.1302 9.11688 16.381 9.13101C16.6314 9.13666 16.868 9.2463 17.0344 9.43328C17.2137 9.64165 17.2858 9.92171 17.2301 10.1909C17.2224 10.2329 17.2121 10.2743 17.199 10.3148C17.1933 10.3326 17.1875 10.35 17.1808 10.3673C17.1693 10.398 17.1568 10.4277 17.1428 10.4572C17.1285 10.4855 17.1128 10.5131 17.0956 10.5398C17.0841 10.5592 17.0734 10.5787 17.0605 10.5973C17.0269 10.6454 16.9892 10.6906 16.948 10.7326L15.1857 12.5016L15.183 12.504L11.6972 15.9889C11.5896 16.0926 11.5466 16.2463 11.5843 16.3909C11.6223 16.5354 11.7351 16.6485 11.8797 16.6863C12.0243 16.7242 12.1779 16.681 12.2819 16.5736L15.7603 13.0946C15.7603 13.0946 15.7654 13.092 15.7674 13.09C16.0579 12.7748 16.5359 12.7209 16.8892 12.9636C16.9092 12.9759 16.9306 12.985 16.9492 12.9991C16.9678 13.013 16.9886 13.0354 17.0088 13.0532C17.0364 13.0758 17.0627 13.0999 17.0877 13.1251C17.0895 13.1279 17.0916 13.1305 17.0936 13.133C17.1663 13.222 17.2222 13.3232 17.2589 13.432C17.2822 13.5087 17.2947 13.5881 17.2967 13.668V13.7141C17.2941 13.8768 17.2529 14.0367 17.1768 14.1805C17.1677 14.1979 17.1582 14.2152 17.1477 14.2326C17.1091 14.2976 17.0633 14.3582 17.0108 14.4129C17.0063 14.4178 17.0031 14.4236 16.9981 14.4287L11.3824 20.0441C11.2584 20.1683 11.1342 20.282 11.0036 20.3924C9.2435 21.8818 6.80295 22.2731 4.66547 21.4085C4.51505 21.3473 4.36603 21.2799 4.21864 21.2062C3.53333 20.8625 2.91769 20.3947 2.40281 19.8267ZM18.6542 18.3654L11.7773 22.3351C10.0661 23.3265 7.98416 23.441 6.17459 22.6432C6.68927 22.7052 7.20941 22.7082 7.7249 22.6519C7.76609 22.6478 7.80465 22.6391 7.84524 22.6345C8.052 22.6093 8.25371 22.577 8.45583 22.534C8.52751 22.5192 8.59737 22.4988 8.66845 22.4815C8.83846 22.4403 9.00666 22.3938 9.17344 22.3393C9.25279 22.3137 9.33053 22.2848 9.40907 22.2565C9.56576 22.1992 9.72002 22.1366 9.87267 22.0679C9.95162 22.0324 10.0302 21.9965 10.1083 21.9577C10.2581 21.8836 10.4045 21.8026 10.5495 21.7174C10.6236 21.676 10.6985 21.6322 10.7712 21.5854C10.9204 21.4902 11.0644 21.3865 11.2071 21.279C11.2695 21.2326 11.3335 21.1896 11.3949 21.1409C11.5738 20.997 11.7466 20.8431 11.9134 20.6794C11.932 20.6616 11.9522 20.6471 11.9704 20.6289L13.3297 19.2694H13.3343C13.4068 19.2692 13.4781 19.2502 13.5411 19.2139L17.8086 16.7497L17.8132 16.746C18.0303 16.6233 18.2881 16.595 18.5268 16.6673C18.7654 16.7398 18.9639 16.9068 19.0764 17.1293C19.2803 17.5882 19.0968 18.1265 18.655 18.3654H18.6542ZM19.5557 14.7842L17.393 16.0331C17.3906 16.0331 17.3892 16.0371 17.3868 16.0383L15.4336 17.1674L17.5881 15.0128C17.6616 14.9381 17.7284 14.8569 17.788 14.7705C17.8073 14.7432 17.8243 14.716 17.8421 14.6879C17.8774 14.6316 17.9097 14.5734 17.9388 14.5139C17.9574 14.4761 17.9774 14.4394 17.9929 14.4008C18.0446 14.27 18.0819 14.1339 18.1042 13.9947C18.1108 13.9534 18.1175 13.915 18.1211 13.8748C18.1266 13.8199 18.129 13.7654 18.129 13.7094C18.129 13.668 18.1262 13.6269 18.1233 13.5855C18.1233 13.5618 18.1233 13.5386 18.1203 13.5156L18.7141 13.1723C18.9306 13.0474 19.1888 13.0169 19.4285 13.0877C19.6682 13.1584 19.8683 13.3246 19.982 13.5469C20.1849 14.0073 19.9995 14.5462 19.5565 14.7842H19.5557ZM19.7625 11.6125L18.3006 12.4574L17.8215 12.734C17.7851 12.6779 17.7458 12.6237 17.7032 12.5723C17.6488 12.5135 17.5909 12.4582 17.5295 12.4069C17.5228 12.4014 17.5174 12.3946 17.5107 12.3891C17.476 12.3606 17.438 12.3378 17.4013 12.3122C17.3643 12.2865 17.3334 12.2605 17.2971 12.2385C17.1475 12.1498 16.9853 12.0842 16.8161 12.0442L17.5374 11.3234C17.6066 11.2511 17.6702 11.1734 17.7276 11.091C17.7498 11.0601 17.7688 11.029 17.7904 10.9971C17.8205 10.9493 17.8469 10.9 17.8732 10.8499C17.92 10.7584 17.9592 10.6631 17.9901 10.565C17.9943 10.5527 17.9996 10.541 18.0034 10.5287L18.9213 9.99844C19.1376 9.87386 19.3954 9.84337 19.6347 9.91444C19.8739 9.98531 20.0736 10.1515 20.1867 10.374C20.3892 10.834 20.2053 11.3725 19.7637 11.6125H19.7625Z" fill="white"/>
<path d="M20.9207 9.99561C20.7044 9.57159 20.3234 9.25478 19.8671 9.1197C19.4106 8.98442 18.9187 9.04237 18.5062 9.28022L18.0137 9.56432C17.9477 9.31092 17.8227 9.07669 17.649 8.88084C17.414 8.61734 17.1037 8.43238 16.7602 8.35101L16.9084 8.20301C17.5907 7.54961 17.642 6.47623 17.0249 5.76064C16.7063 5.40527 16.2554 5.19669 15.7783 5.18397C15.301 5.17125 14.8396 5.35539 14.5024 5.6934L13.6753 6.52246C13.4898 5.74004 12.7916 5.1872 11.9873 5.18639H11.9849C11.5256 5.18538 11.0848 5.36832 10.7609 5.69421L7.92378 8.53092L7.91874 8.53596L7.60193 8.85257C7.54378 8.34091 7.30471 7.86662 6.92753 7.51569C6.41548 7.05391 5.63124 7.07591 5.14563 7.56536L2.1597 10.5551C-0.570799 13.2061 -0.732937 17.5359 1.79161 20.3838C2.30226 20.9427 2.89952 21.4157 3.56059 21.7846C3.69749 21.9306 3.8459 22.077 4.00642 22.2206C6.26989 24.2343 9.5698 24.5693 12.1917 23.0515L19.0693 19.0816C19.896 18.6261 20.2227 17.6044 19.8138 16.7539C19.6541 16.4373 19.4009 16.1775 19.0885 16.0095L19.968 15.502C20.7973 15.0494 21.1278 14.0269 20.7202 13.1744C20.5615 12.8594 20.3099 12.6009 19.9993 12.4337L20.1784 12.3304C21.0071 11.873 21.333 10.8475 20.9207 9.99561ZM2.40281 19.8267C0.174875 17.3054 0.324494 13.4776 2.74223 11.1378L5.72997 8.15051C5.89756 7.97181 6.17661 7.95788 6.36096 8.11901C6.62809 8.36878 6.78256 8.71607 6.78902 9.08174C6.79548 9.44721 6.65333 9.79995 6.39528 10.0588H6.39326L3.58543 12.8666C3.4239 13.0284 3.4241 13.2903 3.58563 13.4516C3.74716 13.6131 4.00905 13.6129 4.17058 13.4514L6.97337 10.6482L11.3402 6.28138C11.5098 6.11076 11.7404 6.01525 11.9809 6.01586C12.3494 6.01505 12.6821 6.23696 12.8233 6.57759C12.9644 6.91802 12.8859 7.31014 12.6246 7.57041L7.95306 12.2447C7.84564 12.3485 7.80243 12.5024 7.84039 12.647C7.87815 12.7915 7.99102 12.9044 8.13559 12.9422C8.28016 12.9801 8.43402 12.9369 8.53781 12.8295L13.2152 8.15253L15.0892 6.27855C15.266 6.10087 15.5081 6.00415 15.7587 6.01101C16.0091 6.01768 16.2457 6.12752 16.4125 6.31449C16.7285 6.705 16.6908 7.27298 16.3257 7.61826L15.133 8.81097V8.8134L9.82462 14.1167C9.7172 14.2207 9.67399 14.3743 9.71195 14.5189C9.74971 14.6635 9.86258 14.7764 10.0071 14.8143C10.1519 14.8521 10.3056 14.8091 10.4094 14.7015L15.7137 9.39734C15.8859 9.2144 16.1302 9.11688 16.381 9.13101C16.6314 9.13666 16.868 9.2463 17.0344 9.43328C17.2137 9.64165 17.2858 9.92171 17.2301 10.1909C17.2224 10.2329 17.2121 10.2743 17.199 10.3148C17.1933 10.3326 17.1875 10.35 17.1808 10.3673C17.1693 10.398 17.1568 10.4277 17.1428 10.4572C17.1285 10.4855 17.1128 10.5131 17.0956 10.5398C17.0841 10.5592 17.0734 10.5787 17.0605 10.5973C17.0269 10.6454 16.9892 10.6906 16.948 10.7326L15.1857 12.5016L15.183 12.504L11.6972 15.9889C11.5896 16.0926 11.5466 16.2463 11.5843 16.3909C11.6223 16.5354 11.7351 16.6485 11.8797 16.6863C12.0243 16.7242 12.1779 16.681 12.2819 16.5736L15.7603 13.0946C15.7603 13.0946 15.7654 13.092 15.7674 13.09C16.0579 12.7748 16.5359 12.7209 16.8892 12.9636C16.9092 12.9759 16.9306 12.985 16.9492 12.9991C16.9678 13.013 16.9886 13.0354 17.0088 13.0532C17.0364 13.0758 17.0627 13.0999 17.0877 13.1251C17.0895 13.1279 17.0916 13.1305 17.0936 13.133C17.1663 13.222 17.2222 13.3232 17.2589 13.432C17.2822 13.5087 17.2947 13.5881 17.2967 13.668V13.7141C17.2941 13.8768 17.2529 14.0367 17.1768 14.1805C17.1677 14.1979 17.1582 14.2152 17.1477 14.2326C17.1091 14.2976 17.0633 14.3582 17.0108 14.4129C17.0063 14.4178 17.0031 14.4236 16.9981 14.4287L11.3824 20.0441C11.2584 20.1683 11.1342 20.282 11.0036 20.3924C9.2435 21.8818 6.80295 22.2731 4.66547 21.4085C4.51505 21.3473 4.36603 21.2799 4.21864 21.2062C3.53333 20.8625 2.91769 20.3947 2.40281 19.8267ZM18.6542 18.3654L11.7773 22.3351C10.0661 23.3265 7.98416 23.441 6.17459 22.6432C6.68927 22.7052 7.20941 22.7082 7.7249 22.6519C7.76609 22.6478 7.80465 22.6391 7.84524 22.6345C8.052 22.6093 8.25371 22.577 8.45583 22.534C8.52751 22.5192 8.59737 22.4988 8.66845 22.4815C8.83846 22.4403 9.00666 22.3938 9.17344 22.3393C9.25279 22.3137 9.33053 22.2848 9.40907 22.2565C9.56576 22.1992 9.72002 22.1366 9.87267 22.0679C9.95162 22.0324 10.0302 21.9965 10.1083 21.9577C10.2581 21.8836 10.4045 21.8026 10.5495 21.7174C10.6236 21.676 10.6985 21.6322 10.7712 21.5854C10.9204 21.4902 11.0644 21.3865 11.2071 21.279C11.2695 21.2326 11.3335 21.1896 11.3949 21.1409C11.5738 20.997 11.7466 20.8431 11.9134 20.6794C11.932 20.6616 11.9522 20.6471 11.9704 20.6289L13.3297 19.2694H13.3343C13.4068 19.2692 13.4781 19.2502 13.5411 19.2139L17.8086 16.7497L17.8132 16.746C18.0303 16.6233 18.2881 16.595 18.5268 16.6673C18.7654 16.7398 18.9639 16.9068 19.0764 17.1293C19.2803 17.5882 19.0968 18.1265 18.655 18.3654H18.6542ZM19.5557 14.7842L17.393 16.0331C17.3906 16.0331 17.3892 16.0371 17.3868 16.0383L15.4336 17.1674L17.5881 15.0128C17.6616 14.9381 17.7284 14.8569 17.788 14.7705C17.8073 14.7432 17.8243 14.716 17.8421 14.6879C17.8774 14.6316 17.9097 14.5734 17.9388 14.5139C17.9574 14.4761 17.9774 14.4394 17.9929 14.4008C18.0446 14.27 18.0819 14.1339 18.1042 13.9947C18.1108 13.9534 18.1175 13.915 18.1211 13.8748C18.1266 13.8199 18.129 13.7654 18.129 13.7094C18.129 13.668 18.1262 13.6269 18.1233 13.5855C18.1233 13.5618 18.1233 13.5386 18.1203 13.5156L18.7141 13.1723C18.9306 13.0474 19.1888 13.0169 19.4285 13.0877C19.6682 13.1584 19.8683 13.3246 19.982 13.5469C20.1849 14.0073 19.9995 14.5462 19.5565 14.7842H19.5557ZM19.7625 11.6125L18.3006 12.4574L17.8215 12.734C17.7851 12.6779 17.7458 12.6237 17.7032 12.5723C17.6488 12.5135 17.5909 12.4582 17.5295 12.4069C17.5228 12.4014 17.5174 12.3946 17.5107 12.3891C17.476 12.3606 17.438 12.3378 17.4013 12.3122C17.3643 12.2865 17.3334 12.2605 17.2971 12.2385C17.1475 12.1498 16.9853 12.0842 16.8161 12.0442L17.5374 11.3234C17.6066 11.2511 17.6702 11.1734 17.7276 11.091C17.7498 11.0601 17.7688 11.029 17.7904 10.9971C17.8205 10.9493 17.8469 10.9 17.8732 10.8499C17.92 10.7584 17.9592 10.6631 17.9901 10.565C17.9943 10.5527 17.9996 10.541 18.0034 10.5287L18.9213 9.99844C19.1376 9.87386 19.3954 9.84337 19.6347 9.91444C19.8739 9.98531 20.0736 10.1515 20.1867 10.374C20.3892 10.834 20.2053 11.3725 19.7637 11.6125H19.7625Z" stroke="white" stroke-width="0.2" mask="url(#path-1-outside-1_996_1179)"/>
<path d="M20.5998 4.6447C20.7614 4.80603 21.023 4.80603 21.1846 4.6447L23.8725 1.9568C23.9799 1.85302 24.0231 1.69916 23.9851 1.55459C23.9474 1.41002 23.8345 1.29715 23.6899 1.25939C23.5454 1.22143 23.3915 1.26464 23.2877 1.37206L20.5998 4.05996C20.4385 4.22149 20.4385 4.48317 20.5998 4.6447Z" fill="white"/>
<path d="M23.3671 4.61815L21.2995 5.85872C21.17 5.93343 21.0909 6.07214 21.0925 6.22176C21.0943 6.37118 21.1765 6.50808 21.3077 6.57976C21.439 6.65144 21.5987 6.64679 21.7255 6.56744L23.7931 5.32687C23.9225 5.25216 24.0017 5.11345 24.0001 4.96383C23.9983 4.81441 23.9159 4.67751 23.7848 4.60583C23.6536 4.53415 23.4939 4.5388 23.3671 4.61815Z" fill="white"/>
<path d="M18.8466 4.51768C19.0509 4.61985 19.2995 4.53686 19.4014 4.33252L20.642 1.85139C20.7442 1.64685 20.6612 1.39849 20.4566 1.29632C20.2523 1.19435 20.004 1.27714 19.9018 1.48168L18.6612 3.96282C18.559 4.16715 18.642 4.41571 18.8466 4.51768Z" fill="white"/>
<path d="M9.14031 3.48143C9.23238 3.68799 9.47307 3.78229 9.68084 3.69304C9.88881 3.604 9.98654 3.36453 9.90032 3.15554L8.65975 0.260884C8.56768 0.0543245 8.327 -0.03997 8.11902 0.0492766C7.91125 0.138321 7.81352 0.377793 7.89974 0.586775L9.14031 3.48143Z" fill="white"/>
<path d="M11.1744 3.73201C11.4028 3.73201 11.5879 3.54685 11.5879 3.31849V0.837351C11.5879 0.608985 11.4028 0.423828 11.1744 0.423828C10.946 0.423828 10.7609 0.608985 10.7609 0.837351V3.31849C10.7609 3.54685 10.946 3.73201 11.1744 3.73201Z" fill="white"/>
<path d="M7.54317 4.40395C7.68592 4.58225 7.94639 4.61112 8.12469 4.46836C8.30298 4.32581 8.33185 4.06534 8.1891 3.88705L6.53501 1.81944C6.39245 1.64115 6.13198 1.61227 5.95369 1.75503C5.7754 1.89758 5.74653 2.15805 5.88908 2.33634L7.54317 4.40395Z" fill="white"/>
</g>
<defs>
<clipPath id="clip0_996_1179">
<rect width="24" height="24" fill="white"/>
</clipPath>
</defs>
</svg>
