<svg width="24" height="24" viewBox="0 0 24 24" fill="none" xmlns="http://www.w3.org/2000/svg">
<path d="M12.0501 1.19995C12.0442 1.20574 12.0324 1.20574 12.0147 1.20574C6.05043 1.20574 1.20001 5.96867 1.20001 11.8254C1.20001 14.2155 2.03101 16.5362 3.55155 18.4055L1.97796 21.9936C1.84831 22.2888 1.98975 22.6302 2.28443 22.7518C2.39052 22.7981 2.50839 22.8096 2.62037 22.7923L8.39018 21.7969C9.54532 22.2078 10.7594 22.4161 11.9853 22.4103C17.9496 22.4103 22.8 17.6474 22.8 11.7907C22.8118 5.95131 17.9967 1.20574 12.0501 1.19995ZM11.9912 21.2587C10.8537 21.2587 9.72803 21.0561 8.66129 20.6626C8.5611 20.6221 8.45501 20.6163 8.34893 20.6336L3.49262 21.467L4.77742 18.5328C4.86582 18.3303 4.83046 18.093 4.68312 17.9252C3.98768 17.1323 3.43368 16.2295 3.0447 15.2515C2.60858 14.1577 2.38462 12.9944 2.38462 11.8196C2.38462 6.59948 6.71051 2.35741 12.0206 2.35741C17.319 2.34583 21.6213 6.55318 21.6272 11.7559C21.6272 11.7675 21.6272 11.7791 21.6272 11.7907C21.6272 17.0166 17.3013 21.2587 11.9912 21.2587Z" fill="#757575"/>
<path d="M11.5315 9.68989H8.34893C8.02478 9.68989 7.75957 9.95032 7.75957 10.2686C7.75957 10.5869 8.02478 10.8473 8.34893 10.8473H11.5315C11.8556 10.8473 12.1208 10.5869 12.1208 10.2686C12.1208 9.95032 11.8556 9.68989 11.5315 9.68989Z" fill="#757575"/>
<path d="M15.657 12.5835H8.34893C8.02478 12.5835 7.75957 12.844 7.75957 13.1623C7.75957 13.4806 8.02478 13.741 8.34893 13.741H15.657C15.9811 13.741 16.2463 13.4806 16.2463 13.1623C16.2463 12.844 15.9811 12.5835 15.657 12.5835Z" fill="#757575"/>
</svg>
