<svg width="32" height="131" viewBox="0 0 32 131" fill="none" xmlns="http://www.w3.org/2000/svg">
<path d="M16 41.2354V0.735352" stroke="url(#paint0_linear_3311_2271)"/>
<path d="M16.0189 53.9055L10.4166 69.701H5.60181L-0.000488281 53.9055H4.09437L8.00923 65.8309L11.9466 53.9055H16.0189Z" fill="#387EDB"/>
<path d="M26.2405 81.7651C25.0855 81.7651 24.0505 81.5776 23.1356 81.2026C22.2206 80.8276 21.4856 80.2726 20.9307 79.5376C20.3907 78.8025 20.1057 77.9175 20.0757 76.8825H24.1705C24.2305 77.4675 24.433 77.9175 24.778 78.2325C25.123 78.5325 25.573 78.6825 26.128 78.6825C26.6979 78.6825 27.1479 78.555 27.4779 78.3C27.8079 78.03 27.9729 77.6625 27.9729 77.1975C27.9729 76.8075 27.8379 76.485 27.5679 76.23C27.3129 75.975 26.9904 75.765 26.6005 75.5999C26.2255 75.4349 25.6855 75.2474 24.9805 75.0374C23.9605 74.7224 23.1281 74.4074 22.4831 74.0924C21.8381 73.7774 21.2831 73.3124 20.8182 72.6974C20.3532 72.0823 20.1207 71.2798 20.1207 70.2898C20.1207 68.8198 20.6532 67.6722 21.7181 66.8472C22.7831 66.0072 24.1705 65.5872 25.8805 65.5872C27.6204 65.5872 29.0229 66.0072 30.0878 66.8472C31.1528 67.6722 31.7228 68.8273 31.7978 70.3123H27.6354C27.6054 69.8023 27.4179 69.4048 27.0729 69.1198C26.7279 68.8198 26.2855 68.6697 25.7455 68.6697C25.2805 68.6697 24.9055 68.7973 24.6205 69.0523C24.3355 69.2923 24.193 69.6448 24.193 70.1098C24.193 70.6198 24.433 71.0173 24.913 71.3023C25.393 71.5873 26.143 71.8948 27.1629 72.2248C28.1829 72.5699 29.0079 72.8999 29.6378 73.2149C30.2828 73.5299 30.8378 73.9874 31.3028 74.5874C31.7678 75.1874 32.0003 75.96 32.0003 76.905C32.0003 77.805 31.7678 78.6225 31.3028 79.3576C30.8528 80.0926 30.1928 80.6776 29.3229 81.1126C28.4529 81.5476 27.4254 81.7651 26.2405 81.7651Z" fill="#387EDB"/>
<line y1="-1.06001" x2="32.9318" y2="-1.06001" transform="matrix(-0.414834 0.909897 -0.931746 -0.36311 23.7085 49.2356)" stroke="#387EDB" stroke-width="2.12003"/>
<path d="M16 89.7649V130.265" stroke="url(#paint1_linear_3311_2271)"/>
<defs>
<linearGradient id="paint0_linear_3311_2271" x1="16.5" y1="41.2354" x2="16.5" y2="0.735352" gradientUnits="userSpaceOnUse">
<stop stop-color="#387EDB"/>
<stop offset="1" stop-color="#387EDB" stop-opacity="0"/>
</linearGradient>
<linearGradient id="paint1_linear_3311_2271" x1="16.5" y1="89.7649" x2="16.5" y2="130.265" gradientUnits="userSpaceOnUse">
<stop stop-color="#387EDB"/>
<stop offset="1" stop-color="#387EDB" stop-opacity="0"/>
</linearGradient>
</defs>
</svg>
