<svg width="25" height="24" viewBox="0 0 25 24" fill="none" xmlns="http://www.w3.org/2000/svg">
<path d="M12.4999 21.6004C7.1983 21.6004 2.8999 17.302 2.8999 12.0004C2.8999 6.6988 7.1983 2.4004 12.4999 2.4004C17.8015 2.4004 22.0999 6.6988 22.0999 12.0004C22.0999 17.302 17.8015 21.6004 12.4999 21.6004ZM10.0831 8.0068C10.0831 7.6396 9.7807 7.3372 9.4111 7.3372H7.5679C7.2007 7.3372 6.8983 7.6396 6.8983 8.0068V13.2628C6.8983 13.63 7.2007 13.9324 7.5679 13.9324H9.4111C9.7807 13.9324 10.0831 13.63 10.0831 13.2628V8.0068ZM17.9287 12.1252C18.1375 11.9572 18.2719 11.7004 18.2719 11.41C18.2719 10.9756 17.9695 10.6132 17.5639 10.5172C17.7727 10.3492 17.9071 10.0924 17.9071 9.8044C17.9071 9.3676 17.6047 9.0052 17.1967 8.9116C17.4079 8.7436 17.5423 8.4868 17.5423 8.1964C17.5423 7.69 17.1319 7.2796 16.6255 7.2796L11.4319 7.3372C11.0623 7.3372 10.7599 7.6396 10.7599 8.0068V13.2628C10.7599 14.098 13.4119 15.622 13.5535 16.4476C13.6447 16.9756 13.5247 18.3316 13.8895 18.3316C14.5087 18.3316 15.3031 18.094 15.3031 16.7188C15.3031 15.5068 14.5087 13.9324 14.5087 13.9324H17.7223C18.2287 13.9324 18.6391 13.522 18.6391 13.018C18.6391 12.5812 18.3343 12.2188 17.9287 12.1252Z" fill="#D93838"/>
</svg>
