<svg width="40" height="40" viewBox="0 0 40 40" fill="none" xmlns="http://www.w3.org/2000/svg">
<circle cx="20.1112" cy="19.537" r="19.537" fill="#292929"/>
<circle cx="20.1112" cy="19.537" r="19.037" stroke="white" stroke-opacity="0.38"/>
<path d="M28.5582 14.5778C28.3476 13.8065 27.7302 13.1986 26.9474 12.9909C25.5172 12.6055 19.7963 12.6055 19.7963 12.6055C19.7963 12.6055 14.0756 12.6055 12.6454 12.9763C11.8776 13.1838 11.2452 13.8067 11.0346 14.5778C10.6582 15.9864 10.6582 18.9077 10.6582 18.9077C10.6582 18.9077 10.6582 21.8438 11.0346 23.2377C11.2454 24.0088 11.8625 24.6167 12.6455 24.8244C14.0906 25.21 19.7965 25.21 19.7965 25.21C19.7965 25.21 25.5172 25.21 26.9474 24.8391C27.7303 24.6316 28.3476 24.0236 28.5584 23.2525C28.9347 21.8438 28.9347 18.9226 28.9347 18.9226C28.9347 18.9226 28.9497 15.9864 28.5582 14.5778ZM17.9749 21.6065V16.2089L22.7321 18.9077L17.9749 21.6065Z" fill="white"/>
</svg>
