<svg width="40" height="40" viewBox="0 0 40 40" fill="none" xmlns="http://www.w3.org/2000/svg">
<circle cx="19.9628" cy="19.537" r="19.537" fill="#292929"/>
<circle cx="19.9628" cy="19.537" r="19.037" stroke="white" stroke-opacity="0.38"/>
<path d="M28.1395 15.7176C28.0996 14.8135 27.9534 14.1919 27.7439 13.6533C27.5279 13.0816 27.1955 12.5697 26.76 12.1442C26.3344 11.7121 25.8192 11.3763 25.2541 11.1636C24.7124 10.9542 24.0941 10.8079 23.1899 10.7681C22.279 10.7248 21.9899 10.7148 19.6796 10.7148C17.3694 10.7148 17.0802 10.7248 16.1727 10.7647C15.2686 10.8046 14.647 10.9509 14.1085 11.1602C13.5367 11.3763 13.0248 11.7087 12.5993 12.1442C12.1672 12.5697 11.8315 13.085 11.6187 13.6501C11.4092 14.1919 11.263 14.8101 11.2232 15.7142C11.1799 16.6251 11.1699 16.9143 11.1699 19.2245C11.1699 21.5348 11.1799 21.824 11.2198 22.7315C11.2596 23.6356 11.406 24.2572 11.6154 24.7958C11.8315 25.3675 12.1672 25.8794 12.5993 26.3049C13.0248 26.737 13.54 27.0728 14.1051 27.2855C14.647 27.4949 15.2652 27.6411 16.1694 27.681C17.0768 27.721 17.3661 27.7309 19.6764 27.7309C21.9866 27.7309 22.2758 27.721 23.1833 27.681C24.0874 27.6411 24.709 27.4949 25.2475 27.2855C26.3911 26.8434 27.2952 25.9392 27.7373 24.7958C27.9466 24.2539 28.093 23.6356 28.1328 22.7315C28.1727 21.824 28.1827 21.5348 28.1827 19.2245C28.1827 16.9143 28.1793 16.6251 28.1395 15.7176ZM26.6071 22.665C26.5705 23.496 26.4309 23.9448 26.3146 24.2439C26.0287 24.9852 25.4403 25.5736 24.699 25.8595C24.3998 25.9758 23.9478 26.1154 23.1201 26.1519C22.2226 26.1919 21.9534 26.2018 19.683 26.2018C17.4126 26.2018 17.1401 26.1919 16.2458 26.1519C15.4148 26.1154 14.966 25.9758 14.6669 25.8595C14.298 25.7232 13.9622 25.5071 13.6896 25.2245C13.4071 24.9486 13.191 24.6162 13.0547 24.2473C12.9383 23.9481 12.7987 23.496 12.7622 22.6684C12.7223 21.7709 12.7124 21.5016 12.7124 19.2312C12.7124 16.9608 12.7223 16.6882 12.7622 15.7941C12.7987 14.9631 12.9383 14.5143 13.0547 14.2151C13.191 13.8461 13.4071 13.5105 13.693 13.2378C13.9688 12.9552 14.3012 12.7392 14.6702 12.603C14.9694 12.4866 15.4215 12.347 16.2492 12.3104C17.1467 12.2705 17.416 12.2606 19.6862 12.2606C21.96 12.2606 22.2292 12.2705 23.1234 12.3104C23.9545 12.347 24.4032 12.4866 24.7024 12.603C25.0713 12.7392 25.4071 12.9552 25.6796 13.2378C25.9622 13.5137 26.1782 13.8461 26.3146 14.2151C26.4309 14.5143 26.5705 14.9663 26.6071 15.7941C26.647 16.6916 26.657 16.9608 26.657 19.2312C26.657 21.5016 26.647 21.7675 26.6071 22.665Z" fill="white"/>
<path d="M19.6796 14.8534C17.2664 14.8534 15.3084 16.8112 15.3084 19.2245C15.3084 21.6379 17.2664 23.5957 19.6796 23.5957C22.093 23.5957 24.0508 21.6379 24.0508 19.2245C24.0508 16.8112 22.093 14.8534 19.6796 14.8534ZM19.6796 22.06C18.114 22.06 16.8441 20.7902 16.8441 19.2245C16.8441 17.6588 18.114 16.3891 19.6796 16.3891C21.2453 16.3891 22.5151 17.6588 22.5151 19.2245C22.5151 20.7902 21.2453 22.06 19.6796 22.06Z" fill="white"/>
<path d="M25.2442 14.6805C25.2442 15.2441 24.7873 15.701 24.2236 15.701C23.6601 15.701 23.2032 15.2441 23.2032 14.6805C23.2032 14.1169 23.6601 13.6601 24.2236 13.6601C24.7873 13.6601 25.2442 14.1169 25.2442 14.6805Z" fill="white"/>
</svg>
