<svg width="1440" height="583" viewBox="0 0 1440 583" fill="none" xmlns="http://www.w3.org/2000/svg">
<path d="M-36 0C466.597 53.1848 973.403 53.1848 1476 0V583C973.403 529.815 466.597 529.815 -36 583V0Z" fill="url(#paint0_linear_505_769)" fill-opacity="0.12"/>
<mask id="mask0_505_769" style="mask-type:alpha" maskUnits="userSpaceOnUse" x="-36" y="0" width="1512" height="583">
<path d="M-36 0C466.597 53.1848 973.403 53.1848 1476 0V583C973.403 529.815 466.597 529.815 -36 583V0Z" fill="url(#paint1_linear_505_769)"/>
</mask>
<g mask="url(#mask0_505_769)">
<circle cx="1155" cy="314" r="426" fill="url(#paint2_linear_505_769)" fill-opacity="0.12"/>
<circle cx="1155" cy="314" r="461.397" stroke="url(#paint3_linear_505_769)" stroke-opacity="0.5" stroke-width="1.20552"/>
</g>
<defs>
<linearGradient id="paint0_linear_505_769" x1="768.3" y1="87.2135" x2="775.702" y2="759.557" gradientUnits="userSpaceOnUse">
<stop stop-color="#3783D8"/>
<stop offset="1" stop-color="#31C0B2"/>
</linearGradient>
<linearGradient id="paint1_linear_505_769" x1="768.3" y1="87.2135" x2="775.702" y2="759.557" gradientUnits="userSpaceOnUse">
<stop stop-color="#3783D8"/>
<stop offset="1" stop-color="#31C0B2"/>
</linearGradient>
<linearGradient id="paint2_linear_505_769" x1="1182.22" y1="-13.3202" x2="1199.03" y2="747.14" gradientUnits="userSpaceOnUse">
<stop stop-color="#3783D8"/>
<stop offset="1" stop-color="#31C0B2"/>
</linearGradient>
<linearGradient id="paint3_linear_505_769" x1="715.151" y1="361.466" x2="1191.36" y2="-122.48" gradientUnits="userSpaceOnUse">
<stop stop-color="#3782D9"/>
<stop offset="0.0564542" stop-color="#D865AF" stop-opacity="0"/>
<stop offset="0.285063" stop-color="#CF6BB8" stop-opacity="0"/>
<stop offset="0.608981" stop-color="#BF76C9" stop-opacity="0"/>
<stop offset="0.845015" stop-color="#B37ED6" stop-opacity="0"/>
<stop offset="1" stop-color="#31C0B2"/>
</linearGradient>
</defs>
</svg>
