<svg width="64" height="64" viewBox="0 0 64 64" fill="none" xmlns="http://www.w3.org/2000/svg">
<rect width="64" height="64" rx="12.8" fill="url(#paint0_linear_0_431)" fill-opacity="0.12"/>
<path d="M43.8118 18.944H40.448V16.64C40.448 16.4363 40.3671 16.241 40.2231 16.097C40.079 15.9529 39.8837 15.872 39.68 15.872C39.4763 15.872 39.281 15.9529 39.137 16.097C38.9929 16.241 38.912 16.4363 38.912 16.64V18.944H25.088V16.64C25.088 16.4363 25.0071 16.241 24.8631 16.097C24.719 15.9529 24.5237 15.872 24.32 15.872C24.1163 15.872 23.921 15.9529 23.777 16.097C23.6329 16.241 23.552 16.4363 23.552 16.64V18.944H20.1882C19.0435 18.944 17.9456 19.3987 17.1362 20.2082C16.3267 21.0176 15.872 22.1155 15.872 23.2602V43.8118C15.872 44.9566 16.3267 46.0544 17.1362 46.8638C17.9456 47.6733 19.0435 48.128 20.1882 48.128H43.8118C44.9566 48.128 46.0544 47.6733 46.8638 46.8638C47.6733 46.0544 48.128 44.9566 48.128 43.8118V23.2602C48.128 22.1155 47.6733 21.0176 46.8638 20.2082C46.0544 19.3987 44.9566 18.944 43.8118 18.944ZM20.1882 20.48H43.8118C44.5492 20.48 45.2563 20.7729 45.7777 21.2943C46.2991 21.8157 46.592 22.5228 46.592 23.2602V25.088H17.408V23.2602C17.408 22.5228 17.7009 21.8157 18.2223 21.2943C18.7437 20.7729 19.4508 20.48 20.1882 20.48ZM43.8118 46.592H20.1882C19.4508 46.592 18.7437 46.2991 18.2223 45.7777C17.7009 45.2563 17.408 44.5492 17.408 43.8118V26.624H46.592V43.8118C46.592 44.5492 46.2991 45.2563 45.7777 45.7777C45.2563 46.2991 44.5492 46.592 43.8118 46.592Z" fill="#387EDB"/>
<path d="M31.8561 42.9584C31.3164 42.9584 30.7825 42.8997 30.2545 42.7824C29.7265 42.665 29.2337 42.5008 28.7761 42.2896C28.3185 42.0666 27.9196 41.8026 27.5793 41.4976L28.2129 40.1072C28.7761 40.5413 29.3511 40.8698 29.9377 41.0928C30.5361 41.304 31.1639 41.4096 31.8209 41.4096C32.654 41.4096 33.3052 41.1925 33.7745 40.7584C34.2556 40.3242 34.4961 39.7434 34.4961 39.016C34.4961 38.265 34.2673 37.6608 33.8097 37.2032C33.3639 36.7338 32.742 36.4992 31.9441 36.4992C31.3927 36.4992 30.8881 36.6106 30.4305 36.8336C29.9847 37.0565 29.5916 37.3968 29.2513 37.8544H27.9841V30.392H35.4993V31.9232H29.7265V36.3936H29.2689C29.5857 35.9477 30.0081 35.6016 30.5361 35.3552C31.0759 35.1088 31.6801 34.9856 32.3489 34.9856C33.1468 34.9856 33.8391 35.1498 34.4257 35.4784C35.0124 35.8069 35.4641 36.2645 35.7809 36.8512C36.1095 37.4378 36.2737 38.1301 36.2737 38.928C36.2737 39.7258 36.0919 40.4298 35.7281 41.04C35.3761 41.6384 34.8657 42.1077 34.1969 42.448C33.5399 42.7882 32.7596 42.9584 31.8561 42.9584Z" fill="#387EDB"/>
<defs>
<linearGradient id="paint0_linear_0_431" x1="2.78261" y1="74.5" x2="65.825" y2="67.7204" gradientUnits="userSpaceOnUse">
<stop stop-color="#30C9AB"/>
<stop offset="1" stop-color="#377BDC"/>
</linearGradient>
</defs>
</svg>
