<svg width="213" height="242" viewBox="0 0 213 242" fill="none" xmlns="http://www.w3.org/2000/svg">
<g clip-path="url(#clip0_2997_909)">
<rect width="213" height="242" rx="16" fill="#3D8763"/>
<path d="M252 141.073H220.826V266C215.742 266 210.734 265.014 205.801 263.042C200.866 261.221 198.399 259.098 198.399 256.67V229.592C187.933 236.267 176.57 239.603 164.31 239.603C152.05 239.603 142.033 236.418 134.258 230.046C126.634 223.523 122.82 215.104 122.82 204.788C122.82 196.9 125.512 189.845 130.894 183.625C123.269 180.743 117.214 176.495 112.728 170.882C108.243 165.118 106 158.29 106 150.403C106 142.514 109.14 135.308 115.42 128.785C121.849 122.262 130.595 119 141.66 119C149.733 119 155.937 120.82 160.274 124.461C164.759 128.102 167.002 132.577 167.002 137.887C167.002 148.658 160.123 156.243 146.369 160.642C144.127 158.822 142.481 156.243 141.435 152.906C147.564 148.809 150.63 144.486 150.63 139.935C150.63 137.355 149.882 135.308 148.387 133.791C146.892 132.122 144.5 131.288 141.211 131.288C137.921 131.288 134.707 133.109 131.567 136.749C128.427 140.39 126.857 145.168 126.857 151.085C126.857 156.85 128.427 161.704 131.567 165.649C134.856 169.441 138.968 172.096 143.901 173.613C150.48 170.276 157.881 167.773 166.105 166.103C171.786 171.566 175.374 177.253 176.87 183.17C167.599 184.991 159.75 187.873 153.322 191.818C147.042 195.61 143.901 200.01 143.901 205.015C143.901 209.87 145.546 213.814 148.836 216.848C152.274 219.883 157.133 221.399 163.413 221.399C169.842 221.399 176.197 219.579 182.476 215.938C188.756 212.297 194.063 207.518 198.399 201.602V141.073H182.924C177.542 134.701 174.851 127.95 174.851 120.82H245.048C249.682 126.888 252 133.639 252 141.073Z" fill="white" fill-opacity="0.1"/>
</g>
<defs>
<clipPath id="clip0_2997_909">
<rect width="213" height="242" rx="16" fill="white"/>
</clipPath>
</defs>
</svg>
