<svg version="1.2" xmlns="http://www.w3.org/2000/svg" viewBox="0 0 121 39" width="121" height="39">
	<title>dhan-logo-svg</title>
	<style>
		.s0 { fill: #ffffff } 
	</style>
	<path id="Layer" className="s0" d="m38.5 6.5h-8.1v32.4q-2 0-3.9-0.7-1.9-0.7-1.9-1.7v-7q-4.1 2.6-8.9 2.6-4.7 0-7.8-2.5-2.9-2.5-2.9-6.6 0-3 2.1-5.4-3-1.2-4.7-3.4-1.8-2.2-1.8-5.3 0-3 2.5-5.6 2.5-2.5 6.8-2.5 3.1 0 4.8 1.4 1.7 1.4 1.7 3.5 0 4.2-5.3 5.9-0.9-0.7-1.3-2 2.4-1.6 2.4-3.4 0-1-0.6-1.6-0.6-0.6-1.8-0.6-1.3 0-2.5 1.4-1.3 1.4-1.3 3.7 0 2.3 1.3 3.8 1.2 1.5 3.1 2.1 2.6-1.3 5.8-2 2.2 2.1 2.8 4.4-3.6 0.7-6.1 2.3-2.5 1.5-2.5 3.4 0 1.9 1.3 3.1 1.4 1.2 3.8 1.2 2.5 0 4.9-1.5 2.5-1.4 4.2-3.7v-15.7h-4q-2.1-2.5-2.1-5.2h18.2q1.8 2.3 1.8 5.2z"/>
	<path id="Layer" fill-rule="evenodd" className="s0" d="m54.9 14.8q1.6 0 2.8 0.7 1.2 0.6 1.9 1.8v-7.9h4.5v22.3h-4.3v-2.3q-0.9 1.5-2.1 2.1-1.3 0.7-3.1 0.7-2.9 0-5-2.3-2-2.4-2-6 0-4.3 2-6.7 2-2.4 5.3-2.4zm1 13.8q1.9 0 2.9-1.4 1-1.4 1-3.5 0-3.1-1.6-4.4-1-0.7-2.3-0.7-1.9 0-2.8 1.4-0.9 1.4-0.9 3.5 0 2.3 0.9 3.7 0.9 1.4 2.8 1.4zm21.6-13.8q1.6 0 2.9 0.5 1.3 0.5 2.1 1.6 0.7 0.9 0.9 1.9 0.1 1 0.1 3.2v9.7h-4.5v-10.1q0-1.3-0.5-2.1-0.6-1.2-2.3-1.2-1.7 0-2.7 1.2-0.9 1.1-0.9 3.3v8.9h-4.4v-22.3h4.4v7.9q1-1.4 2.3-2 1.2-0.5 2.6-0.5zm16.8 6.8q1.3-0.1 1.8-0.3 0.9-0.4 0.9-1.3 0-1-0.7-1.3-0.7-0.4-2.1-0.4-1.6 0-2.2 0.7-0.5 0.6-0.7 1.5h-4.2q0.1-2.1 1.2-3.5 1.8-2.2 6-2.2 2.8 0 5 1.1 2.2 1 2.2 4v7.6q0 0.8 0 1.9 0 0.8 0.3 1.1 0.2 0.4 0.6 0.5v0.7h-4.8q-0.2-0.5-0.3-1-0.1-0.4-0.1-1-0.9 1-2.1 1.7-1.5 0.8-3.3 0.8-2.3 0-3.8-1.3-1.5-1.3-1.5-3.6 0-3 2.4-4.4 1.4-0.8 3.9-1.1zm2.7 2q-0.4 0.3-0.8 0.5-0.5 0.1-1.2 0.3l-1 0.1q-1.4 0.3-2 0.6-1 0.6-1 1.9 0 1.1 0.6 1.6 0.6 0.4 1.5 0.4 1.5 0 2.7-0.8 1.2-0.8 1.2-3zm17.8-8.8q2.6 0 4.3 1.3 1.7 1.4 1.7 4.5v11.1h-4.6v-10.1q0-1.3-0.3-2-0.7-1.2-2.5-1.2-2.3 0-3.1 1.8-0.4 1-0.4 2.5v9h-4.5v-16.5h4.3v2.4q0.9-1.3 1.6-1.8 1.4-1 3.5-1z"/>
</svg>