<svg width="80" height="80" viewBox="0 0 80 80" fill="none" xmlns="http://www.w3.org/2000/svg">
<rect width="80" height="80" rx="16" fill="url(#paint0_linear_1823_1272)" fill-opacity="0.12"/>
<path d="M59.3134 41.4627H39.2068V21.6567C39.2068 21.2173 39.0296 20.7959 38.7142 20.4852C38.3988 20.1745 37.971 20 37.5249 20H37.382C31.8155 20.3726 26.6043 22.8272 22.8153 26.8613C19.0263 30.8954 16.9462 36.2037 17.0011 41.6993C17.0559 47.1949 19.2414 52.4619 23.1101 56.4219C26.9789 60.3819 32.2381 62.7352 37.8108 63H39.2068C44.6924 62.9998 49.9775 60.9684 54.0136 57.3088C58.0496 53.6492 60.5416 48.6288 60.9953 43.2437C61.0127 43.0159 60.982 42.787 60.9053 42.5715C60.8286 42.3559 60.7075 42.1583 60.5496 41.991C60.3916 41.8238 60.2003 41.6905 59.9875 41.5996C59.7748 41.5087 59.5453 41.4621 59.3134 41.4627ZM39.2068 61.3433C38.7779 61.3433 38.3659 61.3433 37.9118 61.3433C32.7637 61.103 27.904 58.9318 24.3291 55.2749C20.7542 51.618 18.735 46.7524 18.6855 41.6758C18.636 36.5993 20.56 31.6964 24.063 27.9725C27.566 24.2487 32.3825 21.986 37.5249 21.6484V41.4627C37.5249 41.9021 37.7021 42.3235 38.0175 42.6342C38.3329 42.9449 38.7607 43.1194 39.2068 43.1194H59.3218C58.8775 48.08 56.5687 52.6983 52.8478 56.0694C49.1269 59.4404 44.2621 61.3213 39.2068 61.3433Z" fill="#387EDB"/>
<path d="M43.8252 17H43.6978C43.2475 17 42.8157 17.1789 42.4973 17.4974C42.1789 17.8159 42 18.2478 42 18.6982V37.3018C42 37.7522 42.1789 38.1841 42.4973 38.5026C42.8157 38.8211 43.2475 39 43.6978 39H62.2974C62.5315 39.0007 62.7632 38.9529 62.9779 38.8597C63.1927 38.7665 63.3859 38.6299 63.5453 38.4585C63.7047 38.287 63.827 38.0845 63.9044 37.8635C63.9819 37.6425 64.0128 37.4079 63.9952 37.1744C63.5632 31.9684 61.2993 27.0843 57.6062 23.3904C53.9131 19.6965 49.0301 17.4322 43.8252 17ZM43.6978 37.3018V18.6897C48.5052 19.0708 53.0191 21.1544 56.4283 24.5659C59.8375 27.9774 61.9185 32.4932 62.2974 37.3018H43.6978Z" fill="#387EDB"/>
<defs>
<linearGradient id="paint0_linear_1823_1272" x1="3.47826" y1="93.125" x2="82.2813" y2="84.6505" gradientUnits="userSpaceOnUse">
<stop stop-color="#30C9AB"/>
<stop offset="1" stop-color="#377BDC"/>
</linearGradient>
</defs>
</svg>
