<svg width="20" height="20" viewBox="0 0 20 20" fill="none" xmlns="http://www.w3.org/2000/svg">
<path d="M19.0883 2.29297H0.911719C0.670029 2.29325 0.438315 2.38937 0.2674 2.56026C0.0964842 2.73114 0.000320479 2.96284 0 3.20453L0 16.7955C0.000320479 17.0372 0.0964842 17.2689 0.2674 17.4397C0.438315 17.6106 0.670029 17.7068 0.911719 17.707H19.0883C19.33 17.7068 19.5617 17.6106 19.7326 17.4397C19.9035 17.2689 19.9997 17.0372 20 16.7955V3.20453C19.9997 2.96284 19.9035 2.73114 19.7326 2.56026C19.5617 2.38937 19.33 2.29325 19.0883 2.29297ZM19.375 5.87387H9.39785L10.0769 4.69781H19.375V5.87387ZM0.911719 2.91797H19.0883C19.1643 2.91806 19.2372 2.9483 19.2909 3.00205C19.3447 3.0558 19.3749 3.12867 19.375 3.20469V4.07297H9.89648C9.84163 4.07297 9.78774 4.08741 9.74024 4.11484C9.69273 4.14227 9.65329 4.18171 9.62586 4.22922L8.67621 5.87402H0.625V3.20453C0.625134 3.12854 0.65539 3.05571 0.709136 3.00199C0.762881 2.94828 0.835732 2.91806 0.911719 2.91797ZM19.0883 17.082H0.911719C0.835705 17.0819 0.762831 17.0517 0.709081 16.9979C0.655331 16.9442 0.625093 16.8713 0.625 16.7953V6.49887H19.375V16.7955C19.3749 16.8715 19.3446 16.9443 19.2909 16.998C19.2371 17.0517 19.1643 17.0819 19.0883 17.082ZM2.49969 5.23953C2.66864 5.23954 2.8338 5.18945 2.97428 5.09559C3.11476 5.00173 3.22425 4.86832 3.28891 4.71223C3.35357 4.55615 3.37049 4.38439 3.33754 4.21869C3.30458 4.05298 3.22323 3.90077 3.10376 3.7813C2.9843 3.66183 2.83209 3.58047 2.66639 3.54751C2.50069 3.51455 2.32893 3.53146 2.17284 3.59611C2.01675 3.66077 1.88334 3.77025 1.78947 3.91073C1.69561 4.05121 1.64551 4.21636 1.64551 4.38531C1.64577 4.61178 1.73584 4.8289 1.89597 4.98904C2.05611 5.14918 2.27322 5.23926 2.49969 5.23953ZM2.49969 4.15609C2.54502 4.15609 2.58935 4.16952 2.62705 4.19471C2.66475 4.21989 2.69413 4.25568 2.71149 4.29757C2.72884 4.33945 2.73339 4.38554 2.72455 4.43001C2.71571 4.47447 2.69388 4.51532 2.66182 4.54738C2.62977 4.57944 2.58892 4.60128 2.54446 4.61012C2.49999 4.61897 2.4539 4.61443 2.41202 4.59709C2.37013 4.57974 2.33433 4.55036 2.30914 4.51266C2.28395 4.47497 2.27051 4.43065 2.27051 4.38531C2.27061 4.32457 2.29479 4.26635 2.33775 4.22341C2.38071 4.18047 2.43895 4.15632 2.49969 4.15625V4.15609ZM4.61883 5.23953C4.78778 5.23954 4.95294 5.18945 5.09342 5.09559C5.2339 5.00173 5.34339 4.86832 5.40805 4.71223C5.47271 4.55615 5.48963 4.38439 5.45668 4.21869C5.42372 4.05298 5.34237 3.90077 5.2229 3.7813C5.10344 3.66183 4.95123 3.58047 4.78553 3.54751C4.61983 3.51455 4.44807 3.53146 4.29198 3.59611C4.13589 3.66077 4.00248 3.77025 3.90861 3.91073C3.81475 4.05121 3.76465 4.21636 3.76465 4.38531C3.76491 4.61178 3.85498 4.8289 4.01511 4.98904C4.17525 5.14918 4.39236 5.23926 4.61883 5.23953ZM4.61883 4.15609C4.66417 4.15609 4.70849 4.16952 4.74619 4.19471C4.78389 4.21989 4.81327 4.25568 4.83063 4.29757C4.84798 4.33945 4.85253 4.38554 4.84369 4.43001C4.83485 4.47447 4.81302 4.51532 4.78096 4.54738C4.74891 4.57944 4.70807 4.60128 4.6636 4.61012C4.61913 4.61897 4.57304 4.61443 4.53116 4.59709C4.48927 4.57974 4.45347 4.55036 4.42828 4.51266C4.40309 4.47497 4.38965 4.43065 4.38965 4.38531C4.38975 4.32457 4.41393 4.26635 4.45689 4.22341C4.49986 4.18047 4.55809 4.15632 4.61883 4.15625V4.15609ZM6.73801 5.23953C6.90696 5.23953 7.07211 5.18943 7.21259 5.09557C7.35306 5.00171 7.46255 4.8683 7.5272 4.71221C7.59186 4.55612 7.60877 4.38436 7.57581 4.21866C7.54285 4.05296 7.4615 3.90075 7.34203 3.78129C7.22257 3.66182 7.07036 3.58047 6.90466 3.54751C6.73896 3.51455 6.5672 3.53146 6.41111 3.59612C6.25502 3.66077 6.12161 3.77026 6.02775 3.91073C5.93389 4.05121 5.88379 4.21636 5.88379 4.38531C5.88404 4.61179 5.97411 4.82892 6.13426 4.98906C6.2944 5.14921 6.51153 5.23928 6.73801 5.23953ZM6.73801 4.15609C6.78334 4.15609 6.82766 4.16954 6.86535 4.19472C6.90305 4.21991 6.93243 4.25571 6.94978 4.29759C6.96713 4.33948 6.97167 4.38557 6.96282 4.43003C6.95398 4.47449 6.93215 4.51534 6.90009 4.54739C6.86803 4.57945 6.82719 4.60128 6.78273 4.61013C6.73826 4.61897 6.69217 4.61443 6.65029 4.59708C6.60841 4.57973 6.57261 4.55035 6.54742 4.51266C6.52223 4.47496 6.50879 4.43065 6.50879 4.38531C6.50888 4.32456 6.53307 4.26633 6.57604 4.22339C6.61901 4.18045 6.67726 4.1563 6.73801 4.15625V4.15609ZM10.7517 8.21094C10.6755 8.07898 10.566 7.9694 10.434 7.89322C10.3021 7.81703 10.1524 7.77693 10 7.77693C9.84765 7.77693 9.69797 7.81703 9.56602 7.89322C9.43407 7.9694 9.3245 8.07898 9.24832 8.21094L5.61609 14.5021C5.53991 14.634 5.49979 14.7837 5.49979 14.9361C5.49979 15.0884 5.5399 15.2381 5.61608 15.3701C5.69226 15.5021 5.80184 15.6116 5.9338 15.6878C6.06576 15.764 6.21544 15.8041 6.36781 15.8041H13.6322C13.7846 15.8041 13.9342 15.764 14.0662 15.6878C14.1982 15.6117 14.3077 15.5021 14.3839 15.3701C14.4601 15.2382 14.5002 15.0885 14.5002 14.9361C14.5002 14.7837 14.4601 14.6341 14.3839 14.5021L10.7517 8.21094ZM13.8427 15.0576C13.8223 15.0953 13.7918 15.1267 13.7546 15.1481C13.7175 15.1696 13.6751 15.1803 13.6322 15.1791H6.36781C6.32516 15.1791 6.28325 15.1678 6.24631 15.1465C6.20937 15.1252 6.17869 15.0945 6.15736 15.0576C6.13603 15.0206 6.1248 14.9787 6.1248 14.9361C6.12479 14.8934 6.13602 14.8515 6.15734 14.8146L9.78957 8.52344C9.81091 8.48652 9.84159 8.45586 9.87852 8.43454C9.91546 8.41323 9.95736 8.40201 10 8.40201C10.0426 8.40201 10.0845 8.41323 10.1215 8.43454C10.1584 8.45586 10.1891 8.48652 10.2104 8.52344L13.8426 14.8146C13.8651 14.8512 13.8771 14.8932 13.8771 14.9361C13.8771 14.979 13.8652 15.0211 13.8427 15.0576V15.0576ZM10.3125 10.3692V13.4641C10.3125 13.547 10.2796 13.6265 10.221 13.6851C10.1624 13.7437 10.0829 13.7766 10 13.7766C9.91712 13.7766 9.83763 13.7437 9.77903 13.6851C9.72042 13.6265 9.6875 13.547 9.6875 13.4641V10.3692C9.6875 10.2863 9.72042 10.2069 9.77903 10.1482C9.83763 10.0896 9.91712 10.0567 10 10.0567C10.0829 10.0567 10.1624 10.0896 10.221 10.1482C10.2796 10.2069 10.3125 10.2863 10.3125 10.3692ZM10.3125 14.3653C10.3125 14.4482 10.2796 14.5277 10.221 14.5863C10.1624 14.6449 10.0829 14.6778 10 14.6778C9.93819 14.6778 9.87777 14.6595 9.82638 14.6251C9.77499 14.5908 9.73494 14.542 9.71129 14.4849C9.68764 14.4278 9.68145 14.365 9.6935 14.3043C9.70556 14.2437 9.73532 14.188 9.77903 14.1443C9.82273 14.1006 9.87842 14.0709 9.93903 14.0588C9.99965 14.0468 10.0625 14.0529 10.1196 14.0766C10.1767 14.1003 10.2255 14.1403 10.2598 14.1917C10.2942 14.2431 10.3125 14.3035 10.3125 14.3653Z" fill="#646464"/>
</svg>
