<svg width="80" height="80" viewBox="0 0 80 80" fill="none" xmlns="http://www.w3.org/2000/svg">
<rect width="80" height="80" rx="40" fill="url(#paint0_linear_3306_639)"/>
<g filter="url(#filter0_d_3306_639)">
<rect x="8" y="8" width="64" height="64" rx="32" fill="url(#paint1_linear_3306_639)"/>
<rect x="8.75" y="8.75" width="62.5" height="62.5" rx="31.25" stroke="white" stroke-width="1.5"/>
<path d="M52.6591 30.834L52.6583 30.8331C51.5463 29.6244 50.3329 29.4787 49.7107 29.4308L49.7108 29.4304H49.6995H49.518C45.7261 29.1499 40.0709 29.1032 39.9767 29.1032C39.9296 29.1032 34.2278 29.1498 30.4803 29.5239H30.3473V29.5235L30.3369 29.5243C29.6691 29.5719 28.454 29.7171 27.3882 30.9268C26.8963 31.4446 26.5853 32.2437 26.3972 32.9079C26.3022 33.2434 26.237 33.5505 26.1954 33.7799C26.1746 33.8946 26.1597 33.9902 26.1499 34.0607C26.1421 34.1169 26.1364 34.1651 26.135 34.1926L26.1348 34.1941L26.1324 34.2148L26.1235 34.2951C26.1157 34.3653 26.1047 34.4682 26.0915 34.599C26.0652 34.8607 26.03 35.2343 25.9948 35.6825C25.9246 36.5786 25.8542 37.7747 25.8542 38.9719V41.1689C25.8542 42.3428 25.9246 43.5272 25.9948 44.4232C26.03 44.8714 26.0652 45.2478 26.0915 45.5151C26.1047 45.6488 26.1157 45.7551 26.1234 45.8294L26.1322 45.9157C26.134 45.9339 26.1345 45.9401 26.1346 45.9401C26.1347 45.9401 26.1346 45.9389 26.1346 45.9368C26.1346 45.9609 26.1409 46.0147 26.1498 46.0782C26.1595 46.1474 26.1743 46.2412 26.1947 46.3536C26.2355 46.5785 26.2993 46.8795 26.3913 47.2089C26.5736 47.8617 26.8727 48.6485 27.3401 49.1657C28.3526 50.3221 29.5602 50.4729 30.3118 50.5668L30.3292 50.569L30.3382 50.5701H30.3472C30.4861 50.5701 30.559 50.5707 30.6751 50.6094L30.6914 50.6148L30.7086 50.6163C32.866 50.8039 39.6968 50.8973 39.9766 50.8973H39.9767C40.0258 50.8973 45.7262 50.8973 49.5206 50.4766H49.6528V50.477L49.6631 50.4763C50.3309 50.4286 51.546 50.2834 52.6117 49.0737C53.1037 48.5559 53.4147 47.7568 53.6028 47.0926C53.6978 46.757 53.763 46.45 53.8046 46.2206C53.8254 46.1059 53.8403 46.0102 53.8501 45.9398C53.8579 45.8836 53.8636 45.8354 53.865 45.8079L53.8652 45.8064L53.8676 45.7857L53.8765 45.7054C53.8843 45.6351 53.8953 45.5323 53.9085 45.4014C53.9348 45.1398 53.97 44.7662 54.0052 44.318C54.0754 43.4219 54.1458 42.2258 54.1458 41.0286V38.8316C54.1458 37.6578 54.0754 36.4733 54.0052 35.5773C53.97 35.1291 53.9349 34.7527 53.9085 34.4854C53.8953 34.3518 53.8843 34.2454 53.8766 34.1711L53.8678 34.0848C53.866 34.0666 53.8655 34.0604 53.8654 34.0604C53.8653 34.0604 53.8654 34.0617 53.8654 34.0637C53.8654 34.0396 53.8591 33.9859 53.8502 33.9223C53.8405 33.8531 53.8257 33.7593 53.8053 33.6469C53.7645 33.422 53.7007 33.121 53.6087 32.7916C53.4263 32.1384 53.1269 31.3511 52.6591 30.834ZM51.6961 48.3617L51.696 48.3617L51.6919 48.3665C50.9397 49.2515 50.0603 49.344 49.5526 49.3903H49.419V49.3899L49.4081 49.3907C45.6749 49.6707 40.0243 49.6708 39.9766 49.6708L39.9763 49.6708L39.971 49.6707L39.954 49.6705L39.8912 49.6697L39.6581 49.6663C39.458 49.6633 39.1724 49.6587 38.8245 49.6525C38.1287 49.6401 37.184 49.6211 36.1766 49.5948C34.1585 49.5422 31.8986 49.4605 30.8779 49.3445L30.8697 49.3436H30.8615C30.8055 49.3436 30.7473 49.3342 30.6751 49.3222L30.6703 49.3214C30.6048 49.3105 30.5266 49.2974 30.4463 49.2969C29.8028 49.2505 28.9197 49.1129 28.2125 48.3174L28.2125 48.3174L28.2107 48.3154C27.954 48.0373 27.7396 47.539 27.5827 47.0276C27.4277 46.5225 27.3367 46.0314 27.314 45.7855C27.3133 45.7744 27.312 45.7607 27.3109 45.7502L27.3105 45.7468L27.3016 45.661C27.2939 45.5882 27.283 45.4844 27.2699 45.354C27.2437 45.0933 27.2087 44.7262 27.1737 44.2891C27.1038 43.4147 27.034 42.262 27.034 41.1222V38.9251C27.034 37.7618 27.1038 36.5974 27.1737 35.7231C27.2087 35.2861 27.2436 34.922 27.2698 34.6673C27.2829 34.54 27.2938 34.44 27.3015 34.3719L27.3103 34.2943L27.3126 34.2746L27.3132 34.2697L27.3133 34.2684L27.3134 34.2682L27.3134 34.2681L27.1686 34.2507L27.3134 34.2681L27.3138 34.2639C27.3361 34.0187 27.4272 33.5261 27.5828 33.0134C27.7393 32.4976 27.9539 31.9856 28.2131 31.6825C29.0133 30.7942 29.8507 30.7029 30.4 30.657H30.5342V30.6574L30.5451 30.6566C32.4111 30.5166 34.7571 30.4349 36.6438 30.3881C37.5869 30.3648 38.4146 30.3502 39.0095 30.3414C39.307 30.3371 39.5462 30.3341 39.7124 30.3323L39.9053 30.3304L39.9572 30.3299L39.9713 30.3298L39.9753 30.3298L39.9766 30.3298L39.9779 30.3298L39.9819 30.3298L39.996 30.3299L40.0479 30.3304L40.2407 30.3323C40.407 30.3341 40.6462 30.3371 40.9436 30.3414C41.5385 30.3502 42.3663 30.3648 43.3094 30.3881C45.1961 30.4349 47.5421 30.5166 49.4081 30.6566L49.408 30.657H49.419H49.5993C50.1069 30.7032 50.9863 30.7958 51.7385 31.6807L51.7389 31.6812C51.9976 31.983 52.2011 32.4941 52.3524 33.012C52.5021 33.5242 52.5945 34.0204 52.6411 34.2768L52.6448 34.2973L52.649 34.3057C52.6493 34.3071 52.6497 34.3088 52.6501 34.3106C52.6507 34.3135 52.6513 34.3169 52.6521 34.3209C52.6558 34.3405 52.6603 34.369 52.6656 34.4067C52.6762 34.4817 52.6889 34.5876 52.7031 34.7205C52.7314 34.9859 52.7648 35.3553 52.7969 35.7923C52.861 36.6663 52.9192 37.8078 52.9192 38.9251L52.9193 41.1221C52.9193 42.2854 52.8494 43.4499 52.7795 44.3242C52.7445 44.7611 52.7096 45.1252 52.6834 45.3799C52.6703 45.5073 52.6594 45.6072 52.6517 45.6753L52.6429 45.7529L52.6406 45.7727L52.6403 45.7749C52.5935 46.0325 52.5013 46.5253 52.3471 47.0338C52.1902 47.5509 51.9758 48.0605 51.6961 48.3617Z" fill="#387EDB" stroke="#387EDB" stroke-width="0.291667"/>
<path d="M45.9005 39.9255L45.9007 39.9253L45.8932 39.9209L37.0152 34.7343C36.8265 34.6107 36.5778 34.6116 36.3899 34.7369C36.2161 34.8528 36.0912 35.0354 36.0912 35.2789V45.4225C36.0912 45.666 36.2161 45.8486 36.3899 45.9645L36.3975 45.9695L36.4056 45.9736C36.4618 46.0017 36.5109 46.0191 36.5637 46.0279C36.6109 46.0358 36.6567 46.0357 36.699 46.0357L36.7045 46.0357L36.71 46.0357C36.7524 46.0357 36.7982 46.0358 36.8454 46.0279C36.8982 46.0191 36.9472 46.0017 37.0035 45.9736L37.0035 45.9738L37.0093 45.9705L45.8908 41.0156L45.891 41.016L45.9006 41.0096C46.0745 40.8937 46.1993 40.7111 46.1993 40.4676C46.1993 40.224 46.0744 40.0414 45.9005 39.9255ZM37.3178 44.3798V36.3284L44.3573 40.464L37.3178 44.3798Z" fill="#387EDB" stroke="#387EDB" stroke-width="0.291667"/>
</g>
<defs>
<filter id="filter0_d_3306_639" x="3" y="6" width="74" height="74" filterUnits="userSpaceOnUse" color-interpolation-filters="sRGB">
<feFlood flood-opacity="0" result="BackgroundImageFix"/>
<feColorMatrix in="SourceAlpha" type="matrix" values="0 0 0 0 0 0 0 0 0 0 0 0 0 0 0 0 0 0 127 0" result="hardAlpha"/>
<feOffset dy="3"/>
<feGaussianBlur stdDeviation="2.5"/>
<feComposite in2="hardAlpha" operator="out"/>
<feColorMatrix type="matrix" values="0 0 0 0 0.223529 0 0 0 0 0.410196 0 0 0 0 0.690196 0 0 0 0.1 0"/>
<feBlend mode="normal" in2="BackgroundImageFix" result="effect1_dropShadow_3306_639"/>
<feBlend mode="normal" in="SourceGraphic" in2="effect1_dropShadow_3306_639" result="shape"/>
</filter>
<linearGradient id="paint0_linear_3306_639" x1="40" y1="13.899" x2="40" y2="80" gradientUnits="userSpaceOnUse">
<stop stop-color="#E3F7F9"/>
<stop offset="1" stop-color="#EFF6FF"/>
</linearGradient>
<linearGradient id="paint1_linear_3306_639" x1="25.1393" y1="8" x2="47.6984" y2="68.5633" gradientUnits="userSpaceOnUse">
<stop stop-color="#F5F5F5"/>
<stop offset="1" stop-color="white"/>
</linearGradient>
</defs>
</svg>
