<?xml version="1.0" encoding="UTF-8"?>
<!-- Generator: visioncortex VTracer 0.6.3 -->
<svg version="1.1" xmlns="http://www.w3.org/2000/svg" width="1280" height="1217">
<path d="M0 0 C15.18 -0.29 30.31 0.55 45.47 1.32 C49.34 1.52 53.2 1.71 57.07 1.9 C63.8 2.23 70.54 2.57 77.27 2.9 C94.79 3.78 112.32 4.64 129.84 5.51 C132.78 5.65 135.71 5.79 138.65 5.94 C169.09 7.44 199.54 8.88 229.99 10.29 C231.01 10.34 232.02 10.38 233.07 10.43 C246.42 11.05 259.77 11.66 273.12 12.28 C291.69 13.13 310.26 13.99 328.83 14.85 C329.83 14.89 330.84 14.94 331.87 14.99 C370.78 16.79 409.69 18.68 448.6 20.6 C504.06 23.35 559.53 25.94 615 28.5 C671.44 31.1 727.89 33.74 784.32 36.54 C794.96 37.07 805.6 37.59 816.25 38.12 C817.34 38.17 817.34 38.17 818.45 38.23 C867.91 40.66 917.37 42.93 966.83 45.23 C984.01 46.02 1001.19 46.82 1018.37 47.62 C1019.47 47.68 1020.58 47.73 1021.72 47.78 C1066.64 49.88 1111.56 52.05 1156.48 54.29 C1157.62 54.34 1158.75 54.4 1159.92 54.46 C1165.03 54.71 1170.14 54.97 1175.26 55.23 C1177.03 55.32 1178.81 55.41 1180.59 55.49 C1181.43 55.54 1182.28 55.58 1183.16 55.62 C1187.79 55.85 1192.42 56.06 1197.05 56.25 C1198.07 56.29 1199.08 56.34 1200.13 56.38 C1202.07 56.46 1204.01 56.54 1205.95 56.61 C1212.32 56.87 1218.65 57.37 1225 58 C1223.75 62.16 1222.24 65.51 1219.84 69.12 C1219.22 70.07 1218.59 71.02 1217.95 71.99 C1216.95 73.48 1216.95 73.48 1215.94 75 C1214.56 77.08 1213.19 79.16 1211.81 81.25 C1211.15 82.24 1210.49 83.24 1209.8 84.27 C1203.78 93.37 1197.98 102.61 1192.12 111.81 C1185.69 121.94 1179.19 132.01 1172.65 142.07 C1167.34 150.24 1162.07 158.44 1156.88 166.69 C1138.61 195.66 1138.61 195.66 1135 200 C1134.34 200 1133.68 200 1133 200 C1132.89 200.73 1132.78 201.45 1132.67 202.2 C1131.96 205.18 1130.92 207.14 1129.3 209.73 C1128.75 210.62 1128.2 211.5 1127.63 212.42 C1127.05 213.33 1126.47 214.25 1125.88 215.19 C1125.04 216.53 1125.04 216.53 1124.19 217.9 C1120.81 223.29 1117.27 228.52 1113.6 233.71 C1111.43 236.82 1109.42 240.02 1107.44 243.25 C1106.58 244.63 1105.73 246.01 1104.88 247.38 C1104.19 248.49 1104.19 248.49 1103.49 249.61 C1094.48 264.05 1085.28 278.37 1075.98 292.63 C1070.05 301.73 1064.17 310.86 1058.38 320.06 C1053.78 327.37 1049.09 334.63 1044.38 341.88 C1042 345.54 1039.62 349.21 1037.25 352.88 C1036.79 353.59 1036.32 354.3 1035.85 355.04 C1032.78 359.78 1029.74 364.54 1026.71 369.31 C1021.37 377.7 1015.97 386.05 1010.52 394.38 C1005.12 402.63 999.76 410.9 994.56 419.29 C989.82 426.93 984.9 434.46 980 442 C973.76 451.59 967.58 461.22 961.49 470.9 C956.81 478.33 952.04 485.69 947.26 493.05 C945.33 496.03 943.42 499.01 941.5 502 C939.17 505.63 936.84 509.26 934.49 512.88 C929.25 520.96 924.04 529.06 918.88 537.19 C912.45 547.29 906.02 557.38 899.47 567.4 C893.42 576.65 887.39 585.9 881.56 595.29 C877.27 602.2 872.84 609.01 868.41 615.83 C866.02 619.51 863.63 623.19 861.25 626.88 C860.79 627.59 860.33 628.3 859.85 629.03 C856.21 634.67 852.59 640.33 849 646 C847.69 648.06 846.38 650.13 845.06 652.19 C844.48 653.11 843.89 654.03 843.29 654.98 C842.86 655.65 842.44 656.31 842 657 C845.07 660.41 848.18 662.35 852.25 664.44 C856.71 666.77 861.02 669.17 865.25 671.89 C866.93 672.96 868.69 673.92 870.44 674.88 C874.04 676.91 877.2 679.39 880.43 681.96 C883.35 684.27 886.3 686.55 889.25 688.81 C889.8 689.23 890.34 689.65 890.9 690.09 C893.78 692.3 896.66 694.5 899.55 696.69 C900.13 697.13 900.7 697.57 901.3 698.02 C902.91 699.24 904.52 700.46 906.12 701.68 C909.95 704.77 913.23 708.05 916.31 711.88 C918.93 715.08 921.96 717.67 925.09 720.36 C930.83 725.29 935.39 731.04 940 737 C940.44 737.56 940.87 738.13 941.32 738.71 C945.69 744.41 949.64 750.36 953.56 756.38 C954.21 757.35 954.86 758.33 955.52 759.34 C959.47 765.38 962.94 771.46 966 778 C966.49 779.04 966.97 780.07 967.48 781.14 C968.66 783.76 969.83 786.38 971 789 C971.52 790.09 972.03 791.19 972.56 792.31 C979.92 811.18 981.39 829.12 973.69 848.12 C972.81 850.09 971.91 852.05 971 854 C970.3 855.53 970.3 855.53 969.59 857.1 C958.21 881.11 938.35 894.28 914 903 C911.38 903.82 908.75 904.6 906.1 905.34 C903.78 906 903.78 906 900.94 907.56 C894.07 910.93 886.79 911.33 879.25 911.25 C878.34 911.24 877.42 911.24 876.48 911.23 C869.45 911.14 862.51 910.6 855.52 909.85 C847.63 909.01 839.73 908.53 831.81 908.06 C821.86 907.46 812.16 906.5 802.37 904.59 C798.19 903.85 798.19 903.85 794 904 C792.43 905.29 792.43 905.29 791.25 907.12 C783.34 917.32 769.42 922.34 757 924 C749.56 924.66 742.09 924.73 734.62 924.75 C733.21 924.76 733.21 924.76 731.76 924.78 C719.23 924.86 708.73 923.53 697 919 C695.81 918.56 694.62 918.11 693.39 917.66 C687.72 915.53 684.16 913.5 680 909 C679.33 910.03 678.67 911.06 677.98 912.12 C677.54 912.8 677.1 913.48 676.65 914.18 C675.67 915.7 674.69 917.22 673.71 918.73 C671.11 922.78 668.47 926.8 665.75 930.77 C665.24 931.53 664.72 932.3 664.19 933.08 C663.2 934.55 662.2 936.01 661.18 937.46 C659.64 939.68 659.64 939.68 658 943 C658.8 945.11 658.8 945.11 660 947 C660.34 948.41 660.63 949.82 660.88 951.25 C662.75 961.2 665.33 971.02 668.34 980.68 C669.29 984.04 669.94 987.44 670.57 990.87 C670.99 993.17 670.99 993.17 672 996 C672.13 997.56 672.23 999.12 672.31 1000.69 C672.78 1006.32 674.05 1011.64 675.49 1017.09 C676.51 1020.96 677.34 1024.79 677.94 1028.75 C679.13 1035.76 682.16 1042.05 685.14 1048.45 C687.9 1054.69 688.82 1060.75 689.51 1067.48 C689.98 1070.89 690.86 1073.77 692 1077 C692.36 1078.66 692.7 1080.33 693 1082 C693.53 1084.78 694.1 1087.31 695 1090 C696.19 1093.57 696.86 1097.13 697.54 1100.83 C697.91 1103.03 697.91 1103.03 699 1105 C706.22 1104.76 711.29 1102.7 717.69 1099.38 C723.9 1096.8 730.63 1096.83 737.28 1096.76 C738.05 1096.75 738.82 1096.75 739.61 1096.74 C741.23 1096.72 742.86 1096.71 744.48 1096.7 C746.1 1096.69 747.73 1096.67 749.35 1096.64 C765.1 1096.36 778.83 1099.24 793.69 1104.5 C799.45 1106.5 805.13 1108.33 811.06 1109.75 C822.06 1112.77 838.84 1120.07 845.32 1130.03 C845.59 1130.66 845.85 1131.29 846.12 1131.94 C847.21 1134.46 848.31 1136.43 849.92 1138.68 C852.44 1142.7 853.74 1146.68 855.12 1151.19 C855.62 1152.79 856.13 1154.38 856.63 1155.98 C856.85 1156.68 857.06 1157.38 857.29 1158.1 C858.02 1160.28 858.02 1160.28 860 1163 C861.83 1170.92 861.41 1179.44 857.59 1186.67 C851.67 1195.59 845.42 1201.35 835 1204 C831.67 1204.4 828.38 1204.44 825.02 1204.43 C824.1 1204.44 823.17 1204.44 822.21 1204.45 C820.26 1204.46 818.3 1204.45 816.35 1204.45 C813.4 1204.44 810.46 1204.47 807.52 1204.5 C793.5 1204.55 782.32 1202.45 769.19 1197.44 C763.08 1195.17 757.16 1194.06 750.75 1193.09 C739.15 1191.31 728.37 1187.95 717.56 1183.43 C714.34 1182.14 711.14 1181.07 707.81 1180.06 C697.48 1176.67 688.1 1171.26 682 1162 C682 1161.01 682 1160.02 682 1159 C680.74 1158.86 679.48 1158.71 678.19 1158.56 C671.48 1157.05 666.62 1152.95 662 1148 C659.4 1143.65 658.94 1140.14 659.22 1135.1 C659.28 1128.36 656.8 1122.25 654.69 1115.94 C651.67 1106.69 648.97 1097.61 647.54 1087.97 C647.12 1085.06 647.12 1085.06 646.06 1082.72 C645.08 1080.2 644.58 1078 644.09 1075.36 C643.04 1069.82 641.35 1064.62 639.5 1059.31 C638.88 1057.52 638.27 1055.72 637.66 1053.93 C637.37 1053.08 637.08 1052.24 636.78 1051.37 C636.1 1049.29 635.46 1047.21 634.87 1045.1 C634.2 1042.7 633.44 1040.44 632.56 1038.12 C630.34 1031.59 629.47 1024.75 628.34 1017.96 C627.9 1015.44 627.36 1012.94 626.81 1010.44 C625.94 1006.22 625.84 1002.3 626 998 C623.11 998.32 622.18 998.77 620.33 1001.08 C619.51 1002.44 619.51 1002.44 618.68 1003.82 C617.76 1005.33 617.76 1005.33 616.82 1006.86 C616.18 1007.94 615.54 1009.02 614.88 1010.12 C613.53 1012.33 612.18 1014.53 610.84 1016.74 C610.18 1017.81 609.53 1018.89 608.85 1020 C605.82 1024.92 602.59 1029.7 599.34 1034.49 C596.13 1039.26 593.08 1044.14 590 1049 C588.86 1050.8 587.71 1052.6 586.57 1054.39 C585.72 1055.72 585.72 1055.72 584.86 1057.08 C579.52 1065.48 574.17 1073.87 568.77 1082.22 C567.13 1084.79 565.55 1087.38 564 1090 C560.4 1088.8 560.29 1088.2 558.65 1084.94 C558.21 1084.07 557.76 1083.2 557.31 1082.31 C556.84 1081.36 556.37 1080.41 555.88 1079.43 C555.38 1078.44 554.88 1077.46 554.36 1076.44 C552.75 1073.25 551.16 1070.07 549.56 1066.88 C548 1063.78 546.44 1060.68 544.88 1057.59 C543.84 1055.52 542.79 1053.45 541.75 1051.39 C538.02 1043.98 534.23 1036.61 530.4 1029.26 C529.9 1028.3 529.41 1027.34 528.89 1026.35 C526.7 1022.16 524.51 1018.01 522 1014 C521.98 1014.58 521.96 1015.15 521.94 1015.75 C521.72 1021.8 521.49 1027.85 521.26 1033.9 C521.17 1036.16 521.09 1038.41 521.01 1040.66 C520.89 1043.92 520.76 1047.17 520.63 1050.43 C520.58 1051.92 520.58 1051.92 520.53 1053.44 C520.18 1061.81 518.7 1069.76 516.94 1077.94 C514.7 1089.07 514.75 1100.54 514.57 1111.85 C514.3 1121.61 513.94 1132.94 507.12 1140.56 C506.14 1141.71 506.14 1141.71 505.13 1142.88 C502.88 1145.12 500.48 1147.03 498 1149 C496.66 1150.66 495.33 1152.33 494 1154 C487.74 1160.03 478.09 1159.29 470 1159.44 C460.98 1159.7 452.08 1160.26 443.12 1161.38 C442.18 1161.49 441.24 1161.6 440.27 1161.72 C435.47 1162.36 430.88 1163.25 426.2 1164.5 C419.42 1166.27 412.65 1166.93 405.69 1167.56 C398.53 1168.22 391.91 1168.98 385 1171 C379.74 1171.78 374.45 1172.29 369.16 1172.86 C368.09 1172.98 367.01 1173.1 365.91 1173.22 C364.94 1173.32 363.97 1173.42 362.98 1173.53 C359.93 1173.93 359.93 1173.93 356.82 1175.03 C351.8 1176.3 347.07 1176.31 341.91 1176.3 C340.33 1176.31 340.33 1176.31 338.71 1176.31 C336.49 1176.32 334.26 1176.32 332.03 1176.32 C328.64 1176.31 325.26 1176.34 321.87 1176.36 C319.7 1176.36 317.52 1176.36 315.35 1176.36 C314.35 1176.37 313.34 1176.38 312.31 1176.39 C302.96 1176.33 295.84 1174.53 288.99 1168.03 C288.33 1167.36 287.68 1166.69 287 1166 C285.89 1164.89 285.89 1164.89 284.76 1163.75 C277.62 1156.22 277.68 1149.84 277.87 1139.68 C278.25 1128.98 281.76 1123.94 289 1116 C289.79 1115.04 289.79 1115.04 290.59 1114.06 C298.67 1104.82 312.94 1098.01 325 1097 C329.15 1096.85 333.29 1096.84 337.44 1096.84 C338.66 1096.83 339.89 1096.83 341.15 1096.82 C344.5 1096.81 347.85 1096.8 351.2 1096.8 C353.3 1096.8 355.39 1096.79 357.49 1096.79 C364.08 1096.77 370.67 1096.76 377.26 1096.76 C384.82 1096.76 392.39 1096.74 399.95 1096.71 C405.82 1096.69 411.7 1096.68 417.57 1096.68 C421.07 1096.68 424.56 1096.67 428.06 1096.65 C431.97 1096.63 435.88 1096.64 439.79 1096.64 C440.92 1096.63 442.06 1096.63 443.22 1096.62 C451.45 1096.66 459.03 1098.02 467 1100 C467.15 1098.2 467.15 1098.2 467.3 1096.37 C467.45 1094.73 467.6 1093.08 467.75 1091.44 C467.81 1090.66 467.87 1089.88 467.94 1089.07 C468.43 1083.9 469.49 1079.24 471 1074.27 C473.95 1064.14 473.88 1053.73 474.19 1043.25 C474.29 1040.24 474.39 1037.24 474.5 1034.23 C474.57 1032.37 474.63 1030.52 474.68 1028.66 C474.71 1027.83 474.74 1027 474.77 1026.14 C474.79 1025.41 474.81 1024.68 474.83 1023.93 C475 1022 475 1022 476 1019 C478.17 1005.2 478.37 991.27 478.66 977.33 C479.42 941.16 479.42 941.16 482 936 C481.24 933.9 481.24 933.9 480.01 931.55 C479.55 930.65 479.1 929.74 478.63 928.81 C478.13 927.84 477.64 926.87 477.12 925.88 C476.63 924.89 476.13 923.9 475.62 922.89 C472.15 916.09 468.53 909.4 464.64 902.84 C462 898.31 462 898.31 462 895 C460.92 895.9 460.92 895.9 459.81 896.81 C449.04 903.9 434.09 903.16 422.01 900.72 C418.76 900.01 415.52 899.27 412.29 898.51 C410.18 898.04 408.07 897.62 405.95 897.24 C376.09 891.84 376.09 891.84 369.43 882.88 C365.38 879.74 360.78 880.45 355.81 880.44 C326.02 879.77 289.35 874.98 266.33 853.51 C263.77 850.75 261.29 847.93 258.84 845.06 C257.47 843.53 256.02 842.05 254.54 840.62 C251.93 837.93 249.93 835.2 247.88 832.06 C247.21 831.06 246.55 830.06 245.87 829.04 C243.3 824.86 241.19 821.33 240.5 816.44 C240.25 813.05 240.25 813.05 238.56 810.75 C236.58 807.26 236.17 804.04 235.53 800.1 C234.8 795.83 233.79 791.64 232.78 787.43 C232.39 785.73 232.39 785.73 232 784 C231.83 783.3 231.65 782.6 231.47 781.88 C229.75 774.42 229.7 767.13 229.75 759.5 C229.74 758.25 229.73 756.99 229.73 755.7 C229.75 743.5 232.3 733.49 236.25 722 C237.07 719.6 237.88 717.2 238.7 714.8 C239.1 713.63 239.49 712.47 239.9 711.28 C240.85 708.45 241.76 705.61 242.64 702.77 C245.36 694.07 248.65 686.25 253.17 678.33 C255.08 675.01 255.08 675.01 256.51 671.34 C257.93 668.16 259.24 666.24 261.62 663.75 C264.58 660.58 267.33 657.35 270 653.94 C274.08 648.91 278.5 644.28 283.06 639.69 C283.72 639.02 284.38 638.35 285.06 637.66 C290.85 631.91 297.01 626.99 304.06 622.88 C305.31 622.14 305.31 622.14 306.59 621.39 C307.39 620.93 308.18 620.47 309 620 C309.72 619.58 310.45 619.16 311.19 618.73 C312.79 617.82 314.39 616.91 316 616 C314.71 611.84 313.14 608.09 311.12 604.23 C310.54 603.11 309.96 601.99 309.36 600.84 C308.72 599.62 308.08 598.4 307.44 597.19 C306.77 595.9 306.1 594.62 305.43 593.34 C304.38 591.31 303.32 589.29 302.27 587.27 C298.67 580.38 295.12 573.48 291.57 566.58 C289.78 563.09 287.98 559.61 286.19 556.12 C285.84 555.44 285.48 554.76 285.12 554.05 C281.59 547.2 278.04 540.35 274.5 533.5 C269.2 523.26 263.91 513.01 258.62 502.75 C258.09 501.72 258.09 501.72 257.55 500.67 C254.67 495.08 251.8 489.49 248.92 483.9 C246.4 479.01 243.89 474.13 241.38 469.25 C241.02 468.56 240.67 467.88 240.3 467.17 C234.77 456.42 229.22 445.69 223.66 434.95 C218.57 425.11 213.49 415.25 208.42 405.4 C203.45 395.76 198.48 386.13 193.5 376.5 C187.79 365.47 182.1 354.44 176.42 343.4 C171.45 333.76 166.48 324.13 161.5 314.5 C155.79 303.47 150.1 292.44 144.42 281.4 C139.45 271.76 134.48 262.13 129.5 252.5 C123.79 241.47 118.1 230.44 112.42 219.4 C107.45 209.76 102.48 200.13 97.5 190.5 C91.79 179.47 86.1 168.44 80.42 157.4 C75.45 147.76 70.48 138.13 65.5 128.5 C60.15 118.17 54.82 107.84 49.5 97.5 C42.29 83.49 35.06 69.5 27.82 55.51 C26.6 53.15 25.37 50.79 24.15 48.43 C22.33 44.91 20.51 41.39 18.69 37.88 C18.11 36.76 17.54 35.65 16.94 34.51 C14.31 29.42 11.66 24.35 8.97 19.3 C8.51 18.43 8.05 17.56 7.57 16.66 C6.72 15.08 5.87 13.49 5.02 11.91 C4.65 11.21 4.27 10.51 3.89 9.79 C3.57 9.2 3.25 8.61 2.92 8 C1.72 5.4 0.89 2.72 0 0 Z M314 672 C309.42 676.79 305.12 681.82 301 687 C300.34 687.81 299.68 688.62 299 689.46 C293.68 696.32 290.65 703.1 287.94 711.31 C287.52 712.54 287.11 713.77 286.68 715.03 C285.84 717.52 285.01 720.01 284.18 722.5 C283.12 725.64 281.99 728.74 280.81 731.84 C273.12 752.64 272.94 778.25 282.02 798.83 C282.67 800.22 283.33 801.61 284 803 C284.34 803.74 284.68 804.47 285.03 805.23 C291.01 818.11 301.8 823.31 314.45 828.74 C323.38 831.91 331.1 832.15 340.56 831.62 C341.76 831.57 342.96 831.51 344.2 831.45 C347.13 831.31 350.07 831.16 353 831 C353.05 830.11 353.1 829.21 353.15 828.29 C353.89 816.36 354.53 807.61 362 798 C362.44 797.43 362.88 796.87 363.33 796.28 C371.74 785.84 381.89 777.99 394.96 774.81 C395.63 774.54 396.31 774.27 397 774 C398.26 771.21 398.26 771.21 397.42 769.26 C397.08 768.62 396.75 767.98 396.41 767.32 C396.03 766.59 395.66 765.86 395.27 765.1 C394.85 764.3 394.43 763.51 394 762.69 C393.57 761.86 393.14 761.02 392.69 760.17 C391.29 757.44 389.86 754.72 388.44 752 C387.46 750.12 386.48 748.23 385.51 746.34 C383.11 741.71 380.7 737.08 378.28 732.46 C375.97 728.02 373.67 723.58 371.38 719.14 C369.75 716 368.11 712.86 366.48 709.71 C363.84 704.63 361.22 699.54 358.61 694.44 C357.85 692.95 357.09 691.46 356.32 689.97 C355.21 687.8 354.1 685.63 352.99 683.46 C350.69 678.96 348.37 674.47 346 670 C345.68 669.39 345.36 668.79 345.03 668.16 C344.12 666.44 343.19 664.73 342.25 663.03 C341.45 661.57 341.45 661.57 340.64 660.08 C340.1 659.39 339.56 658.71 339 658 C329.28 658 320.67 665.48 314 672 Z M813 694 C813.39 695 813.39 695 813.8 696.02 C814.11 700.57 811.79 703.11 809.25 706.75 C808.22 708.28 807.19 709.81 806.17 711.34 C805.37 712.5 805.37 712.5 804.56 713.69 C802.18 717.22 799.87 720.79 797.56 724.38 C796.89 725.41 796.89 725.41 796.2 726.47 C792.72 731.86 789.29 737.27 785.88 742.69 C785.37 743.48 784.87 744.27 784.36 745.09 C781.51 749.61 781.51 749.61 778.66 754.13 C777.45 756.07 776.22 758.01 775 759.94 C774.32 761.02 773.64 762.1 772.94 763.21 C771 766 771 766 769.06 767.75 C766.42 770.63 765.08 773.75 763.4 777.26 C760.55 782.84 756.88 787.93 753.38 793.12 C752.81 793.96 752.25 794.81 751.67 795.68 C751.16 796.44 750.64 797.2 750.11 797.98 C748.76 800.05 748.76 800.05 749 803 C750.19 803.48 751.37 803.97 752.59 804.47 C799.88 823.97 799.88 823.97 809.12 843.69 C811.1 848.67 812.49 853.87 814 859 C833.23 861.4 833.23 861.4 852.57 862.71 C857.65 862.91 857.65 862.91 860.01 863.52 C865.09 864.75 870.8 864.13 876.01 864.03 C877.68 864.01 879.35 864.01 881.02 864.02 C896.02 863.57 913.87 856.64 924.31 845.81 C931.52 837.02 933.99 828.81 933.43 817.61 C932.87 812.91 931.72 810.81 929 807 C928.48 805.58 928 804.14 927.56 802.69 C924.97 794.51 920.89 787.54 915.87 780.62 C913.89 777.85 912.08 775 910.25 772.12 C906.52 766.48 902.27 761.68 897.61 756.79 C895.84 754.9 894.13 752.95 892.48 750.96 C888.6 746.33 884.4 742.4 879.69 738.62 C876.45 736.02 873.28 733.37 870.18 730.61 C866.1 727.03 861.84 723.79 857.44 720.62 C856.26 719.78 856.26 719.78 855.07 718.92 C847.94 713.86 840.6 709.31 833 705 C832.29 704.6 831.59 704.19 830.86 703.78 C822.04 698.69 822.04 698.69 813 694 Z " fill="#CCF892" transform="translate(53,9)"/>
<path d="M0 0 C15.18 -0.29 30.31 0.55 45.47 1.32 C49.34 1.52 53.2 1.71 57.07 1.9 C63.8 2.23 70.54 2.57 77.27 2.9 C94.79 3.78 112.32 4.64 129.84 5.51 C132.78 5.65 135.71 5.79 138.65 5.94 C169.09 7.44 199.54 8.88 229.99 10.29 C231.01 10.34 232.02 10.38 233.07 10.43 C246.42 11.05 259.77 11.66 273.12 12.28 C291.69 13.13 310.26 13.99 328.83 14.85 C329.83 14.89 330.84 14.94 331.87 14.99 C370.78 16.79 409.69 18.68 448.6 20.6 C504.06 23.35 559.53 25.94 615 28.5 C671.44 31.1 727.89 33.74 784.32 36.54 C794.96 37.07 805.6 37.59 816.25 38.12 C817.34 38.17 817.34 38.17 818.45 38.23 C867.91 40.66 917.37 42.93 966.83 45.23 C984.01 46.02 1001.19 46.82 1018.37 47.62 C1019.47 47.68 1020.58 47.73 1021.72 47.78 C1066.64 49.88 1111.56 52.05 1156.48 54.29 C1157.62 54.34 1158.75 54.4 1159.92 54.46 C1165.03 54.71 1170.14 54.97 1175.26 55.23 C1177.03 55.32 1178.81 55.41 1180.59 55.49 C1181.43 55.54 1182.28 55.58 1183.16 55.62 C1187.79 55.85 1192.42 56.06 1197.05 56.25 C1198.07 56.29 1199.08 56.34 1200.13 56.38 C1202.07 56.46 1204.01 56.54 1205.95 56.61 C1212.32 56.87 1218.65 57.37 1225 58 C1223.75 62.16 1222.24 65.51 1219.84 69.12 C1219.22 70.07 1218.59 71.02 1217.95 71.99 C1216.95 73.48 1216.95 73.48 1215.94 75 C1214.56 77.08 1213.19 79.16 1211.81 81.25 C1211.15 82.24 1210.49 83.24 1209.8 84.27 C1203.78 93.37 1197.98 102.61 1192.12 111.81 C1185.69 121.94 1179.19 132.01 1172.65 142.07 C1167.34 150.24 1162.07 158.44 1156.88 166.69 C1138.61 195.66 1138.61 195.66 1135 200 C1134.34 200 1133.68 200 1133 200 C1132.89 200.73 1132.78 201.45 1132.67 202.2 C1131.96 205.18 1130.92 207.14 1129.3 209.73 C1128.75 210.62 1128.2 211.5 1127.63 212.42 C1127.05 213.33 1126.47 214.25 1125.88 215.19 C1125.04 216.53 1125.04 216.53 1124.19 217.9 C1120.81 223.29 1117.27 228.52 1113.6 233.71 C1111.43 236.82 1109.42 240.02 1107.44 243.25 C1106.58 244.63 1105.73 246.01 1104.88 247.38 C1104.19 248.49 1104.19 248.49 1103.49 249.61 C1094.48 264.05 1085.28 278.37 1075.98 292.63 C1070.05 301.73 1064.17 310.86 1058.38 320.06 C1053.78 327.37 1049.09 334.63 1044.38 341.88 C1042 345.54 1039.62 349.21 1037.25 352.88 C1036.79 353.59 1036.32 354.3 1035.85 355.04 C1032.78 359.78 1029.74 364.54 1026.71 369.31 C1021.37 377.7 1015.97 386.05 1010.52 394.38 C1005.12 402.63 999.76 410.9 994.56 419.29 C989.82 426.93 984.9 434.46 980 442 C973.76 451.59 967.58 461.22 961.49 470.9 C956.81 478.33 952.04 485.69 947.26 493.05 C945.33 496.03 943.42 499.01 941.5 502 C939.17 505.63 936.84 509.26 934.49 512.88 C929.25 520.96 924.04 529.06 918.88 537.19 C912.45 547.29 906.02 557.38 899.47 567.4 C893.42 576.65 887.39 585.9 881.56 595.29 C877.27 602.2 872.84 609.01 868.41 615.83 C866.02 619.51 863.63 623.19 861.25 626.88 C860.79 627.59 860.33 628.3 859.85 629.03 C856.21 634.67 852.59 640.33 849 646 C847.69 648.06 846.38 650.13 845.06 652.19 C844.48 653.11 843.89 654.03 843.29 654.98 C842.86 655.65 842.44 656.31 842 657 C845.07 660.41 848.18 662.35 852.25 664.44 C856.71 666.77 861.02 669.17 865.25 671.89 C866.93 672.96 868.69 673.92 870.44 674.88 C874.04 676.91 877.2 679.39 880.43 681.96 C883.35 684.27 886.3 686.55 889.25 688.81 C889.8 689.23 890.34 689.65 890.9 690.09 C893.78 692.3 896.66 694.5 899.55 696.69 C900.13 697.13 900.7 697.57 901.3 698.02 C902.91 699.24 904.52 700.46 906.12 701.68 C909.95 704.77 913.23 708.05 916.31 711.88 C918.93 715.08 921.96 717.67 925.09 720.36 C930.83 725.29 935.39 731.04 940 737 C940.44 737.56 940.87 738.13 941.32 738.71 C945.69 744.41 949.64 750.36 953.56 756.38 C954.21 757.35 954.86 758.33 955.52 759.34 C959.47 765.38 962.94 771.46 966 778 C966.49 779.04 966.97 780.07 967.48 781.14 C968.66 783.76 969.83 786.38 971 789 C971.52 790.09 972.03 791.19 972.56 792.31 C979.92 811.18 981.39 829.12 973.69 848.12 C972.81 850.09 971.91 852.05 971 854 C970.3 855.53 970.3 855.53 969.59 857.1 C958.21 881.11 938.35 894.28 914 903 C911.38 903.82 908.75 904.6 906.1 905.34 C903.78 906 903.78 906 900.94 907.56 C894.07 910.93 886.79 911.33 879.25 911.25 C878.34 911.24 877.42 911.24 876.48 911.23 C869.45 911.14 862.51 910.6 855.52 909.85 C847.63 909.01 839.73 908.53 831.81 908.06 C821.86 907.46 812.16 906.5 802.37 904.59 C798.19 903.85 798.19 903.85 794 904 C792.43 905.29 792.43 905.29 791.25 907.12 C783.34 917.32 769.42 922.34 757 924 C749.56 924.66 742.09 924.73 734.62 924.75 C733.21 924.76 733.21 924.76 731.76 924.78 C719.23 924.86 708.73 923.53 697 919 C695.81 918.56 694.62 918.11 693.39 917.66 C687.72 915.53 684.16 913.5 680 909 C679.33 910.03 678.67 911.06 677.98 912.12 C677.54 912.8 677.1 913.48 676.65 914.18 C675.67 915.7 674.69 917.22 673.71 918.73 C671.11 922.78 668.47 926.8 665.75 930.77 C665.24 931.53 664.72 932.3 664.19 933.08 C663.2 934.55 662.2 936.01 661.18 937.46 C659.64 939.68 659.64 939.68 658 943 C658.8 945.11 658.8 945.11 660 947 C660.34 948.41 660.63 949.82 660.88 951.25 C662.75 961.2 665.33 971.02 668.34 980.68 C669.29 984.04 669.94 987.44 670.57 990.87 C670.99 993.17 670.99 993.17 672 996 C672.13 997.56 672.23 999.12 672.31 1000.69 C672.78 1006.32 674.05 1011.64 675.49 1017.09 C676.51 1020.96 677.34 1024.79 677.94 1028.75 C679.13 1035.76 682.16 1042.05 685.14 1048.45 C687.9 1054.69 688.82 1060.75 689.51 1067.48 C689.98 1070.89 690.86 1073.77 692 1077 C692.36 1078.66 692.7 1080.33 693 1082 C693.53 1084.78 694.1 1087.31 695 1090 C696.19 1093.57 696.86 1097.13 697.54 1100.83 C697.91 1103.03 697.91 1103.03 699 1105 C706.22 1104.76 711.29 1102.7 717.69 1099.38 C723.9 1096.8 730.63 1096.83 737.28 1096.76 C738.05 1096.75 738.82 1096.75 739.61 1096.74 C741.23 1096.72 742.86 1096.71 744.48 1096.7 C746.1 1096.69 747.73 1096.67 749.35 1096.64 C765.1 1096.36 778.83 1099.24 793.69 1104.5 C799.45 1106.5 805.13 1108.33 811.06 1109.75 C822.06 1112.77 838.84 1120.07 845.32 1130.03 C845.59 1130.66 845.85 1131.29 846.12 1131.94 C847.21 1134.46 848.31 1136.43 849.92 1138.68 C852.44 1142.7 853.74 1146.68 855.12 1151.19 C855.62 1152.79 856.13 1154.38 856.63 1155.98 C856.85 1156.68 857.06 1157.38 857.29 1158.1 C858.02 1160.28 858.02 1160.28 860 1163 C861.83 1170.92 861.41 1179.44 857.59 1186.67 C851.67 1195.59 845.42 1201.35 835 1204 C831.67 1204.4 828.38 1204.44 825.02 1204.43 C824.1 1204.44 823.17 1204.44 822.21 1204.45 C820.26 1204.46 818.3 1204.45 816.35 1204.45 C813.4 1204.44 810.46 1204.47 807.52 1204.5 C793.5 1204.55 782.32 1202.45 769.19 1197.44 C763.08 1195.17 757.16 1194.06 750.75 1193.09 C739.15 1191.31 728.37 1187.95 717.56 1183.43 C714.34 1182.14 711.14 1181.07 707.81 1180.06 C697.48 1176.67 688.1 1171.26 682 1162 C682 1161.01 682 1160.02 682 1159 C680.74 1158.86 679.48 1158.71 678.19 1158.56 C671.48 1157.05 666.62 1152.95 662 1148 C659.4 1143.65 658.94 1140.14 659.22 1135.1 C659.28 1128.36 656.8 1122.25 654.69 1115.94 C651.67 1106.69 648.97 1097.61 647.54 1087.97 C647.12 1085.06 647.12 1085.06 646.06 1082.72 C645.08 1080.2 644.58 1078 644.09 1075.36 C643.04 1069.82 641.35 1064.62 639.5 1059.31 C638.88 1057.52 638.27 1055.72 637.66 1053.93 C637.37 1053.08 637.08 1052.24 636.78 1051.37 C636.1 1049.29 635.46 1047.21 634.87 1045.1 C634.2 1042.7 633.44 1040.44 632.56 1038.12 C630.34 1031.59 629.47 1024.75 628.34 1017.96 C627.9 1015.44 627.36 1012.94 626.81 1010.44 C625.94 1006.22 625.84 1002.3 626 998 C623.11 998.32 622.18 998.77 620.33 1001.08 C619.51 1002.44 619.51 1002.44 618.68 1003.82 C617.76 1005.33 617.76 1005.33 616.82 1006.86 C616.18 1007.94 615.54 1009.02 614.88 1010.12 C613.53 1012.33 612.18 1014.53 610.84 1016.74 C610.18 1017.81 609.53 1018.89 608.85 1020 C605.82 1024.92 602.59 1029.7 599.34 1034.49 C596.13 1039.26 593.08 1044.14 590 1049 C588.86 1050.8 587.71 1052.6 586.57 1054.39 C585.72 1055.72 585.72 1055.72 584.86 1057.08 C579.52 1065.48 574.17 1073.87 568.77 1082.22 C567.13 1084.79 565.55 1087.38 564 1090 C560.4 1088.8 560.29 1088.2 558.65 1084.94 C558.21 1084.07 557.76 1083.2 557.31 1082.31 C556.84 1081.36 556.37 1080.41 555.88 1079.43 C555.38 1078.44 554.88 1077.46 554.36 1076.44 C552.75 1073.25 551.16 1070.07 549.56 1066.88 C548 1063.78 546.44 1060.68 544.88 1057.59 C543.84 1055.52 542.79 1053.45 541.75 1051.39 C538.02 1043.98 534.23 1036.61 530.4 1029.26 C529.9 1028.3 529.41 1027.34 528.89 1026.35 C526.7 1022.16 524.51 1018.01 522 1014 C521.98 1014.58 521.96 1015.15 521.94 1015.75 C521.72 1021.8 521.49 1027.85 521.26 1033.9 C521.17 1036.16 521.09 1038.41 521.01 1040.66 C520.89 1043.92 520.76 1047.17 520.63 1050.43 C520.58 1051.92 520.58 1051.92 520.53 1053.44 C520.18 1061.81 518.7 1069.76 516.94 1077.94 C514.7 1089.07 514.75 1100.54 514.57 1111.85 C514.3 1121.61 513.94 1132.94 507.12 1140.56 C506.14 1141.71 506.14 1141.71 505.13 1142.88 C502.88 1145.12 500.48 1147.03 498 1149 C496.66 1150.66 495.33 1152.33 494 1154 C487.74 1160.03 478.09 1159.29 470 1159.44 C460.98 1159.7 452.08 1160.26 443.12 1161.38 C442.18 1161.49 441.24 1161.6 440.27 1161.72 C435.47 1162.36 430.88 1163.25 426.2 1164.5 C419.42 1166.27 412.65 1166.93 405.69 1167.56 C398.53 1168.22 391.91 1168.98 385 1171 C379.74 1171.78 374.45 1172.29 369.16 1172.86 C368.09 1172.98 367.01 1173.1 365.91 1173.22 C364.94 1173.32 363.97 1173.42 362.98 1173.53 C359.93 1173.93 359.93 1173.93 356.82 1175.03 C351.8 1176.3 347.07 1176.31 341.91 1176.3 C340.33 1176.31 340.33 1176.31 338.71 1176.31 C336.49 1176.32 334.26 1176.32 332.03 1176.32 C328.64 1176.31 325.26 1176.34 321.87 1176.36 C319.7 1176.36 317.52 1176.36 315.35 1176.36 C314.35 1176.37 313.34 1176.38 312.31 1176.39 C302.96 1176.33 295.84 1174.53 288.99 1168.03 C288.33 1167.36 287.68 1166.69 287 1166 C285.89 1164.89 285.89 1164.89 284.76 1163.75 C277.62 1156.22 277.68 1149.84 277.87 1139.68 C278.25 1128.98 281.76 1123.94 289 1116 C289.79 1115.04 289.79 1115.04 290.59 1114.06 C298.67 1104.82 312.94 1098.01 325 1097 C329.15 1096.85 333.29 1096.84 337.44 1096.84 C338.66 1096.83 339.89 1096.83 341.15 1096.82 C344.5 1096.81 347.85 1096.8 351.2 1096.8 C353.3 1096.8 355.39 1096.79 357.49 1096.79 C364.08 1096.77 370.67 1096.76 377.26 1096.76 C384.82 1096.76 392.39 1096.74 399.95 1096.71 C405.82 1096.69 411.7 1096.68 417.57 1096.68 C421.07 1096.68 424.56 1096.67 428.06 1096.65 C431.97 1096.63 435.88 1096.64 439.79 1096.64 C440.92 1096.63 442.06 1096.63 443.22 1096.62 C451.45 1096.66 459.03 1098.02 467 1100 C467.15 1098.2 467.15 1098.2 467.3 1096.37 C467.45 1094.73 467.6 1093.08 467.75 1091.44 C467.81 1090.66 467.87 1089.88 467.94 1089.07 C468.43 1083.9 469.49 1079.24 471 1074.27 C473.95 1064.14 473.88 1053.73 474.19 1043.25 C474.29 1040.24 474.39 1037.24 474.5 1034.23 C474.57 1032.37 474.63 1030.52 474.68 1028.66 C474.71 1027.83 474.74 1027 474.77 1026.14 C474.79 1025.41 474.81 1024.68 474.83 1023.93 C475 1022 475 1022 476 1019 C478.17 1005.2 478.37 991.27 478.66 977.33 C479.42 941.16 479.42 941.16 482 936 C481.24 933.9 481.24 933.9 480.01 931.55 C479.55 930.65 479.1 929.74 478.63 928.81 C478.13 927.84 477.64 926.87 477.12 925.88 C476.63 924.89 476.13 923.9 475.62 922.89 C472.15 916.09 468.53 909.4 464.64 902.84 C462 898.31 462 898.31 462 895 C460.92 895.9 460.92 895.9 459.81 896.81 C449.04 903.9 434.09 903.16 422.01 900.72 C418.76 900.01 415.52 899.27 412.29 898.51 C410.18 898.04 408.07 897.62 405.95 897.24 C376.09 891.84 376.09 891.84 369.43 882.88 C365.38 879.74 360.78 880.45 355.81 880.44 C326.02 879.77 289.35 874.98 266.33 853.51 C263.77 850.75 261.29 847.93 258.84 845.06 C257.47 843.53 256.02 842.05 254.54 840.62 C251.93 837.93 249.93 835.2 247.88 832.06 C247.21 831.06 246.55 830.06 245.87 829.04 C243.3 824.86 241.19 821.33 240.5 816.44 C240.25 813.05 240.25 813.05 238.56 810.75 C236.58 807.26 236.17 804.04 235.53 800.1 C234.8 795.83 233.79 791.64 232.78 787.43 C232.39 785.73 232.39 785.73 232 784 C231.83 783.3 231.65 782.6 231.47 781.88 C229.75 774.42 229.7 767.13 229.75 759.5 C229.74 758.25 229.73 756.99 229.73 755.7 C229.75 743.5 232.3 733.49 236.25 722 C237.07 719.6 237.88 717.2 238.7 714.8 C239.1 713.63 239.49 712.47 239.9 711.28 C240.85 708.45 241.76 705.61 242.64 702.77 C245.36 694.07 248.65 686.25 253.17 678.33 C255.08 675.01 255.08 675.01 256.51 671.34 C257.93 668.16 259.24 666.24 261.62 663.75 C264.58 660.58 267.33 657.35 270 653.94 C274.08 648.91 278.5 644.28 283.06 639.69 C283.72 639.02 284.38 638.35 285.06 637.66 C290.85 631.91 297.01 626.99 304.06 622.88 C305.31 622.14 305.31 622.14 306.59 621.39 C307.39 620.93 308.18 620.47 309 620 C309.72 619.58 310.45 619.16 311.19 618.73 C312.79 617.82 314.39 616.91 316 616 C314.71 611.84 313.14 608.09 311.12 604.23 C310.54 603.11 309.96 601.99 309.36 600.84 C308.72 599.62 308.08 598.4 307.44 597.19 C306.77 595.9 306.1 594.62 305.43 593.34 C304.38 591.31 303.32 589.29 302.27 587.27 C298.67 580.38 295.12 573.48 291.57 566.58 C289.78 563.09 287.98 559.61 286.19 556.12 C285.84 555.44 285.48 554.76 285.12 554.05 C281.59 547.2 278.04 540.35 274.5 533.5 C269.2 523.26 263.91 513.01 258.62 502.75 C258.09 501.72 258.09 501.72 257.55 500.67 C254.67 495.08 251.8 489.49 248.92 483.9 C246.4 479.01 243.89 474.13 241.38 469.25 C241.02 468.56 240.67 467.88 240.3 467.17 C234.77 456.42 229.22 445.69 223.66 434.95 C218.57 425.11 213.49 415.25 208.42 405.4 C203.45 395.76 198.48 386.13 193.5 376.5 C187.79 365.47 182.1 354.44 176.42 343.4 C171.45 333.76 166.48 324.13 161.5 314.5 C155.79 303.47 150.1 292.44 144.42 281.4 C139.45 271.76 134.48 262.13 129.5 252.5 C123.79 241.47 118.1 230.44 112.42 219.4 C107.45 209.76 102.48 200.13 97.5 190.5 C91.79 179.47 86.1 168.44 80.42 157.4 C75.45 147.76 70.48 138.13 65.5 128.5 C60.15 118.17 54.82 107.84 49.5 97.5 C42.29 83.49 35.06 69.5 27.82 55.51 C26.6 53.15 25.37 50.79 24.15 48.43 C22.33 44.91 20.51 41.39 18.69 37.88 C18.11 36.76 17.54 35.65 16.94 34.51 C14.31 29.42 11.66 24.35 8.97 19.3 C8.51 18.43 8.05 17.56 7.57 16.66 C6.72 15.08 5.87 13.49 5.02 11.91 C4.65 11.21 4.27 10.51 3.89 9.79 C3.57 9.2 3.25 8.61 2.92 8 C1.72 5.4 0.89 2.72 0 0 Z M68 42 C67.09 44.94 67.09 44.94 67.64 47.88 C68 48.53 68.36 49.18 68.73 49.84 C69.13 50.58 69.53 51.33 69.95 52.09 C70.39 52.88 70.84 53.68 71.3 54.5 C72.23 56.22 73.17 57.94 74.1 59.66 C74.58 60.55 75.07 61.43 75.56 62.34 C77.8 66.49 79.94 70.68 82.08 74.88 C82.93 76.54 83.78 78.21 84.63 79.88 C85.06 80.71 85.49 81.55 85.93 82.41 C88.22 86.9 90.51 91.38 92.8 95.86 C93.26 96.74 93.71 97.62 94.17 98.53 C99.51 108.96 104.91 119.37 110.32 129.76 C113.37 135.63 116.4 141.5 119.44 147.38 C120.07 148.6 120.7 149.82 121.33 151.04 C122.28 152.87 123.22 154.7 124.17 156.53 C126.34 160.73 128.51 164.92 130.68 169.12 C137.66 182.6 144.63 196.1 151.58 209.6 C156.54 219.24 161.52 228.87 166.5 238.5 C171.8 248.74 177.09 258.99 182.38 269.25 C182.73 269.94 183.08 270.62 183.45 271.33 C186.33 276.92 189.2 282.51 192.08 288.1 C194.6 292.99 197.11 297.87 199.62 302.75 C200.16 303.78 200.16 303.78 200.7 304.83 C205.6 314.35 210.51 323.87 215.44 333.38 C221.36 344.82 227.26 356.28 233.16 367.75 C238.26 377.67 243.37 387.59 248.5 397.5 C254.02 408.16 259.51 418.83 265 429.5 C271.11 441.39 277.24 453.28 283.39 465.15 C288.47 474.96 293.53 484.78 298.58 494.61 C303.52 504.2 308.48 513.79 313.44 523.38 C319 534.12 324.53 544.87 330.06 555.62 C335.93 567.05 341.82 578.46 347.74 589.86 C352.35 598.73 356.93 607.61 361.5 616.5 C367.83 628.8 374.18 641.08 380.55 653.35 C392.78 676.91 404.93 700.51 417.08 724.1 C419.6 728.99 422.11 733.87 424.62 738.75 C425.16 739.78 425.16 739.78 425.7 740.83 C430.6 750.35 435.51 759.87 440.44 769.38 C447.09 782.22 453.7 795.07 460.31 807.94 C460.88 809.04 460.88 809.04 461.46 810.16 C462.02 811.27 462.02 811.27 462.6 812.39 C468.34 823.55 474.08 834.7 479.83 845.85 C482.33 850.69 484.82 855.54 487.32 860.38 C488.75 863.17 490.19 865.96 491.62 868.75 C492.16 869.78 492.16 869.78 492.7 870.84 C497.56 880.27 502.43 889.7 507.31 899.12 C513.26 910.61 519.17 922.11 525.06 933.62 C531.36 945.91 537.66 958.19 544.03 970.43 C546.66 975.48 549.28 980.54 551.85 985.62 C553.13 988.14 554.41 990.66 555.7 993.18 C556.6 994.95 557.49 996.73 558.38 998.51 C558.93 999.58 559.48 1000.65 560.04 1001.75 C560.52 1002.69 560.99 1003.64 561.48 1004.61 C563.06 1007.1 564.54 1008.41 567 1010 C571.15 1003.8 575.25 997.57 579.31 991.31 C579.88 990.43 580.45 989.56 581.04 988.65 C588.04 977.86 594.98 967.04 601.88 956.19 C607.47 947.39 613.11 938.63 618.78 929.88 C625.14 920.07 631.42 910.21 637.68 900.34 C640.52 895.87 643.37 891.41 646.27 886.98 C646.78 886.21 647.28 885.44 647.8 884.65 C648.74 883.22 649.68 881.79 650.62 880.37 C654.77 874.43 654.77 874.43 655.76 867.49 C655.55 866.63 655.34 865.76 655.12 864.88 C653.93 859.15 653.74 853.83 654 848 C654.02 847.26 654.04 846.53 654.05 845.77 C654.8 833.77 660.24 823.99 669 816 C670.76 814.68 672.55 813.47 674.39 812.27 C676.32 810.75 677.49 809.08 678.88 807.06 C682.2 802.47 685.76 799.27 691 797 C693.45 796.7 695.91 796.43 698.38 796.19 C703.34 795.34 705.89 794.63 709.02 790.64 C711.48 787 713.6 783.19 715.69 779.34 C717.76 775.65 720.1 772.15 722.44 768.62 C726.34 762.61 730.18 756.56 734 750.5 C740.03 740.92 746.18 731.41 752.35 721.92 C758.28 712.79 764.15 703.63 769.94 694.42 C772.57 690.24 775.24 686.09 778 682 C777.34 680.68 776.68 679.36 776 678 C766.68 677.66 756.91 678.03 748 681 C739.57 681.67 732.16 679.08 725.6 673.79 C722.73 670.58 722.31 667.19 722 663 C721.93 662.22 721.86 661.44 721.79 660.63 C721.57 655.63 722.23 652.3 725 648 C725.64 646.99 726.28 645.98 726.94 644.94 C733.99 636.88 749.56 634.1 759.78 633.13 C760.51 633.09 761.24 633.05 762 633 C762.99 632.94 763.98 632.87 765 632.8 C776.59 632.41 787.45 634.95 798.31 638.81 C802.3 640.15 802.3 640.15 806 639 C807.39 637.47 807.39 637.47 808.45 635.49 C808.88 634.76 809.31 634.03 809.75 633.27 C810.21 632.48 810.66 631.69 811.12 630.88 C812.1 629.22 813.08 627.56 814.07 625.91 C814.56 625.08 815.05 624.25 815.56 623.39 C817.62 619.98 819.82 616.67 822.06 613.38 C825.42 608.41 828.66 603.4 831.81 598.31 C835.51 592.35 839.29 586.44 843.12 580.56 C848.1 572.94 853.03 565.29 857.94 557.62 C858.61 556.57 859.28 555.52 859.97 554.44 C863.25 549.32 866.52 544.19 869.78 539.05 C875.25 530.41 880.75 521.8 886.47 513.32 C889.73 508.46 892.82 503.51 895.9 498.53 C899.64 492.53 903.5 486.6 907.38 480.69 C912.56 472.76 917.68 464.8 922.72 456.78 C926.39 450.95 930.12 445.17 933.87 439.39 C937.17 434.31 940.4 429.19 943.62 424.06 C948.85 415.75 954.22 407.53 959.61 399.31 C964.75 391.47 969.83 383.58 974.82 375.63 C980.24 367 985.8 358.46 991.35 349.92 C996.54 341.94 1001.68 333.93 1006.75 325.88 C1011.22 318.77 1015.78 311.71 1020.38 304.69 C1027.06 294.48 1033.62 284.2 1040.16 273.9 C1050.14 258.2 1060.2 242.54 1070.34 226.94 C1075.61 218.83 1080.84 210.69 1086 202.5 C1091.59 193.62 1097.28 184.8 1103 176 C1109.04 166.69 1115.05 157.37 1121 148 C1125.13 141.51 1129.26 135.02 1133.44 128.56 C1133.86 127.91 1134.28 127.25 1134.72 126.57 C1137.45 122.33 1140.25 118.15 1143.09 113.98 C1143.79 112.94 1144.48 111.89 1145.21 110.82 C1146.59 108.76 1147.99 106.71 1149.4 104.66 C1150.34 103.26 1150.34 103.26 1151.3 101.82 C1151.87 100.99 1152.44 100.16 1153.02 99.3 C1153.35 98.54 1153.67 97.78 1154 97 C1153.11 94.87 1153.11 94.87 1152 93 C1135.33 92.18 1118.67 91.37 1102 90.56 C1101.34 90.53 1100.68 90.5 1099.99 90.46 C1060.44 88.54 1020.89 86.66 981.34 84.81 C980.34 84.76 979.34 84.71 978.31 84.67 C961.8 83.89 945.29 83.12 928.78 82.35 C876.67 79.92 824.55 77.47 772.45 74.89 C715.78 72.1 659.1 69.47 602.42 66.83 C546.33 64.22 490.23 61.61 434.15 58.83 C397.38 57.02 360.61 55.27 323.83 53.55 C322.66 53.5 321.49 53.45 320.29 53.39 C296.53 52.28 272.78 51.17 249.02 50.07 C237.87 49.56 226.72 49.04 215.57 48.52 C212.31 48.37 209.05 48.22 205.79 48.06 C183.25 47.02 160.72 45.95 138.18 44.81 C136.77 44.73 136.77 44.73 135.33 44.66 C126.48 44.21 117.64 43.76 108.79 43.3 C105.66 43.14 102.52 42.98 99.39 42.82 C97.97 42.74 96.54 42.67 95.12 42.59 C86.07 42.11 77.07 41.91 68 42 Z M314 672 C309.42 676.79 305.12 681.82 301 687 C300.34 687.81 299.68 688.62 299 689.46 C293.68 696.32 290.65 703.1 287.94 711.31 C287.52 712.54 287.11 713.77 286.68 715.03 C285.84 717.52 285.01 720.01 284.18 722.5 C283.12 725.64 281.99 728.74 280.81 731.84 C273.12 752.64 272.94 778.25 282.02 798.83 C282.67 800.22 283.33 801.61 284 803 C284.34 803.74 284.68 804.47 285.03 805.23 C291.01 818.11 301.8 823.31 314.45 828.74 C323.38 831.91 331.1 832.15 340.56 831.62 C341.76 831.57 342.96 831.51 344.2 831.45 C347.13 831.31 350.07 831.16 353 831 C353.05 830.11 353.1 829.21 353.15 828.29 C353.89 816.36 354.53 807.61 362 798 C362.44 797.43 362.88 796.87 363.33 796.28 C371.74 785.84 381.89 777.99 394.96 774.81 C395.63 774.54 396.31 774.27 397 774 C398.26 771.21 398.26 771.21 397.42 769.26 C397.08 768.62 396.75 767.98 396.41 767.32 C396.03 766.59 395.66 765.86 395.27 765.1 C394.85 764.3 394.43 763.51 394 762.69 C393.57 761.86 393.14 761.02 392.69 760.17 C391.29 757.44 389.86 754.72 388.44 752 C387.46 750.12 386.48 748.23 385.51 746.34 C383.11 741.71 380.7 737.08 378.28 732.46 C375.97 728.02 373.67 723.58 371.38 719.14 C369.75 716 368.11 712.86 366.48 709.71 C363.84 704.63 361.22 699.54 358.61 694.44 C357.85 692.95 357.09 691.46 356.32 689.97 C355.21 687.8 354.1 685.63 352.99 683.46 C350.69 678.96 348.37 674.47 346 670 C345.68 669.39 345.36 668.79 345.03 668.16 C344.12 666.44 343.19 664.73 342.25 663.03 C341.45 661.57 341.45 661.57 340.64 660.08 C340.1 659.39 339.56 658.71 339 658 C329.28 658 320.67 665.48 314 672 Z M813 694 C813.39 695 813.39 695 813.8 696.02 C814.11 700.57 811.79 703.11 809.25 706.75 C808.22 708.28 807.19 709.81 806.17 711.34 C805.37 712.5 805.37 712.5 804.56 713.69 C802.18 717.22 799.87 720.79 797.56 724.38 C796.89 725.41 796.89 725.41 796.2 726.47 C792.72 731.86 789.29 737.27 785.88 742.69 C785.37 743.48 784.87 744.27 784.36 745.09 C781.51 749.61 781.51 749.61 778.66 754.13 C777.45 756.07 776.22 758.01 775 759.94 C774.32 761.02 773.64 762.1 772.94 763.21 C771 766 771 766 769.06 767.75 C766.42 770.63 765.08 773.75 763.4 777.26 C760.55 782.84 756.88 787.93 753.38 793.12 C752.81 793.96 752.25 794.81 751.67 795.68 C751.16 796.44 750.64 797.2 750.11 797.98 C748.76 800.05 748.76 800.05 749 803 C750.19 803.48 751.37 803.97 752.59 804.47 C799.88 823.97 799.88 823.97 809.12 843.69 C811.1 848.67 812.49 853.87 814 859 C833.23 861.4 833.23 861.4 852.57 862.71 C857.65 862.91 857.65 862.91 860.01 863.52 C865.09 864.75 870.8 864.13 876.01 864.03 C877.68 864.01 879.35 864.01 881.02 864.02 C896.02 863.57 913.87 856.64 924.31 845.81 C931.52 837.02 933.99 828.81 933.43 817.61 C932.87 812.91 931.72 810.81 929 807 C928.48 805.58 928 804.14 927.56 802.69 C924.97 794.51 920.89 787.54 915.87 780.62 C913.89 777.85 912.08 775 910.25 772.12 C906.52 766.48 902.27 761.68 897.61 756.79 C895.84 754.9 894.13 752.95 892.48 750.96 C888.6 746.33 884.4 742.4 879.69 738.62 C876.45 736.02 873.28 733.37 870.18 730.61 C866.1 727.03 861.84 723.79 857.44 720.62 C856.26 719.78 856.26 719.78 855.07 718.92 C847.94 713.86 840.6 709.31 833 705 C832.29 704.6 831.59 704.19 830.86 703.78 C822.04 698.69 822.04 698.69 813 694 Z " fill="#1A5146" transform="translate(53,9)"/>
<path d="M0 0 C10.34 -0.09 20.67 -0.13 31 0.38 C32.1 0.42 32.1 0.42 33.22 0.47 C36.14 0.63 38.63 0.84 41.32 1.99 C44.48 3.18 47.14 3.38 50.51 3.55 C51.48 3.6 51.48 3.6 52.47 3.65 C54.65 3.77 56.83 3.87 59.02 3.97 C60.6 4.05 62.19 4.13 63.78 4.22 C69.19 4.49 74.59 4.75 80 5 C81.99 5.09 83.98 5.19 85.97 5.28 C102.71 6.08 119.45 6.84 136.19 7.59 C160.91 8.71 185.64 9.85 210.35 11.21 C240.8 12.88 271.27 14.31 301.74 15.7 C309.17 16.04 316.6 16.38 324.03 16.72 C337.37 17.34 350.71 17.95 364.05 18.56 C364.84 18.6 365.63 18.63 366.44 18.67 C374.41 19.04 382.37 19.4 390.34 19.76 C412.12 20.76 433.91 21.76 455.7 22.77 C457.99 22.87 460.28 22.98 462.56 23.08 C497.17 24.68 531.78 26.3 566.38 28.15 C598.11 29.85 629.85 31.32 661.59 32.78 C663.68 32.87 665.77 32.97 667.87 33.07 C689.24 34.05 710.62 35.02 732 36 C754.08 37.01 776.16 38.02 798.24 39.03 C800.31 39.12 802.38 39.22 804.45 39.32 C845.81 41.21 887.16 43.22 928.5 45.44 C939 46.01 949.5 46.52 960 47 C960 47.66 960 48.32 960 49 C960.66 49.33 961.32 49.66 962 50 C957.58 51.95 953.16 53.91 948.74 55.86 C947.25 56.52 945.75 57.18 944.26 57.84 C932.21 63.16 920.14 68.43 908.06 73.67 C904.96 75.02 901.87 76.36 898.77 77.71 C875.49 87.83 852.21 97.94 828.87 107.92 C816.12 113.37 803.39 118.88 790.67 124.41 C784.45 127.11 778.22 129.8 772 132.5 C769.51 133.58 767.02 134.66 764.54 135.73 C763.92 136 763.3 136.27 762.67 136.54 C758.82 138.21 754.98 139.87 751.14 141.54 C737.14 147.61 723.14 153.67 709.1 159.67 C686.38 169.39 663.67 179.15 641 189 C636.1 191.13 631.21 193.25 626.31 195.38 C625.4 195.77 625.4 195.77 624.46 196.18 C613.41 200.97 602.34 205.72 591.27 210.46 C576.78 216.66 562.32 222.91 547.87 229.19 C543.35 231.15 538.82 233.11 534.3 235.08 C531.76 236.18 529.22 237.28 526.68 238.38 C520.96 240.87 515.24 243.33 509.48 245.71 C508.5 246.12 507.51 246.53 506.49 246.96 C504.68 247.71 502.85 248.46 501.03 249.2 C499.84 249.69 499.84 249.69 498.64 250.2 C497.61 250.61 497.61 250.61 496.57 251.04 C494.65 251.99 494.65 251.99 494 255 C493.8 257.14 493.66 259.29 493.54 261.44 C493.5 262.09 493.47 262.74 493.43 263.42 C493.31 265.61 493.19 267.8 493.07 270 C492.99 271.57 492.9 273.15 492.81 274.73 C492.54 279.82 492.27 284.91 492 290 C491.96 290.82 491.91 291.64 491.87 292.48 C491.21 304.99 490.58 317.5 489.96 330.01 C489.81 333.12 489.65 336.24 489.5 339.36 C487.05 388.71 484.83 438.07 482.61 487.43 C482.5 489.82 482.39 492.21 482.28 494.59 C482.21 496.18 482.14 497.76 482.07 499.34 C482.04 500.12 482 500.89 481.96 501.69 C481.79 505.57 481.62 509.45 481.44 513.33 C480.73 529.29 480 545.24 479.2 561.19 C479.09 563.44 478.98 565.68 478.87 567.93 C478.79 569.39 478.72 570.85 478.65 572.31 C478.6 573.38 478.6 573.38 478.54 574.47 C478.37 577.94 478.19 581.42 478.01 584.9 C477.82 588.68 477.63 592.47 477.44 596.26 C477.35 597.92 477.35 597.92 477.26 599.62 C477.02 604.57 476.87 609.13 478 614 C468.56 610.53 463.13 604.18 457.42 596.15 C454.02 591.73 450.13 588.01 446.09 584.18 C444 582 444 582 444 580 C443.36 579.73 442.72 579.46 442.06 579.19 C440 578 440 578 439 575 C437.68 574.3 436.35 573.63 435 573 C431.13 568.95 428.11 564.7 425.06 560 C419.75 551.94 413.96 546.87 406.12 541.32 C402.46 538.6 398.97 535.71 395.5 532.75 C394.9 532.24 394.3 531.74 393.68 531.21 C385.97 524.57 385.97 524.57 385.19 518.81 C383.92 512.62 381.19 507.23 375.92 503.55 C367.92 499.58 359.32 500.2 351 503 C346.22 505.7 342.11 508.54 339.81 513.62 C337.95 521.37 336.94 529.43 340 537 C344.5 544.26 350.8 550.19 356.81 556.19 C357.32 556.69 357.82 557.2 358.34 557.72 C365.34 564.72 372.48 571.22 380.59 576.93 C386.62 581.2 391.07 586.2 394.94 592.5 C398.03 597.27 401.81 602.4 407 605 C407 605.66 407 606.32 407 607 C407.66 607 408.32 607 409 607 C410.48 608.5 410.48 608.5 412.19 610.56 C414.49 613.29 416.81 615.79 419.44 618.19 C422.43 621.1 424.24 624.1 426.25 627.75 C430.15 634.35 435.04 639.57 440.44 645 C441.24 645.81 442.04 646.63 442.86 647.46 C450.41 654.89 457.09 658.7 467.31 661.14 C468.05 661.32 468.79 661.5 469.55 661.68 C471.37 662.13 473.18 662.56 475 663 C472.29 722.68 472.29 722.68 472.12 726.36 C472.01 728.81 471.9 731.25 471.79 733.7 C471.51 739.77 471.23 745.84 470.96 751.92 C470.49 762.23 470.02 772.54 469.56 782.85 C469.38 786.91 469.2 790.97 469.02 795.02 C468.94 796.88 468.86 798.74 468.78 800.6 C468.44 808.4 468.1 816.21 467.57 824.01 C467.51 824.92 467.45 825.82 467.38 826.75 C467 829 467 829 465 832 C461.45 828.68 458.96 825.59 456.69 821.3 C456.09 820.19 455.5 819.07 454.89 817.93 C454.26 816.72 453.63 815.52 453 814.31 C452.34 813.06 451.68 811.81 451.01 810.56 C446.12 801.27 441.37 791.91 436.74 782.5 C433.25 775.42 429.61 768.43 425.92 761.45 C421.73 753.52 417.64 745.54 413.56 737.56 C411.38 733.31 409.21 729.06 407.03 724.8 C406.59 723.96 406.16 723.12 405.72 722.25 C401.95 714.9 398.17 707.57 394.38 700.25 C388.9 689.68 383.44 679.09 378 668.5 C371.89 656.61 365.76 644.72 359.61 632.85 C354.53 623.04 349.47 613.22 344.42 603.39 C339.48 593.8 334.52 584.21 329.56 574.62 C324.05 563.97 318.55 553.3 313.06 542.62 C307.55 531.89 302.03 521.16 296.5 510.44 C295.85 509.19 295.21 507.93 294.56 506.68 C290.81 499.39 287.02 492.12 283.19 484.88 C277.42 473.94 271.8 462.92 266.18 451.91 C261.08 441.92 255.94 431.95 250.7 422.04 C246.59 414.24 242.57 406.4 238.56 398.56 C236.39 394.31 234.21 390.07 232.04 385.83 C231.61 384.98 231.18 384.14 230.73 383.27 C225.12 372.33 219.47 361.41 213.81 350.49 C211.92 346.85 210.04 343.22 208.16 339.58 C200.49 324.72 200.49 324.72 192.75 309.88 C186.17 297.31 179.7 284.67 173.23 272.03 C167.25 260.33 161.23 248.63 155.17 236.96 C150.48 227.95 145.83 218.91 141.19 209.88 C140.81 209.14 140.43 208.4 140.04 207.64 C138.5 204.65 136.97 201.66 135.43 198.68 C124.88 178.15 114.31 157.64 103.7 137.15 C101.16 132.24 98.62 127.33 96.08 122.41 C88.35 107.45 80.59 92.5 72.67 77.63 C67.96 68.78 63.36 59.88 58.93 50.88 C58.26 49.53 57.58 48.19 56.88 46.86 C56.52 46.15 56.15 45.44 55.77 44.71 C55.44 44.07 55.1 43.43 54.75 42.77 C54 41 54 41 53.94 38.12 C55 36 55 36 57.56 34.69 C58.77 34.35 58.77 34.35 60 34 C57.76 31.52 55.59 30.11 52.6 28.64 C51.71 28.2 50.82 27.76 49.9 27.31 C48.94 26.84 47.98 26.37 47 25.89 C46 25.39 45.01 24.9 43.99 24.4 C40.81 22.82 37.62 21.25 34.44 19.69 C31.28 18.13 28.12 16.57 24.96 15.01 C23 14.04 21.04 13.07 19.07 12.11 C1.78 3.56 1.78 3.56 0 0 Z " fill="#F1FDB7" transform="translate(156,74)"/>
<path d="M0 0 C9.78 -0.09 19.5 0.17 29.27 0.67 C30.76 0.74 32.25 0.81 33.74 0.89 C36.97 1.04 40.19 1.2 43.41 1.36 C48.68 1.63 53.95 1.88 59.22 2.14 C66.92 2.52 74.62 2.9 82.32 3.28 C102.2 4.26 122.08 5.22 141.96 6.19 C145.29 6.35 148.61 6.51 151.93 6.68 C186.74 8.37 221.55 10.02 256.36 11.65 C257.53 11.7 258.7 11.76 259.9 11.81 C282.83 12.88 305.76 13.95 328.7 15.01 C340.39 15.55 352.08 16.1 363.77 16.64 C364.81 16.69 365.85 16.74 366.93 16.79 C399.29 18.29 431.65 19.86 464.02 21.45 C500.6 23.26 537.19 25.01 573.78 26.72 C575 26.78 576.22 26.83 577.48 26.89 C596.16 27.76 614.83 28.63 633.5 29.5 C653.41 30.43 673.31 31.35 693.22 32.28 C695.05 32.37 695.05 32.37 696.93 32.45 C733.1 34.14 769.28 35.88 805.45 37.67 C840.02 39.38 874.6 41.03 909.18 42.64 C910.34 42.69 911.5 42.75 912.7 42.8 C929.05 43.57 945.4 44.33 961.75 45.08 C978.49 45.86 995.23 46.64 1011.98 47.42 C1018.62 47.73 1025.26 48.04 1031.9 48.34 C1035.99 48.53 1040.08 48.72 1044.17 48.91 C1046.04 49 1047.92 49.09 1049.79 49.17 C1061.2 49.7 1072.6 50.3 1084 51 C1085.04 52.89 1085.04 52.89 1086 55 C1085.38 56.78 1085.38 56.78 1084.14 58.58 C1083.69 59.26 1083.24 59.94 1082.77 60.63 C1082.02 61.71 1082.02 61.71 1081.25 62.81 C1080.74 63.57 1080.24 64.32 1079.71 65.1 C1078.16 67.41 1076.58 69.7 1075 72 C1073.3 74.52 1071.62 77.04 1069.94 79.56 C1069.53 80.18 1069.11 80.79 1068.69 81.43 C1065.41 86.33 1062.28 91.31 1059.17 96.32 C1048.57 113.38 1037.61 130.22 1026.66 147.06 C1021.43 155.11 1016.24 163.18 1011.12 171.31 C1007.05 177.78 1002.93 184.22 998.75 190.62 C993.82 198.19 988.93 205.77 984.06 213.38 C983.39 214.43 982.72 215.48 982.03 216.56 C978.75 221.68 975.48 226.82 972.22 231.95 C966.75 240.59 961.25 249.2 955.53 257.68 C952.27 262.54 949.18 267.49 946.1 272.47 C942.36 278.47 938.5 284.4 934.62 290.31 C929.44 298.24 924.32 306.2 919.28 314.22 C915.61 320.05 911.88 325.83 908.13 331.61 C904.83 336.69 901.6 341.81 898.38 346.94 C893.15 355.25 887.78 363.47 882.39 371.69 C877.25 379.53 872.17 387.42 867.18 395.37 C861.76 404 856.2 412.54 850.65 421.08 C845.42 429.13 840.23 437.19 835.12 445.31 C827.68 457.14 820.04 468.85 812.37 480.53 C805.21 491.46 798.18 502.46 791.28 513.56 C787.46 519.71 783.54 525.78 779.48 531.78 C776.66 535.96 773.97 540.21 771.31 544.5 C767.18 551.17 762.92 557.75 758.62 564.31 C752.34 573.9 746.17 583.56 740.09 593.28 C739.08 594.87 738.04 596.44 737 598 C730.34 596.62 723.85 594.84 717.33 592.9 C704.31 589.38 691.14 591.09 678 593 C678.61 590.1 679.49 587.9 681.05 585.38 C681.47 584.68 681.9 583.98 682.34 583.27 C682.8 582.52 683.27 581.77 683.75 581 C684.24 580.21 684.72 579.42 685.22 578.61 C690.49 570.12 695.95 561.76 701.43 553.4 C703.84 549.71 706.23 546.01 708.62 542.31 C709.52 540.92 710.42 539.53 711.32 538.14 C711.77 537.45 712.21 536.77 712.66 536.07 C714.01 533.99 715.36 531.91 716.71 529.83 C721.48 522.48 726.21 515.11 730.88 507.69 C734.95 501.22 739.07 494.78 743.25 488.38 C750.91 476.63 758.45 464.82 766 453 C775.12 438.73 784.26 424.48 793.51 410.29 C796.79 405.24 800.06 400.18 803.33 395.12 C805.1 392.39 806.87 389.66 808.64 386.94 C814.41 378.04 820.12 369.1 825.81 360.15 C829.74 353.97 833.69 347.82 837.68 341.68 C841.81 335.31 845.91 328.9 850 322.5 C854.52 315.42 859.05 308.36 863.62 301.31 C867.75 294.96 871.82 288.58 875.88 282.19 C883.73 269.83 891.71 257.56 899.73 245.3 C906.14 235.5 912.5 225.68 918.73 215.77 C922.3 210.09 925.93 204.45 929.58 198.83 C933.71 192.47 937.79 186.08 941.88 179.69 C946.8 171.98 951.75 164.29 956.75 156.62 C961.39 149.52 965.95 142.37 970.46 135.18 C973.13 130.92 975.84 126.7 978.61 122.5 C979.2 121.6 979.8 120.69 980.42 119.75 C981.57 118 982.73 116.24 983.9 114.5 C984.42 113.7 984.94 112.91 985.48 112.1 C985.94 111.4 986.41 110.71 986.88 109.99 C988.01 107.99 988.56 106.24 989 104 C984.7 101.92 980.62 101.6 975.92 101.4 C975.14 101.36 974.37 101.32 973.58 101.28 C971.11 101.16 968.65 101.05 966.19 100.94 C963.74 100.82 961.28 100.7 958.83 100.58 C957.31 100.51 955.79 100.43 954.27 100.37 C949.47 100.14 944.76 99.65 940 99 C940 98.34 940 97.68 940 97 C958.26 88.82 976.59 80.83 995 73 C995 72.01 995 71.02 995 70 C993.13 70.02 993.13 70.02 991.22 70.04 C977.69 70.13 964.25 69.64 950.74 68.92 C948.48 68.81 946.21 68.69 943.95 68.57 C939.08 68.33 934.21 68.07 929.34 67.82 C916.59 67.15 903.85 66.51 891.1 65.86 C888.96 65.75 886.82 65.65 884.68 65.54 C851.64 63.86 818.59 62.31 785.53 60.78 C781.78 60.61 778.03 60.43 774.28 60.26 C755.36 59.38 736.44 58.5 717.52 57.63 C709.01 57.24 700.5 56.84 691.99 56.45 C691.22 56.42 690.45 56.38 689.65 56.34 C676.65 55.74 663.64 55.14 650.64 54.54 C643.47 54.2 636.3 53.87 629.13 53.54 C601.46 52.27 573.8 50.96 546.14 49.51 C517.04 47.98 487.94 46.61 458.84 45.27 C451.41 44.93 443.98 44.58 436.55 44.24 C423.23 43.62 409.92 43 396.61 42.38 C395.82 42.35 395.04 42.31 394.23 42.27 C388.65 42.02 383.08 41.76 377.5 41.5 C371.13 41.21 364.76 40.91 358.39 40.62 C357.61 40.58 356.82 40.54 356.01 40.51 C342.73 39.89 329.44 39.27 316.16 38.66 C308.78 38.32 301.41 37.97 294.03 37.63 C262.5 36.18 230.98 34.67 199.46 33.01 C177.56 31.86 155.66 30.85 133.75 29.88 C127.17 29.58 120.59 29.29 114.01 28.99 C111.46 28.87 108.91 28.76 106.36 28.65 C101.91 28.45 97.45 28.23 93 28 C91.98 27.95 91.98 27.95 90.94 27.9 C89.01 27.8 87.09 27.68 85.17 27.57 C83.55 27.48 83.55 27.48 81.91 27.38 C78.96 26.99 76.72 26.15 74 25 C71.29 24.7 68.66 24.49 65.94 24.38 C65.17 24.34 64.39 24.3 63.6 24.26 C54.4 23.85 45.2 23.93 36 24 C45.37 29.34 54.8 34.49 64.47 39.25 C65.34 39.67 66.21 40.1 67.11 40.54 C70.68 42.3 74.25 44.04 77.82 45.78 C80.48 47.07 83.13 48.38 85.79 49.68 C86.6 50.07 87.41 50.46 88.25 50.87 C88.99 51.24 89.74 51.6 90.5 51.98 C91.15 52.3 91.81 52.62 92.48 52.95 C94 54 94 54 95 57 C95.66 57.33 96.32 57.66 97 58 C94.69 58.66 92.38 59.32 90 60 C90.5 65.74 92.84 69.93 95.56 74.88 C96.48 76.58 97.4 78.29 98.32 79.99 C98.77 80.84 99.23 81.69 99.7 82.56 C101.54 86.01 103.27 89.5 105 93 C107.91 98.88 110.93 104.7 114 110.5 C116.96 116.09 119.88 121.7 122.69 127.38 C126.33 134.73 130.1 142.02 133.88 149.31 C139.6 160.36 145.31 171.43 151 182.5 C156.49 193.17 161.98 203.84 167.5 214.5 C172.98 225.07 178.43 235.66 183.88 246.25 C184.25 246.98 184.63 247.72 185.02 248.47 C186.54 251.44 188.07 254.41 189.59 257.38 C202.49 282.46 215.42 307.54 228.41 332.58 C235.36 345.96 242.27 359.35 249.16 372.76 C254.15 382.48 259.16 392.18 264.19 401.88 C264.75 402.96 265.32 404.05 265.9 405.17 C267.03 407.35 268.16 409.53 269.29 411.71 C276.57 425.74 283.84 439.77 291.04 453.84 C291.48 454.69 291.91 455.54 292.36 456.41 C294.5 460.59 296.64 464.76 298.77 468.94 C303.22 477.62 307.71 486.28 312.27 494.9 C317.15 504.16 321.91 513.48 326.68 522.8 C331.06 531.36 335.47 539.91 339.96 548.41 C344.67 557.34 349.28 566.31 353.87 575.3 C356.16 579.78 358.45 584.26 360.75 588.74 C361.2 589.63 361.65 590.52 362.12 591.43 C366.57 600.12 371.05 608.79 375.54 617.45 C380.21 626.46 384.86 635.48 389.5 644.5 C394.82 654.84 400.15 665.17 405.5 675.5 C412.97 689.93 420.41 704.37 427.84 718.81 C429.98 722.96 432.12 727.11 434.26 731.27 C434.78 732.29 434.78 732.29 435.32 733.33 C436.38 735.38 437.44 737.44 438.5 739.5 C442.41 747.1 446.33 754.69 450.24 762.29 C457.96 777.29 465.69 792.3 473.46 807.28 C476.33 812.84 479.2 818.39 482.06 823.96 C483.42 826.61 484.78 829.25 486.14 831.9 C486.79 833.15 487.43 834.41 488.07 835.66 C492.23 843.81 492.23 843.81 496.93 851.64 C499 855 499 855 499 858 C500.65 858.33 502.3 858.66 504 859 C509.33 852.77 513.53 845.99 517.75 838.99 C520.66 834.16 523.65 829.42 526.81 824.75 C530.88 818.73 534.8 812.64 538.69 806.5 C543.61 798.73 548.59 791.01 553.62 783.31 C558.73 775.51 563.76 767.67 568.73 759.78 C574.79 750.14 581 740.59 587.23 731.05 C592.21 723.41 597.19 715.76 602 708 C607.35 699.38 612.89 690.89 618.43 682.4 C620.73 678.88 623.02 675.35 625.31 671.81 C625.74 671.15 626.17 670.48 626.62 669.8 C629.43 665.46 632.22 661.1 635 656.73 C635.7 655.63 636.4 654.53 637.13 653.4 C638.5 651.23 639.88 649.07 641.26 646.9 C645.35 640.49 649.58 634.2 654 628 C654.49 628.43 654.97 628.86 655.47 629.3 C661.95 635 667.63 638.62 676.5 639.25 C680.26 638.98 683.39 638.04 687 637 C693.98 635.91 700.95 635.88 708 636 C709.29 637.53 709.29 637.53 710 640 C708.58 642.73 707.14 645.06 705.38 647.56 C704.33 649.1 703.3 650.64 702.26 652.18 C701.44 653.38 701.44 653.38 700.61 654.6 C698.07 658.38 695.66 662.25 693.25 666.12 C688.12 674.29 682.86 682.37 677.58 690.44 C673.08 697.32 668.66 704.25 664.28 711.21 C660.59 717.08 656.89 722.93 653.06 728.7 C650.68 732.31 648.46 735.93 646.39 739.73 C639.6 751.88 639.6 751.88 634.29 753.52 C631.71 753.96 629.12 754.31 626.52 754.57 C620.3 755.33 616.14 758.43 612.18 763.18 C611.02 764.72 609.88 766.28 608.75 767.84 C606.98 770.02 605.28 771.45 603 773.06 C593.62 779.74 588.9 788.18 586.47 799.45 C586.18 801.65 586.05 803.78 586 806 C585.96 806.84 585.92 807.68 585.88 808.54 C585.75 813.69 586.25 818.09 587.46 823.09 C588.75 831.31 585.51 835.77 580.81 842.25 C579.69 843.9 578.56 845.55 577.43 847.21 C576.32 848.83 575.19 850.44 574.06 852.05 C571.41 855.84 568.92 859.72 566.44 863.62 C563.42 868.29 560.39 872.94 557.34 877.59 C550.89 887.46 544.48 897.35 538.26 907.37 C534.94 912.72 531.51 918.01 528.09 923.31 C526.31 926.08 524.53 928.85 522.75 931.62 C518.96 937.53 515.14 943.42 511.31 949.31 C510.78 950.14 510.24 950.96 509.69 951.81 C506.17 957.23 502.6 962.63 499 968 C495.13 964.45 492.61 960.95 490.28 956.23 C489.77 955.23 489.77 955.23 489.25 954.22 C488.14 952.02 487.04 949.82 485.94 947.62 C485.15 946.07 484.36 944.51 483.57 942.96 C481.9 939.67 480.23 936.38 478.57 933.08 C474.76 925.53 470.89 918.01 467.03 910.49 C465.74 907.99 464.46 905.49 463.18 902.99 C457.94 892.77 452.67 882.55 447.37 872.36 C442.21 862.42 437.1 852.46 432 842.5 C425.77 830.34 419.52 818.19 413.22 806.06 C408.52 797.01 403.85 787.95 399.19 778.88 C398.62 777.77 398.62 777.77 398.04 776.64 C396.5 773.64 394.96 770.65 393.42 767.66 C389.43 759.89 385.44 752.13 381.44 744.38 C380.92 743.36 380.92 743.36 380.38 742.33 C378.98 739.6 377.58 736.88 376.17 734.15 C373.67 729.31 371.18 724.46 368.68 719.62 C361.99 706.61 355.29 693.61 348.56 680.62 C343.02 669.93 337.51 659.22 332 648.5 C324.63 634.16 317.24 619.84 309.83 605.53 C306.72 599.52 303.61 593.51 300.5 587.5 C299.25 585.08 297.99 582.66 296.74 580.23 C296.28 579.34 296.28 579.34 295.8 578.42 C293.64 574.24 291.48 570.07 289.32 565.89 C282.31 552.36 275.32 538.81 268.35 525.26 C263.6 516.04 258.84 506.83 254.06 497.62 C248.31 486.55 242.6 475.46 236.9 464.37 C231.16 453.19 225.39 442.02 219.61 430.85 C214.53 421.04 209.47 411.22 204.42 401.39 C199.48 391.8 194.52 382.21 189.56 372.62 C183.64 361.18 177.74 349.72 171.84 338.25 C166.74 328.33 161.63 318.41 156.5 308.5 C150.59 297.09 144.71 285.67 138.84 274.25 C133.74 264.33 128.63 254.41 123.5 244.5 C117.98 233.84 112.49 223.17 107 212.5 C100.89 200.61 94.76 188.72 88.61 176.85 C83.9 167.74 79.2 158.62 74.5 149.5 C67.3 135.51 60.08 121.53 52.84 107.56 C49.41 100.94 45.99 94.31 42.56 87.68 C41.62 85.87 40.68 84.05 39.74 82.23 C39.43 81.64 39.12 81.04 38.8 80.42 C36.64 76.24 34.48 72.07 32.32 67.89 C31.4 66.11 30.47 64.32 29.55 62.54 C28.63 60.76 27.71 58.98 26.79 57.2 C23.33 50.52 19.89 43.84 16.45 37.16 C15.68 35.66 14.91 34.16 14.14 32.66 C12.67 29.79 11.19 26.92 9.72 24.05 C9.04 22.73 8.36 21.4 7.68 20.08 C7.36 19.45 7.04 18.82 6.71 18.18 C4.54 13.96 2.22 9.85 -0.28 5.82 C-1.19 3.51 -0.68 2.34 0 0 Z " fill="#89ECA0" transform="translate(121,51)"/>
<path d="M0 0 C10.34 -0.09 20.67 -0.13 31 0.38 C32.1 0.42 32.1 0.42 33.22 0.47 C36.14 0.63 38.63 0.84 41.32 1.99 C44.48 3.18 47.14 3.38 50.51 3.55 C51.48 3.6 51.48 3.6 52.47 3.65 C54.65 3.77 56.83 3.87 59.02 3.97 C60.6 4.05 62.19 4.13 63.78 4.22 C69.19 4.49 74.59 4.75 80 5 C81.99 5.09 83.98 5.19 85.97 5.28 C102.71 6.08 119.45 6.84 136.19 7.59 C160.91 8.71 185.64 9.85 210.35 11.21 C240.8 12.88 271.27 14.31 301.74 15.7 C309.17 16.04 316.6 16.38 324.03 16.72 C337.37 17.34 350.71 17.95 364.05 18.56 C364.84 18.6 365.63 18.63 366.44 18.67 C374.41 19.04 382.37 19.4 390.34 19.76 C412.12 20.76 433.91 21.76 455.7 22.77 C457.99 22.87 460.28 22.98 462.56 23.08 C497.17 24.68 531.78 26.3 566.38 28.15 C598.11 29.85 629.85 31.32 661.59 32.78 C663.68 32.87 665.77 32.97 667.87 33.07 C689.24 34.05 710.62 35.02 732 36 C754.08 37.01 776.16 38.02 798.24 39.03 C800.31 39.12 802.38 39.22 804.45 39.32 C845.81 41.21 887.16 43.22 928.5 45.44 C939 46.01 949.5 46.52 960 47 C960 47.66 960 48.32 960 49 C960.66 49.33 961.32 49.66 962 50 C957.58 51.95 953.16 53.91 948.74 55.86 C947.25 56.52 945.75 57.18 944.26 57.84 C932.21 63.16 920.14 68.43 908.06 73.67 C904.96 75.02 901.87 76.36 898.77 77.71 C875.49 87.83 852.21 97.94 828.87 107.92 C816.12 113.37 803.39 118.88 790.67 124.41 C784.45 127.11 778.22 129.8 772 132.5 C769.51 133.58 767.02 134.66 764.54 135.73 C763.92 136 763.3 136.27 762.67 136.54 C758.82 138.21 754.98 139.87 751.14 141.54 C737.14 147.61 723.14 153.67 709.1 159.67 C686.38 169.39 663.67 179.15 641 189 C636.1 191.13 631.21 193.25 626.31 195.38 C625.4 195.77 625.4 195.77 624.46 196.18 C613.41 200.97 602.34 205.72 591.27 210.46 C581.06 214.82 570.87 219.21 560.69 223.62 C559.48 224.15 558.27 224.67 557.02 225.22 C552.04 227.37 547.07 229.54 542.09 231.7 C540.77 232.27 539.45 232.84 538.13 233.42 C537.48 233.7 536.83 233.98 536.16 234.28 C530.55 236.71 524.94 239.13 519.33 241.55 C516.25 242.89 513.18 244.24 510.11 245.59 C508.4 246.33 506.7 247.07 505 247.81 C504.26 248.14 503.52 248.48 502.76 248.82 C498.63 250.59 495.46 251.71 491 251 C487.78 249.68 484.79 248 481.75 246.31 C479.71 245.21 477.67 244.12 475.62 243.03 C474.77 242.57 474.77 242.57 473.9 242.1 C464.07 236.87 454.05 232 444.07 227.05 C433.06 221.58 422.12 216 411.25 210.25 C405.89 207.41 400.49 204.65 395.06 201.94 C394.13 201.47 393.2 201 392.24 200.51 C391.35 200.06 390.46 199.61 389.54 199.15 C388.76 198.76 387.98 198.37 387.17 197.96 C385.05 196.93 385.05 196.93 382.84 196.55 C381 196 381 196 379.04 192.98 C378.36 191.72 377.71 190.46 377.06 189.19 C374.06 183.31 371.32 179.49 365.06 176.69 C359.22 175.2 352.92 176.45 347 177 C342.95 177 341.33 175.27 338 173 C335.64 171.75 333.28 170.54 330.88 169.38 C329.45 168.67 328.03 167.97 326.61 167.27 C325.86 166.9 325.11 166.53 324.34 166.15 C320.29 164.16 316.25 162.14 312.21 160.12 C310.51 159.28 308.81 158.43 307.11 157.58 C306.26 157.15 305.4 156.73 304.53 156.29 C302.8 155.43 301.07 154.57 299.34 153.71 C290.31 149.21 281.31 144.68 272.43 139.89 C266.11 136.5 259.7 133.31 253.27 130.13 C248.97 127.99 244.67 125.84 240.38 123.69 C238.49 122.75 236.61 121.81 234.73 120.87 C230.91 118.96 227.09 117.04 223.27 115.13 C222.33 114.66 221.39 114.2 220.43 113.71 C218.57 112.79 216.71 111.85 214.85 110.92 C210.73 108.87 206.62 106.81 202.5 104.76 C194.5 100.77 186.54 96.71 178.62 92.56 C167.24 86.63 155.78 80.87 144.29 75.15 C135.19 70.62 126.13 66.03 117.15 61.25 C110.54 57.74 103.85 54.39 97.14 51.06 C93.09 49.05 89.05 47.02 85 45 C82.61 43.81 80.23 42.61 77.84 41.42 C75.78 40.39 73.73 39.36 71.67 38.33 C64.58 34.78 57.48 31.24 50.38 27.71 C46.19 25.64 42.01 23.55 37.83 21.47 C35.68 20.4 33.53 19.33 31.38 18.27 C28.22 16.7 25.07 15.13 21.91 13.55 C20.97 13.09 20.02 12.62 19.04 12.13 C1.74 3.49 1.74 3.49 0 0 Z " fill="#F6FCF7" transform="translate(156,74)"/>
<path d="M0 0 C9.87 -0.34 18.59 1.48 28 4.2 C28.74 4.41 29.48 4.62 30.25 4.84 C44.41 9.03 57.42 15.04 69.88 22.97 C72.18 24.3 74.53 25.21 77 26.2 C78.58 27.08 80.14 28 81.68 28.95 C82.99 29.74 82.99 29.74 84.32 30.55 C85.2 31.09 86.09 31.64 87 32.2 C88.68 33.22 90.37 34.24 92.06 35.26 C92.89 35.76 93.72 36.26 94.57 36.77 C96.81 38.09 99.08 39.3 101.37 40.51 C107.34 43.8 112.62 48.03 118 52.2 C119.06 53.01 120.13 53.83 121.2 54.65 C123.36 56.31 125.52 57.97 127.68 59.64 C129.95 61.4 132.24 63.14 134.53 64.88 C135.11 65.32 135.69 65.76 136.29 66.21 C137.9 67.43 139.51 68.65 141.12 69.87 C144.94 72.96 148.23 76.24 151.31 80.07 C153.92 83.28 156.96 85.87 160.09 88.55 C165.82 93.49 170.39 99.23 175 105.2 C175.43 105.76 175.87 106.32 176.32 106.9 C180.68 112.61 184.64 118.56 188.56 124.57 C189.21 125.55 189.85 126.52 190.52 127.53 C194.47 133.57 197.94 139.66 201 146.2 C201.48 147.23 201.97 148.27 202.47 149.33 C203.65 151.95 204.82 154.57 206 157.2 C206.51 158.29 207.03 159.38 207.56 160.51 C214.91 179.37 216.38 197.32 208.68 216.32 C207.81 218.29 206.91 220.25 206 222.2 C205.53 223.22 205.07 224.24 204.59 225.29 C193.2 249.31 173.35 262.47 149 271.2 C146.37 272.02 143.74 272.8 141.1 273.54 C138.78 274.2 138.78 274.2 135.93 275.76 C129.06 279.12 121.79 279.53 114.25 279.45 C112.88 279.44 112.88 279.44 111.48 279.43 C104.44 279.33 97.51 278.8 90.51 278.05 C82.62 277.2 74.73 276.73 66.81 276.26 C56.85 275.65 47.16 274.69 37.37 272.78 C33.19 272.04 33.19 272.04 29 272.2 C27.43 273.49 27.43 273.49 26.25 275.32 C18.34 285.52 4.42 290.53 -8 292.2 C-15.45 292.86 -22.91 292.92 -30.38 292.95 C-31.32 292.95 -32.27 292.96 -33.25 292.97 C-45.78 293.05 -56.27 291.73 -68 287.2 C-69.19 286.75 -70.38 286.31 -71.61 285.86 C-77.1 283.79 -81.42 281.93 -85 277.2 C-85 276.54 -85 275.88 -85 275.2 C-85.99 274.87 -86.98 274.54 -88 274.2 C-94.39 268.3 -98.67 261.65 -103 254.2 C-103.69 253.06 -103.69 253.06 -104.39 251.9 C-111.02 240.65 -112.39 229.05 -112 216.2 C-111.99 215.45 -111.97 214.71 -111.95 213.95 C-111.18 201.96 -105.77 192.19 -97 184.2 C-95.25 182.88 -93.46 181.66 -91.61 180.46 C-89.68 178.94 -88.48 177.27 -87.07 175.26 C-82.96 169.44 -77.73 165.53 -71 163.2 C-69.06 163.03 -67.11 162.89 -65.16 162.76 C-61.43 162.17 -59.54 161.72 -56.8 159.06 C-54.81 156.17 -53.11 153.23 -51.44 150.13 C-50.17 147.94 -48.9 145.75 -47.62 143.55 C-47.01 142.47 -46.4 141.39 -45.77 140.28 C-43.34 136.04 -40.7 131.96 -38 127.88 C-37.12 126.52 -36.23 125.16 -35.35 123.8 C-34.74 122.87 -34.74 122.87 -34.12 121.92 C-32.57 119.52 -31.03 117.11 -29.5 114.7 C-26.61 110.14 -23.69 105.6 -20.75 101.07 C-20.05 99.98 -20.05 99.98 -19.33 98.87 C-16.98 95.24 -14.63 91.62 -12.27 87.99 C-6.81 79.57 -1.4 71.12 3.94 62.61 C4.41 61.86 4.88 61.11 5.37 60.34 C5.81 59.63 6.26 58.92 6.71 58.19 C7.89 56.36 9.14 54.6 10.41 52.83 C10.93 51.96 11.46 51.09 12 50.2 C11.67 49.21 11.34 48.22 11 47.2 C1.67 46.85 -8.09 47.23 -17 50.2 C-26.04 50.92 -33.28 47.93 -40.18 42.21 C-43.22 38.85 -43.74 35.62 -44 31.2 C-44.07 30.42 -44.14 29.64 -44.21 28.83 C-44.44 23.82 -43.8 20.49 -41 16.2 C-40.64 15.62 -40.27 15.04 -39.89 14.45 C-32.72 4.62 -18.42 2.51 -7.13 0.51 C-4.76 0.28 -2.38 0.15 0 0 Z M48 62.2 C48.39 63.19 48.39 63.19 48.79 64.21 C49.1 68.76 46.79 71.3 44.25 74.95 C43.22 76.47 42.19 78 41.16 79.53 C40.37 80.7 40.37 80.7 39.56 81.89 C37.17 85.41 34.87 88.99 32.56 92.57 C31.89 93.61 31.89 93.61 31.2 94.67 C27.72 100.05 24.29 105.46 20.87 110.88 C20.37 111.68 19.87 112.47 19.35 113.29 C16.5 117.81 16.5 117.81 13.66 122.33 C12.44 124.27 11.22 126.2 10 128.13 C9.32 129.21 8.63 130.3 7.93 131.41 C6 134.2 6 134.2 4.06 135.95 C1.42 138.83 0.08 141.95 -1.6 145.45 C-4.45 151.03 -8.12 156.13 -11.63 161.31 C-12.19 162.16 -12.75 163.01 -13.34 163.88 C-13.85 164.64 -14.36 165.4 -14.89 166.18 C-16.25 168.25 -16.25 168.25 -16 171.2 C-14.82 171.68 -13.63 172.16 -12.41 172.66 C34.88 192.17 34.88 192.17 44.12 211.88 C46.09 216.86 47.48 222.06 49 227.2 C68.23 229.6 68.23 229.6 87.56 230.9 C92.65 231.11 92.65 231.11 95 231.71 C100.09 232.95 105.8 232.33 111.01 232.23 C112.68 232.2 114.34 232.2 116.01 232.21 C131.02 231.76 148.87 224.83 159.31 214.01 C166.51 205.21 168.98 197 168.43 185.8 C167.87 181.1 166.72 179.01 164 175.2 C163.47 173.77 163 172.33 162.56 170.88 C159.97 162.71 155.89 155.73 150.87 148.82 C148.89 146.05 147.08 143.19 145.25 140.32 C141.51 134.67 137.26 129.87 132.61 124.98 C130.84 123.1 129.13 121.15 127.48 119.16 C123.59 114.52 119.39 110.6 114.68 106.82 C111.44 104.22 108.28 101.57 105.18 98.8 C101.1 95.22 96.84 91.98 92.43 88.82 C91.26 87.98 91.26 87.98 90.06 87.12 C82.94 82.05 75.59 77.51 68 73.2 C67.29 72.79 66.59 72.39 65.86 71.98 C57.04 66.88 57.04 66.88 48 62.2 Z " fill="#000100" transform="translate(818.00390625,640.8046875)"/>
<path d="M0 0 C3.22 1.48 3.98 3.88 5.55 7 C5.87 7.62 6.18 8.23 6.51 8.87 C7.51 10.84 8.5 12.83 9.49 14.82 C10.15 16.12 10.81 17.42 11.48 18.72 C15.2 26.04 18.74 33.43 22.05 40.94 C20.76 41.35 20.76 41.35 19.44 41.76 C5.09 46.41 -3.91 56.23 -12.95 67.94 C-14.02 69.18 -15.1 70.41 -16.2 71.63 C-21.4 77.7 -24.69 84.13 -27.17 91.69 C-27.58 92.9 -27.58 92.9 -28 94.14 C-28.87 96.69 -29.72 99.26 -30.57 101.82 C-31.15 103.53 -31.73 105.24 -32.3 106.95 C-33.65 110.94 -34.98 114.94 -36.29 118.95 C-36.84 120.62 -37.41 122.29 -38 123.95 C-40.1 130.24 -40.45 136.15 -40.38 142.76 C-40.38 143.84 -40.37 144.92 -40.36 146.03 C-40.1 159.99 -38.05 173.33 -31.95 185.94 C-31.28 187.36 -30.61 188.78 -29.95 190.19 C-24.18 202.23 -10.9 207.7 1.05 211.94 C8.45 214.28 15.44 214.01 23.12 213.57 C24.27 213.51 25.42 213.46 26.61 213.4 C29.42 213.26 32.24 213.11 35.05 212.94 C35.11 212.05 35.17 211.15 35.22 210.23 C36.4 192.11 41.69 181.35 55.05 168.94 C62.39 162.98 68.56 158.84 78.02 157.44 C79.02 157.19 79.02 157.19 80.05 156.94 C80.38 156.28 80.71 155.62 81.05 154.94 C86.93 165.27 92.54 175.69 97.77 186.36 C101.09 193.1 104.57 199.75 108.08 206.39 C112.8 215.33 117.4 224.32 121.99 233.32 C130.91 250.78 130.91 250.78 140.07 268.11 C140.46 268.84 140.85 269.58 141.25 270.33 C141.58 270.94 141.91 271.55 142.25 272.18 C143.11 274.08 143.61 275.91 144.05 277.94 C136.33 284.8 125.93 285.53 115.92 285.3 C108.93 284.65 102.17 283.05 95.34 281.46 C93.23 280.99 91.13 280.57 89 280.19 C59.14 274.79 59.14 274.79 52.48 265.83 C48.44 262.69 43.84 263.4 38.87 263.38 C9.07 262.71 -27.6 257.92 -50.61 236.46 C-53.18 233.69 -55.65 230.87 -58.1 228.01 C-59.48 226.47 -60.92 225 -62.41 223.57 C-65.02 220.87 -67.01 218.14 -69.07 215.01 C-69.73 214.01 -70.4 213.01 -71.08 211.98 C-73.65 207.8 -75.76 204.27 -76.45 199.38 C-76.7 195.99 -76.7 195.99 -78.38 193.69 C-80.37 190.2 -80.78 186.98 -81.41 183.04 C-82.15 178.78 -83.16 174.59 -84.16 170.38 C-84.42 169.25 -84.68 168.11 -84.95 166.94 C-85.12 166.25 -85.3 165.55 -85.48 164.83 C-87.19 157.37 -87.24 150.07 -87.2 142.44 C-87.2 141.19 -87.21 139.94 -87.22 138.64 C-87.19 126.44 -84.64 116.44 -80.7 104.94 C-79.88 102.54 -79.06 100.14 -78.25 97.74 C-77.85 96.58 -77.45 95.42 -77.05 94.22 C-76.1 91.39 -75.18 88.56 -74.3 85.71 C-71.59 77.02 -68.3 69.19 -63.78 61.28 C-61.87 57.95 -61.87 57.95 -60.43 54.28 C-59.01 51.1 -57.7 49.19 -55.32 46.69 C-52.37 43.52 -49.62 40.3 -46.95 36.88 C-42.86 31.85 -38.45 27.23 -33.88 22.63 C-33.22 21.96 -32.56 21.29 -31.88 20.6 C-24.66 13.43 -16.77 7.98 -7.95 2.94 C-6.83 2.31 -5.72 1.67 -4.57 1.01 C-1.95 -0.06 -1.95 -0.06 0 0 Z " fill="#000100" transform="translate(369.945556640625,626.05517578125)"/>
<path d="M0 0 C1.32 0 2.64 0 4 0 C6.38 9.29 8.63 18.59 10.6 27.97 C11.43 31.83 12.5 35.36 14 39 C14.4 40.7 14.75 42.41 15.06 44.12 C15.57 46.87 16.11 49.34 17 52 C17.13 53.56 17.23 55.12 17.31 56.69 C17.78 62.32 19.05 67.64 20.49 73.09 C21.51 76.96 22.34 80.79 22.94 84.75 C24.13 91.76 27.16 98.05 30.14 104.45 C32.9 110.69 33.82 116.75 34.51 123.48 C34.98 126.89 35.86 129.77 37 133 C37.36 134.66 37.7 136.33 38 138 C38.53 140.78 39.1 143.31 40 146 C41.19 149.57 41.86 153.13 42.54 156.83 C42.91 159.03 42.91 159.03 44 161 C51.22 160.76 56.29 158.7 62.69 155.38 C68.9 152.8 75.63 152.83 82.28 152.76 C83.43 152.75 83.43 152.75 84.61 152.74 C86.23 152.72 87.86 152.71 89.48 152.7 C91.1 152.69 92.73 152.67 94.35 152.64 C110.1 152.36 123.83 155.24 138.69 160.5 C144.45 162.5 150.13 164.33 156.06 165.75 C167.06 168.77 183.84 176.07 190.32 186.03 C190.59 186.66 190.85 187.29 191.12 187.94 C192.21 190.46 193.31 192.43 194.92 194.68 C197.44 198.7 198.74 202.68 200.12 207.19 C200.62 208.79 201.13 210.38 201.63 211.98 C201.85 212.68 202.06 213.38 202.29 214.1 C203.02 216.28 203.02 216.28 205 219 C206.83 226.92 206.41 235.44 202.59 242.67 C196.67 251.59 190.42 257.35 180 260 C176.67 260.4 173.38 260.44 170.02 260.43 C169.1 260.44 168.17 260.44 167.21 260.45 C165.26 260.46 163.3 260.45 161.35 260.45 C158.4 260.44 155.46 260.47 152.52 260.5 C138.5 260.55 127.32 258.45 114.19 253.44 C108.08 251.17 102.16 250.06 95.75 249.09 C84.15 247.31 73.37 243.95 62.56 239.43 C59.34 238.14 56.14 237.07 52.81 236.06 C42.48 232.67 33.1 227.26 27 218 C27 217.01 27 216.02 27 215 C25.74 214.86 24.48 214.71 23.19 214.56 C16.48 213.05 11.62 208.95 7 204 C4.4 199.65 3.94 196.14 4.22 191.1 C4.28 184.36 1.8 178.25 -0.31 171.94 C-3.33 162.69 -6.03 153.61 -7.46 143.97 C-7.88 141.06 -7.88 141.06 -8.94 138.72 C-9.92 136.2 -10.42 134 -10.91 131.36 C-11.96 125.82 -13.65 120.62 -15.5 115.31 C-16.12 113.52 -16.73 111.72 -17.34 109.93 C-17.63 109.08 -17.92 108.24 -18.22 107.37 C-18.9 105.29 -19.54 103.21 -20.13 101.1 C-20.8 98.7 -21.56 96.44 -22.44 94.12 C-24.66 87.59 -25.53 80.75 -26.66 73.96 C-27.1 71.44 -27.64 68.94 -28.19 66.44 C-29.06 62.22 -29.16 58.3 -29 54 C-29.66 54 -30.32 54 -31 54 C-30.6 47.8 -28.56 44.12 -25.06 39.06 C-24.05 37.56 -23.05 36.05 -22.04 34.55 C-21.53 33.79 -21.02 33.03 -20.5 32.25 C-18.21 28.82 -16.04 25.32 -13.88 21.81 C-13.06 20.51 -12.24 19.2 -11.42 17.89 C-9.76 15.24 -8.13 12.57 -6.52 9.89 C-5.72 8.59 -4.92 7.3 -4.12 6 C-3.77 5.39 -3.41 4.79 -3.04 4.16 C-2.01 2.5 -2.01 2.5 0 0 Z " fill="#000100" transform="translate(708,953)"/>
<path d="M0 0 C3.99 1.48 5.07 3.45 6.88 7.21 C7.4 8.28 7.93 9.35 8.46 10.45 C9.01 11.6 9.56 12.75 10.12 13.94 C11 15.73 11.87 17.53 12.75 19.32 C13.63 21.11 14.5 22.9 15.37 24.69 C17.5 29.02 19.73 33.3 22 37.56 C22.39 38.3 22.77 39.03 23.17 39.78 C25.58 44.34 28.02 48.88 30.47 53.41 C31.67 55.65 32.87 57.89 34.06 60.12 C34.64 61.17 35.21 62.21 35.8 63.29 C36.33 64.29 36.86 65.29 37.41 66.32 C37.89 67.2 38.36 68.08 38.85 68.98 C41.56 76.09 41.09 83.63 40.73 91.12 C40.67 92.52 40.67 92.52 40.61 93.96 C40.52 95.93 40.43 97.9 40.33 99.87 C40.19 102.86 40.06 105.85 39.94 108.83 C39.12 127.04 39.12 127.04 37 136 C34.17 148.87 33.78 161.71 33.57 174.85 C33.3 184.61 32.94 195.94 26.12 203.56 C25.47 204.33 24.81 205.09 24.13 205.88 C21.88 208.12 19.48 210.03 17 212 C15.66 213.66 14.33 215.33 13 217 C6.74 223.03 -2.91 222.29 -11 222.44 C-20.02 222.7 -28.92 223.26 -37.88 224.38 C-38.82 224.49 -39.76 224.6 -40.73 224.72 C-45.53 225.36 -50.12 226.25 -54.8 227.5 C-61.58 229.27 -68.35 229.93 -75.31 230.56 C-82.47 231.22 -89.09 231.98 -96 234 C-101.26 234.78 -106.55 235.29 -111.84 235.86 C-112.91 235.98 -113.99 236.1 -115.09 236.22 C-116.06 236.32 -117.03 236.42 -118.02 236.53 C-121.07 236.93 -121.07 236.93 -124.18 238.03 C-129.2 239.3 -133.93 239.31 -139.09 239.3 C-140.14 239.31 -141.2 239.31 -142.29 239.31 C-144.51 239.32 -146.74 239.32 -148.97 239.32 C-152.36 239.31 -155.74 239.34 -159.13 239.36 C-161.3 239.36 -163.48 239.36 -165.65 239.36 C-167.15 239.38 -167.15 239.38 -168.69 239.39 C-178.04 239.33 -185.16 237.53 -192.01 231.03 C-192.67 230.36 -193.32 229.69 -194 229 C-194.74 228.26 -195.48 227.52 -196.24 226.75 C-203.38 219.22 -203.32 212.84 -203.13 202.68 C-202.75 191.98 -199.24 186.94 -192 179 C-191.48 178.36 -190.95 177.72 -190.41 177.06 C-182.33 167.82 -168.06 161.01 -156 160 C-151.85 159.85 -147.71 159.84 -143.56 159.84 C-142.34 159.83 -141.11 159.83 -139.85 159.82 C-136.5 159.81 -133.15 159.8 -129.8 159.8 C-127.7 159.8 -125.61 159.79 -123.51 159.79 C-116.92 159.77 -110.33 159.76 -103.74 159.76 C-96.18 159.76 -88.61 159.74 -81.05 159.71 C-75.18 159.69 -69.3 159.68 -63.43 159.68 C-59.93 159.68 -56.44 159.67 -52.94 159.65 C-49.03 159.63 -45.12 159.64 -41.21 159.64 C-40.08 159.63 -38.94 159.63 -37.78 159.62 C-29.55 159.66 -21.97 161.02 -14 163 C-13.85 161.2 -13.85 161.2 -13.7 159.37 C-13.55 157.73 -13.4 156.08 -13.25 154.44 C-13.19 153.66 -13.13 152.88 -13.06 152.07 C-12.57 146.9 -11.51 142.24 -10 137.27 C-7.05 127.14 -7.12 116.73 -6.81 106.25 C-6.71 103.24 -6.61 100.24 -6.5 97.23 C-6.43 95.37 -6.37 93.52 -6.32 91.66 C-6.28 90.42 -6.28 90.42 -6.23 89.14 C-6.21 88.41 -6.19 87.68 -6.17 86.93 C-6 85 -6 85 -5 82 C-2.83 68.2 -2.63 54.27 -2.34 40.33 C-2.06 27.19 -1.63 14.05 0 1 C0 0.67 0 0.34 0 0 Z " fill="#000100" transform="translate(534,946)"/>
<path d="M0 0 C5.92 4.41 8.69 12.32 9.86 19.38 C10.04 27.92 8.1 34.42 2.42 40.95 C-0.01 43.17 -2.79 44.54 -5.7 46.05 C-9.15 47.93 -12.27 50.2 -15.46 52.5 C-17.35 53.83 -19.28 55.1 -21.23 56.33 C-26.73 59.79 -30.75 62.69 -34.32 68.11 C-37.87 72.53 -42.45 75.95 -46.8 79.55 C-50.94 83 -54.68 86.71 -58.08 90.88 C-60.85 94.16 -63.82 96.69 -67.14 99.38 C-67.89 100.15 -68.63 100.93 -69.4 101.72 C-72.41 104.64 -75.57 106.95 -79.02 109.32 C-86.87 114.83 -94.39 120.56 -100.33 128.2 C-102.6 130.99 -105.18 133.06 -108.02 135.26 C-111.96 138.32 -115.13 141.49 -118.3 145.32 C-120.43 147.7 -122.73 149.73 -125.14 151.82 C-129.17 155.35 -132.26 159.02 -135.42 163.32 C-137.75 166.11 -140.46 167.99 -143.44 170.05 C-145.36 171.38 -145.36 171.38 -146.64 174.01 C-149.38 178.33 -154.44 179.81 -159.14 181.38 C-162.49 181.64 -165.85 181.61 -169.21 181.63 C-170.56 181.66 -170.56 181.66 -171.95 181.7 C-187.09 181.78 -195.47 175.21 -205.98 164.98 C-206.74 164.22 -207.49 163.47 -208.27 162.7 C-209.07 161.9 -209.86 161.11 -210.68 160.29 C-215.65 155.22 -219.18 150.62 -222.36 144.28 C-225.17 139.72 -228.99 136.22 -232.88 132.57 C-234.33 131.2 -235.74 129.8 -237.14 128.38 C-237.14 127.72 -237.14 127.06 -237.14 126.38 C-237.8 126.38 -238.46 126.38 -239.14 126.38 C-239.14 125.72 -239.14 125.06 -239.14 124.38 C-239.74 124.11 -240.33 123.84 -240.94 123.56 C-246.87 120.39 -250.54 114.94 -254.08 109.38 C-258.27 102.94 -262.81 98.84 -268.95 94.31 C-276.72 88.51 -283.76 82.27 -290.59 75.39 C-292.23 73.74 -293.88 72.11 -295.54 70.48 C-302.94 63.14 -308.48 56.81 -309.18 45.97 C-309.09 39.75 -308.13 33.33 -304.14 28.38 C-296.69 21.17 -289.91 18.96 -279.48 19.1 C-274.06 19.75 -269.56 21.93 -265.77 25.82 C-265.23 26.67 -264.7 27.51 -264.14 28.38 C-263.37 29.43 -263.37 29.43 -262.58 30.51 C-261.14 33.38 -261.14 33.38 -260.71 35.76 C-258.32 48.75 -245.96 55.8 -235.84 63.06 C-227.72 68.94 -222.11 75.46 -216.88 83.95 C-214.09 88.34 -211.24 91.18 -207.14 94.38 C-206.07 95.54 -205.02 96.72 -204.02 97.95 C-200.92 101.6 -197.58 104.92 -194.14 108.26 C-190.47 111.83 -187.36 115.29 -184.58 119.63 C-180.88 125.33 -175.78 128.73 -170.14 132.38 C-166.5 130.85 -164.18 128.66 -161.41 125.86 C-160.96 125.4 -160.5 124.95 -160.03 124.48 C-158.53 122.97 -157.03 121.45 -155.54 119.93 C-154.48 118.88 -153.43 117.82 -152.38 116.76 C-149.61 113.98 -146.85 111.19 -144.09 108.4 C-139.68 103.95 -135.27 99.51 -130.85 95.07 C-129.32 93.53 -127.79 91.99 -126.27 90.44 C-112.42 76.48 -112.42 76.48 -104.46 71.76 C-100.48 69.3 -97.33 66.84 -94.14 63.38 C-93.15 62.58 -92.16 61.77 -91.14 60.95 C-88.07 58.32 -85.69 55.52 -83.14 52.38 C-80.29 49.37 -77.28 46.6 -74.14 43.88 C-70.33 40.57 -66.67 37.23 -63.45 33.32 C-58.36 27.22 -52.92 23.46 -46.14 19.38 C-39.93 15.29 -34.88 10.23 -29.76 4.87 C-21.89 -2.62 -9.8 -5.42 0 0 Z " fill="#000100" transform="translate(802.14453125,554.6171875)"/>
<path d="M0 0 C2.51 2.2 4.28 4.68 6.06 7.5 C6.57 8.27 7.08 9.05 7.6 9.84 C11.32 18.23 11.34 27.6 11.41 36.63 C11.42 37.82 11.43 39 11.44 40.23 C11.46 42.74 11.47 45.25 11.48 47.75 C11.5 51.5 11.56 55.24 11.62 58.99 C11.93 93.33 2.87 131 -21.43 156.44 C-28.52 163.48 -36.72 169.81 -47.08 170.05 C-49.13 169.87 -51.01 169.5 -53 169 C-53.72 168.84 -54.44 168.67 -55.18 168.5 C-63.27 166.26 -70.38 161.03 -75 154 C-81.16 141.67 -78.14 124.9 -75 112 C-73.87 108.72 -72.59 105.57 -71.25 102.38 C-69.79 98.44 -68.95 94.54 -68.12 90.44 C-66.56 82.72 -64.19 75.5 -61.49 68.1 C-59.89 63.68 -58.51 59.37 -57.56 54.75 C-56.19 48.17 -54.11 41.87 -52 35.5 C-51.66 34.45 -51.31 33.4 -50.96 32.31 C-50.62 31.31 -50.28 30.31 -49.94 29.28 C-49.64 28.38 -49.34 27.49 -49.03 26.56 C-47.94 23.84 -46.53 21.5 -45 19 C-44.65 17.95 -44.3 16.9 -43.94 15.81 C-40.87 8.53 -34.03 2.45 -26.81 -0.5 C-25.22 -1.03 -23.61 -1.53 -22 -2 C-20.8 -2.43 -19.61 -2.87 -18.38 -3.31 C-11.61 -4.69 -6.06 -3.09 0 0 Z " fill="#000100" transform="translate(835,275)"/>
<path d="M0 0 C1.9 1.99 3.43 3.78 5 6 C5.7 6.99 6.4 7.98 7.12 9 C9.63 13.52 10.3 18.54 11.28 23.56 C12.04 27.17 13.13 30.5 14.38 33.96 C15.39 37.26 15.63 40.58 16 44 C16.33 44.33 16.66 44.66 17 45 C17.11 46.48 17.16 47.97 17.18 49.45 C17.2 50.87 17.2 50.87 17.22 52.33 C17.22 53.36 17.23 54.4 17.24 55.47 C17.25 56.54 17.25 57.61 17.26 58.72 C17.28 61 17.29 63.28 17.3 65.56 C17.31 69 17.36 72.43 17.4 75.87 C17.51 91.16 17.02 105.69 8.94 119.19 C8.43 120.09 8.43 120.09 7.91 121.01 C6.47 123.55 4.97 126.06 3.45 128.56 C2.41 130.3 1.42 132.08 0.46 133.87 C-6.38 146.37 -15.74 153.1 -29 158 C-32.61 158.81 -35.39 158.78 -39 158 C-40.32 157.72 -40.32 157.72 -41.66 157.43 C-50.41 154.89 -57.73 148.94 -62.74 141.36 C-70.22 127.31 -68.21 105.44 -64.3 90.3 C-63.81 88.76 -63.3 87.22 -62.78 85.69 C-61.76 82.17 -61.16 78.61 -60.56 75 C-59.49 68.63 -58.27 62.31 -56.88 56 C-56.7 55.22 -56.53 54.43 -56.36 53.62 C-55.12 48.12 -55.12 48.12 -54 47 C-53.75 45.5 -53.52 44 -53.31 42.5 C-50.24 24.93 -43.61 10.3 -29.08 -0.42 C-20.86 -5.64 -8.07 -5.44 0 0 Z " fill="#000100" transform="translate(527,253)"/>
<path d="M0 0 C10.81 0.54 19.68 5.2 29.12 10.12 C30.1 10.63 30.1 10.63 31.1 11.14 C34.3 12.86 35.95 13.93 38 17 C37.65 20.51 35.86 23.1 34.01 26.04 C33.39 27.03 32.77 28.01 32.14 29.02 C31.14 30.59 31.14 30.59 30.12 32.19 C29.1 33.81 29.1 33.81 28.06 35.46 C22.91 43.61 17.7 51.73 12.43 59.81 C10.83 62.26 9.24 64.72 7.64 67.17 C6.49 68.95 5.34 70.72 4.19 72.5 C3.4 73.72 3.4 73.72 2.59 74.96 C1.57 76.53 0.55 78.09 -0.47 79.66 C-1.54 81.3 -2.6 82.94 -3.65 84.59 C-4.18 85.42 -4.71 86.24 -5.26 87.09 C-5.74 87.84 -6.22 88.59 -6.71 89.37 C-7.14 89.9 -7.56 90.44 -8 91 C-8.66 91 -9.32 91 -10 91 C-10.15 92.08 -10.15 92.08 -10.31 93.18 C-11.08 96.33 -12.27 98.4 -14.02 101.12 C-14.63 102.08 -15.24 103.03 -15.87 104.02 C-16.51 105 -17.15 105.99 -17.81 107 C-18.44 107.98 -19.07 108.97 -19.72 109.98 C-22.63 114.51 -25.59 118.83 -29 123 C-30.31 122.74 -31.63 122.46 -32.94 122.19 C-34.03 121.96 -34.03 121.96 -35.15 121.73 C-37.56 121.11 -39.77 120.35 -42.1 119.5 C-47.48 117.68 -52.8 117.22 -58.44 116.81 C-59.43 116.73 -60.42 116.65 -61.44 116.56 C-66.22 116.15 -66.22 116.15 -71 116 C-69.72 112.61 -68.26 109.59 -66.35 106.52 C-65.82 105.67 -65.3 104.83 -64.76 103.96 C-64.2 103.06 -63.64 102.17 -63.06 101.25 C-62.48 100.32 -61.91 99.39 -61.31 98.44 C-56.34 90.49 -51.27 82.62 -46.15 74.78 C-44.59 72.36 -43.04 69.93 -41.5 67.5 C-38.61 62.94 -35.68 58.41 -32.75 53.88 C-32.28 53.15 -31.81 52.42 -31.33 51.68 C-28.98 48.05 -26.62 44.42 -24.27 40.8 C-18.8 32.38 -13.4 23.92 -8.06 15.42 C-7.59 14.67 -7.12 13.92 -6.63 13.14 C-6.18 12.43 -5.74 11.72 -5.28 10.99 C-4.11 9.17 -2.89 7.41 -1.65 5.64 C0.27 3.09 0.27 3.09 0 0 Z " fill="#195146" transform="translate(830,688)"/>
<path d="" fill="#1A5247" transform="translate(0,0)"/>
</svg>
