<svg width="160" height="160" viewBox="0 0 160 160" fill="none" xmlns="http://www.w3.org/2000/svg">
<rect width="160" height="160" rx="80" fill="url(#paint0_linear_1823_1227)"/>
<path d="M34.666 100V64.75H59.416V71.8H43.916V78.95H58.266V86H43.916V100H34.666ZM81.1258 100.55C77.2924 100.55 73.9758 99.8 71.1758 98.3C68.4091 96.8 66.2591 94.6833 64.7258 91.95C63.2258 89.2167 62.4758 86.0167 62.4758 82.35C62.4758 78.6833 63.2258 75.5 64.7258 72.8C66.2591 70.0667 68.4091 67.95 71.1758 66.45C73.9758 64.95 77.2924 64.2 81.1258 64.2C83.5591 64.2 85.7758 64.5333 87.7758 65.2C89.7758 65.8333 91.4591 66.75 92.8258 67.95L90.0758 75.2C88.5425 74.1 87.1258 73.3333 85.8258 72.9C84.5591 72.4333 83.1091 72.2 81.4758 72.2C78.4758 72.2 76.1591 73.0833 74.5258 74.85C72.9258 76.5833 72.1258 79.0833 72.1258 82.35C72.1258 85.65 72.9258 88.1833 74.5258 89.95C76.1591 91.6833 78.4758 92.55 81.4758 92.55C83.1091 92.55 84.5591 92.3333 85.8258 91.9C87.1258 91.4333 88.5425 90.65 90.0758 89.55L92.8258 96.8C91.4591 98 89.7758 98.9333 87.7758 99.6C85.7758 100.233 83.5591 100.55 81.1258 100.55ZM97.6543 100V64.75H114.954C119.021 64.75 122.088 65.75 124.154 67.75C126.221 69.7167 127.254 72.4 127.254 75.8C127.254 79.1667 126.221 81.85 124.154 83.85C122.088 85.85 119.021 86.85 114.954 86.85H106.904V100H97.6543ZM106.904 79.75H113.754C115.321 79.75 116.488 79.4167 117.254 78.75C118.021 78.05 118.404 77.0667 118.404 75.8C118.404 74.5333 118.021 73.55 117.254 72.85C116.488 72.15 115.321 71.8 113.754 71.8H106.904V79.75Z" fill="white"/>
<rect x="30" y="53" width="100" height="2" fill="url(#paint1_linear_1823_1227)"/>
<rect x="30" y="109" width="100" height="2" fill="url(#paint2_linear_1823_1227)"/>
<circle cx="80" cy="80" r="73.5" stroke="url(#paint3_linear_1823_1227)"/>
<defs>
<linearGradient id="paint0_linear_1823_1227" x1="-39.5" y1="72.5" x2="27.4995" y2="205.812" gradientUnits="userSpaceOnUse">
<stop stop-color="#30C9AB"/>
<stop offset="1" stop-color="#377BDC"/>
</linearGradient>
<linearGradient id="paint1_linear_1823_1227" x1="127.436" y1="54.3333" x2="33.5156" y2="52.9458" gradientUnits="userSpaceOnUse">
<stop stop-color="white" stop-opacity="0"/>
<stop offset="0.470207" stop-color="white"/>
<stop offset="1" stop-color="white" stop-opacity="0"/>
</linearGradient>
<linearGradient id="paint2_linear_1823_1227" x1="127.436" y1="110.333" x2="33.5156" y2="108.946" gradientUnits="userSpaceOnUse">
<stop stop-color="white" stop-opacity="0"/>
<stop offset="0.470207" stop-color="white"/>
<stop offset="1" stop-color="white" stop-opacity="0"/>
</linearGradient>
<linearGradient id="paint3_linear_1823_1227" x1="35.5" y1="14.5" x2="125.5" y2="149" gradientUnits="userSpaceOnUse">
<stop stop-color="white"/>
<stop offset="0.242362" stop-color="white" stop-opacity="0"/>
<stop offset="0.735797" stop-color="white" stop-opacity="0"/>
<stop offset="1" stop-color="white"/>
</linearGradient>
</defs>
</svg>
