<svg width="20" height="20" viewBox="0 0 20 20" fill="none" xmlns="http://www.w3.org/2000/svg">
<path d="M12.0982 0.781143L12.0936 0.776679C12.0095 0.689904 11.8934 0.641356 11.7723 0.642751C11.7574 0.642053 11.7423 0.643448 11.7276 0.647354H4.8722C3.63992 0.647633 2.64118 1.64651 2.64062 2.87893V17.161C2.64118 18.3932 3.63992 19.3921 4.8722 19.3925H14.8118C16.044 19.3921 17.0429 18.3932 17.0433 17.161V5.90473C17.0425 5.78657 16.9962 5.67315 16.9139 5.58805L12.0982 0.781143ZM12.2186 2.16479L15.5302 5.46751H13.5576C12.819 5.46528 12.2207 4.86707 12.2186 4.12865V2.16479ZM14.8162 18.4955H4.8722C4.13364 18.4934 3.53557 17.8951 3.5332 17.1565V2.87433C3.53557 2.13591 4.13364 1.53756 4.8722 1.53547H11.326V4.12865C11.3264 5.36079 12.3253 6.35967 13.5576 6.36023H16.1508V17.1565C16.1522 17.8948 15.5545 18.4945 14.8162 18.4955Z" fill="#646464"/>
<path d="M5.50098 9.25683H10.3257C10.5721 9.25683 10.7722 9.05706 10.7722 8.81055C10.7722 8.56403 10.5721 8.36426 10.3257 8.36426H5.50098C5.25446 8.36426 5.05469 8.56403 5.05469 8.81055C5.05469 9.05706 5.25446 9.25683 5.50098 9.25683Z" fill="#646464"/>
<path d="M14.1864 11.7383H5.50098C5.25446 11.7383 5.05469 11.9381 5.05469 12.1846C5.05469 12.4309 5.25446 12.6309 5.50098 12.6309H14.1864C14.4327 12.6309 14.6328 12.4309 14.6328 12.1846C14.6328 11.9381 14.4327 11.7383 14.1864 11.7383Z" fill="#646464"/>
<path d="M14.1864 15.1172H5.50098C5.25446 15.1172 5.05469 15.317 5.05469 15.5635C5.05469 15.81 5.25446 16.0098 5.50098 16.0098H14.1864C14.4327 16.0098 14.6328 15.81 14.6328 15.5635C14.6328 15.317 14.4327 15.1172 14.1864 15.1172Z" fill="#646464"/>
</svg>
