<svg width="24" height="24" viewBox="0 0 24 24" fill="none" xmlns="http://www.w3.org/2000/svg">
<mask id="path-1-inside-1_5791_620" fill="white">
<path d="M11.9992 2.19919C11.4422 2.19919 10.9081 2.42044 10.5143 2.81427C10.1204 3.2081 9.89919 3.74224 9.89919 4.29919C9.89919 4.85615 10.1204 5.39029 10.5143 5.78412C10.9081 6.17794 11.4422 6.39919 11.9992 6.39919C12.5561 6.39919 13.0903 6.17794 13.4841 5.78412C13.8779 5.39029 14.0992 4.85615 14.0992 4.29919C14.0992 3.74224 13.8779 3.2081 13.4841 2.81427C13.0903 2.42044 12.5561 2.19919 11.9992 2.19919ZM8.49919 4.29919C8.49919 3.37094 8.86794 2.4807 9.52432 1.82432C10.1807 1.16794 11.0709 0.799194 11.9992 0.799194C12.9274 0.799194 13.8177 1.16794 14.4741 1.82432C15.1304 2.4807 15.4992 3.37094 15.4992 4.29919C15.4992 5.22745 15.1304 6.11769 14.4741 6.77407C13.8177 7.43044 12.9274 7.79919 11.9992 7.79919C11.0709 7.79919 10.1807 7.43044 9.52432 6.77407C8.86794 6.11769 8.49919 5.22745 8.49919 4.29919ZM19.6992 3.59919C19.3279 3.59919 18.9718 3.74669 18.7092 4.00924C18.4467 4.2718 18.2992 4.62789 18.2992 4.99919C18.2992 5.3705 18.4467 5.72659 18.7092 5.98914C18.9718 6.25169 19.3279 6.39919 19.6992 6.39919C20.0705 6.39919 20.4266 6.25169 20.6891 5.98914C20.9517 5.72659 21.0992 5.3705 21.0992 4.99919C21.0992 4.62789 20.9517 4.2718 20.6891 4.00924C20.4266 3.74669 20.0705 3.59919 19.6992 3.59919ZM16.8992 4.99919C16.8992 4.25659 17.1942 3.5444 17.7193 3.01929C18.2444 2.49419 18.9566 2.19919 19.6992 2.19919C20.4418 2.19919 21.154 2.49419 21.6791 3.01929C22.2042 3.5444 22.4992 4.25659 22.4992 4.99919C22.4992 5.7418 22.2042 6.45399 21.6791 6.97909C21.154 7.50419 20.4418 7.79919 19.6992 7.79919C18.9566 7.79919 18.2444 7.50419 17.7193 6.97909C17.1942 6.45399 16.8992 5.7418 16.8992 4.99919ZM2.89919 4.99919C2.89919 4.62789 3.04669 4.2718 3.30924 4.00924C3.57179 3.74669 3.92789 3.59919 4.29919 3.59919C4.6705 3.59919 5.02659 3.74669 5.28914 4.00924C5.55169 4.2718 5.69919 4.62789 5.69919 4.99919C5.69919 5.3705 5.55169 5.72659 5.28914 5.98914C5.02659 6.25169 4.6705 6.39919 4.29919 6.39919C3.92789 6.39919 3.57179 6.25169 3.30924 5.98914C3.04669 5.72659 2.89919 5.3705 2.89919 4.99919ZM4.29919 2.19919C3.55659 2.19919 2.8444 2.49419 2.31929 3.01929C1.79419 3.5444 1.49919 4.25659 1.49919 4.99919C1.49919 5.7418 1.79419 6.45399 2.31929 6.97909C2.8444 7.50419 3.55659 7.79919 4.29919 7.79919C5.0418 7.79919 5.75399 7.50419 6.27909 6.97909C6.80419 6.45399 7.09919 5.7418 7.09919 4.99919C7.09919 4.25659 6.80419 3.5444 6.27909 3.01929C5.75399 2.49419 5.0418 2.19919 4.29919 2.19919ZM5.13919 18.9964C4.76012 19.0154 4.38114 18.9571 4.02529 18.8251C3.66944 18.693 3.34415 18.4901 3.06917 18.2284C2.7942 17.9668 2.57528 17.652 2.42573 17.3032C2.27617 16.9543 2.1991 16.5787 2.19919 16.1992V10.9492C2.19919 10.8564 2.23607 10.7673 2.30171 10.7017C2.36734 10.6361 2.45637 10.5992 2.54919 10.5992H5.01879C5.07479 10.0854 5.25679 9.60799 5.52979 9.19919H2.54919C1.58319 9.19919 0.799194 9.98319 0.799194 10.9492V16.1992C0.799129 16.7986 0.927348 17.391 1.17524 17.9367C1.42312 18.4824 1.78494 18.9687 2.23637 19.363C2.6878 19.7573 3.21839 20.0504 3.79249 20.2226C4.36658 20.3948 4.97089 20.4421 5.56479 20.3614C5.37636 19.9222 5.23374 19.4648 5.13919 18.9964ZM18.4336 20.3614C19.0275 20.4421 19.6318 20.3948 20.2059 20.2226C20.78 20.0504 21.3106 19.7573 21.762 19.363C22.2134 18.9687 22.5753 18.4824 22.8231 17.9367C23.071 17.391 23.1993 16.7986 23.1992 16.1992V10.9492C23.1992 9.98319 22.4152 9.19919 21.4492 9.19919H18.4686C18.743 9.60799 18.9236 10.0854 18.9796 10.5992H21.4492C21.542 10.5992 21.631 10.6361 21.6967 10.7017C21.7623 10.7673 21.7992 10.8564 21.7992 10.9492V16.1992C21.7993 16.5787 21.7222 16.9543 21.5727 17.3032C21.4231 17.652 21.2042 17.9668 20.9292 18.2284C20.6542 18.4901 20.3289 18.693 19.9731 18.8251C19.6172 18.9571 19.2383 19.0154 18.8592 18.9964C18.7646 19.4648 18.622 19.9222 18.4336 20.3614ZM8.14919 9.19919C7.18319 9.19919 6.39919 9.98319 6.39919 10.9492V17.5992C6.39919 19.0844 6.98919 20.5088 8.03939 21.559C9.0896 22.6092 10.514 23.1992 11.9992 23.1992C13.4844 23.1992 14.9088 22.6092 15.959 21.559C17.0092 20.5088 17.5992 19.0844 17.5992 17.5992V10.9492C17.5992 9.98319 16.8152 9.19919 15.8492 9.19919H8.14919ZM7.79919 10.9492C7.79919 10.8564 7.83607 10.7673 7.9017 10.7017C7.96734 10.6361 8.05637 10.5992 8.14919 10.5992H15.8492C15.942 10.5992 16.031 10.6361 16.0967 10.7017C16.1623 10.7673 16.1992 10.8564 16.1992 10.9492V17.5992C16.1992 18.7131 15.7567 19.7814 14.969 20.569C14.1814 21.3567 13.1131 21.7992 11.9992 21.7992C10.8853 21.7992 9.817 21.3567 9.02934 20.569C8.24169 19.7814 7.79919 18.7131 7.79919 17.5992V10.9492Z"/>
</mask>
<path d="M11.9992 2.19919C11.4422 2.19919 10.9081 2.42044 10.5143 2.81427C10.1204 3.2081 9.89919 3.74224 9.89919 4.29919C9.89919 4.85615 10.1204 5.39029 10.5143 5.78412C10.9081 6.17794 11.4422 6.39919 11.9992 6.39919C12.5561 6.39919 13.0903 6.17794 13.4841 5.78412C13.8779 5.39029 14.0992 4.85615 14.0992 4.29919C14.0992 3.74224 13.8779 3.2081 13.4841 2.81427C13.0903 2.42044 12.5561 2.19919 11.9992 2.19919ZM8.49919 4.29919C8.49919 3.37094 8.86794 2.4807 9.52432 1.82432C10.1807 1.16794 11.0709 0.799194 11.9992 0.799194C12.9274 0.799194 13.8177 1.16794 14.4741 1.82432C15.1304 2.4807 15.4992 3.37094 15.4992 4.29919C15.4992 5.22745 15.1304 6.11769 14.4741 6.77407C13.8177 7.43044 12.9274 7.79919 11.9992 7.79919C11.0709 7.79919 10.1807 7.43044 9.52432 6.77407C8.86794 6.11769 8.49919 5.22745 8.49919 4.29919ZM19.6992 3.59919C19.3279 3.59919 18.9718 3.74669 18.7092 4.00924C18.4467 4.2718 18.2992 4.62789 18.2992 4.99919C18.2992 5.3705 18.4467 5.72659 18.7092 5.98914C18.9718 6.25169 19.3279 6.39919 19.6992 6.39919C20.0705 6.39919 20.4266 6.25169 20.6891 5.98914C20.9517 5.72659 21.0992 5.3705 21.0992 4.99919C21.0992 4.62789 20.9517 4.2718 20.6891 4.00924C20.4266 3.74669 20.0705 3.59919 19.6992 3.59919ZM16.8992 4.99919C16.8992 4.25659 17.1942 3.5444 17.7193 3.01929C18.2444 2.49419 18.9566 2.19919 19.6992 2.19919C20.4418 2.19919 21.154 2.49419 21.6791 3.01929C22.2042 3.5444 22.4992 4.25659 22.4992 4.99919C22.4992 5.7418 22.2042 6.45399 21.6791 6.97909C21.154 7.50419 20.4418 7.79919 19.6992 7.79919C18.9566 7.79919 18.2444 7.50419 17.7193 6.97909C17.1942 6.45399 16.8992 5.7418 16.8992 4.99919ZM2.89919 4.99919C2.89919 4.62789 3.04669 4.2718 3.30924 4.00924C3.57179 3.74669 3.92789 3.59919 4.29919 3.59919C4.6705 3.59919 5.02659 3.74669 5.28914 4.00924C5.55169 4.2718 5.69919 4.62789 5.69919 4.99919C5.69919 5.3705 5.55169 5.72659 5.28914 5.98914C5.02659 6.25169 4.6705 6.39919 4.29919 6.39919C3.92789 6.39919 3.57179 6.25169 3.30924 5.98914C3.04669 5.72659 2.89919 5.3705 2.89919 4.99919ZM4.29919 2.19919C3.55659 2.19919 2.8444 2.49419 2.31929 3.01929C1.79419 3.5444 1.49919 4.25659 1.49919 4.99919C1.49919 5.7418 1.79419 6.45399 2.31929 6.97909C2.8444 7.50419 3.55659 7.79919 4.29919 7.79919C5.0418 7.79919 5.75399 7.50419 6.27909 6.97909C6.80419 6.45399 7.09919 5.7418 7.09919 4.99919C7.09919 4.25659 6.80419 3.5444 6.27909 3.01929C5.75399 2.49419 5.0418 2.19919 4.29919 2.19919ZM5.13919 18.9964C4.76012 19.0154 4.38114 18.9571 4.02529 18.8251C3.66944 18.693 3.34415 18.4901 3.06917 18.2284C2.7942 17.9668 2.57528 17.652 2.42573 17.3032C2.27617 16.9543 2.1991 16.5787 2.19919 16.1992V10.9492C2.19919 10.8564 2.23607 10.7673 2.30171 10.7017C2.36734 10.6361 2.45637 10.5992 2.54919 10.5992H5.01879C5.07479 10.0854 5.25679 9.60799 5.52979 9.19919H2.54919C1.58319 9.19919 0.799194 9.98319 0.799194 10.9492V16.1992C0.799129 16.7986 0.927348 17.391 1.17524 17.9367C1.42312 18.4824 1.78494 18.9687 2.23637 19.363C2.6878 19.7573 3.21839 20.0504 3.79249 20.2226C4.36658 20.3948 4.97089 20.4421 5.56479 20.3614C5.37636 19.9222 5.23374 19.4648 5.13919 18.9964ZM18.4336 20.3614C19.0275 20.4421 19.6318 20.3948 20.2059 20.2226C20.78 20.0504 21.3106 19.7573 21.762 19.363C22.2134 18.9687 22.5753 18.4824 22.8231 17.9367C23.071 17.391 23.1993 16.7986 23.1992 16.1992V10.9492C23.1992 9.98319 22.4152 9.19919 21.4492 9.19919H18.4686C18.743 9.60799 18.9236 10.0854 18.9796 10.5992H21.4492C21.542 10.5992 21.631 10.6361 21.6967 10.7017C21.7623 10.7673 21.7992 10.8564 21.7992 10.9492V16.1992C21.7993 16.5787 21.7222 16.9543 21.5727 17.3032C21.4231 17.652 21.2042 17.9668 20.9292 18.2284C20.6542 18.4901 20.3289 18.693 19.9731 18.8251C19.6172 18.9571 19.2383 19.0154 18.8592 18.9964C18.7646 19.4648 18.622 19.9222 18.4336 20.3614ZM8.14919 9.19919C7.18319 9.19919 6.39919 9.98319 6.39919 10.9492V17.5992C6.39919 19.0844 6.98919 20.5088 8.03939 21.559C9.0896 22.6092 10.514 23.1992 11.9992 23.1992C13.4844 23.1992 14.9088 22.6092 15.959 21.559C17.0092 20.5088 17.5992 19.0844 17.5992 17.5992V10.9492C17.5992 9.98319 16.8152 9.19919 15.8492 9.19919H8.14919ZM7.79919 10.9492C7.79919 10.8564 7.83607 10.7673 7.9017 10.7017C7.96734 10.6361 8.05637 10.5992 8.14919 10.5992H15.8492C15.942 10.5992 16.031 10.6361 16.0967 10.7017C16.1623 10.7673 16.1992 10.8564 16.1992 10.9492V17.5992C16.1992 18.7131 15.7567 19.7814 14.969 20.569C14.1814 21.3567 13.1131 21.7992 11.9992 21.7992C10.8853 21.7992 9.817 21.3567 9.02934 20.569C8.24169 19.7814 7.79919 18.7131 7.79919 17.5992V10.9492Z" fill="#387EDB" stroke="white" stroke-width="0.233333" mask="url(#path-1-inside-1_5791_620)"/>
</svg>
