<svg width="1440" height="619" viewBox="0 0 1440 619" fill="none" xmlns="http://www.w3.org/2000/svg">
<rect width="1440" height="618.577" fill="url(#paint0_linear_99_224)" fill-opacity="0.12"/>
<path d="M0 467.894L48.4195 457.772C124.756 441.814 203.768 443.951 279.13 464.013L316.327 473.915C383.493 491.796 454.358 490.225 520.666 469.387C587.959 448.239 659.923 446.942 727.934 465.651L777.877 479.39C830.591 493.891 885.327 499.648 939.905 496.432L1027.47 491.273C1058.75 489.43 1089.8 484.649 1120.19 476.994L1154.68 468.306C1236.24 447.762 1321.67 448.124 1403.05 469.36L1440 479.002V588.016L0 592.502V467.894Z" fill="url(#paint1_linear_99_224)" fill-opacity="0.1"/>
<path d="M0 527.002L97.9977 502.179C157.724 487.051 220.551 489.507 278.914 509.251L308.771 519.352C361.523 537.199 418.909 535.656 470.626 515.001C523.098 494.045 581.378 492.772 634.715 511.419L653.144 517.861C707.048 536.706 765.813 536.317 819.463 516.761C866.386 499.656 917.388 497.159 965.758 509.597L993.746 516.794C1052.44 531.887 1114.39 528.236 1170.9 506.353C1221.3 486.84 1276.14 481.779 1329.26 491.738L1440 512.502V638.502H0V527.002Z" fill="url(#paint2_linear_99_224)" fill-opacity="0.3"/>
<path d="M0 490.502L98.0261 510.894C159.266 523.634 222.553 522.817 283.444 508.501C334.059 496.601 386.417 494.008 437.96 500.85L476.714 505.994C521.366 511.921 566.615 511.787 611.232 505.596L637.298 501.979C692.011 494.386 747.63 496.423 801.641 507.999C867.779 522.173 936.187 522.016 1002.26 507.537L1004.18 507.117C1054.4 496.111 1106.07 493.202 1157.21 498.499L1208.13 503.773C1242.29 507.31 1276.71 507.32 1310.87 503.802L1440 490.502V638.502H0V490.502Z" fill="white"/>
<path d="M0 490.502L98.0261 510.894C159.266 523.634 222.553 522.817 283.444 508.501C334.059 496.601 386.417 494.008 437.96 500.85L476.714 505.994C521.366 511.921 566.615 511.787 611.232 505.596L637.298 501.979C692.011 494.386 747.63 496.423 801.641 507.999C867.779 522.173 936.187 522.016 1002.26 507.537L1004.18 507.117C1054.4 496.111 1106.07 493.202 1157.21 498.499L1208.13 503.773C1242.29 507.31 1276.71 507.32 1310.87 503.802L1440 490.502V638.502H0V490.502Z" fill="url(#paint3_linear_99_224)" fill-opacity="0.3"/>
<defs>
<linearGradient id="paint0_linear_99_224" x1="794.5" y1="553.5" x2="744.461" y2="68.7031" gradientUnits="userSpaceOnUse">
<stop stop-color="#3783D8"/>
<stop offset="0.734984" stop-color="#31C0B2"/>
<stop offset="1" stop-color="#31C0B2" stop-opacity="0"/>
</linearGradient>
<linearGradient id="paint1_linear_99_224" x1="766" y1="451.918" x2="766.347" y2="593.903" gradientUnits="userSpaceOnUse">
<stop stop-color="#3783D8"/>
<stop offset="1" stop-color="#31C0B2"/>
</linearGradient>
<linearGradient id="paint2_linear_99_224" x1="766" y1="495.265" x2="766.36" y2="639.929" gradientUnits="userSpaceOnUse">
<stop stop-color="#3783D8"/>
<stop offset="1" stop-color="#31C0B2"/>
</linearGradient>
<linearGradient id="paint3_linear_99_224" x1="766" y1="507.644" x2="766.3" y2="639.806" gradientUnits="userSpaceOnUse">
<stop stop-color="#3783D8"/>
<stop offset="1" stop-color="#31C0B2"/>
</linearGradient>
</defs>
</svg>
