<svg width="25" height="24" viewBox="0 0 25 24" fill="none" xmlns="http://www.w3.org/2000/svg">
<g clip-path="url(#clip0_2225_595)">
<path d="M24.4866 12.2242C24.4866 11.2409 24.4049 10.5234 24.2282 9.7793H12.7383V14.2173H19.4826C19.3467 15.3202 18.6124 16.9811 16.9807 18.0972L16.9578 18.2458L20.5907 20.996L20.8424 21.0205C23.154 18.9344 24.4866 15.8649 24.4866 12.2242Z" fill="#4285F4"/>
<path d="M12.7391 23.9178C16.0433 23.9178 18.8171 22.8548 20.8432 21.0211L16.9815 18.0978C15.9481 18.8021 14.5611 19.2937 12.7391 19.2937C9.50291 19.2937 6.75622 17.2076 5.77711 14.3242L5.63359 14.3361L1.85604 17.193L1.80664 17.3271C3.81906 21.2337 7.95273 23.9178 12.7391 23.9178Z" fill="#34A853"/>
<path d="M5.77775 14.3248C5.5194 13.5807 5.36989 12.7834 5.36989 11.9596C5.36989 11.1357 5.5194 10.3385 5.76416 9.59439L5.75732 9.43592L1.93243 6.5332L1.80729 6.59137C0.977873 8.21247 0.501953 10.0329 0.501953 11.9596C0.501953 13.8863 0.977873 15.7066 1.80729 17.3277L5.77775 14.3248Z" fill="#FBBC05"/>
<path d="M12.7391 4.62403C15.0371 4.62403 16.5871 5.59401 17.471 6.40461L20.9248 3.10928C18.8036 1.1826 16.0433 0 12.7391 0C7.95272 0 3.81906 2.68406 1.80664 6.59056L5.76351 9.59359C6.75622 6.7102 9.50291 4.62403 12.7391 4.62403Z" fill="#EB4335"/>
</g>
<defs>
<clipPath id="clip0_2225_595">
<rect width="24" height="24" fill="white" transform="translate(0.5)"/>
</clipPath>
</defs>
</svg>
