<svg width="16" height="16" viewBox="0 0 16 16" fill="none" xmlns="http://www.w3.org/2000/svg">
<path d="M12.1646 10.5843C11.6418 10.0683 10.9893 10.0683 10.4699 10.5843C10.0737 10.9772 9.67747 11.3701 9.28793 11.7696C9.18139 11.8795 9.09149 11.9028 8.96164 11.8295C8.70527 11.6897 8.43226 11.5765 8.18588 11.4233C7.03722 10.7009 6.07501 9.77194 5.22267 8.7265C4.79983 8.2071 4.4236 7.65108 4.16058 7.02515C4.10731 6.89863 4.11729 6.81539 4.22051 6.71218C4.61671 6.32929 5.00293 5.93642 5.39247 5.54354C5.93517 4.99751 5.93517 4.35826 5.38914 3.8089C5.07951 3.49593 4.76987 3.18962 4.46023 2.87665C4.1406 2.55703 3.8243 2.23407 3.50135 1.91777C2.97862 1.40837 2.32605 1.40837 1.80666 1.9211C1.40712 2.31398 1.02424 2.71684 0.618043 3.10306C0.241816 3.45931 0.0520369 3.89546 0.0120835 4.40487C-0.051176 5.2339 0.15192 6.01632 0.438253 6.77877C1.02424 8.35693 1.91653 9.75863 2.9986 11.0438C4.46023 12.7818 6.20486 14.1568 8.24581 15.149C9.16474 15.5951 10.117 15.9381 11.1524 15.9947C11.8649 16.0346 12.4842 15.8548 12.9803 15.2988C13.3199 14.9193 13.7028 14.573 14.0624 14.2101C14.5951 13.6707 14.5984 13.0182 14.069 12.4854C13.4364 11.8495 12.8005 11.2169 12.1646 10.5843Z" fill="#387EDB"/>
<path d="M11.5286 7.93077L12.7571 7.72101C12.564 6.59233 12.0313 5.57019 11.2222 4.7578C10.3666 3.90213 9.28451 3.36276 8.09256 3.19629L7.91943 4.43151C8.84169 4.56136 9.68071 4.97754 10.3433 5.6401C10.9692 6.26604 11.3787 7.05845 11.5286 7.93077Z" fill="#387EDB"/>
<path d="M13.4496 2.59031C12.0312 1.17197 10.2367 0.276344 8.25565 0L8.08252 1.23523C9.79386 1.47495 11.3454 2.25071 12.5706 3.47262C13.7326 4.63459 14.495 6.10288 14.7714 7.71766L15.9999 7.50791C15.677 5.63676 14.7947 3.93874 13.4496 2.59031Z" fill="#387EDB"/>
</svg>
