<svg xmlns="http://www.w3.org/2000/svg" width="370" height="122" viewBox="0 0 370 122" fill="none"><g clip-path="url(#clip0_194_39444)"><path d="M0 34.3999H8.66V71.1799H0V34.3999Z" fill="#2D441E"></path><path d="M43.9601 34.3999V71.1799H36.8301L23.3101 51.5799V71.1799H14.8301V34.3999H21.9601L35.4801 53.9999V34.3999H43.9701H43.9601Z" fill="#2D441E"></path><path d="M50.0898 34.3999H64.5698C74.7198 34.3999 81.6698 41.4899 81.6698 52.7899C81.6698 64.0899 74.7098 71.1799 64.5698 71.1799H50.0898V34.3999ZM64.2198 62.8699C69.4298 62.8699 72.9298 59.1399 72.9298 52.7799C72.9298 46.4199 69.4298 42.6899 64.2198 42.6899H58.7498V62.8599H64.2198V62.8699Z" fill="#2D441E"></path><path d="M110.811 63.1399V71.1799H86.2207V34.3999H110.241V42.4399H94.8007V48.6399H108.411V56.4199H94.8007V63.1399H110.811Z" fill="#2D441E"></path><path d="M143.219 48.0099C143.219 56.3599 137.969 61.5599 129.609 61.5599H124.269V71.1699H115.609V34.3999H129.609C137.969 34.3999 143.219 39.5999 143.219 48.0099ZM134.469 48.0099C134.469 44.5899 132.679 42.5999 129.089 42.5999H124.279V53.3699H129.089C132.679 53.3699 134.469 51.3699 134.469 48.0099Z" fill="#2D441E"></path><path d="M172.01 63.1399V71.1799H147.42V34.3999H171.44V42.4399H156V48.6399H169.61V56.4199H156V63.1399H172.01Z" fill="#2D441E"></path><path d="M205.951 34.3999V71.1799H198.821L185.301 51.5799V71.1799H176.811V34.3999H183.941L197.461 53.9999V34.3999H205.951Z" fill="#2D441E"></path><path d="M212.08 34.3999H226.56C236.71 34.3999 243.66 41.4899 243.66 52.7899C243.66 64.0899 236.7 71.1799 226.56 71.1799H212.08V34.3999ZM226.21 62.8699C231.42 62.8699 234.92 59.1399 234.92 52.7799C234.92 46.4199 231.42 42.6899 226.21 42.6899H220.74V62.8599H226.21V62.8699Z" fill="#2D441E"></path><path d="M272.789 63.1399V71.1799H248.199V34.3999H272.219V42.4399H256.779V48.6399H270.389V56.4199H256.779V63.1399H272.789Z" fill="#2D441E"></path><path d="M306.74 34.3999V71.1799H299.61L286.09 51.5799V71.1799H277.6V34.3999H284.73L298.25 53.9999V34.3999H306.74Z" fill="#2D441E"></path><path d="M311.289 52.7899C311.289 41.5999 318.419 33.6699 328.129 33.6699C333.769 33.6699 338.319 36.1399 341.299 40.5999L335.789 46.5899C333.869 43.8099 331.499 42.2799 328.569 42.2799C323.539 42.2799 320.039 46.4799 320.039 52.7899C320.039 59.0999 323.539 63.2999 328.569 63.2999C331.499 63.2999 333.859 61.7799 335.789 58.9899L341.299 64.9799C338.329 69.4499 333.779 71.9199 328.129 71.9199C318.419 71.9199 311.289 63.9899 311.289 52.7999V52.7899Z" fill="#2D441E"></path><path d="M369.731 63.1399V71.1799H345.141V34.3999H369.161V42.4399H353.721V48.6399H367.331V56.4199H353.721V63.1399H369.731Z" fill="#2D441E"></path><path d="M137.6 84.95H152.08C162.23 84.95 169.18 92.04 169.18 103.34C169.18 114.64 162.22 121.73 152.08 121.73H137.6V84.95ZM151.73 113.42C156.94 113.42 160.44 109.69 160.44 103.33C160.44 96.97 156.94 93.24 151.73 93.24H146.26V113.41H151.73V113.42Z" fill="#2D441E"></path><path d="M193.809 114.58H180.859L178.449 121.72H169.609L183.129 84.9399H191.659L205.219 121.72H196.209L193.799 114.58H193.809ZM191.269 106.91L187.329 95.1399L183.389 106.91H191.259H191.269Z" fill="#2D441E"></path><path d="M222.16 108.54V121.73H213.5V108.39L201.82 84.96H210.96L218.22 99.57L225.48 84.96H233.88L222.16 108.55V108.54Z" fill="#2D441E"></path><path d="M304.491 101.59H246.961V91.5999H295.751L304.491 101.59Z" fill="url(#paint0_linear_194_39444)"></path><path d="M317.281 119.08H246.961V109.1H307.721L317.281 119.08Z" fill="#138808"></path><path d="M63.9492 101.59H121.479V91.5999H72.6992L63.9492 101.59Z" fill="url(#paint1_linear_194_39444)"></path><path d="M51.1699 119.08H121.48V109.1H60.7199L51.1699 119.08Z" fill="#138808"></path><path d="M96.8672 26V0H100.514V26H96.8672ZM99.1356 14.9369V11.4644H113.567V14.9369H99.1356ZM111.63 26V0H115.277V26H111.63Z" fill="#2D441E"></path><path d="M135.691 26L145.271 0H148.377L157.957 26H154.031L146.824 5.0255L139.618 26H135.691ZM140.106 20.294V16.8215H153.787V20.294H140.106Z" fill="#2D441E"></path><path d="M178.74 26V0H182.387V26H178.74ZM180.625 15.9141V12.4416H188.931C190.117 12.4416 191.077 12.0228 191.793 11.2027C192.508 10.3826 192.874 9.30067 192.874 7.9745C192.874 6.64832 192.508 5.53154 191.793 4.71141C191.077 3.89128 190.117 3.47248 188.931 3.47248H180.625V0H188.809C190.379 0 191.758 0.331544 192.927 0.994631C194.096 1.65772 195.003 2.58255 195.649 3.76913C196.295 4.95571 196.626 6.36913 196.626 7.9745C196.626 9.57987 196.295 10.9584 195.649 12.1624C195.003 13.349 194.096 14.2738 192.927 14.9369C191.758 15.6 190.397 15.9141 188.809 15.9141H180.625Z" fill="#2D441E"></path><path d="M218.02 26V0H221.667V26H218.02ZM219.904 15.9141V12.4416H228.21C229.397 12.4416 230.356 12.0228 231.072 11.2027C231.787 10.3826 232.154 9.30067 232.154 7.9745C232.154 6.64832 231.787 5.53154 231.072 4.71141C230.356 3.89128 229.397 3.47248 228.21 3.47248H219.904V0H228.088C229.658 0 231.037 0.331544 232.206 0.994631C233.375 1.65772 234.283 2.58255 234.928 3.76913C235.574 4.95571 235.905 6.36913 235.905 7.9745C235.905 9.57987 235.574 10.9584 234.928 12.1624C234.283 13.349 233.375 14.2738 232.206 14.9369C231.037 15.6 229.676 15.9141 228.088 15.9141H219.904Z" fill="#2D441E"></path><path d="M273.388 0L265.466 15.4255V25.9826H261.819V15.4255L253.896 0H257.962L263.651 11.7262L269.339 0H273.405H273.388Z" fill="#2D441E"></path></g><defs><linearGradient id="paint0_linear_194_39444" x1="319.571" y1="95.9599" x2="235.931" y2="97.1699" gradientUnits="userSpaceOnUse"><stop offset="0.03" stop-color="#FF8A00"></stop><stop offset="0.21" stop-color="#FE8500"></stop><stop offset="0.43" stop-color="#FB7600"></stop><stop offset="0.67" stop-color="#F65F00"></stop><stop offset="0.86" stop-color="#F24701"></stop><stop offset="0.89" stop-color="#F24A02"></stop><stop offset="0.91" stop-color="#F35307"></stop><stop offset="0.93" stop-color="#F4640F"></stop><stop offset="0.95" stop-color="#F77B1A"></stop><stop offset="0.97" stop-color="#FA9929"></stop><stop offset="0.99" stop-color="#FEBD3B"></stop></linearGradient><linearGradient id="paint1_linear_194_39444" x1="48.8692" y1="95.9599" x2="132.509" y2="97.1699" gradientUnits="userSpaceOnUse"><stop offset="0.03" stop-color="#FF8A00"></stop><stop offset="0.21" stop-color="#FE8500"></stop><stop offset="0.43" stop-color="#FB7600"></stop><stop offset="0.67" stop-color="#F65F00"></stop><stop offset="0.86" stop-color="#F24701"></stop><stop offset="0.89" stop-color="#F24A02"></stop><stop offset="0.91" stop-color="#F35307"></stop><stop offset="0.93" stop-color="#F4640F"></stop><stop offset="0.95" stop-color="#F77B1A"></stop><stop offset="0.97" stop-color="#FA9929"></stop><stop offset="0.99" stop-color="#FEBD3B"></stop></linearGradient><clipPath id="clip0_194_39444"><rect width="369.73" height="121.73" fill="white"></rect></clipPath></defs></svg>