<svg width="50" height="50" viewBox="0 0 50 50" fill="none" xmlns="http://www.w3.org/2000/svg">
<rect width="50" height="50" rx="12" fill="url(#paint0_linear_0_115)" fill-opacity="0.12"/>
<path d="M27.5847 20.1394C27.4258 19.9364 27.1326 19.9006 26.9296 20.0593C26.7266 20.218 26.6907 20.5114 26.8494 20.7144L30.5021 25.3856C28.9536 28.0421 28.1779 31.0685 28.2668 34.1717C28.2719 34.3502 28.381 34.5169 28.5534 34.5889C28.661 34.634 28.6798 34.625 29.2583 34.625C29.7729 34.625 30.1917 35.0437 30.1917 35.5583V37.1333C30.1917 37.648 29.7729 38.0667 29.2583 38.0667H20.7417C20.227 38.0667 19.8083 37.648 19.8083 37.1333V35.5583C19.8083 35.0437 20.227 34.625 20.7417 34.625H25.8167C26.0744 34.625 26.2833 34.416 26.2833 34.1583C26.2833 33.9006 26.0744 33.6917 25.8167 33.6917H21.7392C21.7393 30.7598 20.9692 27.9098 19.4978 25.3856L24.5333 18.9461V25.4643C23.6642 25.6748 23.0167 26.4589 23.0167 27.3917C23.0167 28.4853 23.9064 29.375 25 29.375C26.0936 29.375 26.9833 28.4853 26.9833 27.3917C26.9833 26.4588 26.3358 25.6748 25.4667 25.4643V17.5917C25.4667 17.2059 25.0213 16.9868 24.7157 17.2222C24.6492 17.2735 25.0442 16.7776 18.5657 25.0625C18.446 25.2157 18.4337 25.4269 18.5349 25.5929C19.9942 27.9874 20.806 30.7649 20.8059 33.6917C19.6297 33.6917 18.875 34.5899 18.875 35.5583V37.1333C18.875 38.1626 19.7124 39 20.7417 39H29.2583C30.2876 39 31.125 38.1626 31.125 37.1333V35.5583C31.125 34.5944 30.3756 33.6917 29.1941 33.6917C29.194 30.765 30.0056 27.9875 31.4651 25.5929C31.5663 25.4269 31.554 25.2157 31.4343 25.0625L27.5847 20.1394ZM26.05 27.3917C26.05 27.9706 25.579 28.4417 25 28.4417C24.421 28.4417 23.95 27.9706 23.95 27.3917C23.95 26.8127 24.421 26.3417 25 26.3417C25.579 26.3417 26.05 26.8127 26.05 27.3917ZM31.65 14.0333H34.7053C34.8979 14.5765 35.4166 14.9667 36.025 14.9667C36.797 14.9667 37.425 14.3386 37.425 13.5667C37.425 12.7947 36.797 12.1667 36.025 12.1667C35.4166 12.1667 34.8979 12.5569 34.7053 13.1H31.65C31.3923 13.1 31.1833 13.3089 31.1833 13.5667C31.1833 13.8244 31.3923 14.0333 31.65 14.0333ZM36.025 13.1C36.2823 13.1 36.4917 13.3094 36.4917 13.5667C36.4917 13.824 36.2823 14.0333 36.025 14.0333C35.7677 14.0333 35.5583 13.824 35.5583 13.5667C35.5583 13.3094 35.7677 13.1 36.025 13.1ZM19.17 15.6198C19.3921 15.4888 19.4659 15.2027 19.3349 14.9807C19.2039 14.7588 18.9178 14.685 18.6959 14.8159C15.153 16.9058 12.7476 20.697 12.5841 25.0583H12.4C11.628 25.0583 11 25.6863 11 26.4583V27.7417C11 28.5137 11.628 29.1417 12.4 29.1417H13.6833C14.4553 29.1417 15.0833 28.5137 15.0833 27.7417V26.4583C15.0833 25.6863 14.4553 25.0583 13.6833 25.0583H13.5191C13.6786 21.1856 15.8123 17.6005 19.17 15.6198ZM14.15 26.4583V27.7417C14.15 27.999 13.9406 28.2083 13.6833 28.2083H12.4C12.1427 28.2083 11.9333 27.999 11.9333 27.7417V26.4583C11.9333 26.201 12.1427 25.9917 12.4 25.9917H13.6833C13.9406 25.9917 14.15 26.201 14.15 26.4583ZM37.6 25.0583H37.4156C37.1975 19.2685 33.0404 14.5183 27.5667 13.3664V12.4C27.5667 11.628 26.9387 11 26.1667 11H23.8333C23.0613 11 22.4333 11.628 22.4333 12.4V13.1H15.2947C15.1021 12.5569 14.5834 12.1667 13.975 12.1667C13.203 12.1667 12.575 12.7947 12.575 13.5667C12.575 14.3386 13.203 14.9667 13.975 14.9667C14.5834 14.9667 15.1021 14.5765 15.2947 14.0333H22.4333V14.7333C22.4333 15.5053 23.0613 16.1333 23.8333 16.1333H26.1667C26.9387 16.1333 27.5667 15.5053 27.5667 14.7333V14.321C32.6201 15.4692 36.2745 19.8637 36.4819 25.0583H36.3167C35.5447 25.0583 34.9167 25.6863 34.9167 26.4583V27.7417C34.9167 28.5137 35.5447 29.1417 36.3167 29.1417H37.6C38.372 29.1417 39 28.5137 39 27.7417V26.4583C39 25.6863 38.372 25.0583 37.6 25.0583ZM13.975 14.0333C13.7177 14.0333 13.5083 13.824 13.5083 13.5667C13.5083 13.3094 13.7177 13.1 13.975 13.1C14.2323 13.1 14.4417 13.3094 14.4417 13.5667C14.4417 13.824 14.2323 14.0333 13.975 14.0333ZM26.6333 14.7333C26.6333 14.9906 26.424 15.2 26.1667 15.2H23.8333C23.576 15.2 23.3667 14.9906 23.3667 14.7333V12.4C23.3667 12.1427 23.576 11.9333 23.8333 11.9333H26.1667C26.424 11.9333 26.6333 12.1427 26.6333 12.4V14.7333ZM38.0667 27.7417C38.0667 27.999 37.8573 28.2083 37.6 28.2083H36.3167C36.0594 28.2083 35.85 27.999 35.85 27.7417V26.4583C35.85 26.201 36.0594 25.9917 36.3167 25.9917H37.6C37.8573 25.9917 38.0667 26.201 38.0667 26.4583V27.7417Z" fill="#387EDB"/>
<defs>
<linearGradient id="paint0_linear_0_115" x1="2.17391" y1="58.2031" x2="51.4258" y2="52.9066" gradientUnits="userSpaceOnUse">
<stop stop-color="#30C9AB"/>
<stop offset="1" stop-color="#377BDC"/>
</linearGradient>
</defs>
</svg>
