<svg xmlns="http://www.w3.org/2000/svg" width="49" height="48" viewBox="0 0 49 48" fill="none">
  <g clip-path="url(#clip0_1284_1074)">
    <path d="M24.4999 11.8127C23.9825 11.8127 23.5624 12.2327 23.5624 12.7502C23.5624 13.2676 23.9825 13.6877 24.4999 13.6877C25.0174 13.6877 25.4374 13.2676 25.4374 12.7502C25.4374 12.2327 25.0174 11.8127 24.4999 11.8127Z" fill="#387EDB"/>
    <path d="M8.93738 28.6877C9.45483 28.6877 9.87488 28.2676 9.87488 27.7502C9.87488 27.2327 9.45483 26.8127 8.93738 26.8127C8.41992 26.8127 7.99988 27.2327 7.99988 27.7502C7.99988 28.2676 8.41992 28.6877 8.93738 28.6877Z" fill="#387EDB"/>
    <path d="M31.9999 2.43768C23.5598 2.43768 16.6326 8.25677 16.0968 15.5865C8.05884 15.9897 0.499878 21.7857 0.499878 29.6252C0.499878 32.9013 1.79626 36.0756 4.15613 38.5908C4.62305 40.5156 4.05615 42.5557 2.64954 43.9623C2.38147 44.2304 2.30127 44.6336 2.44629 44.9841C2.59131 45.3342 2.93298 45.5627 3.31238 45.5627C5.98608 45.5627 8.56274 44.5142 10.4773 42.6667C12.3424 43.3024 14.7759 43.6877 16.9999 43.6877C25.4388 43.6877 32.3654 37.8701 32.9026 30.5418C34.8655 30.4547 36.9071 30.0921 38.5225 29.5417C40.437 31.3892 43.0137 32.4377 45.6874 32.4377C46.0668 32.4377 46.4084 32.2092 46.5535 31.8591C46.6985 31.5086 46.6183 31.1054 46.3502 30.8373C44.9436 29.4307 44.3767 27.3906 44.8436 25.4658C47.2035 22.9506 48.4999 19.7763 48.4999 16.5002C48.4999 8.35455 40.3586 2.43768 31.9999 2.43768ZM16.9999 41.8127C14.7872 41.8127 12.2659 41.3784 10.5769 40.7064C10.2151 40.5621 9.80164 40.6569 9.53833 40.9444C8.40637 42.1818 6.93457 43.0446 5.33093 43.4412C6.2146 41.7482 6.44019 39.7524 5.90259 37.8613C5.86011 37.7122 5.78137 37.576 5.67334 37.465C3.54639 35.2744 2.37488 32.4901 2.37488 29.6252C2.37488 23.0187 9.07214 17.4377 16.9999 17.4377C24.486 17.4377 31.0624 22.6434 31.0624 29.6252C31.0624 36.3455 24.754 41.8127 16.9999 41.8127ZM43.3264 24.34C43.2184 24.4514 43.1396 24.5876 43.0972 24.7363C42.5596 26.6274 42.7852 28.6232 43.6688 30.3162C42.0652 29.92 40.5934 29.0568 39.4614 27.8194C39.1981 27.5323 38.7847 27.4371 38.4229 27.5814C36.9591 28.1636 34.871 28.5668 32.8997 28.6642C32.6257 25.119 30.8573 21.7868 27.8339 19.3127H40.0624C40.5802 19.3127 40.9999 18.893 40.9999 18.3752C40.9999 17.8574 40.5802 17.4377 40.0624 17.4377H24.9536C22.8256 16.3544 20.436 15.7227 17.9766 15.5901C18.5153 9.29352 24.5991 4.31268 31.9999 4.31268C39.9276 4.31268 46.6249 9.89374 46.6249 16.5002C46.6249 19.3651 45.4534 22.1494 43.3264 24.34Z" fill="#387EDB"/>
    <path d="M24.4999 26.8127H12.6874C12.1696 26.8127 11.7499 27.2324 11.7499 27.7502C11.7499 28.268 12.1696 28.6877 12.6874 28.6877H24.4999C25.0177 28.6877 25.4374 28.268 25.4374 27.7502C25.4374 27.2324 25.0177 26.8127 24.4999 26.8127Z" fill="#387EDB"/>
    <path d="M24.4999 32.4377H8.93738C8.41956 32.4377 7.99988 32.8574 7.99988 33.3752C7.99988 33.893 8.41956 34.3127 8.93738 34.3127H24.4999C25.0177 34.3127 25.4374 33.893 25.4374 33.3752C25.4374 32.8574 25.0177 32.4377 24.4999 32.4377Z" fill="#387EDB"/>
    <path d="M40.0624 11.8127H28.2499C27.7321 11.8127 27.3124 12.2324 27.3124 12.7502C27.3124 13.268 27.7321 13.6877 28.2499 13.6877H40.0624C40.5803 13.6877 40.9999 13.268 40.9999 12.7502C40.9999 12.2324 40.5803 11.8127 40.0624 11.8127Z" fill="#387EDB"/>
  </g>
  <defs>
    <clipPath id="clip0_1284_1074">
      <rect width="48" height="48" fill="white" transform="translate(0.499939 0.00012207)"/>
    </clipPath>
  </defs>
</svg>