<svg width="60" height="60" viewBox="0 0 60 60" fill="none" xmlns="http://www.w3.org/2000/svg">
<g filter="url(#filter0_d_996_1604)">
<rect x="5" y="2" width="50" height="50" rx="25" fill="url(#paint0_linear_996_1604)"/>
<path d="M39.9955 37.0006L40.0005 36.9998V29.6648C40.0005 26.0764 39.228 23.3123 35.033 23.3123C33.0164 23.3123 31.663 24.4189 31.1105 25.4681H31.0522V23.6473H27.0747V36.9998H31.2164V30.3881C31.2164 28.6473 31.5464 26.9639 33.7022 26.9639C35.8264 26.9639 35.858 28.9506 35.858 30.4998V37.0006H39.9955Z" fill="#0077B5"/>
<path d="M20.3302 23.6477H24.4769V37.0002H20.3302V23.6477Z" fill="#0077B5"/>
<path d="M22.4017 17C21.0758 17 20 18.0758 20 19.4017C20 20.7275 21.0758 21.8258 22.4017 21.8258C23.7275 21.8258 24.8033 20.7275 24.8033 19.4017C24.8025 18.0758 23.7267 17 22.4017 17Z" fill="#0077B5"/>
<rect x="5.75" y="2.75" width="48.5" height="48.5" rx="24.25" stroke="white" stroke-width="1.5"/>
</g>
<defs>
<filter id="filter0_d_996_1604" x="0" y="0" width="60" height="60" filterUnits="userSpaceOnUse" color-interpolation-filters="sRGB">
<feFlood flood-opacity="0" result="BackgroundImageFix"/>
<feColorMatrix in="SourceAlpha" type="matrix" values="0 0 0 0 0 0 0 0 0 0 0 0 0 0 0 0 0 0 127 0" result="hardAlpha"/>
<feOffset dy="3"/>
<feGaussianBlur stdDeviation="2.5"/>
<feComposite in2="hardAlpha" operator="out"/>
<feColorMatrix type="matrix" values="0 0 0 0 0.475 0 0 0 0 0.475 0 0 0 0 0.475 0 0 0 0.1 0"/>
<feBlend mode="normal" in2="BackgroundImageFix" result="effect1_dropShadow_996_1604"/>
<feBlend mode="normal" in="SourceGraphic" in2="effect1_dropShadow_996_1604" result="shape"/>
</filter>
<linearGradient id="paint0_linear_996_1604" x1="18.3901" y1="2" x2="36.0144" y2="49.315" gradientUnits="userSpaceOnUse">
<stop stop-color="#F5F5F5"/>
<stop offset="1" stop-color="white"/>
</linearGradient>
</defs>
</svg>
