<svg width="72" height="52" fill="none" xmlns="http://www.w3.org/2000/svg"><rect x="14.587" y="41.959" width="56.884" height="2.793" rx="1.397" fill="#B4B6C4"/><rect x=".6" y="41.959" width="9.325" height="2.793" rx="1.397" fill="#B4B6C4"/><rect x="14.587" y="48.476" width="56.884" height="2.793" rx="1.397" fill="#B4B6C4"/><rect x=".6" y="48.476" width="9.325" height="2.793" rx="1.397" fill="#B4B6C4"/><path d="M38.944 3.627a14.009 14.009 0 0 0-8.597.902 13.98 13.98 0 0 0-6.425 5.775 13.946 13.946 0 0 0 1.72 16.327 14.01 14.01 0 0 0 16.085 3.413 13.98 13.98 0 0 0 6.423-5.775 13.946 13.946 0 0 0 1.798-8.442l-13.912 1.46 2.908-13.66Z" fill="#387EDB"/><path d="M41.709.441c3.07.705 5.84 2.361 7.909 4.733a14.884 14.884 0 0 1 3.612 8.471L38.368 14.96 41.707.441Z" fill="#FFDC60"/></svg>