<svg width="80" height="80" viewBox="0 0 80 80" fill="none" xmlns="http://www.w3.org/2000/svg">
<rect width="80" height="80" rx="16" fill="url(#paint0_linear_1823_1301)" fill-opacity="0.12"/>
<path d="M63.6901 27.5224L52.7743 19.5352C52.5945 19.4028 52.3649 19.3574 52.1481 19.4115L39.035 22.7376C38.6336 22.8399 38.3912 23.2482 38.4935 23.6495C38.5363 23.8178 38.6363 23.966 38.7763 24.0687L42.2486 26.6036L41.4986 30.4058C41.0898 32.5282 44.4984 35.8881 49.0919 36.7805C49.8976 36.936 50.7162 37.0139 51.5368 37.013C52.7947 37.0209 54.0457 36.8259 55.2416 36.4356C57.079 35.8244 58.3051 34.8044 58.5189 33.7132L59.2689 29.9221L63.4349 28.8684C63.8363 28.7661 64.0788 28.3578 63.9765 27.9565C63.9336 27.7883 63.8336 27.6401 63.6936 27.5373L63.6901 27.5224ZM57.0566 33.4246C56.9703 33.8633 56.1567 34.5495 54.7729 35.0107C53.0257 35.5577 51.1693 35.6583 49.3732 35.3032C45.1547 34.482 42.7998 31.6284 42.9986 30.691L43.6023 27.5824L49.692 32.0522C49.8203 32.1467 49.9752 32.1979 50.1345 32.1984C50.1979 32.1989 50.2611 32.19 50.322 32.1722L57.6566 30.3161L57.0566 33.4246ZM50.307 30.6347L40.9512 23.795L52.1743 20.9526L61.5188 27.7885L50.307 30.6347Z" fill="#387EDB"/>
<path d="M34.3365 37.1555C34.107 37.288 33.9645 37.5318 33.9615 37.7968V51.176C33.9645 51.441 34.107 51.6847 34.3365 51.8173C34.4493 51.887 34.579 51.9246 34.7115 51.926C34.8327 51.9271 34.9524 51.8988 35.0602 51.8435L47.8471 45.1501C48.2137 44.9572 48.3544 44.5037 48.1616 44.1372C48.091 44.003 47.9812 43.8933 47.8471 43.8227L35.0715 37.1293C34.8388 37.0091 34.5602 37.019 34.3365 37.1555ZM35.4615 39.0304L45.8822 44.4863L35.4728 49.9385L35.4615 39.0304Z" fill="#387EDB"/>
<path d="M61.7477 56.1109H57.8966C57.9633 55.9011 57.9974 55.6823 57.9979 55.4622V38.1118C57.9979 37.6976 57.6621 37.3618 57.2479 37.3618C56.8336 37.3618 56.4979 37.6976 56.4979 38.1118V55.4621C56.4917 55.8266 56.1912 56.117 55.8268 56.1108C55.8267 56.1108 55.8267 56.1108 55.8266 56.1108H22.6709C22.3064 56.1171 22.0059 55.8267 21.9996 55.4623C21.9996 55.4622 21.9996 55.4622 21.9996 55.4621V32.7608C22.0058 32.3963 22.3063 32.1059 22.6707 32.1121H22.6709H39.2487C39.6629 32.1121 39.9987 31.7763 39.9987 31.3621C39.9987 30.9479 39.6629 30.6121 39.2487 30.6121H22.6709C21.4788 30.608 20.508 31.5687 20.4997 32.7607V55.462C20.5002 55.6822 20.5343 55.9009 20.601 56.1107H16.75C16.3358 56.1107 16 56.4465 16 56.8607V57.0482C16 58.7356 17.3274 60.6105 19.1086 60.6105H59.389C61.1701 60.6105 62.4976 58.7356 62.4976 57.0482V56.8607C62.4976 56.4467 62.1618 56.1109 61.7477 56.1109ZM59.389 59.1107H19.1086C18.4599 59.1107 17.7999 58.4208 17.5787 57.6108H60.9189C60.6977 58.4208 60.0377 59.1107 59.389 59.1107Z" fill="#387EDB"/>
<defs>
<linearGradient id="paint0_linear_1823_1301" x1="3.47826" y1="93.125" x2="82.2813" y2="84.6505" gradientUnits="userSpaceOnUse">
<stop stop-color="#30C9AB"/>
<stop offset="1" stop-color="#377BDC"/>
</linearGradient>
</defs>
</svg>
