<svg width="20" height="20" viewBox="0 0 20 20" fill="none" xmlns="http://www.w3.org/2000/svg">
<path d="M14 8.13822C14.3496 7.91634 14.5827 7.52676 14.5827 7.08301C14.5827 6.39363 14.0221 5.83301 13.3327 5.83301H13.2352L15.3564 2.29738C15.4337 2.16863 15.4358 2.00822 15.3616 1.87759C15.2881 1.74717 15.1496 1.66634 14.9993 1.66634C14.5002 1.66634 14.271 1.51342 13.9804 1.31967C13.6554 1.1028 13.2506 0.833008 12.4993 0.833008C11.7481 0.833008 11.3433 1.1028 11.0183 1.31967C10.7277 1.51342 10.4985 1.66634 9.99935 1.66634C9.5006 1.66634 9.27122 1.51342 8.98039 1.31967C8.65518 1.1028 8.25018 0.833008 7.49935 0.833008C6.74852 0.833008 6.34352 1.1028 6.01831 1.31967C5.72768 1.51342 5.49831 1.66634 4.99935 1.66634C4.84914 1.66634 4.7106 1.74717 4.63685 1.8778C4.56289 2.00842 4.56477 2.16863 4.64206 2.29759L6.76352 5.83301H6.66602C5.97664 5.83301 5.41602 6.39363 5.41602 7.08301C5.41602 7.52676 5.64914 7.91634 5.99872 8.13822C4.51247 9.21655 1.66602 11.7105 1.66602 14.9997C1.66602 18.6713 5.87872 19.1663 9.99935 19.1663C14.12 19.1663 18.3327 18.6713 18.3327 14.9997C18.3327 11.7105 15.4862 9.21655 14 8.13822ZM5.68227 2.41155C6.02872 2.31405 6.27102 2.15259 6.48039 2.01301C6.77102 1.81926 7.00039 1.66634 7.49935 1.66634C7.9981 1.66634 8.22747 1.81926 8.51831 2.01301C8.84352 2.22988 9.24852 2.49967 9.99935 2.49967C10.7506 2.49967 11.1554 2.22988 11.4804 2.01301C11.771 1.81926 12.0002 1.66634 12.4993 1.66634C12.9985 1.66634 13.2277 1.81926 13.5183 2.01301C13.7277 2.15259 13.9698 2.31405 14.3164 2.41155L12.2635 5.83301H11.4908C11.6362 4.87301 12.2148 3.99051 12.2212 3.98072C12.3487 3.78926 12.2971 3.53051 12.1056 3.40301C11.9139 3.27509 11.6554 3.32717 11.5279 3.51863C11.4948 3.56822 10.796 4.63238 10.6521 5.83301H9.34706C9.20331 4.63238 8.50435 3.56822 8.47122 3.51863C8.34352 3.32717 8.08497 3.27509 7.89352 3.40301C7.70206 3.53051 7.65039 3.78926 7.77789 3.98072C7.78456 3.99072 8.36372 4.86926 8.50872 5.83301H7.7356L5.68227 2.41155ZM6.66602 6.66634H13.3327C13.5625 6.66634 13.7493 6.85322 13.7493 7.08301C13.7493 7.3128 13.5625 7.49967 13.3327 7.49967H6.66602C6.43622 7.49967 6.24935 7.3128 6.24935 7.08301C6.24935 6.85322 6.43622 6.66634 6.66602 6.66634ZM9.99935 18.333C4.67227 18.333 2.49935 17.3672 2.49935 14.9997C2.49935 11.4222 6.54143 8.7453 7.20018 8.33301H12.7985C13.4573 8.7453 17.4993 11.4222 17.4993 14.9997C17.4993 17.3672 15.3264 18.333 9.99935 18.333ZM11.666 14.1663C11.666 14.8557 11.1054 15.4163 10.416 15.4163V16.0413C10.416 16.2713 10.2293 16.458 9.99935 16.458C9.76935 16.458 9.58268 16.2713 9.58268 16.0413V15.4163H8.95768C8.72768 15.4163 8.54102 15.2297 8.54102 14.9997C8.54102 14.7697 8.72768 14.583 8.95768 14.583H10.416C10.6458 14.583 10.8327 14.3961 10.8327 14.1663C10.8327 13.9366 10.6458 13.7497 10.416 13.7497H9.58268C8.89331 13.7497 8.33268 13.189 8.33268 12.4997C8.33268 11.8103 8.89331 11.2497 9.58268 11.2497V10.6247C9.58268 10.3947 9.76935 10.208 9.99935 10.208C10.2293 10.208 10.416 10.3947 10.416 10.6247V11.2497H11.041C11.271 11.2497 11.4577 11.4363 11.4577 11.6663C11.4577 11.8963 11.271 12.083 11.041 12.083H9.58268C9.35289 12.083 9.16602 12.2699 9.16602 12.4997C9.16602 12.7295 9.35289 12.9163 9.58268 12.9163H10.416C11.1054 12.9163 11.666 13.477 11.666 14.1663Z" fill="#646464"/>
</svg>
