<svg width="12" height="13" viewBox="0 0 12 13" fill="none" xmlns="http://www.w3.org/2000/svg">
<g clip-path="url(#clip0_3306_1035)">
<path fill-rule="evenodd" clip-rule="evenodd" d="M3.12366 11.8697H9.78898C10.3752 11.8697 10.9375 11.6366 11.3525 11.2222C11.7669 10.8071 12 10.2449 12 9.65864V2.07796C12 1.82653 11.9002 1.58584 11.7227 1.4077C11.5445 1.23018 11.3039 1.13037 11.0524 1.13037H4.73518C4.21212 1.13037 3.7876 1.55489 3.7876 2.07796V10.2904C3.7876 10.9088 3.53364 11.4685 3.12366 11.8697ZM1.57656 11.8697C0.704153 11.8697 -0.00274658 11.1628 -0.00274658 10.2904V4.60485C-0.00274658 4.08179 0.421772 3.65727 0.944839 3.65727H3.15587V10.2904C3.15587 11.1628 2.44897 11.8697 1.57656 11.8697ZM5.68277 10.1324H10.1048C10.3664 10.1324 10.5786 9.92018 10.5786 9.65864C10.5786 9.39711 10.3664 9.18485 10.1048 9.18485H5.68277C5.42124 9.18485 5.20898 9.39711 5.20898 9.65864C5.20898 9.92018 5.42124 10.1324 5.68277 10.1324ZM5.68277 8.23727H10.1048C10.3664 8.23727 10.5786 8.02501 10.5786 7.76347C10.5786 7.50194 10.3664 7.28968 10.1048 7.28968H5.68277C5.42124 7.28968 5.20898 7.50194 5.20898 7.76347C5.20898 8.02501 5.42124 8.23727 5.68277 8.23727ZM5.68277 6.34209H10.1048C10.3664 6.34209 10.5786 6.12983 10.5786 5.8683C10.5786 5.60677 10.3664 5.39451 10.1048 5.39451H5.68277C5.42124 5.39451 5.20898 5.60677 5.20898 5.8683C5.20898 6.12983 5.42124 6.34209 5.68277 6.34209ZM6.31449 3.8152H9.47311C9.73465 3.8152 9.94691 3.60294 9.94691 3.34141C9.94691 3.07987 9.73465 2.86761 9.47311 2.86761H6.31449C6.05296 2.86761 5.8407 3.07987 5.8407 3.34141C5.8407 3.60294 6.05296 3.8152 6.31449 3.8152Z" fill="#0D2975"/>
</g>
<defs>
<clipPath id="clip0_3306_1035">
<rect width="12" height="12" fill="white" transform="translate(0 0.5)"/>
</clipPath>
</defs>
</svg>
