<svg width="24" height="22" viewBox="0 0 24 22" fill="none" xmlns="http://www.w3.org/2000/svg">
<path d="M9.30689 17.1919H3.86822C3.57082 17.1919 3.32974 17.433 3.32974 17.7304C3.32974 18.0278 3.57082 18.2689 3.86822 18.2689H9.30689C9.6043 18.2689 9.84538 18.0278 9.84538 17.7304C9.84538 17.433 9.6043 17.1919 9.30689 17.1919Z" fill="#387EDB"/>
<path d="M17.4381 17.1919H11.9994C11.702 17.1919 11.4609 17.433 11.4609 17.7304C11.4609 18.0278 11.702 18.2689 11.9994 18.2689H17.4381C17.7354 18.2689 17.9766 18.0278 17.9766 17.7304C17.9766 17.433 17.7354 17.1919 17.4381 17.1919Z" fill="#387EDB"/>
<path d="M17.4379 3.73071H3.86813C3.57073 3.73071 3.32965 3.97179 3.32965 4.2692C3.32965 4.5666 3.57073 4.80768 3.86813 4.80768H17.4379C17.7352 4.80768 17.9764 4.5666 17.9764 4.2692C17.9764 3.97179 17.7352 3.73071 17.4379 3.73071Z" fill="#387EDB"/>
<path d="M17.4391 6.42041H12.0005C11.7031 6.42041 11.462 6.66149 11.462 6.95889C11.462 7.2563 11.7031 7.49737 12.0005 7.49737H17.4391C17.7365 7.49737 17.9776 7.2563 17.9776 6.95889C17.9776 6.66149 17.7365 6.42041 17.4391 6.42041Z" fill="#387EDB"/>
<path d="M17.4381 9.11633H11.9994C11.702 9.11633 11.4609 9.35741 11.4609 9.65482C11.4609 9.95222 11.702 10.1933 11.9994 10.1933H17.4381C17.7354 10.1933 17.9766 9.95222 17.9766 9.65482C17.9766 9.35741 17.7354 9.11633 17.4381 9.11633Z" fill="#387EDB"/>
<path d="M17.4391 11.8102H12.0005C11.7031 11.8102 11.462 12.0513 11.462 12.3487C11.462 12.6461 11.7031 12.8871 12.0005 12.8871H17.4391C17.7365 12.8871 17.9776 12.6461 17.9776 12.3487C17.9776 12.0513 17.7365 11.8102 17.4391 11.8102Z" fill="#387EDB"/>
<path d="M17.4391 14.5H12.0005C11.7031 14.5 11.462 14.7411 11.462 15.0385C11.462 15.3359 11.7031 15.577 12.0005 15.577H17.4391C17.7365 15.577 17.9776 15.3359 17.9776 15.0385C17.9776 14.7411 17.7365 14.5 17.4391 14.5Z" fill="#387EDB"/>
<path d="M9.3068 14.5H3.86813C3.57073 14.5 3.32965 14.7411 3.32965 15.0385C3.32965 15.3359 3.57073 15.577 3.86813 15.577H9.3068C9.60421 15.577 9.84528 15.3359 9.84528 15.0385C9.84528 14.7411 9.60421 14.5 9.3068 14.5Z" fill="#387EDB"/>
<path d="M9.30689 6.42041H3.86822C3.57082 6.42041 3.32974 6.66149 3.32974 6.95889V12.3976C3.32974 12.695 3.57082 12.936 3.86822 12.936H9.30689C9.6043 12.936 9.84538 12.695 9.84538 12.3976V6.95889C9.84538 6.66149 9.6043 6.42041 9.30689 6.42041ZM8.76841 11.8591H4.40671V7.49737H8.76841V11.8591Z" fill="#387EDB"/>
<path d="M22.823 3.19241H21.2076V1.57696C21.2076 0.983126 20.7244 0.5 20.1306 0.5H1.17602C0.582186 0.5 0.0990601 0.983126 0.0990601 1.57696V18.8084C0.0990601 20.293 1.30688 21.5008 2.79147 21.5008H21.2076C22.6922 21.5008 23.9 20.293 23.9 18.8084V4.26938C23.9 3.67554 23.4168 3.19241 22.823 3.19241ZM22.823 18.8084C22.823 19.6992 22.0983 20.4238 21.2076 20.4238H2.79147C1.90071 20.4238 1.17602 19.6992 1.17602 18.8084V1.57696H20.1306V18.0007C20.1306 18.743 20.7345 19.3469 21.4768 19.3469C21.7742 19.3469 22.0153 19.1058 22.0153 18.8084C22.0153 18.511 21.7742 18.2699 21.4768 18.2699C21.3283 18.2699 21.2076 18.1491 21.2076 18.0007V4.26938H22.823V18.8084Z" fill="#387EDB"/>
</svg>
