<svg width="15" height="14" fill="none" xmlns="http://www.w3.org/2000/svg"><path d="m12.21 1.982.317.909c.093.288.284.537.543.709l.802.515c.269.173.468.428.564.724.095.297.082.615-.038.903l-.317.736c-.138.326-.138.69 0 1.015l.317.718c.12.282.137.595.048.887a1.358 1.358 0 0 1-.536.725l-.714.488a1.348 1.348 0 0 0-.539.73l-.256.86c-.09.303-.286.566-.557.744-.27.179-.596.262-.924.235l-.77-.06a1.442 1.442 0 0 0-1.008.303l-.742.572c-.253.197-.57.305-.896.305-.326 0-.642-.108-.895-.305l-.634-.497a1.452 1.452 0 0 0-.9-.303H3.961c-.32.001-.631-.102-.882-.293a1.342 1.342 0 0 1-.497-.755l-.203-.824a1.346 1.346 0 0 0-.583-.815l-.682-.479a1.356 1.356 0 0 1-.547-.696 1.292 1.292 0 0 1 .011-.87l.317-.83a1.29 1.29 0 0 0 0-.937L.611 5.67a1.295 1.295 0 0 1-.02-.9c.1-.293.303-.544.575-.712l.751-.463c.29-.18.502-.455.596-.773l.222-.763c.089-.304.286-.57.558-.749.271-.18.6-.263.929-.236l.71.057c.365.028.728-.08 1.011-.303l.675-.52C6.872.107 7.19 0 7.517 0c.328 0 .645.108.899.306l.59.473c.283.224.647.333 1.014.303l.745-.052c.318-.02.633.064.895.237.263.172.456.424.55.715Z" fill="url(#a)"/><path d="m10.585 4.03-6.296 6.02m1.455-4.305c.66 0 1.195-.511 1.195-1.142 0-.631-.535-1.143-1.195-1.143s-1.195.512-1.195 1.143c0 .63.535 1.142 1.195 1.142Zm3.646 4.8c.66 0 1.195-.512 1.195-1.143 0-.63-.535-1.142-1.196-1.142-.66 0-1.195.511-1.195 1.142 0 .63.535 1.142 1.195 1.142Z" stroke="#fff" stroke-width=".7" stroke-linecap="round" stroke-linejoin="round"/><defs><linearGradient id="a" x1="1.107" y1="16.297" x2="14.902" y2="14.813" gradientUnits="userSpaceOnUse"><stop stop-color="#30C9AB"/><stop offset="1" stop-color="#377BDC"/></linearGradient></defs></svg>