<svg width="32" height="32" fill="none" xmlns="http://www.w3.org/2000/svg"><path d="M24.326 21.168c-1.045-1.032-2.35-1.032-3.39 0a198.62 198.62 0 0 0-2.363 2.37c-.213.22-.393.267-.653.12-.512-.28-1.058-.506-1.551-.812-2.297-1.445-4.222-3.303-5.927-5.394-.845-1.039-1.598-2.15-2.124-3.403-.106-.253-.086-.42.12-.626.792-.765 1.565-1.551 2.344-2.337 1.085-1.092 1.085-2.37-.007-3.47-.619-.625-1.238-1.238-1.857-1.864C8.278 5.113 7.646 4.467 7 3.835c-1.046-1.02-2.35-1.02-3.39.006-.799.786-1.564 1.592-2.377 2.364C.481 6.918.101 7.79.021 8.81c-.126 1.658.28 3.223.853 4.748 1.172 3.156 2.956 5.96 5.12 8.53 2.924 3.476 6.413 6.226 10.495 8.21 1.837.892 3.742 1.578 5.813 1.691 1.425.08 2.663-.28 3.656-1.391.679-.76 1.445-1.452 2.164-2.178 1.065-1.079 1.072-2.384.013-3.45a1026.623 1026.623 0 0 0-3.809-3.801ZM23.052 15.86l2.457-.419a10.983 10.983 0 0 0-3.07-5.926 10.923 10.923 0 0 0-6.259-3.123l-.346 2.47a8.475 8.475 0 0 1 4.848 2.417 8.474 8.474 0 0 1 2.37 4.582ZM26.896 5.18A18.118 18.118 0 0 0 16.508-.001l-.346 2.47a15.71 15.71 0 0 1 8.976 4.475 15.697 15.697 0 0 1 4.402 8.49l2.457-.42a18.251 18.251 0 0 0-5.1-9.834Z" fill="#377EDB"/></svg>