<svg width="24" height="24" viewBox="0 0 24 24" fill="none" xmlns="http://www.w3.org/2000/svg">
<path d="M12.0004 2.40039C6.69879 2.40039 2.40039 6.69879 2.40039 12.0004C2.40039 17.302 6.69879 21.6004 12.0004 21.6004C17.302 21.6004 21.6004 17.302 21.6004 12.0004C21.6004 6.69879 17.302 2.40039 12.0004 2.40039ZM9.58359 15.994C9.58359 16.3612 9.28119 16.6636 8.91159 16.6636H7.06839C6.70119 16.6636 6.39879 16.3612 6.39879 15.994V10.738C6.39879 10.3708 6.70119 10.0684 7.06839 10.0684H8.91159C9.28119 10.0684 9.58359 10.3708 9.58359 10.738V15.994ZM17.4292 11.8756C17.638 12.0436 17.7724 12.3004 17.7724 12.5908C17.7724 13.0252 17.47 13.3876 17.0644 13.4836C17.2732 13.6516 17.4076 13.9084 17.4076 14.1964C17.4076 14.6332 17.1052 14.9956 16.6972 15.0892C16.9084 15.2572 17.0428 15.514 17.0428 15.8044C17.0428 16.3108 16.6324 16.7212 16.126 16.7212L10.9324 16.6636C10.5628 16.6636 10.2604 16.3612 10.2604 15.994V10.738C10.2604 9.90279 12.9124 8.37879 13.054 7.55319C13.1452 7.02519 13.0252 5.66919 13.39 5.66919C14.0092 5.66919 14.8036 5.90679 14.8036 7.28199C14.8036 8.49399 14.0092 10.0684 14.0092 10.0684H17.2228C17.7292 10.0684 18.1396 10.4788 18.1396 10.9828C18.1396 11.4196 17.8348 11.782 17.4292 11.8756Z" fill="#3882D9"/>
</svg>
