<svg width="20" height="20" viewBox="0 0 20 20" fill="none" xmlns="http://www.w3.org/2000/svg">
<g clip-path="url(#clip0_3262_378)">
<path d="M18.5894 13.6389C18.8256 13.3976 18.9518 13.0822 18.9448 12.7512C18.9359 12.2932 18.675 11.893 18.2974 11.6833C18.4948 11.4563 18.6026 11.1691 18.6026 10.8654C18.6026 10.3948 18.3409 9.98424 17.9554 9.77149C18.0476 9.66516 18.1206 9.54504 18.1728 9.41336C18.1743 9.40961 18.1757 9.40582 18.177 9.40203C18.2317 9.25812 18.2594 9.10768 18.2594 8.95478C18.2594 8.26636 17.6995 7.7063 17.0113 7.7063H12.4316C12.4889 7.56778 12.5225 7.41731 12.5256 7.25964C12.5322 6.9278 12.4057 6.6122 12.1693 6.37098C12.0816 6.28152 11.9815 6.20601 11.873 6.14624C12.0659 5.92639 12.183 5.63841 12.183 5.32356C12.183 4.98979 12.053 4.67619 11.8174 4.44095C11.5822 4.20527 11.2687 4.0755 10.9347 4.0755H8.69357L9.55189 2.24711C9.72896 1.87022 9.74857 1.44693 9.60716 1.05523C9.46575 0.663617 9.18035 0.350442 8.80342 0.173365C8.59447 0.0751972 8.37188 0.0253906 8.14183 0.0253906C7.53986 0.0253906 6.98554 0.377357 6.72959 0.922221L6.28169 1.87663C6.03726 2.39704 5.65401 2.82116 5.17344 3.10308C4.7519 3.35016 4.42365 3.71795 4.22415 4.16672C4.20583 4.20797 4.18895 4.24961 4.17317 4.29153C4.00309 4.17043 3.79542 4.09894 3.57124 4.09894H2.09579C1.52186 4.09894 1.05493 4.56603 1.05493 5.14015V5.9821C1.05493 6.1439 1.18611 6.27508 1.34791 6.27508C1.50971 6.27508 1.64089 6.1439 1.64089 5.9821V5.14011C1.64089 4.88909 1.84496 4.68486 2.09579 4.68486H3.57124C3.82207 4.68486 4.02614 4.88909 4.02614 5.14011V11.0977C4.02614 11.3487 3.82207 11.553 3.57124 11.553H2.09579C1.84496 11.553 1.64089 11.3487 1.64089 11.0977V7.15304C1.64089 6.99123 1.50971 6.86006 1.34791 6.86006C1.18611 6.86006 1.05493 6.99123 1.05493 7.15304V11.0977C1.05493 11.6718 1.52186 12.1389 2.09579 12.1389H3.57124C3.81136 12.1389 4.03262 12.0569 4.20892 11.9197C4.54854 12.1693 4.95726 12.3042 5.38634 12.3042H7.47423V14.8706C7.47423 15.4446 7.94124 15.9116 8.51525 15.9116H9.99038C10.2147 15.9116 10.4224 15.84 10.5926 15.7188C10.6084 15.7609 10.6252 15.8027 10.6436 15.844C10.8429 16.2921 11.1711 16.6598 11.5929 16.9075C12.0738 17.1895 12.457 17.6135 12.7012 18.1336L13.149 19.0886C13.4052 19.6333 13.9595 19.9853 14.5613 19.9853C14.7897 19.9853 15.0121 19.9356 15.223 19.8372C15.5998 19.6601 15.8852 19.3468 16.0266 18.9552C16.168 18.5634 16.1484 18.1402 15.9713 17.7637L15.1127 15.9348H16.7686C16.9304 15.9348 17.0616 15.8037 17.0616 15.6419C17.0616 15.4801 16.9304 15.3489 16.7686 15.3489H14.6675C14.5679 15.3489 14.4752 15.3994 14.4213 15.4829C14.4181 15.4875 14.4148 15.4925 14.4102 15.4998C14.357 15.5842 14.3505 15.69 14.3929 15.7804L15.441 18.0129C15.5515 18.2477 15.5637 18.5117 15.4755 18.7562C15.3872 19.0007 15.209 19.1963 14.9746 19.3065C14.8426 19.3681 14.7036 19.3993 14.5613 19.3993C14.1855 19.3993 13.8393 19.1795 13.6794 18.8395L13.2317 17.8846C12.9369 17.2569 12.4728 16.7442 11.8896 16.4021C11.574 16.2168 11.3283 15.9415 11.1792 15.6061C11.0766 15.375 11.0269 15.1292 11.0314 14.8757C11.0314 14.8752 11.0313 14.8748 11.0313 14.8744C11.0313 14.8731 11.0314 14.8719 11.0314 14.8706V12.224C11.5033 12.0457 11.8399 11.5895 11.8399 11.0558C11.8399 10.9012 11.812 10.7502 11.7569 10.6068C11.7558 10.6036 11.7546 10.6005 11.7534 10.5973C11.7011 10.4655 11.6282 10.3452 11.536 10.2389C11.9214 10.0261 12.1831 9.61555 12.1831 9.14507C12.1831 8.84107 12.0752 8.55383 11.8779 8.32726C11.8979 8.31621 11.9173 8.30433 11.9365 8.29222H17.0114C17.3765 8.29222 17.6735 8.58942 17.6735 8.95475C17.6735 9.03795 17.658 9.12006 17.6274 9.19878C17.6268 9.2005 17.6261 9.20222 17.6255 9.20397C17.5918 9.28628 17.5427 9.36003 17.4795 9.42324C17.3546 9.54813 17.1883 9.61692 17.0114 9.61692C16.8495 9.61692 16.7184 9.74809 16.7184 9.9099C16.7184 10.0717 16.8495 10.2029 17.0114 10.2029H17.354C17.7194 10.2029 18.0166 10.5001 18.0166 10.8654C18.0166 11.0424 17.9477 11.2088 17.8228 11.3337C17.6975 11.4587 17.531 11.5276 17.354 11.5276C17.1922 11.5276 17.0611 11.6588 17.0611 11.8206C17.0611 11.9824 17.1922 12.1135 17.354 12.1135H17.6975C18.0552 12.1135 18.352 12.4048 18.359 12.7631C18.3626 12.9358 18.2958 13.1012 18.1708 13.2289C18.0406 13.3619 17.8601 13.4382 17.6757 13.4382H17.3541C17.1922 13.4382 17.0611 13.5694 17.0611 13.7312C17.0611 13.893 17.1922 14.0242 17.3541 14.0242C17.7195 14.0242 18.0167 14.3215 18.0167 14.6871C18.0167 14.864 17.9477 15.0304 17.8227 15.1555C17.7971 15.181 17.7702 15.2038 17.7428 15.2231C17.6105 15.3162 17.5788 15.499 17.6719 15.6313C17.729 15.7123 17.8196 15.7557 17.9118 15.7557C17.97 15.7557 18.0289 15.7383 18.0802 15.7022C18.135 15.6636 18.1877 15.6191 18.237 15.5699C18.4728 15.334 18.6027 15.0205 18.6027 14.6871C18.6027 14.3722 18.4855 14.0841 18.2926 13.8642C18.4012 13.8043 18.5016 13.7286 18.5894 13.6389ZM9.99034 15.3256H8.51521C8.2643 15.3256 8.06015 15.1215 8.06015 14.8706V12.3042H10.4454V14.8706C10.4454 15.1215 10.2412 15.3256 9.99034 15.3256ZM10.9346 9.80747H10.5918C10.4299 9.80747 10.2988 9.93865 10.2988 10.1005C10.2988 10.2623 10.4299 10.3934 10.5918 10.3934C10.7688 10.3934 10.9352 10.4623 11.0602 10.5873C11.1234 10.6505 11.1724 10.7244 11.206 10.807C11.2067 10.8089 11.2074 10.8107 11.2081 10.8125C11.2385 10.8899 11.2539 10.9718 11.2539 11.0559C11.2539 11.4211 10.9568 11.7183 10.5918 11.7183H5.3863C5.08227 11.7183 4.79265 11.6223 4.55233 11.4449C4.59084 11.3362 4.61206 11.2194 4.61206 11.0977V5.14011C4.61206 5.13828 4.61194 5.13644 4.6119 5.13456H4.61198C4.60733 4.88112 4.65702 4.63552 4.7596 4.40458C4.90898 4.06851 5.15454 3.79326 5.46982 3.60845C6.05297 3.26633 6.51713 2.75362 6.81206 2.12559L7.25997 1.17121C7.41978 0.831085 7.76592 0.611311 8.1418 0.611311C8.28504 0.611311 8.4238 0.642367 8.55423 0.703658C9.03995 0.93187 9.24957 1.51248 9.02144 1.998L7.97363 4.23008C7.93218 4.31832 7.93737 4.42141 7.98745 4.50509C7.99323 4.51478 7.9964 4.51954 8.0021 4.52814C8.05617 4.61126 8.14859 4.66142 8.24774 4.66142H10.9346C11.1118 4.66142 11.278 4.73014 11.4029 4.85522C11.5281 4.98014 11.597 5.14644 11.597 5.32352C11.597 5.68892 11.2998 5.98624 10.9346 5.98624C10.7727 5.98624 10.6416 6.11741 10.6416 6.27922C10.6416 6.44102 10.7727 6.5722 10.9346 6.5722H11.2562C11.4404 6.5722 11.6206 6.64833 11.7507 6.78111C11.876 6.90893 11.9431 7.07468 11.9396 7.24796C11.9326 7.60583 11.6357 7.89701 11.2778 7.89701H10.9346C10.7727 7.89701 10.6416 8.02819 10.6416 8.18999C10.6416 8.35179 10.7727 8.48297 10.9346 8.48297C11.1118 8.48297 11.278 8.55164 11.4029 8.67677C11.5281 8.80165 11.597 8.96799 11.597 9.14503C11.597 9.51031 11.2999 9.80747 10.9346 9.80747Z" fill="#646464"/>
<path d="M5.03498 14.2973L5.01303 14.2153V14.2153C4.89619 13.7792 4.45762 13.5054 4.0144 13.5922L3.11081 13.7691C2.87717 13.8148 2.67087 13.9569 2.54485 14.1589C2.41883 14.3609 2.38188 14.6086 2.44348 14.8386L2.49805 15.0423C2.5597 15.2723 2.71552 15.4683 2.92569 15.5803C3.0514 15.6472 3.19124 15.6812 3.33156 15.6812C3.42578 15.6812 3.52024 15.6659 3.61071 15.6349L4.48168 15.3363C4.90881 15.1898 5.15186 14.7334 5.03498 14.2973ZM4.29164 14.7819L3.42067 15.0805C3.34742 15.1057 3.26945 15.0995 3.20109 15.063C3.13273 15.0266 3.08405 14.9654 3.06405 14.8906L3.00948 14.6869C2.98944 14.6121 3.00096 14.5347 3.04198 14.469C3.083 14.4034 3.14738 14.359 3.22339 14.3441L4.12698 14.1672C4.14468 14.1638 4.16234 14.1621 4.17984 14.1621C4.30246 14.1621 4.4143 14.2446 4.44707 14.367V14.367L4.46903 14.449C4.50645 14.5887 4.42856 14.735 4.29164 14.7819Z" fill="#646464"/>
<path d="M6.32864 16.0261C6.00933 15.7068 5.49259 15.6891 5.15219 15.9857L4.4581 16.5907C4.27864 16.7471 4.17102 16.9733 4.16285 17.2113C4.15469 17.4492 4.24657 17.6822 4.41493 17.8506L4.56404 17.9997C4.72549 18.1611 4.94644 18.2523 5.17414 18.2523C5.18387 18.2523 5.1936 18.2521 5.20332 18.2518C5.44126 18.2436 5.66744 18.136 5.82389 17.9565L6.42888 17.2624C6.72557 16.922 6.70787 16.4053 6.3886 16.0861L6.32864 16.0261ZM5.98718 16.8774L5.3822 17.5715C5.33134 17.6299 5.26067 17.6635 5.18328 17.6662C5.10629 17.6685 5.03316 17.6401 4.97839 17.5854L4.82929 17.4363C4.77456 17.3815 4.74585 17.3088 4.7485 17.2314C4.75116 17.154 4.78475 17.0834 4.84315 17.0325L5.53724 16.4275C5.58924 16.3822 5.65404 16.3598 5.71873 16.3598C5.78979 16.3598 5.86073 16.3868 5.91429 16.4404L5.97429 16.5004C6.0766 16.6028 6.0823 16.7684 5.98718 16.8774Z" fill="#646464"/>
<path d="M8.19866 17.4008L8.11667 17.3789C7.68052 17.262 7.22409 17.505 7.07768 17.9322L6.77904 18.8031C6.70181 19.0283 6.72173 19.278 6.83365 19.4882C6.94557 19.6983 7.14163 19.8541 7.3716 19.9158L7.57532 19.9704C7.64833 19.9899 7.7231 19.9995 7.79763 19.9995C7.95795 19.9995 8.11714 19.955 8.25499 19.869C8.45695 19.743 8.59907 19.5367 8.64481 19.303L8.82169 18.3994C8.90845 17.9563 8.63477 17.5177 8.19866 17.4008ZM8.24667 18.2869L8.06979 19.1905C8.05491 19.2664 8.01053 19.3308 7.94486 19.3719C7.87916 19.4128 7.80181 19.4243 7.727 19.4044L7.52329 19.3498C7.44848 19.3297 7.38727 19.281 7.35086 19.2127C7.31445 19.1444 7.30824 19.0664 7.33336 18.9931L7.632 18.1222C7.67099 18.0085 7.77849 17.9354 7.89392 17.9354C7.91744 17.9354 7.94131 17.9385 7.96494 17.9448L8.04694 17.9668C8.18675 18.0042 8.27445 18.1448 8.24667 18.2869Z" fill="#646464"/>
<path d="M15.4689 5.68551L15.4908 5.76723C15.5929 6.1483 15.941 6.40507 16.3229 6.40503C16.3772 6.40503 16.4323 6.39983 16.4874 6.38905L17.3883 6.21272C17.6214 6.16705 17.8273 6.02525 17.9531 5.82368C18.0788 5.62211 18.1157 5.37487 18.0542 5.14541L17.9998 4.94232C17.9383 4.71282 17.7827 4.51711 17.573 4.40542C17.3633 4.29378 17.1141 4.2739 16.8894 4.35097L16.0211 4.64864C15.5948 4.79481 15.3522 5.25026 15.4689 5.68551ZM16.2111 5.20295L17.0794 4.90529C17.1088 4.89521 17.1389 4.89021 17.169 4.89021C17.2132 4.89021 17.2571 4.90111 17.2975 4.92267C17.3655 4.95884 17.4139 5.01967 17.4338 5.094L17.4882 5.2971C17.5081 5.3714 17.4966 5.44828 17.4559 5.51355C17.4152 5.57883 17.3511 5.62293 17.2757 5.63774L16.3748 5.81407C16.2338 5.84181 16.094 5.75458 16.0568 5.61567C16.0568 5.61567 16.0568 5.61566 16.0568 5.61563L16.0349 5.5339C15.9977 5.39495 16.075 5.2496 16.2111 5.20295Z" fill="#646464"/>
<path d="M14.1784 3.96309C14.3452 4.12993 14.566 4.21427 14.7873 4.21427C14.9887 4.21427 15.1906 4.14443 15.3524 4.00337L16.0443 3.40026C16.2235 3.24412 16.3308 3.01845 16.339 2.78098C16.3471 2.54351 16.2554 2.311 16.0875 2.14294L15.9388 1.99427C15.7708 1.82625 15.538 1.73418 15.3008 1.74273C15.0633 1.75086 14.8376 1.85825 14.6815 2.03736L14.0784 2.72929C13.7823 3.06899 13.7999 3.58468 14.1186 3.90324L14.1784 3.96309ZM14.52 3.11431L15.1231 2.42237C15.1737 2.36436 15.2439 2.33096 15.3208 2.32834C15.3973 2.32557 15.47 2.3542 15.5244 2.40862L15.6731 2.5573C15.7275 2.61171 15.756 2.68402 15.7534 2.7609C15.7508 2.83778 15.7173 2.90797 15.6594 2.95852L14.9674 3.56163C14.859 3.65613 14.6945 3.6505 14.5928 3.54882L14.5329 3.48897C14.4312 3.38725 14.4255 3.22271 14.52 3.11431Z" fill="#646464"/>
<path d="M12.3158 2.59248L12.3975 2.6144C12.4713 2.63412 12.5456 2.64362 12.6188 2.64358C12.9782 2.64358 13.313 2.41626 13.4344 2.06219L13.732 1.19391C13.8091 0.969178 13.7892 0.719989 13.6775 0.510255C13.5659 0.30056 13.3702 0.145007 13.1407 0.0835596L12.9376 0.0291045C12.7082 -0.0323431 12.4609 0.00449417 12.2593 0.13028C12.0577 0.256066 11.916 0.461933 11.8703 0.695067L11.694 1.59588C11.6074 2.03805 11.8805 2.47584 12.3158 2.59248ZM12.269 1.70842L12.4454 0.80761C12.4602 0.732099 12.5043 0.668112 12.5695 0.627369C12.6139 0.599711 12.6635 0.585531 12.7142 0.585531C12.738 0.585531 12.7622 0.588695 12.786 0.595063L12.9891 0.649518C13.0634 0.669441 13.1242 0.717802 13.1604 0.785695C13.1966 0.853588 13.2027 0.931091 13.1778 1.00387L12.8801 1.87214C12.8335 2.0082 12.688 2.08563 12.5492 2.04836C12.5492 2.04836 12.5492 2.04836 12.5492 2.04836L12.4675 2.02648C12.3286 1.98926 12.2414 1.84956 12.269 1.70842Z" fill="#646464"/>
</g>
<defs>
<clipPath id="clip0_3262_378">
<rect width="20" height="20" fill="white"/>
</clipPath>
</defs>
</svg>
