<svg width="25" height="26" viewBox="0 0 25 26" fill="none" xmlns="http://www.w3.org/2000/svg">
<rect x="1.41909" y="0.754842" width="22.1667" height="24.5" rx="2.91667" stroke="#387EDB" stroke-width="1.16667"/>
<path d="M8.051 3.89111H5.35942C4.69478 3.89111 4.1574 4.42849 4.1574 5.09313V7.78472C4.1574 8.44936 4.69478 8.98674 5.35942 8.98674H8.051C8.71565 8.98674 9.25302 8.44936 9.25302 7.78472V5.09313C9.25302 4.42849 8.71565 3.89111 8.051 3.89111ZM8.33855 7.78943C8.33855 7.9497 8.20656 8.07697 8.051 8.07697H5.35942C5.19915 8.07697 5.07188 7.94498 5.07188 7.78943V5.09785C5.07188 4.93758 5.20387 4.81031 5.35942 4.81031H8.051C8.21127 4.81031 8.33855 4.94229 8.33855 5.09785V7.78943Z" fill="#387EDB"/>
<path d="M20.4611 4.93018H11.486C11.2315 4.93018 11.0288 5.13287 11.0288 5.38741C11.0288 5.64196 11.2315 5.84465 11.486 5.84465H20.4564C20.7109 5.84465 20.9136 5.64196 20.9136 5.38741C20.9183 5.13287 20.7109 4.93018 20.4611 4.93018Z" fill="#387EDB"/>
<path d="M11.486 7.9572H16.6948C16.9493 7.9572 17.152 7.75451 17.152 7.49996C17.152 7.24542 16.9493 7.04272 16.6948 7.04272H11.486C11.2315 7.04272 11.0288 7.24542 11.0288 7.49996C11.0288 7.7498 11.2362 7.9572 11.486 7.9572Z" fill="#387EDB"/>
<path d="M8.051 10.3098H5.35942C4.69478 10.3098 4.1574 10.8519 4.1574 11.5118V14.2034C4.1574 14.8681 4.69478 15.4054 5.35942 15.4054H8.051C8.71565 15.4054 9.25302 14.8681 9.25302 14.2034V11.5118C9.25302 10.8519 8.71565 10.3098 8.051 10.3098ZM8.33855 14.2081C8.33855 14.3684 8.20656 14.4957 8.051 14.4957H5.35942C5.19915 14.4957 5.07188 14.3637 5.07188 14.2081V11.5165C5.07188 11.3563 5.20387 11.229 5.35942 11.229H8.051C8.21127 11.229 8.33855 11.361 8.33855 11.5165V14.2081Z" fill="#387EDB"/>
<path d="M20.4611 11.3489H11.486C11.2315 11.3489 11.0288 11.5516 11.0288 11.8061C11.0288 12.0607 11.2315 12.2634 11.486 12.2634H20.4564C20.7109 12.2634 20.9136 12.0607 20.9136 11.8061C20.9136 11.5516 20.7109 11.3489 20.4611 11.3489Z" fill="#387EDB"/>
<path d="M11.487 14.3759H16.6958C16.9503 14.3759 17.153 14.1732 17.153 13.9187C17.153 13.6641 16.9503 13.4614 16.6958 13.4614H11.487C11.2325 13.4614 11.0298 13.6641 11.0298 13.9187C11.0298 14.1732 11.2372 14.3759 11.487 14.3759Z" fill="#387EDB"/>
<path d="M8.051 17.3098H5.35942C4.69478 17.3098 4.1574 17.8519 4.1574 18.5118V21.2034C4.1574 21.8681 4.69478 22.4054 5.35942 22.4054H8.051C8.71565 22.4054 9.25302 21.8681 9.25302 21.2034V18.5118C9.25302 17.8519 8.71565 17.3098 8.051 17.3098ZM8.33855 21.2081C8.33855 21.3684 8.20656 21.4957 8.051 21.4957H5.35942C5.19915 21.4957 5.07188 21.3637 5.07188 21.2081V18.5165C5.07188 18.3563 5.20387 18.229 5.35942 18.229H8.051C8.21127 18.229 8.33855 18.361 8.33855 18.5165V21.2081Z" fill="#387EDB"/>
<path d="M20.4611 18.3489H11.486C11.2315 18.3489 11.0288 18.5516 11.0288 18.8061C11.0288 19.0607 11.2315 19.2634 11.486 19.2634H20.4564C20.7109 19.2634 20.9136 19.0607 20.9136 18.8061C20.9136 18.5516 20.7109 18.3489 20.4611 18.3489Z" fill="#387EDB"/>
<path d="M11.486 21.3759H16.6948C16.9493 21.3759 17.152 21.1732 17.152 20.9187C17.152 20.6641 16.9493 20.4614 16.6948 20.4614H11.486C11.2315 20.4614 11.0288 20.6641 11.0288 20.9187C11.0288 21.1732 11.2362 21.3759 11.486 21.3759Z" fill="#387EDB"/>
<path d="M7.11823 5.85922L6.58557 6.30703L6.47244 6.17033C6.31217 5.97706 6.02463 5.94878 5.82665 6.10905C5.63338 6.26932 5.6051 6.55686 5.76537 6.75484L6.17547 7.24507C6.2556 7.33935 6.36402 7.39592 6.48658 7.41006H6.529C6.63742 7.41006 6.74112 7.37235 6.82597 7.30164L7.70745 6.55686C7.90072 6.39188 7.92429 6.10433 7.75931 5.91107C7.59904 5.72252 7.31149 5.69895 7.11823 5.85922Z" fill="#387EDB"/>
</svg>
