<svg width="90" height="90" fill="none" xmlns="http://www.w3.org/2000/svg"><path d="M12.398 72.81V54.855c0-6.615 1.208-12.653 3.623-18.113 2.415-5.46 6.51-11.13 12.285-17.01l10.71 8.348c-4.095 4.095-7.035 7.927-8.82 11.497-1.785 3.465-2.678 7.298-2.678 11.498l-6.142-6.93h20.16V72.81H12.398Zm37.328 0V54.855c0-6.615 1.207-12.653 3.622-18.113 2.415-5.46 6.51-11.13 12.285-17.01l10.71 8.348c-4.095 4.095-7.035 7.927-8.82 11.497-1.785 3.465-2.677 7.298-2.677 11.498l-6.143-6.93h20.16V72.81H49.726Z" fill="#387EDB" opacity=".2"/></svg>