<svg width="1440" height="146" viewBox="0 0 1440 146" fill="none" xmlns="http://www.w3.org/2000/svg">
<path d="M0 20.8918L48.4195 10.7698C124.756 -5.18821 203.768 -3.05062 279.13 17.0114L316.327 26.9135C383.493 44.7938 454.358 43.2233 520.666 22.3849C587.959 1.23687 659.923 -0.0602016 727.934 18.6491L777.877 32.3878C830.591 46.889 885.327 52.6463 939.905 49.4305L1027.47 44.2712C1058.75 42.4278 1089.8 37.6471 1120.19 29.992L1154.68 21.3038C1236.24 0.759588 1321.67 1.1223 1403.05 22.3584L1440 32V141.014L0 145.5V20.8918Z" fill="url(#paint0_linear_4209_483)" fill-opacity="0.1"/>
<defs>
<linearGradient id="paint0_linear_4209_483" x1="766" y1="4.91559" x2="766.347" y2="146.901" gradientUnits="userSpaceOnUse">
<stop stop-color="#3783D8"/>
<stop offset="1" stop-color="#31C0B2"/>
</linearGradient>
</defs>
</svg>
