<svg width="30" height="28" viewBox="0 0 30 28" fill="none" xmlns="http://www.w3.org/2000/svg">
<path fill-rule="evenodd" clip-rule="evenodd" d="M8.56353 12.2574C11.4264 14.0793 13.4566 18.0354 14.2373 19.7792C16.3097 14.7835 19.4314 10.9173 22.45 8.06519C22.4912 7.96708 22.5768 7.89119 22.6763 7.85318C23.3467 7.22977 24.0105 6.65613 24.6551 6.13172C24.7028 6.05627 24.7771 5.997 24.8611 5.96518C26.6599 4.52113 28.2965 3.46123 29.4889 2.75781C22.1754 4.39748 17.1263 10.5398 14.6797 14.2616C14.5263 14.4798 14.1814 14.4663 14.0552 14.2356C13.3264 13.0124 11.2182 9.96721 9.6046 9.96721C9.5265 9.96721 9.44847 9.96721 9.37037 9.99327C8.25127 10.2274 8.01697 10.722 7.91289 11.1904C7.80873 11.6329 7.88683 11.8151 8.56353 12.2574Z" fill="url(#paint0_linear_1823_1202)"/>
<path fill-rule="evenodd" clip-rule="evenodd" d="M13.8712 25.01C7.80703 25.01 2.86203 20.0649 2.86203 14.0008C2.86203 7.9366 7.80703 2.99153 13.8712 2.99153C16.36 2.99153 18.7328 3.82218 20.657 5.33368C21.0547 5.64608 21.6092 5.67873 22.0218 5.38631C22.5687 4.99869 22.6633 4.20131 22.1441 3.77733C19.8228 1.88196 16.9476 0.857422 13.8712 0.857422C6.63589 0.883332 0.753906 6.76539 0.753906 14.0008C0.753906 21.2362 6.63589 27.1182 13.8713 27.1182C21.1067 27.1182 26.9887 21.2362 26.9887 14.0008C26.9887 11.8855 26.4863 9.83514 25.5327 7.97738C25.2328 7.39314 24.4859 7.25935 23.9925 7.69277C23.6011 8.03658 23.5125 8.62451 23.7466 9.0899C27.2655 16.0861 22.2642 25.01 13.8712 25.01Z" fill="url(#paint1_linear_1823_1202)" fill-opacity="0.12"/>
<defs>
<linearGradient id="paint0_linear_1823_1202" x1="8.81473" y1="22.5717" x2="29.9572" y2="19.6846" gradientUnits="userSpaceOnUse">
<stop stop-color="#30C9AB"/>
<stop offset="1" stop-color="#377BDC"/>
</linearGradient>
<linearGradient id="paint1_linear_1823_1202" x1="1.89455" y1="31.4266" x2="27.7374" y2="28.6502" gradientUnits="userSpaceOnUse">
<stop stop-color="#30C9AB"/>
<stop offset="1" stop-color="#377BDC"/>
</linearGradient>
</defs>
</svg>
