<svg width="64" height="64" viewBox="0 0 64 64" fill="none" xmlns="http://www.w3.org/2000/svg">
<rect width="64" height="64" rx="12.8" fill="url(#paint0_linear_0_418)" fill-opacity="0.12"/>
<g clip-path="url(#clip0_0_418)">
<path d="M32.5014 33.757C32.4303 33.7417 32.3574 33.7389 32.2855 33.7497C31.5643 33.6657 31.0202 33.0555 31.019 32.3297C31.019 31.9818 30.7369 31.6998 30.3891 31.6998C30.0412 31.6998 29.7592 31.9818 29.7592 32.3297C29.7611 33.5418 30.5718 34.6034 31.7405 34.9242V35.5541C31.7405 35.9019 32.0225 36.1839 32.3704 36.1839C32.7182 36.1839 33.0002 35.9019 33.0002 35.5541V34.9623C34.3492 34.68 35.266 33.4237 35.1242 32.0529C34.9821 30.6821 33.8272 29.6404 32.4491 29.6401C31.6593 29.6401 31.019 28.9998 31.019 28.21C31.019 27.4202 31.6593 26.7799 32.4491 26.7799C33.2389 26.7799 33.8792 27.4202 33.8792 28.21C33.8792 28.5578 34.1612 28.8399 34.5091 28.8399C34.8569 28.8399 35.139 28.5578 35.139 28.21C35.1371 26.9373 34.2455 25.8397 33.0002 25.577V25.0037C33.0002 24.6559 32.7182 24.3739 32.3704 24.3739C32.0225 24.3739 31.7405 24.6559 31.7405 25.0037V25.6155C30.4408 25.9704 29.6042 27.2323 29.7832 28.5677C29.9622 29.9031 31.1017 30.8999 32.4491 30.8996C33.2284 30.8996 33.8641 31.5236 33.8783 32.3026C33.8927 33.0817 33.2801 33.7287 32.5014 33.757Z" fill="#387EDB"/>
<path d="M23.3153 30.3183C23.3153 35.3628 27.4045 39.452 32.4491 39.452C37.4936 39.452 41.5828 35.3628 41.5828 30.3183C41.5828 25.2738 37.4936 21.1845 32.4491 21.1845C27.407 21.1901 23.3212 25.2762 23.3153 30.3183ZM32.4491 22.4443C36.7979 22.4443 40.3231 25.9695 40.3231 30.3183C40.3231 34.6671 36.7979 38.1923 32.4491 38.1923C28.1002 38.1923 24.575 34.6671 24.575 30.3183C24.58 25.9716 28.1024 22.4492 32.4491 22.4443Z" fill="#387EDB"/>
<path d="M44.6879 41.0048L39.7538 43.3361C39.0726 42.069 37.7658 41.2626 36.3277 41.222L31.7728 41.0968C31.0516 41.0762 30.3439 40.8935 29.7026 40.5623L29.2392 40.3221C26.8661 39.0851 24.0375 39.0882 21.6669 40.3301L21.6958 39.2801C21.7053 38.9322 21.4313 38.6425 21.0834 38.633L16.0888 38.4955C15.7409 38.486 15.4515 38.76 15.442 39.1079L15.1403 50.0685C15.1307 50.4163 15.4048 50.706 15.7526 50.7156L20.7473 50.853H20.7645C21.1059 50.853 21.3851 50.5815 21.3944 50.2404L21.4088 49.716L22.7064 49.0212C23.2157 48.7472 23.8111 48.682 24.3675 48.8395L32.116 51.0142C32.1295 51.0182 32.1431 51.0213 32.1569 51.0243C32.717 51.1415 33.2878 51.2003 33.8598 51.2C35.0716 51.2006 36.2692 50.9395 37.3706 50.4338C37.3976 50.4215 37.4238 50.4071 37.4487 50.3908L48.6833 43.1239C48.9632 42.9427 49.0536 42.5752 48.8897 42.2849C48.0556 40.8049 46.2057 40.2412 44.6879 41.0048ZM16.4169 49.4737L16.6839 39.7722L20.4191 39.8749L20.1522 49.5767L16.4169 49.4737ZM36.8031 49.3088C35.4348 49.9264 33.9066 50.0968 32.4359 49.7963L24.7083 47.6271C23.8385 47.3814 22.9075 47.4832 22.1119 47.911L21.4488 48.2662L21.6263 41.8159C23.7275 40.4183 26.4223 40.2747 28.66 41.4406L29.1235 41.6808C29.9336 42.0991 30.8271 42.3298 31.7383 42.3562L36.2935 42.4814C37.5729 42.5183 38.6595 43.4293 38.9191 44.6829L32.1342 44.4956C31.7863 44.4861 31.4969 44.7604 31.4871 45.1079C31.4775 45.4558 31.7519 45.7455 32.0994 45.755L39.5871 45.9611H39.6046C39.9457 45.9608 40.2247 45.6892 40.2339 45.3484C40.2416 45.0747 40.2213 44.8007 40.173 44.5313L45.2338 42.14C45.2387 42.1379 45.2437 42.1354 45.2486 42.133C45.9664 41.7697 46.8343 41.8912 47.4248 42.4377L36.8031 49.3088Z" fill="#387EDB"/>
<path d="M33.079 19.4136V13.4299C33.079 13.082 32.7969 12.8 32.4491 12.8C32.1012 12.8 31.8192 13.082 31.8192 13.4299V19.4136C31.8192 19.7615 32.1012 20.0435 32.4491 20.0435C32.7969 20.0435 33.079 19.7615 33.079 19.4136Z" fill="#387EDB"/>
<path d="M37.803 19.4136V16.5792C37.803 16.2314 37.5209 15.9493 37.1731 15.9493C36.8252 15.9493 36.5432 16.2314 36.5432 16.5792V19.4136C36.5432 19.7615 36.8252 20.0435 37.1731 20.0435C37.5209 20.0435 37.803 19.7615 37.803 19.4136Z" fill="#387EDB"/>
<path d="M28.355 19.4136V16.5792C28.355 16.2314 28.0729 15.9493 27.7251 15.9493C27.3772 15.9493 27.0952 16.2314 27.0952 16.5792V19.4136C27.0952 19.7615 27.3772 20.0435 27.7251 20.0435C28.0729 20.0435 28.355 19.7615 28.355 19.4136Z" fill="#387EDB"/>
</g>
<defs>
<linearGradient id="paint0_linear_0_418" x1="2.78261" y1="74.5" x2="65.825" y2="67.7204" gradientUnits="userSpaceOnUse">
<stop stop-color="#30C9AB"/>
<stop offset="1" stop-color="#377BDC"/>
</linearGradient>
<clipPath id="clip0_0_418">
<rect width="38.4" height="38.4" fill="white" transform="translate(12.8 12.8)"/>
</clipPath>
</defs>
</svg>
