<svg width="20" height="21" viewBox="0 0 20 21" fill="none" xmlns="http://www.w3.org/2000/svg">
<g clip-path="url(#clip0_1040_293)">
<path fill-rule="evenodd" clip-rule="evenodd" d="M19.941 1.4046C20.0679 1.04201 19.9759 0.638778 19.7043 0.36714C19.552 0.214849 19.3583 0.119015 19.1537 0.0865648C19.0833 0.075402 19.0115 0.0717398 18.9398 0.0758601C18.8379 0.0816383 18.7367 0.102937 18.64 0.139756L0.669655 6.42939C0.282654 6.56484 0.0175501 6.92281 0.000836285 7.33249C-0.0158775 7.74217 0.219186 8.12054 0.593867 8.28706L8.34112 11.7303L11.7843 19.4775C11.9509 19.8522 12.3292 20.0873 12.7389 20.0706C13.1486 20.0539 13.5066 19.7888 13.642 19.4018L19.941 1.4046ZM8.87696 9.7798L3.71108 7.48386L15.1908 3.46595L8.87696 9.7798ZM10.2913 11.1938L12.5876 16.3603L16.6059 4.87927L10.2913 11.1938Z" fill="white"/>
</g>
<defs>
<clipPath id="clip0_1040_293">
<rect width="19.9972" height="19.9972" fill="white" transform="translate(0 0.0742188)"/>
</clipPath>
</defs>
</svg>
