<svg width="59" height="58" viewBox="0 0 59 58" fill="none" xmlns="http://www.w3.org/2000/svg">
<g filter="url(#filter0_d_1282_600)">
<rect x="5.5" y="2" width="48" height="48" rx="24" fill="url(#paint0_linear_1282_600)"/>
<path d="M35.5074 30.1435C34.3575 30.1435 33.3215 30.64 32.6024 31.43L26.1349 27.4243C26.3076 26.9823 26.4034 26.5022 26.4034 26C26.4034 25.4975 26.3076 25.0174 26.1349 24.5756L32.6024 20.5698C33.3215 21.3597 34.3575 21.8565 35.5074 21.8565C37.6735 21.8565 39.4357 20.0943 39.4357 17.9282C39.4357 15.762 37.6735 14 35.5074 14C33.3412 14 31.579 15.7622 31.579 17.9283C31.579 18.4306 31.675 18.9107 31.8475 19.3527L25.3802 23.3583C24.6611 22.5684 23.6251 22.0716 22.4752 22.0716C20.3091 22.0716 18.5469 23.834 18.5469 26C18.5469 28.1661 20.3091 29.9283 22.4752 29.9283C23.6251 29.9283 24.6611 29.4317 25.3802 28.6416L31.8475 32.6472C31.675 33.0893 31.579 33.5694 31.579 34.0718C31.579 36.2377 33.3412 38 35.5074 38C37.6735 38 39.4357 36.2377 39.4357 34.0718C39.4357 31.9057 37.6735 30.1435 35.5074 30.1435ZM33.0115 17.9283C33.0115 16.5521 34.1311 15.4324 35.5074 15.4324C36.8836 15.4324 38.0033 16.5521 38.0033 17.9283C38.0033 19.3046 36.8836 20.4242 35.5074 20.4242C34.1311 20.4242 33.0115 19.3046 33.0115 17.9283ZM22.4752 28.4959C21.0988 28.4959 19.9791 27.3762 19.9791 26C19.9791 24.6238 21.0988 23.5041 22.4752 23.5041C23.8514 23.5041 24.9709 24.6238 24.9709 26C24.9709 27.3762 23.8514 28.4959 22.4752 28.4959ZM33.0115 34.0716C33.0115 32.6954 34.1311 31.5757 35.5074 31.5757C36.8836 31.5757 38.0033 32.6954 38.0033 34.0716C38.0033 35.4478 36.8836 36.5675 35.5074 36.5675C34.1311 36.5675 33.0115 35.4478 33.0115 34.0716Z" fill="black"/>
<rect x="6.22" y="2.72" width="46.56" height="46.56" rx="23.28" stroke="white" stroke-width="1.44"/>
</g>
<defs>
<filter id="filter0_d_1282_600" x="0.7" y="0.0799999" width="57.6" height="57.6" filterUnits="userSpaceOnUse" color-interpolation-filters="sRGB">
<feFlood flood-opacity="0" result="BackgroundImageFix"/>
<feColorMatrix in="SourceAlpha" type="matrix" values="0 0 0 0 0 0 0 0 0 0 0 0 0 0 0 0 0 0 127 0" result="hardAlpha"/>
<feOffset dy="2.88"/>
<feGaussianBlur stdDeviation="2.4"/>
<feComposite in2="hardAlpha" operator="out"/>
<feColorMatrix type="matrix" values="0 0 0 0 0.475 0 0 0 0 0.475 0 0 0 0 0.475 0 0 0 0.1 0"/>
<feBlend mode="normal" in2="BackgroundImageFix" result="effect1_dropShadow_1282_600"/>
<feBlend mode="normal" in="SourceGraphic" in2="effect1_dropShadow_1282_600" result="shape"/>
</filter>
<linearGradient id="paint0_linear_1282_600" x1="18.3545" y1="2" x2="35.2738" y2="47.4224" gradientUnits="userSpaceOnUse">
<stop stop-color="#F5F5F5"/>
<stop offset="1" stop-color="white"/>
</linearGradient>
</defs>
</svg>
