<svg width="20" height="20" viewBox="0 0 20 20" fill="none" xmlns="http://www.w3.org/2000/svg">
<g clip-path="url(#clip0_3262_366)">
<path d="M3.00154 14.3342H1.00182C0.449861 14.3348 0.00253898 14.7821 0.00195312 15.3341V19.6668C0.00195312 19.8509 0.151151 20.0001 0.335228 20.0001H3.66809C3.85217 20.0001 4.00137 19.8509 4.00137 19.6668V15.3341C4.00078 14.7821 3.5535 14.3349 3.00154 14.3342ZM3.33482 19.3335H0.668503V15.3341C0.668737 15.1501 0.817818 15.0011 1.00178 15.0008H3.0015C3.18546 15.0011 3.33454 15.1501 3.33478 15.3341L3.33482 19.3335Z" fill="#646464"/>
<path d="M8.33357 9.66797H6.33385C5.78189 9.66855 5.33457 10.1159 5.33398 10.6678V19.6666C5.33398 19.8507 5.48318 19.9999 5.66726 19.9999H9.00012C9.1842 19.9999 9.3334 19.8507 9.3334 19.6666V10.6678C9.33281 10.1158 8.88553 9.66855 8.33357 9.66797ZM8.66685 19.3333H6.00053V10.6678C6.00077 10.4839 6.14985 10.3348 6.33381 10.3346H8.33354C8.51749 10.3348 8.66658 10.4839 8.66681 10.6678L8.66685 19.3333Z" fill="#646464"/>
<path d="M13.6676 11.668H11.6678C11.1159 11.6686 10.6686 12.1159 10.668 12.6678V19.6669C10.668 19.851 10.8172 20.0001 11.0012 20.0001H14.3341C14.5182 20.0001 14.6674 19.851 14.6674 19.6669V12.6678C14.6668 12.1158 14.2195 11.6686 13.6676 11.668ZM14.0009 19.3336H11.3346V12.6678C11.3348 12.4839 11.4839 12.3348 11.6678 12.3346H13.6676C13.8515 12.3348 14.0006 12.4839 14.0008 12.6678L14.0009 19.3336Z" fill="#646464"/>
<path d="M18.9996 9.00195H16.9999C16.4479 9.00254 16.0006 9.44986 16 10.0018V19.6672C16 19.8512 16.1492 20.0004 16.3333 20.0004H19.6661C19.8502 20.0004 19.9994 19.8512 19.9994 19.6672V10.0018C19.9988 9.44986 19.5515 9.00254 18.9996 9.00195ZM19.3329 19.3339H16.6665V10.0018C16.6668 9.81786 16.8159 9.66878 16.9998 9.66854H18.9996C19.1835 9.66878 19.3326 9.81786 19.3328 10.0018V19.3339H19.3329Z" fill="#646464"/>
<path d="M16.5067 3.99516C17.1173 4.68241 18.118 4.86449 18.9315 4.43635C19.745 4.00821 20.1615 3.08029 19.9408 2.18787C19.72 1.29545 18.9188 0.668818 17.9995 0.669365C17.3321 0.668857 16.7085 1.00155 16.3374 1.5562C15.9662 2.11085 15.8964 2.81419 16.1514 3.43094L14.1597 4.67589C13.8014 4.26965 13.2929 4.02703 12.7517 4.00399C12.2105 3.98094 11.6833 4.17955 11.2917 4.55387L9.11028 2.91781C9.57147 2.02578 9.29948 0.930071 8.47467 0.357259C7.64986 -0.215553 6.52814 -0.0877582 5.85335 0.655929C5.17856 1.39962 5.16004 2.52845 5.81007 3.29385L3.01584 6.61441C2.11987 6.08722 0.969365 6.33449 0.369095 7.18324C-0.231174 8.03199 -0.0810384 9.19914 0.714556 9.8683C1.51015 10.5375 2.68573 10.4854 3.41911 9.74863C4.15248 9.01182 4.19896 7.83596 3.52605 7.04353L6.32027 3.72297C7.08747 4.17935 8.06492 4.06788 8.70967 3.45047L10.8911 5.08653C10.4665 5.90888 10.6619 6.91515 11.3633 7.5189C12.0648 8.12264 13.0889 8.166 13.8389 7.62373C14.5889 7.08146 14.8686 6.09534 14.5151 5.24003L16.5067 3.99516ZM17.9995 1.33595C18.7358 1.33595 19.3327 1.93282 19.3327 2.66909C19.3318 3.40501 18.7355 4.00141 17.9995 4.00223C17.2633 4.00223 16.6664 3.40536 16.6664 2.66909C16.6664 1.93282 17.2632 1.33595 17.9995 1.33595ZM2.00172 9.66817C1.26546 9.66817 0.668586 9.0713 0.668586 8.33504C0.668586 7.59877 1.26546 7.0019 2.00172 7.0019C2.73799 7.0019 3.33486 7.59877 3.33486 8.33504C3.334 9.07095 2.73764 9.66732 2.00172 9.66817ZM7.33432 3.33568C6.59805 3.33568 6.00118 2.73881 6.00118 2.00254C6.00118 1.26628 6.59805 0.669404 7.33432 0.669404C8.07058 0.669404 8.66745 1.26628 8.66745 2.00254C8.66663 2.73846 8.07023 3.33486 7.33432 3.33568ZM12.6669 7.33513C11.9306 7.33513 11.3338 6.73826 11.3338 6.002C11.3338 5.26573 11.9306 4.66886 12.6669 4.66886C13.4032 4.66886 14 5.26573 14 6.002C13.9992 6.73791 13.4029 7.33431 12.6669 7.33513Z" fill="#646464"/>
</g>
<defs>
<clipPath id="clip0_3262_366">
<rect width="20" height="20" fill="white"/>
</clipPath>
</defs>
</svg>
