<svg width="20" height="18" viewBox="0 0 20 18" fill="none" xmlns="http://www.w3.org/2000/svg">
<path d="M12.8909 5.72134L13.4715 5.67611L13.4674 5.09383L13.4442 1.80717L19.258 7.959L13.4052 14.1688L13.4355 10.9898L13.4419 10.3119L12.7657 10.3605C6.38946 10.8186 2.35656 14.3144 0.795839 15.956C0.834657 15.7736 0.881769 15.5715 0.938778 15.3532C1.20052 14.3505 1.66748 13.0171 2.48822 11.6628C4.11562 8.97729 7.15363 6.16844 12.8909 5.72134ZM19.4607 8.17355C19.4606 8.17345 19.4605 8.17335 19.4604 8.17324L19.4606 8.17346L19.4607 8.17355ZM19.4599 7.74476C19.4601 7.74456 19.4603 7.74436 19.4604 7.74416L19.4604 7.74425L19.4599 7.74476ZM13.3977 14.9668L13.3977 14.9667C13.3977 14.9667 13.3977 14.9667 13.3977 14.9668Z" stroke="#387EDB" stroke-width="1.25"/>
</svg>
