<svg width="112" height="59" fill="none" xmlns="http://www.w3.org/2000/svg"><path opacity=".2" stroke="#B4B6C4" stroke-width=".413" stroke-linecap="round" d="M13.223 47.764h96.736M13.223 36.602h96.736M13.223 25.441h96.736M13.223 14.279h96.736M13.223 3.117h96.736"/><path d="M1.895 13.128c.185 0 .349.038.492.116.146.077.26.186.34.326a.914.914 0 0 1 .123.48h-.405c0-.171-.05-.306-.149-.405a.542.542 0 0 0-.4-.15.542.542 0 0 0-.476.278.52.52 0 0 0-.075.273v.446a.843.843 0 0 1 .641-.273.915.915 0 0 1 .786.434.81.81 0 0 1 .124.438.998.998 0 0 1-.124.5.865.865 0 0 1-.348.336 1.05 1.05 0 0 1-.504.12 1.05 1.05 0 0 1-.504-.12.914.914 0 0 1-.352-.344 1.012 1.012 0 0 1-.124-.5v-1c0-.171.043-.33.129-.476a.943.943 0 0 1 .826-.48Zm.025 1.46a.571.571 0 0 0-.41.156.506.506 0 0 0-.165.389.52.52 0 0 0 .166.393.58.58 0 0 0 .41.152c.162 0 .297-.05.404-.148a.516.516 0 0 0 .166-.397.503.503 0 0 0-.166-.393.565.565 0 0 0-.405-.153Zm2.531-1.46c.174 0 .332.041.476.124a.922.922 0 0 1 .347.343c.085.146.128.31.128.492v1.005a.931.931 0 0 1-.95.955h-.055a.98.98 0 0 1-.492-.125.9.9 0 0 1-.334-.347.991.991 0 0 1-.12-.483v-1.005a.99.99 0 0 1 .124-.496.943.943 0 0 1 .823-.463h.053Zm-.025.368a.558.558 0 0 0-.405.161.524.524 0 0 0-.165.397v1.066c0 .16.055.294.165.401.11.105.245.157.405.157a.554.554 0 0 0 .57-.558v-1.066a.555.555 0 0 0-.57-.558Zm2.006-.467v2.042l.943-1.178H7.8l-.815 1.025.868 1.087h-.47l-.633-.785-.319.33v.455h-.388V13.03h.388ZM1.887 24.29c.18 0 .339.033.48.099a.77.77 0 0 1 .326.277.692.692 0 0 1 .116.393c0 .157-.04.286-.12.388a.872.872 0 0 1-.33.248l.003.013c.158.05.282.133.373.252.093.116.14.264.14.446a.7.7 0 0 1-.128.414.857.857 0 0 1-.356.285c-.151.069-.32.103-.504.103h-.05c-.3 0-.54-.074-.719-.223-.176-.151-.264-.358-.264-.62v-.033h.405v.046c0 .151.05.267.153.347.102.077.248.115.438.115.196 0 .347-.038.455-.115.11-.08.165-.2.165-.36 0-.303-.212-.455-.637-.455h-.31v-.372h.319a.654.654 0 0 0 .405-.116.386.386 0 0 0 .157-.33.375.375 0 0 0-.153-.323.653.653 0 0 0-.401-.111.59.59 0 0 0-.38.115.39.39 0 0 0-.145.323v.037H.92v-.074c0-.152.04-.286.12-.401a.799.799 0 0 1 .334-.273c.144-.064.302-.095.476-.095h.037Zm2.564 0c.174 0 .332.041.476.124a.923.923 0 0 1 .347.343c.085.146.128.31.128.492v1.004a.932.932 0 0 1-.95.955h-.055a.98.98 0 0 1-.492-.124.901.901 0 0 1-.334-.347.99.99 0 0 1-.12-.484V25.25a.99.99 0 0 1 .124-.496.942.942 0 0 1 .823-.463h.053Zm-.025.368a.559.559 0 0 0-.405.16.524.524 0 0 0-.165.398v1.066c0 .16.055.294.165.401.11.105.245.157.405.157a.555.555 0 0 0 .57-.558v-1.066a.555.555 0 0 0-.57-.558Zm2.006-.467v2.042l.943-1.178H7.8l-.815 1.025.868 1.087h-.47l-.633-.785-.319.33v.455h-.388v-2.976h.388ZM2.172 37.96h.744v.369H1.023v-.368h.744v-1.927h-.752v-.264a3.246 3.246 0 0 0 1-.277h.157v2.468Zm2.28-2.508c.173 0 .331.04.475.123a.923.923 0 0 1 .347.344c.085.146.128.31.128.492v1.004a.931.931 0 0 1-.95.955h-.055a.98.98 0 0 1-.492-.124.9.9 0 0 1-.334-.347.99.99 0 0 1-.12-.484v-1.004a.99.99 0 0 1 .124-.497.942.942 0 0 1 .823-.463h.053Zm-.026.367a.558.558 0 0 0-.405.162.524.524 0 0 0-.165.396v1.067c0 .16.055.294.165.401.11.105.245.157.405.157a.555.555 0 0 0 .57-.558v-1.067a.555.555 0 0 0-.57-.558Zm2.006-.467v2.043l.943-1.179H7.8l-.815 1.026.868 1.087h-.47l-.633-.786-.319.331v.455h-.388v-2.977h.388ZM1.908 46.613c.173 0 .332.042.475.124a.922.922 0 0 1 .347.344c.086.146.129.31.129.491v1.005a.931.931 0 0 1-.95.955h-.055a.98.98 0 0 1-.492-.124.9.9 0 0 1-.335-.347.991.991 0 0 1-.12-.484v-1.005a.99.99 0 0 1 .124-.496.943.943 0 0 1 .823-.463h.054Zm-.025.368a.558.558 0 0 0-.405.162.524.524 0 0 0-.166.396v1.067c0 .16.056.294.166.401.11.105.245.157.405.157a.554.554 0 0 0 .57-.558v-1.067a.555.555 0 0 0-.57-.558ZM1.85 1.966c.19 0 .358.041.504.124a.885.885 0 0 1 .347.343.964.964 0 0 1 .129.496v1a.947.947 0 0 1-.48.828.925.925 0 0 1-.475.128c-.188 0-.355-.039-.5-.116a.867.867 0 0 1-.335-.327.953.953 0 0 1-.12-.48h.405c0 .172.05.307.149.406.099.1.233.149.4.149a.56.56 0 0 0 .475-.273.542.542 0 0 0 .075-.277v-.446a.834.834 0 0 1-.64.272.938.938 0 0 1-.46-.115.905.905 0 0 1-.33-.315.853.853 0 0 1-.12-.442c0-.187.042-.353.124-.496a.864.864 0 0 1 .343-.339c.15-.08.319-.12.509-.12Zm0 .368a.58.58 0 0 0-.41.153.51.51 0 0 0-.16.393c0 .162.053.295.16.397.11.099.247.148.41.148a.58.58 0 0 0 .41-.153.511.511 0 0 0 .164-.392c0-.16-.055-.291-.165-.393a.58.58 0 0 0-.41-.153Zm2.601-.368c.174 0 .332.041.476.124a.922.922 0 0 1 .347.343c.085.146.128.31.128.492V3.93a.931.931 0 0 1-.95.955h-.055a.981.981 0 0 1-.492-.124.9.9 0 0 1-.334-.348.991.991 0 0 1-.12-.483V2.925a.99.99 0 0 1 .124-.496.942.942 0 0 1 .823-.463h.053Zm-.025.368a.558.558 0 0 0-.405.161.524.524 0 0 0-.165.397V3.96c0 .16.055.293.165.4.11.105.245.158.405.158a.555.555 0 0 0 .57-.558V2.892a.555.555 0 0 0-.57-.558Zm2.006-.467v2.042l.943-1.178H7.8l-.815 1.025.868 1.087h-.47l-.633-.785-.319.33v.455h-.388V1.867h.388ZM16.512 54.923v2.836h-.405v-2.36h-.024l-.98 2.36h-.343l-.976-2.36h-.02v2.36h-.368v-2.836h.636l.914 2.232h.016l.918-2.232h.632Zm1.557.682c.278 0 .485.055.62.165.138.11.207.27.207.48v1.095c0 .05.01.087.033.112.022.022.05.033.082.033.064 0 .127-.02.19-.058v.285a.616.616 0 0 1-.318.083c-.118 0-.206-.033-.264-.1a.458.458 0 0 1-.095-.28c-.171.253-.418.38-.74.38-.232 0-.405-.05-.521-.149-.113-.102-.17-.262-.17-.48 0-.17.044-.304.133-.4.088-.1.234-.171.438-.215.204-.044.485-.066.843-.066v-.195c0-.14-.041-.238-.124-.293-.083-.058-.203-.087-.36-.087a.599.599 0 0 0-.347.087.28.28 0 0 0-.124.244v.05h-.38a.98.98 0 0 1-.009-.137c0-.097.04-.188.116-.273a.785.785 0 0 1 .314-.203 1.18 1.18 0 0 1 .439-.078h.037Zm.438 1.186c-.29 0-.508.015-.657.046-.146.027-.244.07-.294.128a.357.357 0 0 0-.074.24c0 .19.145.285.434.285a.595.595 0 0 0 .29-.075.596.596 0 0 0 .218-.219.624.624 0 0 0 .083-.322v-.083Zm2.1-1.186c.196 0 .349.063.459.19.11.124.165.281.165.471l-.012.157h-.343v-.09a.392.392 0 0 0-.062-.22.415.415 0 0 0-.157-.144.384.384 0 0 0-.19-.054.359.359 0 0 0-.31.157.722.722 0 0 0-.112.426v1.26h-.389v-2.112h.277l.058.314a.39.39 0 0 1 .112-.165.7.7 0 0 1 .215-.136.76.76 0 0 1 .289-.054ZM37.323 54.923l1.108 2.836h-.438l-.24-.616h-1.356l-.235.616h-.393l1.108-2.836h.446Zm-.231.487h-.025l-.525 1.365h1.07l-.52-1.364Zm2.697.195a.75.75 0 0 1 .628.293c.152.196.227.465.227.806v.046c0 .325-.075.581-.227.769-.149.187-.358.281-.628.281a.703.703 0 0 1-.608-.31v1.017h-.389v-2.86h.29c.019.087.037.184.053.288a.758.758 0 0 1 .654-.33Zm-.07.31c-.188 0-.326.065-.414.194-.086.13-.128.327-.128.591 0 .27.044.47.132.6.091.127.227.19.41.19.181 0 .316-.065.404-.194.089-.13.133-.328.133-.596 0-.27-.046-.468-.137-.595-.088-.127-.221-.19-.4-.19Zm2.434-.31c.196 0 .349.063.46.19.11.124.165.281.165.471l-.013.157h-.343v-.09a.392.392 0 0 0-.062-.22.416.416 0 0 0-.157-.144.384.384 0 0 0-.19-.054.36.36 0 0 0-.31.157.722.722 0 0 0-.112.426v1.26h-.389v-2.112h.278l.057.314a.39.39 0 0 1 .112-.165.7.7 0 0 1 .215-.136.76.76 0 0 1 .29-.054ZM60.747 54.923v2.836h-.405v-2.36h-.025l-.98 2.36h-.343l-.976-2.36h-.02v2.36h-.368v-2.836h.636l.914 2.232h.016l.918-2.232h.633Zm1.556.682c.278 0 .485.055.62.165.138.11.207.27.207.48v1.095c0 .05.01.087.033.112.022.022.05.033.083.033.063 0 .126-.02.19-.058v.285a.616.616 0 0 1-.319.083c-.118 0-.206-.033-.264-.1a.458.458 0 0 1-.095-.28c-.171.253-.418.38-.74.38-.232 0-.405-.05-.521-.149-.113-.102-.17-.262-.17-.48 0-.17.044-.304.133-.4.088-.1.234-.171.438-.215.204-.044.485-.066.843-.066v-.195c0-.14-.041-.238-.124-.293-.082-.058-.202-.087-.36-.087a.599.599 0 0 0-.347.087.28.28 0 0 0-.124.244v.05h-.38a.982.982 0 0 1-.008-.137c0-.097.038-.188.115-.273a.786.786 0 0 1 .315-.203 1.18 1.18 0 0 1 .438-.078h.037Zm.438 1.186c-.29 0-.508.015-.657.046-.146.027-.244.07-.294.128a.357.357 0 0 0-.074.24c0 .19.145.285.434.285a.595.595 0 0 0 .29-.075.596.596 0 0 0 .218-.219.623.623 0 0 0 .083-.322v-.083Zm2.084.885c-.094.231-.18.408-.26.53a.715.715 0 0 1-.245.251.577.577 0 0 1-.29.07.733.733 0 0 1-.288-.057v-.319a.59.59 0 0 0 .206.058.374.374 0 0 0 .281-.116.822.822 0 0 0 .19-.355l-.822-2.092h.413l.608 1.559h.016l.6-1.559h.38l-.79 2.03ZM81.801 56.986c0 .25-.077.449-.231.595-.155.146-.357.219-.608.219h-.037c-.251 0-.45-.07-.6-.21-.146-.141-.219-.343-.219-.604v-.087h.405v.111c0 .124.042.226.124.306a.463.463 0 0 0 .323.116c.13 0 .234-.038.314-.116a.399.399 0 0 0 .124-.306v-2.087h.405v2.063Zm2.47.36c0 .049.01.086.033.11.022.023.05.034.082.034.061 0 .123-.02.187-.058v.285a.476.476 0 0 1-.261.083c-.149 0-.254-.03-.314-.091a.386.386 0 0 1-.095-.256.763.763 0 0 1-.29.256.851.851 0 0 1-.4.091.755.755 0 0 1-.526-.186c-.135-.127-.202-.309-.202-.546v-1.422h.388v1.352c0 .328.15.492.447.492a.514.514 0 0 0 .273-.079.586.586 0 0 0 .29-.508v-1.257h.388v1.7Zm1.832-1.741c.231 0 .413.062.545.186.133.124.199.306.199.546v1.422h-.389v-1.352c0-.328-.149-.492-.446-.492a.52.52 0 0 0-.277.078.596.596 0 0 0-.285.509v1.257h-.389v-2.113h.281l.054.31a.84.84 0 0 1 .707-.351ZM103.298 56.986c0 .25-.077.449-.232.595-.154.146-.356.219-.607.219h-.037c-.251 0-.451-.07-.6-.21-.146-.141-.219-.343-.219-.604v-.087h.405v.111a.41.41 0 0 0 .124.306.464.464 0 0 0 .323.116.434.434 0 0 0 .314-.116.398.398 0 0 0 .124-.306v-2.087h.405v2.063Zm2.47.36c0 .049.011.086.033.11a.11.11 0 0 0 .082.034c.061 0 .123-.02.186-.058v.285a.474.474 0 0 1-.26.083c-.149 0-.254-.03-.314-.091a.382.382 0 0 1-.095-.256.765.765 0 0 1-.29.256.85.85 0 0 1-.401.091.755.755 0 0 1-.525-.186c-.135-.127-.202-.309-.202-.546v-1.422h.388v1.352c0 .328.149.492.447.492a.517.517 0 0 0 .273-.079.591.591 0 0 0 .289-.508v-1.257h.389v1.7Zm1.195-2.564v2.977h-.389v-2.977h.389Z" fill="#5D6180"/><path opacity=".4" d="M26.117 38.967c-4.388 0-8.395 2.375-11.861 11.485h97.149V8.698c-4.209 0-8.204 7.716-12.673 7.716-4.117 0-5.292 4.786-6.98 4.786-1.526 0-2.29-1.027-3.434-1.027-1.145 0-1.145 5.341-3.434 5.341-1.527 0-3.053-1.582-5.534-1.582-2.48 0-4.02 4.352-6.105 4.352-5.533 0-3.053-8.903-6.678-8.903-3.053 0-3.625 5.342-7.06 5.342-4.388 0-3.243-7.32-6.105-7.32-3.626 0-1.526 12.464-7.442 12.464-4.77 0-5.066 3.93-7.632 3.957-2.566.026-5.151-2.367-7.44-2.367-3.435 0-.955 7.51-4.771 7.51Z" fill="url(#a)"/><path d="M14.256 50.452c3.466-9.11 7.473-11.485 11.861-11.485 3.816 0 1.336-7.51 4.77-7.51 2.29 0 4.875 2.392 7.441 2.367 2.566-.026 2.862-3.957 7.632-3.957 5.916 0 3.816-12.464 7.442-12.464 2.862 0 1.717 7.32 6.105 7.32 3.435 0 4.007-5.342 7.06-5.342 3.625 0 1.145 8.903 6.678 8.903 2.085 0 3.625-4.352 6.105-4.352 2.48 0 4.007 1.582 5.534 1.582 2.29 0 2.29-5.341 3.434-5.341 1.145 0 1.908 1.027 3.435 1.027 1.687 0 2.862-4.786 6.979-4.786 4.469 0 8.464-7.716 12.673-7.716" stroke="#387EDB" stroke-width=".827" stroke-linecap="round" stroke-linejoin="round"/><path d="M14.256 50.452c3.466-9.11 7.755-7.556 12.143-7.556 3.816 0 3.698-6.163 7.132-6.163 2.29 0 4.952 1.02 7.518.994 2.566-.026 3.133-5.766 7.903-5.766 5.915 0 3.314-6.96 6.94-6.96 2.861 0 1.972 1.591 6.36 1.591 3.434 0 5.814-6.42 8.867-6.42 3.625 0-.714 11.789 4.819 11.789 2.085 0 4.459 5.766 6.939 5.766 2.48 0 1.943-8.55 3.47-8.55 2.29 0 1.349-4.97 3.662-4.97h4.048c1.688 0 .894-1.591 5.012-1.591 4.469 0 7.934 3.976 12.143 3.976" stroke="#FFD43D" stroke-width=".827" stroke-linecap="round" stroke-linejoin="round"/><defs><linearGradient id="a" x1="62.83" y1="-3.629" x2="62.83" y2="50.452" gradientUnits="userSpaceOnUse"><stop stop-color="#387EDB"/><stop offset="1" stop-color="#387EDB" stop-opacity="0"/></linearGradient></defs></svg>