<svg width="20" height="20" viewBox="0 0 20 20" fill="none" xmlns="http://www.w3.org/2000/svg">
<path fill-rule="evenodd" clip-rule="evenodd" d="M14 4.63636C13.2469 4.63636 12.6364 5.24688 12.6364 6C12.6364 6.75312 13.2469 7.36364 14 7.36364C14.7531 7.36364 15.3636 6.75312 15.3636 6C15.3636 5.24688 14.7531 4.63636 14 4.63636ZM11 6C11 4.34315 12.3431 3 14 3C15.6569 3 17 4.34315 17 6C17 7.65685 15.6569 9 14 9C12.3431 9 11 7.65685 11 6Z" fill="#757575"/>
<path fill-rule="evenodd" clip-rule="evenodd" d="M3 6C3 5.44772 3.44772 5 4 5H11C11.5523 5 12 5.44772 12 6C12 6.55228 11.5523 7 11 7H4C3.44772 7 3 6.55228 3 6Z" fill="#757575"/>
<path fill-rule="evenodd" clip-rule="evenodd" d="M6 12.6364C6.75312 12.6364 7.36364 13.2469 7.36364 14C7.36364 14.7531 6.75312 15.3636 6 15.3636C5.24688 15.3636 4.63636 14.7531 4.63636 14C4.63636 13.2469 5.24688 12.6364 6 12.6364ZM9 14C9 12.3431 7.65685 11 6 11C4.34315 11 3 12.3431 3 14C3 15.6569 4.34315 17 6 17C7.65685 17 9 15.6569 9 14Z" fill="#757575"/>
<path fill-rule="evenodd" clip-rule="evenodd" d="M8 14C8 13.4477 8.44772 13 9 13H16C16.5523 13 17 13.4477 17 14C17 14.5523 16.5523 15 16 15H9C8.44772 15 8 14.5523 8 14Z" fill="#757575"/>
</svg>
