<svg width="80" height="80" viewBox="0 0 80 80" fill="none" xmlns="http://www.w3.org/2000/svg">
<rect width="80" height="80" rx="16" fill="url(#paint0_linear_1823_1282)" fill-opacity="0.12"/>
<path d="M67.3824 63.9343L64.1459 59.01L65.879 58.5354C66.9139 58.252 67.1045 56.8135 66.178 56.2707L61.3095 53.4187V23.4698C61.3095 21.5566 59.753 20 57.8398 20H23.8838C21.9706 20 20.4141 21.5566 20.4141 23.4698V55.2484C20.4141 57.1615 21.9705 58.718 23.8838 58.718H37.4906C38.0084 58.718 38.4282 58.2982 38.4282 57.7804C38.4282 57.2626 38.0084 56.8428 37.4906 56.8428H23.8838C23.0046 56.8428 22.2892 56.1276 22.2892 55.2484V28.3968H59.4343V52.3203L56.1243 50.3814C55.6572 50.1078 55.1728 49.9422 54.6531 50.2369C54.221 50.4818 53.9714 50.9655 54.0325 51.4638L54.6918 56.8429H45.7042C45.1863 56.8429 44.7666 57.2627 44.7666 57.7805C44.7666 58.2983 45.1863 58.7181 45.7042 58.7181H54.9217L55.4833 63.2997C55.6139 64.3645 57.0097 64.7619 57.6808 63.9236L58.8041 62.521L62.0404 67.4452C62.4109 68.0089 63.1914 68.1719 63.7567 67.8003L67.0276 65.6506C67.5985 65.2752 67.7576 64.5054 67.3824 63.9343ZM22.2892 23.4698C22.2892 22.5905 23.0046 21.8752 23.8838 21.8752H57.8398C58.719 21.8752 59.4344 22.5905 59.4344 23.4698V26.5212H22.2892V23.4698ZM63.2581 65.884L59.8903 60.7597C59.4355 60.0677 58.4057 60.0183 57.8873 60.6657L57.1607 61.573L56.0501 52.5112L63.9278 57.1256L62.8066 57.4327C62.0085 57.6512 61.6424 58.6148 62.0983 59.3087L65.466 64.4329L63.2581 65.884Z" fill="#387EDB"/>
<path d="M28.6763 40.4275H34.9678C35.4856 40.4275 35.9054 40.0078 35.9054 39.4899V33.223C35.9054 32.7052 35.4856 32.2854 34.9678 32.2854H28.6763C28.1585 32.2854 27.7387 32.7052 27.7387 33.223V39.4899C27.7387 40.0078 28.1585 40.4275 28.6763 40.4275ZM29.6139 34.1606H34.0302V38.5524H29.6139V34.1606Z" fill="#387EDB"/>
<path d="M40.7883 34.1608H53.064C53.5819 34.1608 54.0016 33.741 54.0016 33.2232C54.0016 32.7054 53.5819 32.2856 53.064 32.2856H40.7883C40.2705 32.2856 39.8508 32.7054 39.8508 33.2232C39.8508 33.741 40.2706 34.1608 40.7883 34.1608Z" fill="#387EDB"/>
<path d="M40.7883 40.0834H53.064C53.5819 40.0834 54.0016 39.6637 54.0016 39.1458C54.0016 38.628 53.5819 38.2083 53.064 38.2083H40.7883C40.2705 38.2083 39.8508 38.628 39.8508 39.1458C39.8508 39.6637 40.2706 40.0834 40.7883 40.0834Z" fill="#387EDB"/>
<path d="M28.6763 46.006H53.0641C53.5819 46.006 54.0016 45.5863 54.0016 45.0684C54.0016 44.5506 53.5819 44.1309 53.0641 44.1309H28.6763C28.1585 44.1309 27.7387 44.5506 27.7387 45.0684C27.7387 45.5863 28.1585 46.006 28.6763 46.006Z" fill="#387EDB"/>
<path d="M28.6763 51.9286H48.934C49.4519 51.9286 49.8716 51.5089 49.8716 50.991C49.8716 50.4732 49.4519 50.0535 48.934 50.0535H28.6763C28.1585 50.0535 27.7387 50.4732 27.7387 50.991C27.7387 51.5089 28.1585 51.9286 28.6763 51.9286Z" fill="#387EDB"/>
<path d="M25.8964 23.9218C25.5652 23.1133 24.3607 23.1912 24.1282 24.0301C23.9034 24.8409 24.8257 25.5196 25.5343 25.0704C25.9131 24.8302 26.0691 24.336 25.8964 23.9218Z" fill="#387EDB"/>
<path d="M29.3316 23.9218C29.1379 23.449 28.5781 23.2195 28.1072 23.4146C27.6353 23.61 27.4044 24.1672 27.5999 24.6391C27.7954 25.111 28.353 25.3409 28.8244 25.1463C29.2956 24.9517 29.528 24.3929 29.3316 23.9218Z" fill="#387EDB"/>
<path d="M32.7732 23.9218C32.5795 23.449 32.0197 23.2195 31.5487 23.4146C31.0769 23.61 30.846 24.1672 31.0415 24.6391C31.237 25.111 31.7946 25.3409 32.266 25.1463C32.7372 24.9517 32.9696 24.3929 32.7732 23.9218Z" fill="#387EDB"/>
<path d="M42.5027 57.4215C42.3062 56.9497 41.7507 56.7198 41.2782 56.9152C40.8062 57.1104 40.5762 57.6668 40.771 58.1387C40.9659 58.6107 41.5241 58.8415 41.9955 58.646C42.4688 58.4495 42.6968 57.8948 42.5027 57.4215Z" fill="#387EDB"/>
<defs>
<linearGradient id="paint0_linear_1823_1282" x1="3.47826" y1="93.125" x2="82.2813" y2="84.6505" gradientUnits="userSpaceOnUse">
<stop stop-color="#30C9AB"/>
<stop offset="1" stop-color="#377BDC"/>
</linearGradient>
</defs>
</svg>
