<svg width="24" height="24" viewBox="0 0 24 24" fill="none" xmlns="http://www.w3.org/2000/svg">
<g clip-path="url(#clip0_0_206)">
<path d="M23.4617 9.36008L23.4619 9.36063C23.5581 9.65712 23.4688 9.98056 23.2341 10.1859L23.2337 10.1863L17.9977 14.7774L17.7738 14.9737L17.8397 15.264L19.3836 22.065C19.4526 22.3694 19.3345 22.6835 19.0818 22.8667L19.0818 22.8667C18.8297 23.0495 18.4957 23.0635 18.2309 22.9042L18.2298 22.9035L12.2567 19.3323L12.0002 19.179L11.7436 19.3323L5.76836 22.9035L5.76814 22.9036C5.64357 22.9782 5.50723 23.0147 5.37098 23.0147C5.21246 23.0147 5.05409 22.9655 4.91671 22.8662C4.6651 22.6843 4.54653 22.3708 4.6155 22.065C4.61552 22.0649 4.61554 22.0649 4.61556 22.0648L6.15943 15.264L6.22533 14.9737L6.00151 14.7774L0.76548 10.1854L0.764531 10.1845C0.531162 9.98092 0.441917 9.65729 0.538297 9.36089C0.634585 9.06478 0.895616 8.85593 1.20537 8.8271C1.20553 8.82709 1.20569 8.82707 1.20584 8.82706L8.13318 8.19815L8.43046 8.17116L8.54775 7.89667L11.2866 1.48713C11.2867 1.48696 11.2868 1.48679 11.2869 1.48662C11.4105 1.19887 11.6901 1.01495 12.0001 1.01495C12.3102 1.01495 12.5899 1.19904 12.7135 1.48579C12.7136 1.486 12.7137 1.48621 12.7138 1.48642L15.4525 7.89664L15.5698 8.17115L15.8671 8.19815L22.7941 8.82713L22.7944 8.82716C23.1045 8.85511 23.3662 9.06459 23.4617 9.36008Z" fill="#FFFEFD" stroke="#DEDEDE"/>
</g>
<defs>
<clipPath id="clip0_0_206">
<rect width="24" height="24" fill="white"/>
</clipPath>
</defs>
</svg>
