<svg width="152" height="24" viewBox="0 0 152 24" fill="none" xmlns="http://www.w3.org/2000/svg">
<g clip-path="url(#clip0_2390_2130)">
<path d="M23.9374 9.20695C23.7803 8.72097 23.3493 8.37581 22.8393 8.32985L15.9123 7.70087L13.1731 1.28963C12.9712 0.819771 12.5112 0.515625 12.0001 0.515625C11.4891 0.515625 11.0291 0.819771 10.8271 1.29073L8.08797 7.70087L1.15982 8.32985C0.65077 8.37691 0.220828 8.72097 0.0628038 9.20695C-0.0952203 9.69292 0.0507185 10.226 0.435799 10.562L5.67183 15.154L4.12785 21.9553C4.01487 22.4553 4.20897 22.9723 4.62389 23.2722C4.84692 23.4333 5.10785 23.5154 5.37098 23.5154C5.59786 23.5154 5.8229 23.4542 6.02487 23.3333L12.0001 19.7622L17.9732 23.3333C18.4103 23.5963 18.9612 23.5723 19.3752 23.2722C19.7904 22.9713 19.9843 22.4542 19.8713 21.9553L18.3273 15.154L23.5633 10.5629C23.9484 10.226 24.0955 9.69384 23.9374 9.20695Z" fill="#FFC107"/>
</g>
<g clip-path="url(#clip1_2390_2130)">
<path d="M55.9374 9.20695C55.7803 8.72097 55.3493 8.37581 54.8393 8.32985L47.9123 7.70087L45.1731 1.28963C44.9712 0.819771 44.5112 0.515625 44.0001 0.515625C43.4891 0.515625 43.0291 0.819771 42.8271 1.29073L40.088 7.70087L33.1598 8.32985C32.6508 8.37691 32.2208 8.72097 32.0628 9.20695C31.9048 9.69292 32.0507 10.226 32.4358 10.562L37.6718 15.154L36.1278 21.9553C36.0149 22.4553 36.209 22.9723 36.6239 23.2722C36.8469 23.4333 37.1079 23.5154 37.371 23.5154C37.5979 23.5154 37.8229 23.4542 38.0249 23.3333L44.0001 19.7622L49.9732 23.3333C50.4103 23.5963 50.9612 23.5723 51.3752 23.2722C51.7904 22.9713 51.9843 22.4542 51.8713 21.9553L50.3273 15.154L55.5633 10.5629C55.9484 10.226 56.0955 9.69384 55.9374 9.20695Z" fill="#FFC107"/>
</g>
<g clip-path="url(#clip2_2390_2130)">
<path d="M87.9374 9.20695C87.7803 8.72097 87.3493 8.37581 86.8393 8.32985L79.9123 7.70087L77.1731 1.28963C76.9712 0.819771 76.5112 0.515625 76.0001 0.515625C75.4891 0.515625 75.0291 0.819771 74.8271 1.29073L72.088 7.70087L65.1598 8.32985C64.6508 8.37691 64.2208 8.72097 64.0628 9.20695C63.9048 9.69292 64.0507 10.226 64.4358 10.562L69.6718 15.154L68.1278 21.9553C68.0149 22.4553 68.209 22.9723 68.6239 23.2722C68.8469 23.4333 69.1079 23.5154 69.371 23.5154C69.5979 23.5154 69.8229 23.4542 70.0249 23.3333L76.0001 19.7622L81.9732 23.3333C82.4103 23.5963 82.9612 23.5723 83.3752 23.2722C83.7904 22.9713 83.9843 22.4542 83.8713 21.9553L82.3273 15.154L87.5633 10.5629C87.9484 10.226 88.0955 9.69384 87.9374 9.20695Z" fill="#FFC107"/>
</g>
<g clip-path="url(#clip3_2390_2130)">
<path d="M119.937 9.20695C119.78 8.72097 119.349 8.37581 118.839 8.32985L111.912 7.70087L109.173 1.28963C108.971 0.819771 108.511 0.515625 108 0.515625C107.489 0.515625 107.029 0.819771 106.827 1.29073L104.088 7.70087L97.1598 8.32985C96.6508 8.37691 96.2208 8.72097 96.0628 9.20695C95.9048 9.69292 96.0507 10.226 96.4358 10.562L101.672 15.154L100.128 21.9553C100.015 22.4553 100.209 22.9723 100.624 23.2722C100.847 23.4333 101.108 23.5154 101.371 23.5154C101.598 23.5154 101.823 23.4542 102.025 23.3333L108 19.7622L113.973 23.3333C114.41 23.5963 114.961 23.5723 115.375 23.2722C115.79 22.9713 115.984 22.4542 115.871 21.9553L114.327 15.154L119.563 10.5629C119.948 10.226 120.095 9.69384 119.937 9.20695Z" fill="#FFC107"/>
</g>
<g clip-path="url(#clip4_2390_2130)">
<path d="M151.937 9.20695C151.78 8.72097 151.349 8.37581 150.839 8.32985L143.912 7.70087L141.173 1.28963C140.971 0.819771 140.511 0.515625 140 0.515625C139.489 0.515625 139.029 0.819771 138.827 1.29073L136.088 7.70087L129.16 8.32985C128.651 8.37691 128.221 8.72097 128.063 9.20695C127.905 9.69292 128.051 10.226 128.436 10.562L133.672 15.154L132.128 21.9553C132.015 22.4553 132.209 22.9723 132.624 23.2722C132.847 23.4333 133.108 23.5154 133.371 23.5154C133.598 23.5154 133.823 23.4542 134.025 23.3333L140 19.7622L145.973 23.3333C146.41 23.5963 146.961 23.5723 147.375 23.2722C147.79 22.9713 147.984 22.4542 147.871 21.9553L146.327 15.154L151.563 10.5629C151.948 10.226 152.095 9.69384 151.937 9.20695Z" fill="#FFC107"/>
</g>
<defs>
<clipPath id="clip0_2390_2130">
<rect width="24" height="24" fill="white"/>
</clipPath>
<clipPath id="clip1_2390_2130">
<rect width="24" height="24" fill="white" transform="translate(32)"/>
</clipPath>
<clipPath id="clip2_2390_2130">
<rect width="24" height="24" fill="white" transform="translate(64)"/>
</clipPath>
<clipPath id="clip3_2390_2130">
<rect width="24" height="24" fill="white" transform="translate(96)"/>
</clipPath>
<clipPath id="clip4_2390_2130">
<rect width="24" height="24" fill="white" transform="translate(128)"/>
</clipPath>
</defs>
</svg>
