<svg width="80" height="80" viewBox="0 0 80 80" fill="none" xmlns="http://www.w3.org/2000/svg">
<rect width="80" height="80" rx="16" fill="url(#paint0_linear_1823_1262)" fill-opacity="0.12"/>
<path d="M19 40C19.0455 39.9999 19.0909 39.9969 19.136 39.991C26.4819 38.9943 33.6465 36.947 40.41 33.912C47.2402 30.8389 53.5862 26.787 59.248 21.884L58.03 26.758C57.9658 27.0151 58.0064 27.2872 58.1427 27.5144C58.279 27.7417 58.4999 27.9055 58.757 27.97C58.8365 27.9897 58.9181 27.9997 59 28C59.2229 27.9997 59.4393 27.925 59.6148 27.7876C59.7904 27.6503 59.915 27.4583 59.969 27.242L61.969 19.242C62.0057 19.0947 62.0084 18.941 61.9769 18.7925C61.9454 18.644 61.8805 18.5046 61.7871 18.3849C61.6938 18.2652 61.5743 18.1683 61.438 18.1016C61.3016 18.035 61.1518 18.0002 61 18H53C52.7348 18 52.4804 18.1054 52.2929 18.2929C52.1053 18.4804 52 18.7348 52 19C52 19.2652 52.1053 19.5196 52.2929 19.7071C52.4804 19.8946 52.7348 20 53 20H58.369C52.7459 24.9416 46.4164 29.0158 39.59 32.088C33.001 35.0445 26.0213 37.0385 18.865 38.009C18.6136 38.043 18.3845 38.1712 18.2241 38.3678C18.0637 38.5643 17.984 38.8145 18.0011 39.0676C18.0183 39.3208 18.131 39.5579 18.3165 39.731C18.502 39.9041 18.7463 40.0003 19 40Z" fill="#387EDB"/>
<path d="M61 60H60V33C60 32.7348 59.8946 32.4804 59.7071 32.2929C59.5196 32.1054 59.2652 32 59 32H49C48.7348 32 48.4804 32.1054 48.2929 32.2929C48.1054 32.4804 48 32.7348 48 33V60H46V39C46 38.7348 45.8946 38.4804 45.7071 38.2929C45.5196 38.1054 45.2652 38 45 38H35C34.7348 38 34.4804 38.1054 34.2929 38.2929C34.1054 38.4804 34 38.7348 34 39V60H32V45C32 44.7348 31.8946 44.4804 31.7071 44.2929C31.5196 44.1054 31.2652 44 31 44H21C20.7348 44 20.4804 44.1054 20.2929 44.2929C20.1054 44.4804 20 44.7348 20 45V60H19C18.7348 60 18.4804 60.1054 18.2929 60.2929C18.1054 60.4804 18 60.7348 18 61C18 61.2652 18.1054 61.5196 18.2929 61.7071C18.4804 61.8946 18.7348 62 19 62H61C61.2652 62 61.5196 61.8946 61.7071 61.7071C61.8946 61.5196 62 61.2652 62 61C62 60.7348 61.8946 60.4804 61.7071 60.2929C61.5196 60.1054 61.2652 60 61 60ZM50 34H58V60H50V34ZM36 40H44V60H36V40ZM22 46H30V60H22V46Z" fill="#387EDB"/>
<defs>
<linearGradient id="paint0_linear_1823_1262" x1="3.47826" y1="93.125" x2="82.2813" y2="84.6505" gradientUnits="userSpaceOnUse">
<stop stop-color="#30C9AB"/>
<stop offset="1" stop-color="#377BDC"/>
</linearGradient>
</defs>
</svg>
