<svg width="24" height="23" viewBox="0 0 24 23" fill="none" xmlns="http://www.w3.org/2000/svg">
<path d="M14.4948 5.03516C15.4715 5.22572 16.3691 5.70341 17.0728 6.40709C17.7765 7.11077 18.2542 8.00842 18.4448 8.98516M14.4948 1.03516C16.524 1.26059 18.4163 2.16933 19.861 3.61216C21.3056 5.055 22.2168 6.94617 22.4448 8.97516M21.4448 16.9552V19.9552C21.4459 20.2337 21.3888 20.5093 21.2773 20.7645C21.1657 21.0197 21.0021 21.2487 20.7968 21.437C20.5916 21.6253 20.3493 21.7686 20.0855 21.8579C19.8217 21.9471 19.5421 21.9802 19.2648 21.9552C16.1876 21.6208 13.2318 20.5693 10.6348 18.8852C8.21859 17.3498 6.17009 15.3013 4.63476 12.8852C2.94474 10.2764 1.893 7.30615 1.56476 4.21516C1.53977 3.93862 1.57263 3.65992 1.66126 3.39678C1.74988 3.13364 1.89233 2.89185 2.07952 2.68678C2.26672 2.48171 2.49456 2.31787 2.74855 2.20568C3.00253 2.09349 3.2771 2.03542 3.55476 2.03516H6.55476C7.04006 2.03038 7.51055 2.20223 7.87852 2.51869C8.24649 2.83514 8.48683 3.2746 8.55476 3.75516C8.68138 4.71522 8.91621 5.65788 9.25476 6.56516C9.3893 6.92308 9.41842 7.31207 9.33866 7.68604C9.25891 8.06 9.07362 8.40327 8.80476 8.67516L7.53476 9.94516C8.95831 12.4487 11.0312 14.5216 13.5348 15.9452L14.8048 14.6752C15.0766 14.4063 15.4199 14.221 15.7939 14.1412C16.1678 14.0615 16.5568 14.0906 16.9148 14.2252C17.822 14.5637 18.7647 14.7985 19.7248 14.9252C20.2105 14.9937 20.6542 15.2384 20.9713 15.6127C21.2884 15.9869 21.4569 16.4647 21.4448 16.9552Z" stroke="#292929" stroke-width="2" stroke-linecap="round" stroke-linejoin="round"/>
</svg>
