<svg width="22" height="19" viewBox="0 0 22 19" fill="none" xmlns="http://www.w3.org/2000/svg">
<g clip-path="url(#clip0_925_5270)">
<path fill-rule="evenodd" clip-rule="evenodd" d="M2.10666 3.05395C2.27204 2.72692 2.61212 2.5 3.00009 2.5H19.0001C19.3881 2.5 19.7281 2.72692 19.8935 3.05395L11.0001 9.27934L2.10666 3.05395ZM0.000135348 3.48266C-2.68281e-05 3.49253 -4.31758e-05 3.50239 8.58362e-05 3.51225V15.5C8.58362e-05 17.1523 1.3478 18.5 3.00009 18.5H19.0001C20.6524 18.5 22.0001 17.1523 22.0001 15.5V3.51236C22.0002 3.50242 22.0002 3.49247 22 3.48251C21.9906 1.83822 20.6465 0.5 19.0001 0.5H3.00009C1.35359 0.5 0.00952624 1.8383 0.000135348 3.48266ZM20.0001 5.42066V15.5C20.0001 16.0477 19.5478 16.5 19.0001 16.5H3.00009C2.45237 16.5 2.00009 16.0477 2.00009 15.5V5.42066L10.4266 11.3192C10.7709 11.5603 11.2292 11.5603 11.5735 11.3192L20.0001 5.42066Z" fill="#292929"/>
</g>
<defs>
<clipPath id="clip0_925_5270">
<rect width="22.0001" height="18" fill="white" transform="translate(0 0.5)"/>
</clipPath>
</defs>
</svg>
