<svg width="50" height="50" viewBox="0 0 50 50" fill="none" xmlns="http://www.w3.org/2000/svg">
<path fill-rule="evenodd" clip-rule="evenodd" d="M25.0114 0C11.2333 0 0 11.2174 0 24.9932C0 38.769 11.2356 50 25.0114 50C38.7871 50 50 38.769 50 24.9932C50 11.2174 38.7871 0 25.0114 0ZM25.0114 4.54421C27.6978 4.53972 30.3587 5.06562 32.8415 6.09174C35.3242 7.11787 37.58 8.62402 39.4794 10.5238C41.3788 12.4237 42.8844 14.6798 43.91 17.1627C44.9356 19.6457 45.4609 22.3067 45.4558 24.9932C45.4612 27.6804 44.9362 30.3422 43.9109 32.826C42.8856 35.3099 41.3801 37.567 39.4809 39.468C37.5816 41.369 35.3258 42.8764 32.8428 43.9039C30.3599 44.9314 27.6985 45.4588 25.0114 45.4558C22.323 45.4591 19.6605 44.9321 17.1761 43.9049C14.6917 42.8778 12.4343 41.3708 10.5332 39.47C8.63203 37.5693 7.12446 35.3123 6.09679 32.8281C5.06912 30.344 4.54152 27.6815 4.54422 24.9932C4.54422 13.6735 13.6917 4.54421 25.0114 4.54421ZM24.975 9.05662C24.6747 9.05956 24.3779 9.12202 24.1019 9.24037C23.8259 9.35873 23.576 9.53064 23.3668 9.74615C23.1577 9.96167 22.9933 10.2165 22.8832 10.496C22.7732 10.7754 22.7196 11.0739 22.7256 11.3742V24.9932C22.7269 25.2922 22.7871 25.588 22.9029 25.8636C23.0187 26.1393 23.1878 26.3894 23.4004 26.5996L32.4889 35.6925C32.6991 35.9089 32.9503 36.0812 33.2278 36.1994C33.5053 36.3176 33.8036 36.3794 34.1053 36.3812C34.4069 36.3829 34.7059 36.3245 34.9848 36.2095C35.2636 36.0945 35.5168 35.9251 35.7295 35.7112C35.9422 35.4972 36.1102 35.2431 36.2236 34.9636C36.3371 34.6841 36.3937 34.3848 36.3903 34.0832C36.3868 33.7815 36.3234 33.4836 36.2036 33.2068C36.0838 32.9299 35.9101 32.6797 35.6925 32.4707L27.2744 24.0525V11.3742C27.2805 11.0697 27.2253 10.7671 27.1122 10.4843C26.999 10.2016 26.8302 9.94447 26.6157 9.72827C26.4012 9.51208 26.1454 9.34121 25.8635 9.22583C25.5817 9.11045 25.2795 9.05291 24.975 9.05662Z" fill="url(#paint0_linear_87_1272)"/>
<defs>
<linearGradient id="paint0_linear_87_1272" x1="0" y1="20.625" x2="48.9191" y2="20.625" gradientUnits="userSpaceOnUse">
<stop stop-color="#30C9AB"/>
<stop offset="1" stop-color="#377BDC"/>
</linearGradient>
</defs>
</svg>
