<svg width="54" height="46" viewBox="0 0 54 46" fill="none" xmlns="http://www.w3.org/2000/svg">
<path d="M54 23C54 35.6795 43.787 46 31.2261 46C26.5891 46 22.1283 44.5846 18.313 41.9897C17.2565 41.2231 16.963 39.8077 17.7261 38.6872C18.4891 37.6256 19.8978 37.3308 21.013 38.0974C24.0065 40.1615 27.587 41.2821 31.2261 41.2821C41.2043 41.2821 49.3043 33.0846 49.3043 23C49.3043 12.9154 41.2043 4.71795 31.2261 4.71795C21.4826 4.71795 13.5 12.5615 13.1478 22.3513L18.6065 16.8077C19.5457 15.8641 21.013 15.8641 21.9522 16.8077C22.8913 17.7513 22.8913 19.2256 21.9522 20.1692L12.9717 29.1923C12.5022 29.6641 11.9152 29.9 11.3283 29.9C10.6826 29.9 10.0957 29.6641 9.68478 29.1923L0.704348 20.1103C-0.234783 19.1667 -0.234783 17.6923 0.704348 16.7487C1.64348 15.8051 3.11087 15.8051 4.05 16.7487L8.51087 21.2897C9.33261 9.4359 19.1935 0 31.2261 0C43.787 0 54 10.3205 54 23ZM31.1087 9.61282C29.8174 9.61282 28.7609 10.6744 28.7609 11.9718V23C28.7609 23.6487 29.0543 24.2385 29.5239 24.6513L34.5717 29.7231C35.0413 30.1949 35.6283 30.4308 36.2739 30.4308C36.8609 30.4308 37.5065 30.1949 37.9174 29.7231C38.8565 28.7795 38.7978 27.3051 37.8587 26.3615L33.4565 21.9974V11.9718C33.4565 10.6744 32.4 9.61282 31.1087 9.61282Z" fill="url(#paint0_linear_87_1261)"/>
<defs>
<linearGradient id="paint0_linear_87_1261" x1="0.880434" y1="19.7564" x2="56.6413" y2="19.7564" gradientUnits="userSpaceOnUse">
<stop stop-color="#30C9AB"/>
<stop offset="1" stop-color="#377BDC"/>
</linearGradient>
</defs>
</svg>
