<svg width="52" height="50" viewBox="0 0 52 50" fill="none" xmlns="http://www.w3.org/2000/svg">
<path d="M39.4199 49.9995C38.7397 49.9995 38.0555 49.8348 37.4253 49.5032L26.0568 43.5077L14.5739 49.5011C13.8674 49.8777 13.0692 50.0468 12.2712 49.9889C11.4732 49.931 10.7077 49.6484 10.0626 49.1737C9.41339 48.7052 8.90913 48.0626 8.6078 47.3196C8.30648 46.5767 8.22033 45.7636 8.35923 44.9737L10.5306 32.282L1.29811 23.1834C0.722508 22.6258 0.315478 21.9168 0.123793 21.1376C-0.0678909 20.3585 -0.0364503 19.541 0.214502 18.779C0.459415 18.0158 0.913737 17.3372 1.52545 16.8208C2.13715 16.3045 2.88152 15.9713 3.67331 15.8595L16.3813 14.0076L22.1591 2.39195C22.8871 0.91549 24.3575 0 26.0006 0C27.6437 0 29.1142 0.91549 29.8421 2.39195L35.5264 13.9388L48.3279 15.8595C49.1197 15.9713 49.8641 16.3045 50.4758 16.8208C51.0875 17.3372 51.5418 18.0158 51.7867 18.779C52.0367 19.5411 52.0676 20.3584 51.876 21.1373C51.6843 21.9162 51.2779 22.6253 50.7031 23.1834L41.506 32.1714L43.642 44.9758C43.7796 45.7656 43.6929 46.5783 43.3917 47.321C43.0905 48.0637 42.5869 48.7065 41.9386 49.1758C41.2062 49.709 40.3249 49.9972 39.4199 49.9995ZM4.19951 20.1971L13.3946 29.1852C14.4033 30.1736 14.865 31.5917 14.6279 32.9848L12.4586 45.6786L13.6067 47.6555L12.6375 45.81L24.0039 39.8165C24.6187 39.4927 25.3028 39.3233 25.9972 39.3229C26.6917 39.3226 27.3759 39.4912 27.991 39.8144L39.3595 45.81L39.5384 45.6786L37.367 32.9868C37.2503 32.3006 37.3014 31.5961 37.5159 30.934C37.7303 30.2719 38.1018 29.6718 38.5983 29.1852L47.7955 20.1971L47.7268 19.9823L35.0189 18.1305C34.3317 18.0296 33.6791 17.763 33.1173 17.3537C32.5554 16.9443 32.101 16.4044 31.793 15.7802L26.1088 4.23336C26.0921 4.19999 26.0734 4.16663 25.9964 4.16663L20.1999 15.7802C19.8929 16.4043 19.4393 16.9443 18.8781 17.3537C18.3169 17.7631 17.6649 18.0296 16.9782 18.1305L4.26607 19.9823L2.74569 21.6881L4.19951 20.1971Z" fill="url(#paint0_linear_87_1258)"/>
<defs>
<linearGradient id="paint0_linear_87_1258" x1="-9.35937" y1="19.8113" x2="51.9965" y2="19.8113" gradientUnits="userSpaceOnUse">
<stop stop-color="#30C9AB"/>
<stop offset="1" stop-color="#377BDC"/>
</linearGradient>
</defs>
</svg>
