<svg width="23" height="20" viewBox="0 0 23 20" fill="none" xmlns="http://www.w3.org/2000/svg">
<path fill-rule="evenodd" clip-rule="evenodd" d="M6.42265 8.69309C8.56979 10.0595 10.0924 13.0266 10.678 14.3344C12.2323 10.5877 14.5736 7.68795 16.8375 5.54889C16.8684 5.47531 16.9326 5.4184 17.0072 5.38988C17.51 4.92233 18.0079 4.49209 18.4914 4.09879C18.5271 4.0422 18.5828 3.99775 18.6458 3.97388C19.9949 2.89085 21.2224 2.09593 22.1167 1.56836C16.6316 2.79811 12.8447 7.40481 11.0098 10.1962C10.8948 10.3599 10.636 10.3498 10.5414 10.1767C9.99481 9.2593 8.41366 6.97541 7.20345 6.97541C7.14487 6.97541 7.08635 6.97541 7.02778 6.99495C6.18846 7.17057 6.01273 7.54151 5.93467 7.89279C5.85655 8.2247 5.91512 8.36129 6.42265 8.69309Z" fill="url(#paint0_linear_3083_763)"/>
<path fill-rule="evenodd" clip-rule="evenodd" d="M10.4034 18.2575C5.85527 18.2575 2.14652 14.5487 2.14652 10.0006C2.14652 5.45245 5.85527 1.74365 10.4034 1.74365C12.27 1.74365 14.0496 2.36664 15.4927 3.50026C15.791 3.73456 16.2069 3.75904 16.5164 3.53973C16.9266 3.24902 16.9975 2.65098 16.6081 2.333C14.8671 0.911472 12.7107 0.143066 10.4034 0.143066C4.97692 0.162499 0.56543 4.57404 0.56543 10.0006C0.56543 15.4271 4.97692 19.8387 10.4035 19.8387C15.83 19.8387 20.2415 15.4271 20.2415 10.0006C20.2415 8.41411 19.8647 6.87636 19.1495 5.48303C18.9246 5.04485 18.3644 4.94452 17.9944 5.26958C17.7008 5.52744 17.6344 5.96838 17.81 6.31742C20.4491 11.5646 16.6981 18.2575 10.4034 18.2575Z" fill="url(#paint1_linear_3083_763)" fill-opacity="0.12"/>
<defs>
<linearGradient id="paint0_linear_3083_763" x1="6.61105" y1="16.4288" x2="22.4679" y2="14.2635" gradientUnits="userSpaceOnUse">
<stop stop-color="#30C9AB"/>
<stop offset="1" stop-color="#377BDC"/>
</linearGradient>
<linearGradient id="paint1_linear_3083_763" x1="1.42091" y1="23.07" x2="20.803" y2="20.9877" gradientUnits="userSpaceOnUse">
<stop stop-color="#30C9AB"/>
<stop offset="1" stop-color="#377BDC"/>
</linearGradient>
</defs>
</svg>
