<svg width="120" height="120" viewBox="0 0 120 120" fill="none" xmlns="http://www.w3.org/2000/svg">
<g clip-path="url(#clip0_3981_422)">
<path d="M105.481 34.3874C107.993 29.1406 107.637 22.7842 103.324 18.4714L101.529 16.6759C97.2161 12.3631 90.6886 11.677 85.6128 14.5195C82.0404 16.5202 74.4804 12.3602 73.9207 9.66576C72.7454 4.00704 67.2845 0 61.2252 0L58.14 0.15672C51.0451 0.5172 45.4776 6.37488 45.4776 13.4789C45.72 16.56 40.44 18.84 37.373 16.8355C32.1094 11.5718 23.5752 11.5718 18.3115 16.8355L16.8353 18.3118C12.3216 22.8257 11.7972 29.6731 14.9069 34.944C17.04 38.5598 14.9599 44.9599 11.4554 45.8215C5.07864 47.3894 0 52.08 0 58.9915V61.2228C0 67.3438 4.45872 71.9107 10.0051 73.8782C15.7598 75.9197 15.306 84.3612 14.7161 85.3728C11.7062 90.5333 12.4126 97.2653 16.8355 101.688L18.3118 103.164C22.7124 107.565 29.2848 108.078 34.5497 105.329C38.3201 103.36 45.3602 107.04 45.9442 110.049C47.0758 115.879 52.733 120 58.9567 120H60.8772C66.9785 120 72.1445 115.996 73.8905 110.472C75.0324 106.859 80.5603 103.2 86.0592 105.513C91.2905 107.714 97.734 107.119 101.822 103.031L103.165 101.688C108.428 96.4246 108.428 87.8904 103.165 82.627C100.8 80.4802 103.84 74.5601 106.521 74.5224C113.966 74.5224 120 68.4876 120 61.0435V58.7359C120 52.5374 115.885 47.0088 110.094 45.7361C106.2 44.88 104.22 37.02 105.481 34.3874Z" fill="#45C9A5"/>
<path d="M49.5001 78.3188L33.8591 62.6778C31.9845 60.8031 31.9845 57.764 33.8591 55.8896C35.7337 54.015 38.7729 54.015 40.6473 55.8896L52.8942 68.1366L79.3504 41.6804C81.225 39.8058 84.2642 39.8058 86.1385 41.6804C88.013 43.555 88.0132 46.5942 86.1385 48.4686L56.2885 78.3188C54.3189 79.9995 50.799 79.7595 49.5001 78.3188Z" fill="white"/>
</g>
<defs>
<clipPath id="clip0_3981_422">
<rect width="120" height="120" fill="white"/>
</clipPath>
</defs>
</svg>
