<svg width="58" height="58" viewBox="0 0 58 58" fill="none" xmlns="http://www.w3.org/2000/svg">
<g filter="url(#filter0_d_4837_393)">
<rect x="5" y="2" width="48" height="48" rx="24" fill="url(#paint0_linear_4837_393)"/>
<rect x="5.72" y="2.72" width="46.56" height="46.56" rx="23.28" stroke="white" stroke-width="1.44"/>
<path d="M39.5604 20.2534C38.802 20.5829 38 20.802 37.179 20.9037C38.0442 20.3922 38.6911 19.5823 38.9971 18.6274C38.1871 19.106 37.301 19.4431 36.377 19.6241C35.8103 19.0208 35.0745 18.6015 34.2654 18.4204C33.4563 18.2393 32.6112 18.305 31.84 18.6088C31.0688 18.9127 30.4073 19.4406 29.9413 20.124C29.4753 20.8075 29.2265 21.6147 29.2272 22.4409C29.224 22.7562 29.2561 23.0708 29.323 23.379C27.6788 23.2987 26.0701 22.8736 24.6021 22.1314C23.1341 21.3893 21.8399 20.3468 20.804 19.0722C20.2722 19.978 20.1073 21.0518 20.3432 22.0746C20.579 23.0973 21.1978 23.9918 22.0731 24.5755C21.4192 24.5579 20.779 24.3839 20.2067 24.0683V24.1132C20.2078 25.064 20.5376 25.9855 21.1407 26.7224C21.7438 27.4594 22.5834 27.9668 23.518 28.1593C23.1644 28.2522 22.8 28.2978 22.4344 28.295C22.1718 28.2996 21.9095 28.276 21.652 28.2246C21.9192 29.0418 22.434 29.7564 23.1256 30.2701C23.8172 30.7837 24.6516 31.0712 25.514 31.0929C24.0511 32.2327 22.2469 32.851 20.3897 32.8491C20.059 32.8513 19.7286 32.8324 19.4004 32.7924C21.2902 34.0057 23.4924 34.6475 25.7406 34.6403C33.3459 34.6403 37.504 28.3639 37.504 22.9234C37.504 22.7413 37.4977 22.5657 37.4889 22.3912C38.3041 21.81 39.0061 21.0855 39.5604 20.2534Z" fill="#03A9F4"/>
</g>
<defs>
<filter id="filter0_d_4837_393" x="0.2" y="0.0799999" width="57.6" height="57.6" filterUnits="userSpaceOnUse" color-interpolation-filters="sRGB">
<feFlood flood-opacity="0" result="BackgroundImageFix"/>
<feColorMatrix in="SourceAlpha" type="matrix" values="0 0 0 0 0 0 0 0 0 0 0 0 0 0 0 0 0 0 127 0" result="hardAlpha"/>
<feOffset dy="2.88"/>
<feGaussianBlur stdDeviation="2.4"/>
<feComposite in2="hardAlpha" operator="out"/>
<feColorMatrix type="matrix" values="0 0 0 0 0.475 0 0 0 0 0.475 0 0 0 0 0.475 0 0 0 0.1 0"/>
<feBlend mode="normal" in2="BackgroundImageFix" result="effect1_dropShadow_4837_393"/>
<feBlend mode="normal" in="SourceGraphic" in2="effect1_dropShadow_4837_393" result="shape"/>
</filter>
<linearGradient id="paint0_linear_4837_393" x1="17.8545" y1="2" x2="34.7738" y2="47.4224" gradientUnits="userSpaceOnUse">
<stop stop-color="#F5F5F5"/>
<stop offset="1" stop-color="white"/>
</linearGradient>
</defs>
</svg>
