<svg width="213" height="242" viewBox="0 0 213 242" fill="none" xmlns="http://www.w3.org/2000/svg">
<g clip-path="url(#clip0_2997_889)">
<rect width="213" height="242" rx="16" fill="#3E1959"/>
<g clip-path="url(#clip1_2997_889)">
<path fill-rule="evenodd" clip-rule="evenodd" d="M153.617 171.059C163.979 163.655 172.387 153.791 178.125 142.321V174.347C178.125 194.276 188.883 205.796 207.085 205.796C225.287 205.796 240.521 194.301 240.521 174.347V106.68H265.079V226.93H240.422V211.745C236.465 217.894 225.213 229.389 203.301 229.389C170.879 229.389 153.691 208.833 153.691 179.643L153.641 171.034L153.617 171.059Z" fill="white" fill-opacity="0.1"/>
<path d="M100.025 160.69V184.81C120.65 184.81 140.46 176.578 155.175 161.87C162.396 154.666 168.159 146.082 172.091 136.57C176.023 127.082 178.051 116.892 178.051 106.576H154.012C154.012 113.679 152.603 120.732 149.882 127.283C147.162 133.859 143.18 139.808 138.185 144.802C127.995 154.993 114.294 160.69 100 160.69H100.025Z" fill="white" fill-opacity="0.1"/>
</g>
</g>
<defs>
<clipPath id="clip0_2997_889">
<rect width="213" height="242" rx="16" fill="white"/>
</clipPath>
<clipPath id="clip1_2997_889">
<rect width="731" height="209" fill="white" transform="translate(100 68)"/>
</clipPath>
</defs>
</svg>
