<svg width="44" height="46" viewBox="0 0 44 46" fill="none" xmlns="http://www.w3.org/2000/svg">
<path d="M21.9751 7.09302L14.29 28.7601H7.68512L0 7.09302H5.61724L10.9876 23.4513L16.3888 7.09302H21.9751Z" fill="#387EDB"/>
<path d="M35.9949 45.3114C34.4106 45.3114 32.9908 45.0542 31.7357 44.5398C30.4806 44.0254 29.4723 43.264 28.711 42.2558C27.9703 41.2475 27.5794 40.0335 27.5382 38.6137H33.1554C33.2378 39.4162 33.5155 40.0335 33.9888 40.4656C34.462 40.8771 35.0793 41.0829 35.8406 41.0829C36.6225 41.0829 37.2398 40.908 37.6924 40.5582C38.1451 40.1878 38.3715 39.6837 38.3715 39.0458C38.3715 38.5109 38.1863 38.0685 37.8159 37.7187C37.4661 37.3689 37.0237 37.0808 36.4888 36.8544C35.9744 36.6281 35.2336 36.3709 34.2666 36.0828C32.8674 35.6507 31.7254 35.2186 30.8407 34.7865C29.9559 34.3544 29.1946 33.7165 28.5567 32.8729C27.9189 32.0293 27.5999 30.9284 27.5999 29.5704C27.5999 27.5539 28.3304 25.9798 29.7913 24.8481C31.2522 23.6958 33.1554 23.1196 35.5011 23.1196C37.8879 23.1196 39.8118 23.6958 41.2727 24.8481C42.7336 25.9798 43.5154 27.5642 43.6183 29.6012H37.9085C37.8673 28.9016 37.6101 28.3563 37.1369 27.9654C36.6637 27.5539 36.0567 27.3481 35.3159 27.3481C34.6781 27.3481 34.1637 27.523 33.7727 27.8728C33.3818 28.202 33.1863 28.6856 33.1863 29.3234C33.1863 30.023 33.5155 30.5683 34.174 30.9593C34.8324 31.3502 35.8612 31.772 37.2604 32.2247C38.6595 32.698 39.7912 33.1507 40.6554 33.5828C41.5402 34.0149 42.3015 34.6425 42.9393 35.4655C43.5772 36.2886 43.8961 37.3483 43.8961 38.6446C43.8961 39.8792 43.5772 41.0006 42.9393 42.0089C42.322 43.0171 41.4167 43.8196 40.2233 44.4163C39.0299 45.013 37.6204 45.3114 35.9949 45.3114Z" fill="#387EDB"/>
<line y1="-1.45408" x2="45.1737" y2="-1.45408" transform="matrix(-0.414847 0.909891 -0.931751 -0.363098 32.5226 0.688965)" stroke="#387EDB" stroke-width="2.90816"/>
</svg>
