<svg width="25" height="23" viewBox="0 0 25 23" fill="none" xmlns="http://www.w3.org/2000/svg">
<path d="M22.9779 17.5975H2.02766C1.37061 17.5975 0.83604 16.9281 0.83604 16.1051V1.99248C0.83604 1.16952 1.37061 0.5 2.02766 0.5H22.9779C23.6347 0.5 24.1694 1.16952 24.1694 1.99248V16.1051C24.1694 16.9281 23.6347 17.5975 22.9779 17.5975ZM2.02766 1.70559C1.90128 1.70559 1.79828 1.83427 1.79828 1.99248V16.1051C1.79828 16.2633 1.90128 16.3921 2.02766 16.3921H22.9779C23.1042 16.3921 23.2071 16.2633 23.2071 16.1051V1.99248C23.2071 1.83427 23.1043 1.70559 22.9779 1.70559H2.02766Z" fill="#387EDB"/>
<path d="M16.5454 8.49507C16.4371 8.09407 16.1791 7.75925 15.8198 7.55281L13.5904 6.26573C13.5681 6.2512 13.5455 6.23725 13.5228 6.22422L11.2992 4.94034C11.0445 4.7724 10.7484 4.68372 10.4419 4.68372C9.58185 4.68372 8.88216 5.38335 8.88216 6.2434V11.5577C8.88216 11.5763 8.8833 11.5946 8.88545 11.6125C8.89442 11.8668 8.9662 12.1166 9.09444 12.3381C9.37198 12.8173 9.88869 13.115 10.4429 13.115C10.7157 13.115 10.9853 13.0424 11.2217 12.9054L13.5228 11.5768C13.5358 11.5693 13.5484 11.5612 13.5604 11.5526L15.8035 10.2577C16.0483 10.1209 16.2519 9.91968 16.3924 9.67532C16.5993 9.3152 16.6537 8.89602 16.5454 8.49507ZM15.6023 9.22114C15.5437 9.3229 15.4591 9.40648 15.3576 9.46286C15.3553 9.46409 15.3531 9.46536 15.3508 9.46664L13.0661 10.7856C13.053 10.7931 13.0405 10.8012 13.0285 10.8099L10.7655 12.1164C10.6671 12.1734 10.5556 12.2036 10.4429 12.2036C10.2128 12.2036 9.99829 12.0801 9.88317 11.8813C9.82607 11.7827 9.79595 11.671 9.79604 11.5582C9.79604 11.5427 9.79526 11.5272 9.79367 11.5119V6.2434H9.79371C9.79371 5.88598 10.0845 5.59517 10.4419 5.59517C10.5719 5.59517 10.6969 5.63327 10.8036 5.70532C10.8125 5.71129 10.8216 5.71699 10.8308 5.72237L13.068 7.01409C13.0792 7.02056 13.09 7.02739 13.1007 7.03446C13.1082 7.03943 13.1159 7.04421 13.1238 7.04877L15.3649 8.34263C15.5139 8.42826 15.6207 8.5668 15.6655 8.73278C15.7103 8.89876 15.6878 9.07221 15.6023 9.22114Z" fill="#387EDB"/>
<path d="M23.6876 20.3329H14.4909C14.2774 19.5149 13.532 18.9094 12.648 18.9094C11.764 18.9094 11.0189 19.5149 10.8053 20.3329H1.3165C1.05083 20.3329 0.835358 20.5484 0.835358 20.8141C0.835358 21.0799 1.05083 21.2952 1.3165 21.2952H10.8053C11.0189 22.1133 11.7641 22.7189 12.648 22.7189C13.5321 22.7189 14.2774 22.1133 14.491 21.2952H23.6876C23.9531 21.2952 24.1687 21.0799 24.1687 20.8141C24.1687 20.5484 23.9531 20.3329 23.6876 20.3329ZM12.648 21.7565C12.1285 21.7565 11.7057 21.3337 11.7057 20.814C11.7057 20.2945 12.1285 19.8718 12.648 19.8718C13.1676 19.8718 13.5904 20.2945 13.5904 20.814C13.5904 21.3338 13.1676 21.7565 12.648 21.7565Z" fill="#387EDB"/>
</svg>
