<svg width="390" height="390" viewBox="0 0 390 390" fill="none" xmlns="http://www.w3.org/2000/svg">
<path d="M317.419 37.9634C317.419 37.9634 275.118 6.70724 221.036 23.8938C166.956 41.0795 144.965 87.6276 114.322 120.335C98.2753 137.463 74.2786 144.603 55.1039 158.099C-6.20645 201.251 4.44756 291.474 52.7951 323.488C94.6499 351.203 146.392 351.936 213.304 327.023C280.217 302.11 328.142 286.795 368.838 222.35C409.534 157.905 369.601 80.6278 317.419 37.9634Z" fill="#AFD1FF"/>
<path opacity="0.8" d="M317.419 37.9634C317.419 37.9634 275.118 6.70724 221.036 23.8938C166.956 41.0795 144.965 87.6276 114.322 120.335C98.2753 137.463 74.2786 144.603 55.1039 158.099C-6.20645 201.251 4.44756 291.474 52.7951 323.488C94.6499 351.203 146.392 351.936 213.304 327.023C280.217 302.11 328.142 286.795 368.838 222.35C409.534 157.905 369.601 80.6278 317.419 37.9634Z" fill="white"/>
<path d="M318.319 269.474L326.216 345.149" stroke="#437188" stroke-miterlimit="10"/>
<path d="M324.943 330.667L321.363 326.885" stroke="#437188" stroke-miterlimit="10"/>
<path d="M322.45 328.018C322.45 328.018 322.553 326.345 321.025 324.982C320.107 324.161 315.27 322.126 314.811 323.829C314.312 325.682 319.263 329.321 322.45 328.018Z" fill="#C4FFAF" stroke="#437188" stroke-miterlimit="10"/>
<path d="M322.45 328.018L317.846 325.149" stroke="#437188" stroke-width="0.5" stroke-miterlimit="10"/>
<path d="M325.841 339.273L322.261 335.492" stroke="#437188" stroke-miterlimit="10"/>
<path d="M323.349 336.625C323.349 336.625 323.451 334.951 321.924 333.587C321.005 332.767 316.168 330.732 315.71 332.435C315.211 334.288 320.16 337.927 323.349 336.625Z" fill="#C4FFAF" stroke="#437188" stroke-miterlimit="10"/>
<path d="M323.349 336.625L318.745 333.756" stroke="#437188" stroke-width="0.5" stroke-miterlimit="10"/>
<path d="M322.751 309.665L319.171 305.884" stroke="#437188" stroke-miterlimit="10"/>
<path d="M320.259 307.017C320.259 307.017 320.362 305.344 318.834 303.98C317.915 303.159 313.079 301.124 312.62 302.828C312.12 304.68 317.071 308.319 320.259 307.017Z" fill="#C4FFAF" stroke="#437188" stroke-miterlimit="10"/>
<path d="M320.259 307.017L315.654 304.148" stroke="#437188" stroke-width="0.5" stroke-miterlimit="10"/>
<path d="M323.65 318.272L320.069 314.49" stroke="#437188" stroke-miterlimit="10"/>
<path d="M321.157 315.624C321.157 315.624 321.259 313.951 319.732 312.587C318.813 311.766 313.977 309.731 313.518 311.434C313.019 313.287 317.969 316.926 321.157 315.624Z" fill="#C4FFAF" stroke="#437188" stroke-miterlimit="10"/>
<path d="M321.157 315.624L316.553 312.754" stroke="#437188" stroke-width="0.5" stroke-miterlimit="10"/>
<path d="M321.292 295.685L317.712 291.903" stroke="#437188" stroke-miterlimit="10"/>
<path d="M318.8 293.037C318.8 293.037 318.902 291.364 317.375 290C316.456 289.18 311.619 287.144 311.161 288.848C310.662 290.7 315.611 294.338 318.8 293.037Z" fill="#C4FFAF" stroke="#437188" stroke-miterlimit="10"/>
<path d="M318.8 293.037L314.196 290.167" stroke="#437188" stroke-width="0.5" stroke-miterlimit="10"/>
<path d="M319.827 281.643L316.246 277.862" stroke="#437188" stroke-miterlimit="10"/>
<path d="M317.334 278.994C317.334 278.994 317.437 277.321 315.909 275.958C314.991 275.137 310.154 273.102 309.695 274.806C309.196 276.658 314.147 280.297 317.334 278.994Z" fill="#C4FFAF" stroke="#437188" stroke-miterlimit="10"/>
<path d="M317.334 278.994L312.73 276.125" stroke="#437188" stroke-width="0.5" stroke-miterlimit="10"/>
<path d="M324.341 325.575L327.064 321.135" stroke="#437188" stroke-miterlimit="10"/>
<path d="M326.233 322.468C326.233 322.468 325.788 320.853 327.001 319.202C327.731 318.21 332.043 315.221 332.844 316.792C333.714 318.502 329.622 323.085 326.233 322.468Z" fill="#C4FFAF" stroke="#437188" stroke-miterlimit="10"/>
<path d="M326.233 322.468L330.38 318.506" stroke="#437188" stroke-width="0.5" stroke-miterlimit="10"/>
<path d="M321.978 302.926L324.7 298.487" stroke="#437188" stroke-miterlimit="10"/>
<path d="M323.87 299.82C323.87 299.82 323.425 298.205 324.638 296.554C325.368 295.561 329.679 292.572 330.481 294.144C331.351 295.854 327.258 300.436 323.87 299.82Z" fill="#C4FFAF" stroke="#437188" stroke-miterlimit="10"/>
<path d="M323.87 299.82L328.016 295.858" stroke="#437188" stroke-width="0.5" stroke-miterlimit="10"/>
<path d="M320.939 292.973L323.662 288.534" stroke="#437188" stroke-miterlimit="10"/>
<path d="M322.831 289.867C322.831 289.867 322.386 288.252 323.599 286.602C324.329 285.609 328.64 282.62 329.442 284.191C330.312 285.901 326.219 290.484 322.831 289.867Z" fill="#C4FFAF" stroke="#437188" stroke-miterlimit="10"/>
<path d="M322.831 289.867L326.978 285.904" stroke="#437188" stroke-width="0.5" stroke-miterlimit="10"/>
<path d="M319.416 278.383L322.139 273.943" stroke="#437188" stroke-miterlimit="10"/>
<path d="M321.309 275.276C321.309 275.276 320.863 273.661 322.076 272.01C322.806 271.017 327.118 268.028 327.919 269.6C328.79 271.31 324.697 275.892 321.309 275.276Z" fill="#C4FFAF" stroke="#437188" stroke-miterlimit="10"/>
<path d="M321.309 275.276L325.454 271.314" stroke="#437188" stroke-width="0.5" stroke-miterlimit="10"/>
<path d="M318.252 269.053C318.252 269.053 317.807 267.438 319.02 265.787C319.75 264.794 324.062 261.805 324.863 263.377C325.733 265.087 321.641 269.669 318.252 269.053Z" fill="#C4FFAF" stroke="#437188" stroke-miterlimit="10"/>
<path d="M318.252 269.053L322.398 265.091" stroke="#437188" stroke-width="0.5" stroke-miterlimit="10"/>
<path d="M318.492 269.224C318.492 269.224 316.838 269.498 315.325 268.119C314.414 267.289 311.893 262.687 313.541 262.056C315.332 261.369 319.46 265.919 318.492 269.224Z" fill="#C4FFAF" stroke="#437188" stroke-miterlimit="10"/>
<path d="M318.492 269.224L314.986 264.686" stroke="#437188" stroke-width="0.5" stroke-miterlimit="10"/>
<path d="M339.149 279.895L331.296 355.575" stroke="#437188" stroke-miterlimit="10"/>
<path d="M333.032 341.142L330.307 336.704" stroke="#437188" stroke-miterlimit="10"/>
<path d="M331.138 338.036C331.138 338.036 331.583 336.42 330.369 334.771C329.639 333.779 325.325 330.792 324.525 332.364C323.655 334.075 327.75 338.655 331.138 338.036Z" fill="#C4FFAF" stroke="#437188" stroke-miterlimit="10"/>
<path d="M331.138 338.036L327.223 334.281" stroke="#437188" stroke-width="0.5" stroke-miterlimit="10"/>
<path d="M335.211 320.139L332.487 315.701" stroke="#437188" stroke-miterlimit="10"/>
<path d="M333.317 317.034C333.317 317.034 333.762 315.418 332.548 313.769C331.818 312.777 327.504 309.789 326.705 311.362C325.834 313.072 329.93 317.652 333.317 317.034Z" fill="#C4FFAF" stroke="#437188" stroke-miterlimit="10"/>
<path d="M333.317 317.034L329.403 313.278" stroke="#437188" stroke-width="0.5" stroke-miterlimit="10"/>
<path d="M334.318 328.746L331.594 324.308" stroke="#437188" stroke-miterlimit="10"/>
<path d="M332.424 325.641C332.424 325.641 332.869 324.024 331.655 322.376C330.925 321.383 326.611 318.396 325.811 319.968C324.941 321.679 329.037 326.259 332.424 325.641Z" fill="#C4FFAF" stroke="#437188" stroke-miterlimit="10"/>
<path d="M332.424 325.641L328.509 321.885" stroke="#437188" stroke-width="0.5" stroke-miterlimit="10"/>
<path d="M336.662 306.158L333.937 301.72" stroke="#437188" stroke-miterlimit="10"/>
<path d="M334.768 303.053C334.768 303.053 335.213 301.437 333.999 299.787C333.269 298.795 328.955 295.808 328.155 297.38C327.285 299.09 331.381 303.67 334.768 303.053Z" fill="#C4FFAF" stroke="#437188" stroke-miterlimit="10"/>
<path d="M334.768 303.053L330.853 299.297" stroke="#437188" stroke-width="0.5" stroke-miterlimit="10"/>
<path d="M338.119 292.115L335.395 287.677" stroke="#437188" stroke-miterlimit="10"/>
<path d="M336.225 289.01C336.225 289.01 336.67 287.394 335.456 285.745C334.726 284.753 330.412 281.766 329.612 283.338C328.742 285.048 332.838 289.628 336.225 289.01Z" fill="#C4FFAF" stroke="#437188" stroke-miterlimit="10"/>
<path d="M336.225 289.01L332.31 285.254" stroke="#437188" stroke-width="0.5" stroke-miterlimit="10"/>
<path d="M333.491 336.035L337.07 332.251" stroke="#437188" stroke-miterlimit="10"/>
<path d="M335.983 333.384C335.983 333.384 335.879 331.711 337.406 330.346C338.325 329.525 343.16 327.488 343.62 329.19C344.12 331.044 339.171 334.685 335.983 333.384Z" fill="#C4FFAF" stroke="#437188" stroke-miterlimit="10"/>
<path d="M335.983 333.384L340.856 330.36" stroke="#437188" stroke-width="0.5" stroke-miterlimit="10"/>
<path d="M335.842 313.385L339.42 309.602" stroke="#437188" stroke-miterlimit="10"/>
<path d="M338.333 310.735C338.333 310.735 338.229 309.062 339.756 307.697C340.675 306.875 345.51 304.838 345.97 306.541C346.471 308.394 341.522 312.036 338.333 310.735Z" fill="#C4FFAF" stroke="#437188" stroke-miterlimit="10"/>
<path d="M338.333 310.735L343.206 307.711" stroke="#437188" stroke-width="0.5" stroke-miterlimit="10"/>
<path d="M336.875 303.432L340.453 299.648" stroke="#437188" stroke-miterlimit="10"/>
<path d="M339.366 300.781C339.366 300.781 339.262 299.108 340.789 297.743C341.708 296.922 346.543 294.884 347.003 296.587C347.503 298.44 342.555 302.081 339.366 300.781Z" fill="#C4FFAF" stroke="#437188" stroke-miterlimit="10"/>
<path d="M339.366 300.781L344.239 297.757" stroke="#437188" stroke-width="0.5" stroke-miterlimit="10"/>
<path d="M338.389 288.839L341.967 285.056" stroke="#437188" stroke-miterlimit="10"/>
<path d="M340.88 286.189C340.88 286.189 340.776 284.517 342.303 283.152C343.222 282.33 348.057 280.293 348.516 281.996C349.017 283.848 344.069 287.49 340.88 286.189Z" fill="#C4FFAF" stroke="#437188" stroke-miterlimit="10"/>
<path d="M340.879 286.189L345.753 283.165" stroke="#437188" stroke-width="0.5" stroke-miterlimit="10"/>
<path d="M339.171 279.471C339.171 279.471 339.068 277.799 340.594 276.433C341.513 275.611 346.348 273.574 346.808 275.277C347.307 277.129 342.359 280.771 339.171 279.471Z" fill="#C4FFAF" stroke="#437188" stroke-miterlimit="10"/>
<path d="M339.171 279.471L344.043 276.446" stroke="#437188" stroke-width="0.5" stroke-miterlimit="10"/>
<path d="M339.37 279.687C339.37 279.687 337.696 279.614 336.498 277.953C335.778 276.953 334.259 271.931 336.001 271.652C337.895 271.349 340.998 276.652 339.37 279.687Z" fill="#C4FFAF" stroke="#437188" stroke-miterlimit="10"/>
<path d="M339.37 279.687L336.873 274.524" stroke="#437188" stroke-width="0.5" stroke-miterlimit="10"/>
<path d="M330.15 249.078V344.781" stroke="#437188" stroke-miterlimit="10"/>
<path d="M330.225 330.391L327.057 326.258" stroke="#437188" stroke-miterlimit="10"/>
<path d="M328.021 327.499C328.021 327.499 328.297 325.846 326.919 324.33C326.09 323.418 321.491 320.893 320.858 322.539C320.169 324.329 324.716 328.463 328.021 327.499Z" fill="#C4FFAF" stroke="#437188" stroke-miterlimit="10"/>
<path d="M328.021 327.499L323.74 324.166" stroke="#437188" stroke-width="0.5" stroke-miterlimit="10"/>
<path d="M330.225 312.406L327.057 308.273" stroke="#437188" stroke-miterlimit="10"/>
<path d="M328.021 309.513C328.021 309.513 328.297 307.861 326.919 306.345C326.09 305.433 321.491 302.908 320.858 304.554C320.169 306.345 324.716 310.477 328.021 309.513Z" fill="#C4FFAF" stroke="#437188" stroke-miterlimit="10"/>
<path d="M328.021 309.513L323.74 306.181" stroke="#437188" stroke-width="0.5" stroke-miterlimit="10"/>
<path d="M330.225 291.29L327.057 287.158" stroke="#437188" stroke-miterlimit="10"/>
<path d="M328.021 288.398C328.021 288.398 328.297 286.745 326.919 285.23C326.09 284.318 321.491 281.792 320.858 283.439C320.169 285.229 324.716 289.362 328.021 288.398Z" fill="#C4FFAF" stroke="#437188" stroke-miterlimit="10"/>
<path d="M328.021 288.398L323.74 285.066" stroke="#437188" stroke-width="0.5" stroke-miterlimit="10"/>
<path d="M330.225 277.234L327.057 273.101" stroke="#437188" stroke-miterlimit="10"/>
<path d="M328.021 274.341C328.021 274.341 328.297 272.688 326.919 271.172C326.09 270.261 321.491 267.735 320.858 269.382C320.169 271.172 324.716 275.306 328.021 274.341Z" fill="#C4FFAF" stroke="#437188" stroke-miterlimit="10"/>
<path d="M328.021 274.341L323.74 271.009" stroke="#437188" stroke-width="0.5" stroke-miterlimit="10"/>
<path d="M330.225 263.116L327.057 258.983" stroke="#437188" stroke-miterlimit="10"/>
<path d="M328.021 260.224C328.021 260.224 328.297 258.571 326.919 257.055C326.09 256.143 321.491 253.618 320.858 255.264C320.169 257.054 324.716 261.188 328.021 260.224Z" fill="#C4FFAF" stroke="#437188" stroke-miterlimit="10"/>
<path d="M328.021 260.224L323.74 256.891" stroke="#437188" stroke-width="0.5" stroke-miterlimit="10"/>
<path d="M330.156 335.884L333.324 331.75" stroke="#437188" stroke-miterlimit="10"/>
<path d="M332.36 332.991C332.36 332.991 332.084 331.338 333.462 329.822C334.291 328.91 338.89 326.385 339.523 328.031C340.212 329.822 335.666 333.955 332.36 332.991Z" fill="#C4FFAF" stroke="#437188" stroke-miterlimit="10"/>
<path d="M332.36 332.991L336.895 329.479" stroke="#437188" stroke-width="0.5" stroke-miterlimit="10"/>
<path d="M330.156 307.279L333.324 303.146" stroke="#437188" stroke-miterlimit="10"/>
<path d="M332.36 304.386C332.36 304.386 332.084 302.733 333.462 301.217C334.291 300.305 338.89 297.78 339.523 299.426C340.212 301.217 335.666 305.351 332.36 304.386Z" fill="#C4FFAF" stroke="#437188" stroke-miterlimit="10"/>
<path d="M332.36 304.386L336.895 300.875" stroke="#437188" stroke-width="0.5" stroke-miterlimit="10"/>
<path d="M330.156 293.161L333.324 289.028" stroke="#437188" stroke-miterlimit="10"/>
<path d="M332.36 290.268C332.36 290.268 332.084 288.616 333.462 287.1C334.291 286.188 338.89 283.663 339.523 285.309C340.212 287.099 335.666 291.232 332.36 290.268Z" fill="#C4FFAF" stroke="#437188" stroke-miterlimit="10"/>
<path d="M332.36 290.268L336.895 286.757" stroke="#437188" stroke-width="0.5" stroke-miterlimit="10"/>
<path d="M330.156 274.501L333.324 270.368" stroke="#437188" stroke-miterlimit="10"/>
<path d="M332.36 271.608C332.36 271.608 332.084 269.955 333.462 268.439C334.291 267.528 338.89 265.002 339.523 266.648C340.212 268.439 335.666 272.573 332.36 271.608Z" fill="#C4FFAF" stroke="#437188" stroke-miterlimit="10"/>
<path d="M332.36 271.608L336.895 268.097" stroke="#437188" stroke-width="0.5" stroke-miterlimit="10"/>
<path d="M330.156 259.83L333.324 255.698" stroke="#437188" stroke-miterlimit="10"/>
<path d="M332.36 256.937C332.36 256.937 332.084 255.285 333.462 253.769C334.291 252.857 338.89 250.332 339.523 251.978C340.212 253.769 335.666 257.902 332.36 256.937Z" fill="#C4FFAF" stroke="#437188" stroke-miterlimit="10"/>
<path d="M332.36 256.937L336.895 253.427" stroke="#437188" stroke-width="0.5" stroke-miterlimit="10"/>
<path d="M329.966 250.431C329.966 250.431 329.69 248.778 331.068 247.262C331.897 246.351 336.496 243.825 337.129 245.471C337.818 247.262 333.272 251.396 329.966 250.431Z" fill="#C4FFAF" stroke="#437188" stroke-miterlimit="10"/>
<path d="M329.966 250.431L334.501 246.92" stroke="#437188" stroke-width="0.5" stroke-miterlimit="10"/>
<path d="M330.187 250.626C330.187 250.626 328.514 250.726 327.151 249.198C326.332 248.278 324.302 243.439 326.006 242.982C327.86 242.485 331.493 247.439 330.187 250.626Z" fill="#C4FFAF" stroke="#437188" stroke-miterlimit="10"/>
<path d="M330.187 250.626L327.171 245.748" stroke="#437188" stroke-width="0.5" stroke-miterlimit="10"/>
<path d="M334.086 369.602H323.951L322.684 344.005H335.353L334.086 369.602Z" fill="#437188" stroke="#437188" stroke-miterlimit="10"/>
<path d="M303.42 370.5H383.76" stroke="#437188" stroke-miterlimit="10" stroke-linecap="round" stroke-linejoin="round"/>
<path d="M79.56 370.5H297.18" stroke="#437188" stroke-miterlimit="10" stroke-linecap="round" stroke-linejoin="round"/>
<path d="M10.92 370.5H70.98" stroke="#437188" stroke-miterlimit="10" stroke-linecap="round" stroke-linejoin="round"/>
<path d="M127.503 370.517L122.029 314.599L117.757 315.536L125.49 370.517H127.503Z" fill="#899AAF" stroke="#899AAF" stroke-miterlimit="10" stroke-linecap="round" stroke-linejoin="round"/>
<path d="M64.2782 370.517L72.0127 315.536L67.7399 314.599L62.2651 370.517H64.2782Z" fill="#899AAF" stroke="#899AAF" stroke-miterlimit="10" stroke-linecap="round" stroke-linejoin="round"/>
<path d="M69.0019 321.348L66.2555 255.96C66.0917 252.066 69.2047 248.82 73.1024 248.82H118.916C122.911 248.82 126.059 252.222 125.748 256.204L120.678 321.348H69.0019Z" fill="#899AAF" stroke="#899AAF" stroke-miterlimit="10" stroke-linecap="round" stroke-linejoin="round"/>
<path d="M125.02 307.017H64.2174V321.348H125.02V307.017Z" fill="#899AAF" stroke="#899AAF" stroke-miterlimit="10" stroke-linecap="round" stroke-linejoin="round"/>
<path d="M69.0019 321.348H64.3999L61.1785 294.425C61.1785 292.264 62.9296 290.513 65.0902 290.513C67.2508 290.513 69.0027 292.264 69.0027 294.425L69.0019 321.348Z" fill="#899AAF" stroke="#899AAF" stroke-miterlimit="10" stroke-linecap="round" stroke-linejoin="round"/>
<path d="M120.677 321.348H125.279L128.5 294.425C128.5 292.264 126.749 290.513 124.588 290.513C122.427 290.513 120.676 292.264 120.676 294.425V321.348H120.677Z" fill="#899AAF" stroke="#899AAF" stroke-miterlimit="10" stroke-linecap="round" stroke-linejoin="round"/>
<path d="M77.741 275.214H35.1616V251.879C35.1616 250.802 36.0344 249.929 37.1116 249.929H75.7903C76.8674 249.929 77.7403 250.802 77.7403 251.879L77.741 275.214Z" fill="white" stroke="#899AAF" stroke-miterlimit="10" stroke-linecap="round" stroke-linejoin="round"/>
<path d="M171.602 370.517L166.542 282.31H162.222L169.635 370.517H171.602Z" fill="#899AAF" stroke="#899AAF" stroke-miterlimit="10" stroke-linecap="round" stroke-linejoin="round"/>
<path d="M187.497 370.517L182.438 282.31H178.11L185.523 370.517H187.497Z" fill="#899AAF" stroke="#899AAF" stroke-miterlimit="10" stroke-linecap="round" stroke-linejoin="round"/>
<path d="M47.2875 370.517L53.5915 282.31H49.2804L45.3336 370.517H47.2875Z" fill="#899AAF" stroke="#899AAF" stroke-miterlimit="10" stroke-linecap="round" stroke-linejoin="round"/>
<path d="M29.5043 370.517L35.809 282.31H31.5058L27.5597 370.517H29.5043Z" fill="#899AAF" stroke="#899AAF" stroke-miterlimit="10" stroke-linecap="round" stroke-linejoin="round"/>
<path d="M187.976 277.333H28.6868V285.049H187.976V277.333Z" fill="white" stroke="#899AAF" stroke-miterlimit="10" stroke-linecap="round" stroke-linejoin="round"/>
<path d="M187.976 277.333H28.6868V279.979H187.976V277.333Z" fill="#899AAF" stroke="#899AAF" stroke-miterlimit="10" stroke-linecap="round" stroke-linejoin="round"/>
<path d="M190.371 274.765H26.2922V277.707H190.371V274.765Z" fill="white" stroke="#899AAF" stroke-miterlimit="10" stroke-linecap="round" stroke-linejoin="round"/>
<path opacity="0.15" d="M323.7 30.42H52.26V242.58H323.7V30.42Z" fill="black"/>
<path d="M333.32 22.1193H61.06V234.78H333.32V22.1193Z" fill="#92E3A9"/>
<path d="M333.32 22.1193H61.06V234.78H333.32V22.1193Z" fill="white" stroke="#437188" stroke-miterlimit="10" stroke-linecap="round" stroke-linejoin="round"/>
<path d="M321.383 63.1301H67.608V178.642H321.383V63.1301Z" fill="white"/>
<path d="M75.6498 190.033H312.051" stroke="#8C8C8C" stroke-width="0.5" stroke-miterlimit="10"/>
<path d="M75.6498 190.033V187.714" stroke="#8C8C8C" stroke-width="0.5" stroke-miterlimit="10"/>
<path d="M88.0916 190.033V187.714" stroke="#8C8C8C" stroke-width="0.5" stroke-miterlimit="10"/>
<path d="M100.534 190.033V187.714" stroke="#8C8C8C" stroke-width="0.5" stroke-miterlimit="10"/>
<path d="M112.976 190.033V187.714" stroke="#8C8C8C" stroke-width="0.5" stroke-miterlimit="10"/>
<path d="M125.419 190.033V187.714" stroke="#8C8C8C" stroke-width="0.5" stroke-miterlimit="10"/>
<path d="M137.86 190.033V187.714" stroke="#8C8C8C" stroke-width="0.5" stroke-miterlimit="10"/>
<path d="M150.303 190.033V187.714" stroke="#8C8C8C" stroke-width="0.5" stroke-miterlimit="10"/>
<path d="M162.745 190.033V187.714" stroke="#8C8C8C" stroke-width="0.5" stroke-miterlimit="10"/>
<path d="M175.187 190.033V187.714" stroke="#8C8C8C" stroke-width="0.5" stroke-miterlimit="10"/>
<path d="M187.629 190.033V187.714" stroke="#8C8C8C" stroke-width="0.5" stroke-miterlimit="10"/>
<path d="M200.072 190.033V187.714" stroke="#8C8C8C" stroke-width="0.5" stroke-miterlimit="10"/>
<path d="M212.514 190.033V187.714" stroke="#8C8C8C" stroke-width="0.5" stroke-miterlimit="10"/>
<path d="M224.956 190.033V187.714" stroke="#8C8C8C" stroke-width="0.5" stroke-miterlimit="10"/>
<path d="M237.398 190.033V187.714" stroke="#8C8C8C" stroke-width="0.5" stroke-miterlimit="10"/>
<path d="M249.84 190.033V187.714" stroke="#8C8C8C" stroke-width="0.5" stroke-miterlimit="10"/>
<path d="M262.283 190.033V187.714" stroke="#8C8C8C" stroke-width="0.5" stroke-miterlimit="10"/>
<path d="M274.725 190.033V187.714" stroke="#8C8C8C" stroke-width="0.5" stroke-miterlimit="10"/>
<path d="M287.167 190.033V187.714" stroke="#8C8C8C" stroke-width="0.5" stroke-miterlimit="10"/>
<path d="M299.609 190.033V187.714" stroke="#8C8C8C" stroke-width="0.5" stroke-miterlimit="10"/>
<path d="M312.051 190.033V187.714" stroke="#8C8C8C" stroke-width="0.5" stroke-miterlimit="10"/>
<path d="M75.6498 190.033V97.3038" stroke="#8C8C8C" stroke-width="0.5" stroke-miterlimit="10"/>
<path d="M75.6498 190.033H81.5599" stroke="#8C8C8C" stroke-width="0.5" stroke-miterlimit="10"/>
<path d="M75.6498 171.486H69.1267" stroke="#8C8C8C" stroke-width="0.5" stroke-miterlimit="10"/>
<path d="M75.6498 152.941H69.1267" stroke="#8C8C8C" stroke-width="0.5" stroke-miterlimit="10"/>
<path d="M75.6498 134.395H69.1267" stroke="#8C8C8C" stroke-width="0.5" stroke-miterlimit="10"/>
<path d="M75.6498 115.85H69.1267" stroke="#8C8C8C" stroke-width="0.5" stroke-miterlimit="10"/>
<path d="M75.6498 97.3038H69.1267" stroke="#8C8C8C" stroke-width="0.5" stroke-miterlimit="10"/>
<path d="M293.388 115.85L305.83 101.805" stroke="#92E3A9" stroke-width="2" stroke-miterlimit="10" stroke-linecap="round"/>
<path d="M280.946 147.377L293.388 115.85" stroke="#92E3A9" stroke-width="2" stroke-miterlimit="10" stroke-linecap="round"/>
<path d="M268.503 134.395L280.946 147.377" stroke="#92E3A9" stroke-width="2" stroke-miterlimit="10" stroke-linecap="round"/>
<path d="M256.061 167.778L268.503 134.395" stroke="#92E3A9" stroke-width="2" stroke-miterlimit="10" stroke-linecap="round"/>
<path d="M243.619 115.85L256.062 167.778" stroke="#92E3A9" stroke-width="2" stroke-miterlimit="10" stroke-linecap="round"/>
<path d="M231.177 97.3038L243.619 115.85" stroke="#92E3A9" stroke-width="2" stroke-miterlimit="10" stroke-linecap="round"/>
<path d="M218.735 180.759L231.177 97.3038" stroke="#92E3A9" stroke-width="2" stroke-miterlimit="10" stroke-linecap="round"/>
<path d="M206.293 175.195L218.735 180.759" stroke="#92E3A9" stroke-width="2" stroke-miterlimit="10" stroke-linecap="round"/>
<path d="M193.85 173.341L206.293 175.195" stroke="#92E3A9" stroke-width="2" stroke-miterlimit="10" stroke-linecap="round"/>
<path d="M181.408 136.577L193.85 173.341" stroke="#92E3A9" stroke-width="2" stroke-miterlimit="10" stroke-linecap="round"/>
<path d="M168.966 129.159L181.408 136.577" stroke="#92E3A9" stroke-width="2" stroke-miterlimit="10" stroke-linecap="round"/>
<path d="M156.524 164.068L168.966 129.159" stroke="#92E3A9" stroke-width="2" stroke-miterlimit="10" stroke-linecap="round"/>
<path d="M144.082 171.486L156.524 164.068" stroke="#92E3A9" stroke-width="2" stroke-miterlimit="10" stroke-linecap="round"/>
<path d="M131.64 132.541L144.082 171.486" stroke="#92E3A9" stroke-width="2" stroke-miterlimit="10" stroke-linecap="round"/>
<path d="M119.197 126.977L131.64 132.541" stroke="#92E3A9" stroke-width="2" stroke-miterlimit="10" stroke-linecap="round"/>
<path d="M106.755 119.559L119.197 126.977" stroke="#92E3A9" stroke-width="2" stroke-miterlimit="10" stroke-linecap="round"/>
<path d="M94.3129 126.977L106.755 119.559" stroke="#92E3A9" stroke-width="2" stroke-miterlimit="10" stroke-linecap="round"/>
<path d="M81.8703 134.395L94.3129 126.977" stroke="#92E3A9" stroke-width="2" stroke-miterlimit="10" stroke-linecap="round"/>
<path d="M305.83 99.6064C304.616 99.6064 303.631 100.591 303.631 101.805C303.631 103.02 304.616 104.004 305.83 104.004C307.045 104.004 308.029 103.02 308.029 101.805C308.029 100.591 307.045 99.6064 305.83 99.6064Z" fill="white" stroke="#92E3A9" stroke-miterlimit="10" stroke-linecap="round" stroke-linejoin="round"/>
<path d="M293.388 113.65C292.173 113.65 291.189 114.635 291.189 115.849C291.189 117.064 292.173 118.048 293.388 118.048C294.602 118.048 295.586 117.064 295.586 115.849C295.587 114.635 294.602 113.65 293.388 113.65Z" fill="white" stroke="#92E3A9" stroke-miterlimit="10" stroke-linecap="round" stroke-linejoin="round"/>
<path d="M280.946 145.178C279.731 145.178 278.747 146.162 278.747 147.377C278.747 148.591 279.731 149.575 280.946 149.575C282.16 149.575 283.145 148.591 283.145 147.377C283.145 146.163 282.16 145.178 280.946 145.178Z" fill="white" stroke="#92E3A9" stroke-miterlimit="10" stroke-linecap="round" stroke-linejoin="round"/>
<path d="M268.503 132.196C267.289 132.196 266.304 133.181 266.304 134.395C266.304 135.61 267.289 136.594 268.503 136.594C269.718 136.594 270.702 135.61 270.702 134.395C270.703 133.181 269.718 132.196 268.503 132.196Z" fill="white" stroke="#92E3A9" stroke-miterlimit="10" stroke-linecap="round" stroke-linejoin="round"/>
<path d="M256.061 165.578C254.847 165.578 253.863 166.562 253.863 167.777C253.863 168.991 254.847 169.976 256.061 169.976C257.276 169.976 258.26 168.991 258.26 167.777C258.26 166.563 257.276 165.578 256.061 165.578Z" fill="white" stroke="#92E3A9" stroke-miterlimit="10" stroke-linecap="round" stroke-linejoin="round"/>
<path d="M243.619 113.65C242.404 113.65 241.42 114.635 241.42 115.849C241.42 117.064 242.404 118.048 243.619 118.048C244.833 118.048 245.818 117.064 245.818 115.849C245.819 114.635 244.833 113.65 243.619 113.65Z" fill="white" stroke="#92E3A9" stroke-miterlimit="10" stroke-linecap="round" stroke-linejoin="round"/>
<path d="M231.177 95.105C229.963 95.105 228.978 96.0893 228.978 97.3038C228.978 98.5183 229.963 99.5026 231.177 99.5026C232.392 99.5026 233.376 98.5183 233.376 97.3038C233.376 96.0893 232.392 95.105 231.177 95.105Z" fill="#437188" stroke="#92E3A9" stroke-miterlimit="10" stroke-linecap="round" stroke-linejoin="round"/>
<path d="M218.735 178.56C217.52 178.56 216.536 179.545 216.536 180.759C216.536 181.974 217.52 182.958 218.735 182.958C219.949 182.958 220.933 181.974 220.933 180.759C220.934 179.545 219.949 178.56 218.735 178.56Z" fill="white" stroke="#92E3A9" stroke-miterlimit="10" stroke-linecap="round" stroke-linejoin="round"/>
<path d="M206.293 172.997C205.078 172.997 204.094 173.981 204.094 175.195C204.094 176.41 205.078 177.394 206.293 177.394C207.507 177.394 208.492 176.41 208.492 175.195C208.492 173.981 207.507 172.997 206.293 172.997Z" fill="white" stroke="#92E3A9" stroke-miterlimit="10" stroke-linecap="round" stroke-linejoin="round"/>
<path d="M193.85 171.142C192.636 171.142 191.651 172.126 191.651 173.341C191.651 174.555 192.636 175.539 193.85 175.539C195.065 175.539 196.049 174.555 196.049 173.341C196.049 172.127 195.065 171.142 193.85 171.142Z" fill="white" stroke="#92E3A9" stroke-miterlimit="10" stroke-linecap="round" stroke-linejoin="round"/>
<path d="M181.408 134.378C180.194 134.378 179.209 135.362 179.209 136.577C179.209 137.791 180.193 138.776 181.408 138.776C182.622 138.776 183.607 137.791 183.607 136.577C183.607 135.362 182.623 134.378 181.408 134.378Z" fill="white" stroke="#92E3A9" stroke-miterlimit="10" stroke-linecap="round" stroke-linejoin="round"/>
<path d="M168.966 126.959C167.751 126.959 166.767 127.944 166.767 129.158C166.767 130.373 167.751 131.357 168.966 131.357C170.18 131.357 171.165 130.373 171.165 129.158C171.165 127.945 170.18 126.959 168.966 126.959Z" fill="white" stroke="#92E3A9" stroke-miterlimit="10" stroke-linecap="round" stroke-linejoin="round"/>
<path d="M156.524 161.869C155.31 161.869 154.325 162.853 154.325 164.068C154.325 165.282 155.31 166.267 156.524 166.267C157.739 166.267 158.723 165.282 158.723 164.068C158.723 162.853 157.739 161.869 156.524 161.869Z" fill="white" stroke="#92E3A9" stroke-miterlimit="10" stroke-linecap="round" stroke-linejoin="round"/>
<path d="M144.082 169.288C142.867 169.288 141.883 170.272 141.883 171.486C141.883 172.701 142.867 173.685 144.082 173.685C145.296 173.685 146.28 172.701 146.28 171.486C146.28 170.272 145.296 169.288 144.082 169.288Z" fill="white" stroke="#92E3A9" stroke-miterlimit="10" stroke-linecap="round" stroke-linejoin="round"/>
<path d="M131.64 130.341C130.425 130.341 129.441 131.326 129.441 132.54C129.441 133.755 130.425 134.739 131.64 134.739C132.854 134.739 133.839 133.755 133.839 132.54C133.839 131.326 132.854 130.341 131.64 130.341Z" fill="white" stroke="#92E3A9" stroke-miterlimit="10" stroke-linecap="round" stroke-linejoin="round"/>
<path d="M119.197 124.778C117.983 124.778 116.998 125.762 116.998 126.977C116.998 128.191 117.983 129.175 119.197 129.175C120.412 129.175 121.396 128.191 121.396 126.977C121.396 125.763 120.412 124.778 119.197 124.778Z" fill="white" stroke="#92E3A9" stroke-miterlimit="10" stroke-linecap="round" stroke-linejoin="round"/>
<path d="M106.755 117.36C105.541 117.36 104.557 118.344 104.557 119.559C104.557 120.773 105.541 121.758 106.755 121.758C107.97 121.758 108.954 120.773 108.954 119.559C108.954 118.344 107.97 117.36 106.755 117.36Z" fill="white" stroke="#92E3A9" stroke-miterlimit="10" stroke-linecap="round" stroke-linejoin="round"/>
<path d="M94.3129 124.778C93.0985 124.778 92.1141 125.762 92.1141 126.977C92.1141 128.191 93.0985 129.175 94.3129 129.175C95.5274 129.175 96.5117 128.191 96.5117 126.977C96.5117 125.763 95.5274 124.778 94.3129 124.778Z" fill="white" stroke="#92E3A9" stroke-miterlimit="10" stroke-linecap="round" stroke-linejoin="round"/>
<path d="M81.8703 132.196C80.6559 132.196 79.6715 133.181 79.6715 134.395C79.6715 135.61 80.6559 136.594 81.8703 136.594C83.0848 136.594 84.0692 135.61 84.0692 134.395C84.0699 133.181 83.0856 132.196 81.8703 132.196Z" fill="white" stroke="#92E3A9" stroke-miterlimit="10" stroke-linecap="round" stroke-linejoin="round"/>
<path d="M333.32 22.1193H326.284V234.78H333.32V22.1193Z" fill="#DBDBDB" stroke="#437188" stroke-miterlimit="10"/>
<path d="M333.32 88.0043H326.284V145.468H333.32V88.0043Z" fill="#878787"/>
<path d="M333.32 22.1193H61.06V35.9292H333.32V22.1193Z" fill="#AFD1FF" stroke="#437188" stroke-miterlimit="10" stroke-linecap="round" stroke-linejoin="round"/>
<path d="M129.414 51.2047H61.06V40.1302H129.414C130.282 40.1302 130.986 40.8346 130.986 41.7027V49.6322C130.986 50.5011 130.283 51.2047 129.414 51.2047Z" fill="#437188"/>
<path d="M254.011 24.4741H78.9703V32.267H254.011V24.4741Z" fill="white"/>
<path d="M87.6283 192.582H75.7856V198.027H87.6283V192.582Z" fill="#A1A1A1"/>
<path d="M100.086 192.582H88.243V198.027H100.086V192.582Z" fill="#595959"/>
<path d="M112.543 192.582H100.7V198.027H112.543V192.582Z" fill="#A1A1A1"/>
<path d="M125 192.582H113.158V198.027H125V192.582Z" fill="#595959"/>
<path d="M137.458 192.582H125.615V198.027H137.458V192.582Z" fill="#A1A1A1"/>
<path d="M149.915 192.582H138.072V198.027H149.915V192.582Z" fill="#595959"/>
<path d="M162.373 192.582H150.53V198.027H162.373V192.582Z" fill="#A1A1A1"/>
<path d="M174.831 192.582H162.988V198.027H174.831V192.582Z" fill="#595959"/>
<path d="M187.288 192.582H175.445V198.027H187.288V192.582Z" fill="#A1A1A1"/>
<path d="M199.746 192.582H187.903V198.027H199.746V192.582Z" fill="#595959"/>
<path d="M212.203 192.582H200.36V198.027H212.203V192.582Z" fill="#A1A1A1"/>
<path d="M224.66 192.582H212.818V198.027H224.66V192.582Z" fill="#595959"/>
<path d="M237.118 192.582H225.275V198.027H237.118V192.582Z" fill="#A1A1A1"/>
<path d="M249.575 192.582H237.732V198.027H249.575V192.582Z" fill="#595959"/>
<path d="M262.032 192.582H250.19V198.027H262.032V192.582Z" fill="#A1A1A1"/>
<path d="M274.49 192.582H262.647V198.027H274.49V192.582Z" fill="#595959"/>
<path d="M286.947 192.582H275.104V198.027H286.947V192.582Z" fill="#A1A1A1"/>
<path d="M299.405 192.582H287.562V198.027H299.405V192.582Z" fill="#595959"/>
<path d="M311.863 192.582H300.02V198.027H311.863V192.582Z" fill="#A1A1A1"/>
<path d="M88.2562 55.6187H68.0846V61.0631H88.2562V55.6187Z" fill="#A1A1A1"/>
<path d="M109.475 55.6187H89.303V61.0631H109.475V55.6187Z" fill="#595959"/>
<path d="M130.694 55.6187H110.522V61.0631H130.694V55.6187Z" fill="#A1A1A1"/>
<path d="M151.912 55.6187H131.74V61.0631H151.912V55.6187Z" fill="#595959"/>
<path d="M173.131 55.6187H152.96V61.0631H173.131V55.6187Z" fill="#A1A1A1"/>
<path d="M194.349 55.6187H174.178V61.0631H194.349V55.6187Z" fill="#595959"/>
<path d="M215.569 55.6187H195.397V61.0631H215.569V55.6187Z" fill="#A1A1A1"/>
<path d="M236.788 55.6187H216.616V61.0631H236.788V55.6187Z" fill="#595959"/>
<path d="M258.006 55.6187H237.834V61.0631H258.006V55.6187Z" fill="#A1A1A1"/>
<path d="M279.225 55.6187H259.054V61.0631H279.225V55.6187Z" fill="#595959"/>
<path d="M300.444 55.6187H280.272V61.0631H300.444V55.6187Z" fill="#A1A1A1"/>
<path d="M321.663 55.6187H301.491V61.0631H321.663V55.6187Z" fill="#595959"/>
<path d="M150.586 187.973V215.54" stroke="#437188" stroke-miterlimit="10"/>
<path d="M243.064 187.973V215.54" stroke="#437188" stroke-miterlimit="10"/>
<path d="M320.06 40.8198H306.54" stroke="#437188" stroke-miterlimit="10"/>
<path d="M320.06 44.9803H306.54" stroke="#437188" stroke-miterlimit="10"/>
<path d="M320.06 49.14H306.54" stroke="#437188" stroke-miterlimit="10"/>
<path d="M219.716 213.084L179.837 209.383L177.402 235.622L217.281 239.322L219.716 213.084Z" fill="white" stroke="#437188" stroke-miterlimit="10" stroke-linecap="round" stroke-linejoin="round"/>
<path d="M182.584 226.522L187.334 219.793L191.689 220.981L195.647 228.106L202.772 221.376L207.127 230.877H209.897L216.626 219.793" stroke="#AFD1FF" stroke-width="2" stroke-miterlimit="10" stroke-linecap="round"/>
<path d="M219.575 221.632C219.575 221.632 218.313 220.242 215.156 218.096C211.999 215.949 210.232 215.57 209.726 215.823C209.222 216.076 205.054 219.99 204.929 221.379C204.802 222.768 204.171 224.031 204.171 224.535C204.171 225.041 205.055 224.662 205.939 224.031C206.822 223.4 207.454 221.253 207.833 220.874C208.212 220.495 210.485 220.369 210.863 220.369C211.242 220.369 211.747 222.516 211.747 222.516C211.747 222.516 211.999 226.052 213.136 226.556C214.272 227.061 218.439 226.936 218.439 226.936L219.575 221.632Z" fill="white" stroke="#437188" stroke-miterlimit="10" stroke-linecap="round" stroke-linejoin="round"/>
<path d="M218.313 216.328L201.015 227.693" stroke="#437188" stroke-width="2" stroke-miterlimit="10" stroke-linecap="round" stroke-linejoin="round"/>
<path d="M213.009 221.379C213.009 221.379 211.116 222.894 210.484 223.399C209.853 223.904 205.686 224.662 205.181 224.915C204.676 225.167 203.287 225.546 204.17 226.051C205.054 226.556 207.453 226.808 208.464 226.808C209.474 226.808 212.378 227.819 213.64 227.187C214.903 226.556 215.913 226.051 215.913 226.051" fill="white"/>
<path d="M213.009 221.379C213.009 221.379 211.116 222.894 210.484 223.399C209.853 223.904 205.686 224.662 205.181 224.915C204.676 225.167 203.287 225.546 204.17 226.051C205.054 226.556 207.453 226.808 208.464 226.808C209.474 226.808 212.378 227.819 213.64 227.187C214.903 226.556 215.913 226.051 215.913 226.051" stroke="#437188" stroke-miterlimit="10" stroke-linecap="round" stroke-linejoin="round"/>
<path d="M223.49 221.127L218.439 220.621L217.429 227.819L223.49 229.46V221.127Z" fill="#AFD1FF" stroke="#437188" stroke-miterlimit="10" stroke-linecap="round" stroke-linejoin="round"/>
<path d="M228.618 170.669C228.618 170.669 228.088 174.551 229.148 176.14C230.207 177.729 230.559 179.141 230.559 179.141C230.559 179.141 228.618 185.319 229.324 185.672C230.03 186.025 231.971 186.202 231.971 186.202C231.971 186.202 234.619 192.026 235.501 192.555C236.384 193.085 237.09 193.261 237.09 193.261L238.679 194.497L252.447 188.143L250.152 181.612C250.152 181.612 249.446 178.611 250.152 174.729C250.858 170.846 245.21 166.08 241.504 165.021C237.797 163.961 231.619 165.55 231.619 165.55L228.618 170.669Z" fill="white" stroke="#437188" stroke-miterlimit="10" stroke-linecap="round" stroke-linejoin="round"/>
<path d="M233.384 162.196C233.384 162.196 225.971 166.432 226.147 168.727C226.323 171.022 227.912 172.61 227.912 172.61L231.619 170.845C231.619 170.845 230.03 173.669 230.913 174.022C231.796 174.375 232.502 173.669 232.502 173.669L233.561 177.023L235.856 175.081C235.856 175.081 239.738 183.907 242.387 184.259C245.034 184.612 249.094 184.083 250.506 183.2C251.917 182.318 253.859 174.022 254.565 170.845C255.271 167.668 251.565 161.667 246.446 159.902C241.328 158.136 234.091 161.843 234.091 161.843L233.384 162.196Z" fill="#437188" stroke="#437188" stroke-miterlimit="10" stroke-linecap="round" stroke-linejoin="round"/>
<path d="M234.619 175.258C234.619 175.258 235.148 175.964 236.03 178.788C236.913 181.613 237.796 185.672 238.325 181.083C238.855 176.494 235.678 172.081 234.619 175.258Z" fill="white" stroke="#437188" stroke-miterlimit="10" stroke-linecap="round" stroke-linejoin="round"/>
<path d="M223.367 363.591C223.367 363.591 220.543 367.297 220.014 367.474C219.484 367.65 214.366 369.239 214.189 370.298C214.013 371.357 214.718 372.416 214.718 372.416C214.718 372.416 219.131 373.475 223.367 373.475C227.603 373.475 232.192 372.769 232.192 372.769C232.192 372.769 236.252 373.122 238.193 372.769C240.135 372.416 240.312 371.18 240.312 371.18L239.253 361.296L227.603 361.649L223.367 363.591Z" fill="white" stroke="#437188" stroke-miterlimit="10" stroke-linecap="round" stroke-linejoin="round"/>
<path d="M249.314 363.767L245.078 368.709C245.078 368.709 243.136 369.239 243.312 371.004C243.489 372.769 245.43 372.945 247.195 372.945C248.96 372.945 260.256 373.299 262.022 372.416C263.787 371.533 260.433 362.708 260.433 362.708L249.314 363.767Z" fill="white" stroke="#437188" stroke-miterlimit="10" stroke-linecap="round" stroke-linejoin="round"/>
<path d="M221.557 265.982C221.557 265.982 221.204 294.753 221.381 301.107C221.557 307.461 223.676 344.705 223.852 347.882C224.028 351.058 224.206 355.648 224.206 355.648C224.206 355.648 222.97 357.589 222.97 358.472C222.97 359.355 222.97 361.473 222.97 361.473C222.97 361.473 228.794 367.298 231.795 367.298C234.796 367.298 239.914 365.533 239.914 365.533C239.914 365.533 241.326 356.531 241.679 354.943C242.032 353.354 240.267 327.761 240.267 327.231C240.267 326.701 239.385 316.111 239.385 315.405C239.385 314.7 243.798 338.881 243.975 342.234C244.151 345.588 246.269 357.061 246.269 357.061C246.269 357.061 245.034 357.943 245.21 359.532C245.386 361.12 245.563 364.474 245.563 364.474C245.563 364.474 247.504 366.415 251.034 366.945C254.565 367.474 257.918 367.474 258.624 367.474C259.33 367.474 260.919 367.651 261.448 366.415C261.978 365.18 261.624 355.825 261.624 354.06C261.624 352.295 260.919 347.529 260.919 346.293C260.919 345.058 257.742 312.934 257.918 305.52C258.094 298.107 258.094 280.457 258.8 278.868C259.506 277.279 261.977 267.395 261.977 265.63C261.977 263.865 253.151 269.69 242.208 268.454C231.265 267.219 221.557 264.924 221.557 264.924V265.982H221.557Z" fill="#437188" stroke="#437188" stroke-miterlimit="10" stroke-linecap="round" stroke-linejoin="round"/>
<path d="M249.269 275.69L243.621 279.926C243.621 279.926 241.68 303.755 240.797 307.991C239.914 312.227 239.561 313.462 239.561 313.462" stroke="#757575" stroke-miterlimit="10" stroke-linecap="round" stroke-linejoin="round"/>
<path d="M208.319 237.388C208.319 237.388 201.965 234.035 200.553 233.858C199.141 233.682 194.552 234.388 194.552 234.388C194.552 234.388 191.375 232.976 190.139 234.034C188.904 235.094 189.609 235.27 190.492 235.623C191.375 235.976 195.788 236.859 195.788 236.859C195.788 236.859 194.729 240.212 195.258 240.742C195.788 241.271 198.965 241.447 198.965 241.447C198.965 241.447 199.847 241.801 200.906 242.507C201.965 243.213 204.789 243.036 205.319 242.683C205.848 242.33 206.907 241.8 206.907 241.8L208.319 237.388Z" fill="white" stroke="#437188" stroke-miterlimit="10" stroke-linecap="round" stroke-linejoin="round"/>
<path d="M235.855 196.262L238.679 192.202C238.679 192.202 246.446 187.26 249.623 186.554C252.8 185.848 257.742 190.614 257.742 190.614C257.742 190.614 254.917 191.144 248.387 193.085C241.855 195.026 235.855 196.262 235.855 196.262Z" fill="#AFD1FF" stroke="#437188" stroke-miterlimit="10" stroke-linecap="round" stroke-linejoin="round"/>
<path d="M238.678 194.497C238.678 194.497 224.028 199.969 223.852 202.969C223.676 205.97 221.381 243.213 221.381 243.213L218.557 267.924C218.557 267.924 228.088 272.689 237.443 273.042C246.797 273.395 251.563 273.218 254.917 271.983C258.27 270.747 265.507 264.922 265.507 264.922C265.507 264.922 261.624 243.035 261.624 240.388C261.624 237.741 267.626 218.501 268.861 212.853C270.097 207.205 270.626 200.145 270.626 197.498C270.626 194.85 256.33 190.614 256.33 190.614C256.33 190.614 246.975 191.144 238.678 194.497Z" fill="#AFD1FF" stroke="#437188" stroke-miterlimit="10" stroke-linecap="round" stroke-linejoin="round"/>
<path d="M259.338 216.54C257.021 221.242 253.221 228.595 250.151 232.799L259.338 216.54Z" fill="white"/>
<path d="M259.338 216.54C257.021 221.242 253.221 228.595 250.151 232.799" stroke="#437188" stroke-miterlimit="10" stroke-linecap="round" stroke-linejoin="round"/>
<path d="M261.448 212.147C261.448 212.147 261.054 212.998 260.39 214.38L261.448 212.147Z" fill="white"/>
<path d="M261.448 212.147C261.448 212.147 261.054 212.998 260.39 214.38" stroke="#437188" stroke-miterlimit="10" stroke-linecap="round" stroke-linejoin="round"/>
<path d="M251.858 233.385C250.345 235.473 248.818 237.577 248.563 237.917" stroke="#437188" stroke-miterlimit="10" stroke-linecap="round" stroke-linejoin="round"/>
<path d="M255.094 228.916C255.094 228.916 253.997 230.432 252.7 232.223" stroke="#437188" stroke-miterlimit="10" stroke-linecap="round" stroke-linejoin="round"/>
<path d="M235.325 226.975L240.797 214.796" stroke="#437188" stroke-miterlimit="10" stroke-linecap="round" stroke-linejoin="round"/>
<path d="M233.913 229.622L240.267 222.562" stroke="#437188" stroke-miterlimit="10" stroke-linecap="round" stroke-linejoin="round"/>
<path d="M233.207 196.969C233.207 196.969 223.852 200.146 223.675 201.205C223.499 202.264 220.851 238.095 220.851 238.095L207.436 236.506C207.436 236.506 206.201 238.271 206.201 240.566C206.201 242.861 206.201 244.802 206.201 244.802C206.201 244.802 207.966 244.978 213.967 247.273C219.969 249.568 227.028 250.98 228.617 250.804C230.206 250.627 233.559 245.508 233.559 242.684C233.559 239.86 238.149 213.914 238.149 213.914" fill="#AFD1FF"/>
<path d="M233.207 196.969C233.207 196.969 223.852 200.146 223.675 201.205C223.499 202.264 220.851 238.095 220.851 238.095L207.436 236.506C207.436 236.506 206.201 238.271 206.201 240.566C206.201 242.861 206.201 244.802 206.201 244.802C206.201 244.802 207.966 244.978 213.967 247.273C219.969 249.568 227.028 250.98 228.617 250.804C230.206 250.627 233.559 245.508 233.559 242.684C233.559 239.86 238.149 213.914 238.149 213.914" stroke="#437188" stroke-miterlimit="10" stroke-linecap="round" stroke-linejoin="round"/>
<path d="M221.494 243.818L220.852 238.094C220.852 238.094 219.503 242.225 219.702 244.216" stroke="#437188" stroke-miterlimit="10" stroke-linecap="round" stroke-linejoin="round"/>
<path d="M137.253 184.02L136.293 190.334L152.489 196.098V190.471L147.96 169.196L137.391 176.059L137.253 184.02Z" fill="white" stroke="#437188" stroke-miterlimit="10" stroke-linecap="round" stroke-linejoin="round"/>
<path d="M158.391 165.49C158.391 165.49 158.529 171.393 158.529 172.628C158.529 173.864 157.568 176.059 157.568 176.059C157.568 176.059 158.941 179.079 159.215 179.902C159.49 180.726 157.568 182.099 157.568 182.099C157.568 182.099 157.293 184.569 157.156 184.981C157.019 185.393 155.371 187.177 153.313 186.354C151.254 185.53 149.195 177.981 148.921 175.51C148.646 173.039 148.783 167.687 151.528 165.765C154.274 163.843 158.391 165.49 158.391 165.49Z" fill="white" stroke="#437188" stroke-miterlimit="10" stroke-linecap="round" stroke-linejoin="round"/>
<path d="M150.019 175.785C150.019 175.785 153.587 173.726 153.999 172.903C154.411 172.079 153.862 170.02 153.587 168.236C153.313 166.451 157.293 166.177 158.391 166.726C159.49 167.275 161.137 168.236 161.137 164.667C161.137 161.098 157.569 156.157 149.607 156.431C141.646 156.706 133.96 158.902 132.176 167.412C130.391 175.922 134.921 183.06 135.47 184.295C136.019 185.531 139.175 187.589 143.293 184.844C147.411 182.099 146.45 178.53 146.45 178.53C146.45 178.53 146.45 176.197 147.136 176.197C147.822 176.197 147.96 176.883 147.96 182.099C147.96 187.315 147.822 191.707 150.979 192.805C154.136 193.903 157.431 192.256 157.705 189.099C157.98 185.943 157.431 183.472 156.058 183.472C154.685 183.472 153.861 185.53 152.489 182.236C151.116 178.941 150.019 175.785 150.019 175.785Z" fill="#437188" stroke="#437188" stroke-miterlimit="10" stroke-linecap="round" stroke-linejoin="round"/>
<path d="M148.097 177.706C148.097 177.706 148.372 170.705 145.901 173.726C143.43 176.746 146.312 181.274 146.312 181.274L147.136 179.902" fill="white"/>
<path d="M148.097 177.706C148.097 177.706 148.372 170.705 145.901 173.726C143.43 176.746 146.312 181.274 146.312 181.274L147.136 179.902" stroke="#437188" stroke-miterlimit="10" stroke-linecap="round" stroke-linejoin="round"/>
<path d="M134.646 187.177L131.04 193.83C131.04 193.83 138.352 192.942 143.842 194.726C149.333 196.511 154.274 198.432 154.274 198.432L152.352 191.843C152.352 191.843 146.312 188.961 141.371 188.138C136.43 187.314 134.646 187.177 134.646 187.177Z" fill="#AFD1FF" stroke="#437188" stroke-miterlimit="10" stroke-linecap="round" stroke-linejoin="round"/>
<path d="M159.962 363.431C159.962 363.431 162.787 367.137 163.316 367.314C163.845 367.49 168.964 369.079 169.141 370.138C169.317 371.197 168.611 372.256 168.611 372.256C168.611 372.256 164.199 373.315 159.962 373.315C155.726 373.315 151.137 372.609 151.137 372.609C151.137 372.609 147.077 372.962 145.135 372.609C143.194 372.256 143.018 371.02 143.018 371.02L144.077 361.136L155.726 361.489L159.962 363.431Z" fill="white" stroke="#437188" stroke-miterlimit="10" stroke-linecap="round" stroke-linejoin="round"/>
<path d="M134.016 363.607L138.252 368.549C138.252 368.549 140.193 369.079 140.017 370.844C139.841 372.609 137.899 372.785 136.134 372.785C134.369 372.785 123.073 373.139 121.308 372.256C119.543 371.374 122.897 362.548 122.897 362.548L134.016 363.607Z" fill="white" stroke="#437188" stroke-miterlimit="10" stroke-linecap="round" stroke-linejoin="round"/>
<path d="M122.896 266.865C122.896 266.865 123.848 277.995 124.308 279.221C124.837 280.632 126.603 316.463 124.837 321.405C123.072 326.347 121.661 336.055 122.366 339.938C123.072 343.821 123.426 349.646 123.426 350.705C123.426 351.764 121.308 358.135 121.308 360.783C121.308 363.43 122.014 365.902 122.014 365.902C122.014 365.902 127.662 366.255 130.486 365.372C133.311 364.489 135.076 364.137 135.076 364.137L136.311 365.019C136.311 365.019 136.311 360.253 136.311 357.43C136.311 354.605 137.704 349.142 137.704 347.377C137.704 345.612 139.147 331.066 140.206 327.359C141.265 323.652 142.489 302.167 142.489 302.167C142.489 302.167 142.841 330.407 142.489 333.585C142.135 336.762 141.43 338.174 142.489 342.057C143.548 345.94 143.195 359.372 143.195 359.372C143.195 359.372 142.841 361.313 143.195 362.196C143.548 363.078 144.078 365.373 144.078 365.373C144.078 365.373 144.607 365.549 148.138 365.726C151.668 365.903 157.316 366.079 157.845 365.903C158.375 365.726 160.317 365.197 160.317 365.197C160.317 365.197 160.493 363.608 160.317 361.314C160.14 359.02 158.728 354.06 158.551 348.412C158.375 342.764 162.611 308.521 163.67 299.167C164.729 289.812 168.612 281.34 167.906 275.162C167.2 268.985 164.199 263.513 164.023 262.277C163.847 261.042 162.611 260.336 162.611 259.806C162.611 259.277 122.544 261.218 122.544 261.218L122.896 266.865Z" fill="#437188" stroke="#437188" stroke-miterlimit="10" stroke-linecap="round" stroke-linejoin="round"/>
<path d="M135.251 278.161L141.958 284.163L142.488 302.167" stroke="#757575" stroke-miterlimit="10" stroke-linecap="round" stroke-linejoin="round"/>
<path d="M135.195 191.158C135.195 191.158 119.959 200.491 119.959 202.413C119.959 204.335 118.861 223.551 120.508 230.414C122.156 237.277 125.175 245.649 125.175 245.649L119.367 269.866C119.367 269.866 123.173 272.593 134.016 275.338C144.86 278.083 154.274 277.631 155.509 277.356L155.235 271.454L159.627 258.415C159.627 258.415 165.255 249.905 165.667 247.159C166.078 244.414 165.529 240.159 165.255 237.826C164.98 235.492 163.058 226.296 162.373 223.963C161.686 221.629 161.274 204.884 159.627 202.962C157.98 201.04 154.137 198.158 153.038 197.472C151.94 196.785 142.469 189.923 134.783 190.883" fill="#AFD1FF"/>
<path d="M135.195 191.158C135.195 191.158 119.959 200.491 119.959 202.413C119.959 204.335 118.861 223.551 120.508 230.414C122.156 237.277 125.175 245.649 125.175 245.649L119.367 269.866C119.367 269.866 123.173 272.593 134.016 275.338C144.86 278.083 154.274 277.631 155.509 277.356L155.235 271.454L159.627 258.415C159.627 258.415 165.255 249.905 165.667 247.159C166.078 244.414 165.529 240.159 165.255 237.826C164.98 235.492 163.058 226.296 162.373 223.963C161.686 221.629 161.274 204.884 159.627 202.962C157.98 201.04 154.137 198.158 153.038 197.472C151.94 196.785 142.469 189.923 134.783 190.883" stroke="#437188" stroke-miterlimit="10" stroke-linecap="round" stroke-linejoin="round"/>
<path d="M139.009 236.619C139.558 237.165 140.097 237.668 140.622 238.111" stroke="#437188" stroke-miterlimit="10" stroke-linecap="round" stroke-linejoin="round"/>
<path d="M128.11 222.681C128.11 222.681 133.106 230.322 137.917 235.489" stroke="#437188" stroke-miterlimit="10" stroke-linecap="round" stroke-linejoin="round"/>
<path d="M140.834 242.451C141.994 242.859 143.193 243.116 144.375 243.116" stroke="#437188" stroke-miterlimit="10" stroke-linecap="round" stroke-linejoin="round"/>
<path d="M132.281 236.86C132.281 236.86 134.52 239.099 137.568 240.898" stroke="#437188" stroke-miterlimit="10" stroke-linecap="round" stroke-linejoin="round"/>
<path d="M159.49 257.865C159.49 257.865 157.019 262.806 151.941 267.198C146.862 271.591 145.215 273.238 145.215 273.238C145.215 273.238 153.862 273.513 154.686 275.434C155.509 277.356 155.509 277.356 155.509 277.356L159.49 257.865Z" fill="#AFD1FF" stroke="#437188" stroke-miterlimit="10" stroke-linecap="round" stroke-linejoin="round"/>
<path d="M160.313 268.022L164.568 275.983C164.568 275.983 167.45 272.002 166.216 268.571C164.98 265.14 164.568 264.042 164.568 264.042L160.313 268.022Z" stroke="#437188" stroke-miterlimit="10" stroke-linecap="round" stroke-linejoin="round"/>
<path d="M146.45 216.551C146.45 216.551 149.057 248.532 151.528 254.434C153.999 260.336 160.038 269.395 160.038 269.395C160.038 269.395 163.469 268.434 164.568 267.061C165.666 265.688 165.94 262.669 165.94 262.669C165.94 262.669 165.254 250.727 165.254 248.12C165.254 245.512 162.784 230.962 162.784 229.041C162.784 227.12 163.195 207.491 162.235 204.883C161.274 202.275 153.862 200.079 153.862 200.079" fill="#AFD1FF"/>
<path d="M146.45 216.551C146.45 216.551 149.057 248.532 151.528 254.434C153.999 260.336 160.038 269.395 160.038 269.395C160.038 269.395 163.469 268.434 164.568 267.061C165.666 265.688 165.94 262.669 165.94 262.669C165.94 262.669 165.254 250.727 165.254 248.12C165.254 245.512 162.784 230.962 162.784 229.041C162.784 227.12 163.195 207.491 162.235 204.883C161.274 202.275 153.862 200.079 153.862 200.079" stroke="#437188" stroke-miterlimit="10" stroke-linecap="round" stroke-linejoin="round"/>
</svg>
