<svg width="30" height="24" viewBox="0 0 30 24" fill="none" xmlns="http://www.w3.org/2000/svg">
<path d="M27.6591 2.83398L27.6583 2.83309C26.5463 1.62443 25.3329 1.47871 24.7107 1.43081L24.7108 1.43038H24.6995H24.518C20.7261 1.14986 15.0709 1.10319 14.9767 1.10319C14.9296 1.10319 9.22777 1.1498 5.48026 1.52389H5.3473V1.52352L5.33691 1.52426C4.66913 1.57194 3.45404 1.71713 2.38824 2.9268C1.89632 3.44459 1.58534 4.24372 1.39725 4.90792C1.30223 5.24343 1.23697 5.55051 1.1954 5.77985C1.17461 5.89457 1.15968 5.99023 1.1499 6.0607C1.1421 6.11688 1.13637 6.16509 1.13497 6.1926L1.1348 6.19407L1.13242 6.21479L1.12345 6.2951C1.11574 6.36534 1.10474 6.46821 1.09155 6.59904C1.06516 6.86069 1.03 7.23427 0.994847 7.68251C0.924565 8.57861 0.854167 9.7747 0.854167 10.9719V13.1689C0.854167 14.3428 0.924574 15.5272 0.994847 16.4232C1.03 16.8714 1.06515 17.2478 1.09152 17.5151C1.1047 17.6488 1.11568 17.7551 1.12335 17.8294L1.1322 17.9157C1.13402 17.9339 1.13448 17.9401 1.1346 17.9401C1.13465 17.9401 1.13463 17.9389 1.13463 17.9368C1.13463 17.9609 1.14092 18.0147 1.14983 18.0782C1.15952 18.1474 1.17427 18.2412 1.19468 18.3536C1.23549 18.5785 1.29925 18.8795 1.39126 19.2089C1.57357 19.8617 1.87273 20.6485 2.34014 21.1657C3.35257 22.3221 4.56018 22.4729 5.31183 22.5668L5.32915 22.569L5.33816 22.5701H5.34724C5.48613 22.5701 5.55902 22.5707 5.67512 22.6094L5.69144 22.6148L5.70858 22.6163C7.86601 22.8039 14.6968 22.8973 14.9766 22.8973H14.9767C15.0258 22.8973 20.7262 22.8973 24.5206 22.4766H24.6528V22.477L24.6631 22.4763C25.3309 22.4286 26.546 22.2834 27.6117 21.0737C28.1037 20.5559 28.4147 19.7568 28.6028 19.0926C28.6978 18.757 28.763 18.45 28.8046 18.2206C28.8254 18.1059 28.8403 18.0102 28.8501 17.9398C28.8579 17.8836 28.8636 17.8354 28.865 17.8079L28.8652 17.8064L28.8676 17.7857L28.8765 17.7054C28.8843 17.6351 28.8953 17.5323 28.9085 17.4014C28.9348 17.1398 28.97 16.7662 29.0052 16.318C29.0754 15.4219 29.1458 14.2258 29.1458 13.0286V10.8316C29.1458 9.65775 29.0754 8.4733 29.0052 7.57732C28.97 7.12913 28.9349 6.75271 28.9085 6.48541C28.8953 6.35176 28.8843 6.24539 28.8766 6.17113L28.8678 6.08479C28.866 6.06662 28.8655 6.06037 28.8654 6.06038C28.8653 6.06038 28.8654 6.06166 28.8654 6.06369C28.8654 6.03959 28.8591 5.98586 28.8502 5.9223C28.8405 5.85313 28.8257 5.75935 28.8053 5.64689C28.7645 5.42205 28.7007 5.12102 28.6087 4.79158C28.4263 4.13843 28.1269 3.3511 27.6591 2.83398ZM26.6961 20.3617L26.696 20.3617L26.6919 20.3665C25.9397 21.2515 25.0603 21.344 24.5526 21.3903H24.419V21.3899L24.4081 21.3907C20.6749 21.6707 15.0243 21.6708 14.9766 21.6708L14.9763 21.6708L14.971 21.6707L14.954 21.6705L14.8912 21.6697L14.6581 21.6663C14.458 21.6633 14.1724 21.6587 13.8245 21.6525C13.1287 21.6401 12.184 21.6211 11.1766 21.5948C9.15852 21.5422 6.8986 21.4605 5.87791 21.3445L5.86971 21.3436H5.86145C5.80545 21.3436 5.74733 21.3342 5.67507 21.3222L5.6703 21.3214C5.60476 21.3105 5.5266 21.2974 5.44625 21.2969C4.80282 21.2505 3.91967 21.1129 3.2125 20.3174L3.21252 20.3174L3.21066 20.3154C2.95399 20.0373 2.73956 19.539 2.58266 19.0276C2.42769 18.5225 2.33666 18.0314 2.31402 17.7855C2.31334 17.7744 2.31195 17.7607 2.31088 17.7502L2.31053 17.7468L2.30158 17.661C2.29391 17.5882 2.28298 17.4844 2.26987 17.354C2.24365 17.0933 2.20869 16.7262 2.17373 16.2891C2.10378 15.4147 2.03396 14.262 2.03396 13.1222V10.9251C2.03396 9.76181 2.10379 8.59739 2.17373 7.72309C2.20869 7.28613 2.24364 6.92205 2.26984 6.66734C2.28294 6.53999 2.29385 6.44 2.30147 6.37193L2.31031 6.29435L2.31262 6.27459L2.3132 6.26965L2.31335 6.26844L2.31338 6.26816L2.31339 6.26809L2.1686 6.25071L2.31345 6.26809L2.31383 6.26391C2.33611 6.01873 2.42722 5.52614 2.58277 5.01341C2.73926 4.49762 2.95393 3.98563 3.2131 3.6825C4.01331 2.79419 4.85069 2.70287 5.40004 2.65696H5.5342V2.65737L5.54511 2.65655C7.41112 2.5166 9.75705 2.43487 11.6438 2.38814C12.5869 2.36479 13.4146 2.35019 14.0095 2.34143C14.307 2.33705 14.5462 2.33414 14.7124 2.33231L14.9053 2.33035L14.9572 2.3299L14.9713 2.3298L14.9753 2.32977L14.9766 2.32977L14.9779 2.32977L14.9819 2.3298L14.996 2.3299L15.0479 2.33035L15.2407 2.33231C15.407 2.33414 15.6462 2.33705 15.9436 2.34143C16.5385 2.35019 17.3663 2.36479 18.3094 2.38814C20.1961 2.43487 22.5421 2.5166 24.4081 2.65655L24.408 2.65696H24.419H24.5993C25.1069 2.70318 25.9863 2.79576 26.7385 3.68072L26.7389 3.68117C26.9976 3.98296 27.2011 4.49405 27.3524 5.01197C27.5021 5.52423 27.5945 6.0204 27.6411 6.2768L27.6448 6.29728L27.649 6.30573C27.6493 6.30713 27.6497 6.30876 27.6501 6.31062C27.6507 6.31346 27.6513 6.31686 27.6521 6.32086C27.6558 6.34052 27.6603 6.36904 27.6656 6.40669C27.6762 6.48166 27.6889 6.58761 27.7031 6.72046C27.7314 6.98589 27.7648 7.3553 27.7969 7.79226C27.861 8.66633 27.9192 9.80784 27.9192 10.9251L27.9193 13.1221C27.9193 14.2854 27.8494 15.4499 27.7795 16.3242C27.7445 16.7611 27.7096 17.1252 27.6834 17.3799C27.6703 17.5073 27.6594 17.6072 27.6517 17.6753L27.6429 17.7529L27.6406 17.7727L27.6403 17.7749C27.5935 18.0325 27.5013 18.5253 27.3471 19.0338C27.1902 19.5509 26.9758 20.0605 26.6961 20.3617Z" fill="#387EDB" stroke="#387EDB" stroke-width="0.291667"/>
<path d="M20.8979 11.9255L20.898 11.9253L20.8906 11.9209L12.0126 6.73432C11.8238 6.61072 11.5751 6.61157 11.3872 6.73688C11.2134 6.85279 11.0885 7.03537 11.0885 7.27892V17.4225C11.0885 17.666 11.2134 17.8486 11.3872 17.9645L11.3948 17.9695L11.4029 17.9736C11.4592 18.0017 11.5082 18.0191 11.561 18.0279C11.6082 18.0358 11.654 18.0357 11.6964 18.0357L11.7019 18.0357L11.7074 18.0357C11.7497 18.0357 11.7955 18.0358 11.8427 18.0279C11.8955 18.0191 11.9446 18.0017 12.0008 17.9736L12.0009 17.9738L12.0066 17.9705L20.8881 13.0156L20.8883 13.016L20.8979 13.0096C21.0718 12.8937 21.1966 12.7111 21.1966 12.4676C21.1966 12.224 21.0717 12.0414 20.8979 11.9255ZM12.3151 16.3798V8.32835L19.3546 12.464L12.3151 16.3798Z" fill="#387EDB" stroke="#387EDB" stroke-width="0.291667"/>
</svg>
