<svg width="65" height="64" viewBox="0 0 65 64" fill="none" xmlns="http://www.w3.org/2000/svg">
<g clip-path="url(#clip0_71_214)">
<path d="M63.1814 16.6367C62.4436 13.895 60.282 11.7339 57.5408 10.9956C52.5325 9.625 32.4994 9.625 32.4994 9.625C32.4994 9.625 12.4667 9.625 7.45847 10.9434C4.77 11.6811 2.55566 13.8955 1.81787 16.6367C0.5 21.6445 0.5 32.0302 0.5 32.0302C0.5 32.0302 0.5 42.4681 1.81787 47.4237C2.55614 50.1649 4.71727 52.3265 7.45896 53.0648C12.5195 54.4354 32.4999 54.4354 32.4999 54.4354C32.4999 54.4354 52.5325 54.4354 57.5408 53.117C60.2825 52.3792 62.4436 50.2176 63.1819 47.4764C64.4997 42.4681 64.4997 32.0829 64.4997 32.0829C64.4997 32.0829 64.5525 21.6445 63.1814 16.6367Z" fill="#FF0000"/>
<path d="M26.1211 41.6249L42.7797 32.0302L26.1211 22.4355V41.6249Z" fill="white"/>
</g>
<defs>
<clipPath id="clip0_71_214">
<rect width="64" height="64" fill="white" transform="translate(0.5)"/>
</clipPath>
</defs>
</svg>
