<svg width="147" height="19" viewBox="0 0 147 19" fill="none" xmlns="http://www.w3.org/2000/svg">
<path fill-rule="evenodd" clip-rule="evenodd" d="M15.9919 5.09888C17.0549 6.45501 17.9364 7.97833 18.6195 9.62088V0.933609H11.122C12.9256 1.8924 14.5779 3.29507 15.9919 5.09888ZM5.18314 1.85915C3.79424 1.85915 2.45821 2.15127 1.2069 2.69182V18.0664H17.8531C17.7242 9.09981 12.0902 1.85915 5.18314 1.85915Z" fill="#387ED1"/>
<path d="M28.567 15.418L37.8681 4.33866H28.8593V1.92328H41.4714V3.93966L32.1703 15.0193H41.4714V17.4344H28.567V15.418ZM44.9393 1.92328H56.6054V4.38283H47.6869V8.37141H55.5923V10.8312H47.6869V14.9746H56.7176V17.4342H44.9393V1.92328ZM60.0284 1.92328H67.0549C68.0458 1.92328 68.9242 2.06008 69.6901 2.33321C70.456 2.60633 71.0934 2.98681 71.6042 3.47439C72.0244 3.90308 72.3477 4.39779 72.5729 4.95901C72.7981 5.52022 72.9103 6.14104 72.9103 6.82029V6.86471C72.9103 7.50002 72.8167 8.07239 72.6291 8.58207C72.4416 9.09174 72.1818 9.54252 71.8519 9.93368C71.5219 10.3248 71.1275 10.6578 70.6696 10.9307C70.2117 11.2036 69.7048 11.4147 69.1496 11.5622L73.4059 17.4344H70.1402L66.2548 12.0277H66.2099H62.7758V17.4344H60.0281L60.0284 1.92328ZM66.8428 9.61234C67.836 9.61234 68.6273 9.37912 69.2141 8.91148C69.8009 8.44384 70.0956 7.80972 70.0956 7.00863V6.96422C70.0956 6.11872 69.8088 5.47676 69.2365 5.03904C68.6642 4.60133 67.8585 4.38259 66.8193 4.38259H62.7758V9.61211L66.8428 9.61234ZM83.8332 17.7004C82.6169 17.7004 81.5061 17.49 80.5005 17.0691C79.4949 16.6483 78.6312 16.0759 77.9105 15.3515C77.1897 14.6272 76.6268 13.7824 76.2218 12.8146C75.8168 11.8467 75.6133 10.8165 75.6133 9.72326V9.67884C75.6133 8.58563 75.816 7.55536 76.2218 6.58754C76.6276 5.61973 77.1972 4.77043 77.9332 4.03917C78.6691 3.30791 79.5393 2.72817 80.5459 2.29972C81.5524 1.87127 82.6623 1.65704 83.8786 1.65704C85.0949 1.65704 86.2057 1.86747 87.2118 2.28856C88.2179 2.70964 89.081 3.28226 89.8018 4.00592C90.5226 4.72958 91.085 5.57556 91.4905 6.54313C91.896 7.51071 92.099 8.54122 92.099 9.63419V9.67861C92.099 10.7721 91.8962 11.8026 91.4905 12.7697C91.0847 13.7368 90.5146 14.5868 89.7791 15.318C89.0436 16.0493 88.1725 16.6293 87.1664 17.0575C86.1603 17.4857 85.0495 17.7004 83.8332 17.7004ZM83.8783 15.1964C84.6558 15.1964 85.3696 15.0525 86.0196 14.7644C86.6697 14.4763 87.227 14.0852 87.6904 13.5902C88.1539 13.0953 88.5165 12.5153 88.7781 11.8505C89.0398 11.1858 89.1703 10.4766 89.1703 9.72349V9.67908C89.1703 8.92573 89.0398 8.21299 88.7781 7.54063C88.5165 6.86827 88.1496 6.28521 87.6791 5.79026C87.2087 5.29531 86.6438 4.90034 85.9856 4.60466C85.3273 4.30897 84.6105 4.16148 83.833 4.16148C83.0555 4.16148 82.3417 4.30541 81.6917 4.59349C81.0417 4.88158 80.4843 5.27322 80.0209 5.76793C79.5574 6.26264 79.1949 6.84262 78.9327 7.50738C78.6706 8.17214 78.5405 8.88132 78.5405 9.63467V9.67908C78.5405 10.4324 78.6711 11.1452 78.9327 11.8171C79.1944 12.4889 79.5613 13.0732 80.0322 13.5679C80.5031 14.0626 81.0675 14.4581 81.7252 14.7533C82.383 15.0485 83.1009 15.1964 83.8783 15.1964ZM95.4537 1.92328H101.332C102.563 1.92328 103.693 2.11922 104.722 2.51062C105.751 2.90202 106.636 3.44494 107.379 4.13916C108.122 4.83337 108.696 5.64989 109.102 6.58802C109.508 7.52614 109.711 8.54193 109.711 9.63491V9.67932C109.711 10.7728 109.508 11.7921 109.102 12.7371C108.697 13.6821 108.122 14.5029 107.379 15.1967C106.636 15.8904 105.75 16.4379 104.722 16.8364C103.694 17.2349 102.563 17.4346 101.332 17.4346H95.4537V1.92328ZM101.31 14.9749C102.135 14.9749 102.886 14.8454 103.562 14.5856C104.237 14.3258 104.812 13.9629 105.284 13.4957C105.757 13.0285 106.125 12.4716 106.388 11.8261C106.651 11.1806 106.783 10.4802 106.783 9.72326V9.67884C106.783 8.92217 106.651 8.21774 106.388 7.56509C106.125 6.91244 105.757 6.35242 105.284 5.88502C104.811 5.41762 104.237 5.05044 103.562 4.78326C102.886 4.51607 102.135 4.38259 101.31 4.38259H98.2013V14.9746L101.31 14.9749ZM113.065 1.92328H115.813V8.37164H123.381V1.92328H126.128V17.4346H123.381V10.8977H115.813V17.4344H113.065V1.92328ZM135.767 1.81237H138.334L145.271 17.4344H142.343L140.744 13.6895H133.289L131.668 17.4344H128.83L135.767 1.81237ZM139.731 11.2746L137.005 5.06992L134.303 11.2746H139.731Z" fill="#387ED1"/>
</svg>
