<svg width="24" height="24" viewBox="0 0 24 24" fill="none" xmlns="http://www.w3.org/2000/svg">
<path d="M10.3715 2.68351L10.3721 2.68229C10.8749 1.67144 11.4277 1.38526 11.7931 1.38526C12.1596 1.38526 12.7152 1.67278 13.2237 2.68417C13.2238 2.68436 13.2239 2.68454 13.224 2.68473L15.2596 6.75591C15.457 7.15747 15.7923 7.50942 16.1454 7.77124C16.4994 8.03368 16.9317 8.25044 17.3662 8.32421L17.3685 8.3246L17.3685 8.3246L21.0607 8.93804C21.0608 8.93805 21.0608 8.93806 21.0609 8.93807C21.0609 8.93808 21.061 8.93809 21.061 8.93809C22.1285 9.11609 22.5614 9.55187 22.6745 9.90605C22.7878 10.2609 22.687 10.8678 21.9228 11.6321L19.0521 14.5028C18.7114 14.8435 18.4772 15.3067 18.3468 15.7622C18.2163 16.2179 18.1705 16.7335 18.2752 17.2008L18.2762 17.2051L18.2762 17.2051L19.098 20.7587L19.098 20.7588C19.4086 22.101 19.1229 22.7068 18.8538 22.9032C18.5841 23.1 17.9182 23.1875 16.731 22.4829L16.7304 22.4826L13.2693 20.4337L13.2651 20.4312L13.2651 20.4312C12.8244 20.1748 12.2878 20.0651 11.7873 20.0651C11.2875 20.0651 10.7515 20.1746 10.314 20.4337C10.3139 20.4338 10.3138 20.4338 10.3138 20.4339L6.85349 22.4822C5.65728 23.1888 4.99217 23.1022 4.725 22.9074C4.45899 22.7135 4.17403 22.1099 4.4853 20.7587L10.3715 2.68351ZM10.3715 2.68351L8.33529 6.75591C8.1378 7.15767 7.80219 7.5099 7.4468 7.77214C7.09022 8.03524 6.65476 8.25128 6.21517 8.32454L6.21485 8.3246L2.52261 8.93804C2.5225 8.93806 2.5224 8.93808 2.52229 8.93809C1.45413 9.11619 1.01815 9.55251 0.904129 9.90723C0.790571 10.2605 0.889629 10.8664 1.65899 11.6305L1.66056 11.6321L4.53127 14.5028C4.87193 14.8435 5.10616 15.3067 5.23653 15.7622C5.36699 16.2179 5.41286 16.7335 5.30813 17.2008L5.30815 17.2008L5.30715 17.2051L4.48541 20.7582L10.3715 2.68351Z" fill="#E8E8E8" stroke="#E8E8E8" stroke-width="1.30223" stroke-linecap="round" stroke-linejoin="round"/>
<g clip-path="url(#clip0_2_295)">
<path d="M10.3714 2.6836L10.372 2.68237C10.8748 1.67153 11.4277 1.38535 11.793 1.38535C12.1595 1.38535 12.7152 1.67287 13.2237 2.68426C13.2238 2.68444 13.2239 2.68463 13.224 2.68481L15.2595 6.75599C15.4569 7.15756 15.7923 7.5095 16.1454 7.77132C16.4993 8.03377 16.9317 8.25052 17.3661 8.3243L17.3684 8.32469L17.3684 8.32469L21.0606 8.93813C21.0607 8.93814 21.0608 8.93815 21.0608 8.93816C21.0609 8.93816 21.0609 8.93817 21.061 8.93818C22.1285 9.11617 22.5613 9.55196 22.6744 9.90614C22.7877 10.261 22.687 10.8679 21.9227 11.6322L19.052 14.5029C18.7113 14.8436 18.4771 15.3068 18.3467 15.7622C18.2163 16.218 18.1704 16.7336 18.2751 17.2009L18.2761 17.2052L18.2761 17.2052L19.098 20.7588L19.098 20.7589C19.4086 22.1011 19.1228 22.7069 18.8537 22.9033C18.5841 23.1 17.9182 23.1876 16.7309 22.483L16.7303 22.4826L13.2692 20.4338L13.265 20.4313L13.265 20.4313C12.8243 20.1749 12.2877 20.0652 11.7873 20.0652C11.2875 20.0652 10.7514 20.1746 10.3139 20.4338C10.3139 20.4339 10.3138 20.4339 10.3137 20.434L6.85343 22.4823C5.65722 23.1889 4.99211 23.1022 4.72494 22.9075C4.45893 22.7136 4.17397 22.11 4.48524 20.7588L10.3714 2.6836ZM10.3714 2.6836L8.33523 6.75599C8.13774 7.15776 7.80213 7.50999 7.44674 7.77222C7.09016 8.03533 6.6547 8.25137 6.21511 8.32463L6.21478 8.32469L2.52255 8.93813C2.52244 8.93815 2.52234 8.93816 2.52223 8.93818C1.45407 9.11628 1.01809 9.5526 0.904068 9.90732C0.79051 10.2606 0.889568 10.8665 1.65893 11.6306L1.6605 11.6322L4.5312 14.5029C4.87186 14.8436 5.1061 15.3068 5.23647 15.7622C5.36693 16.218 5.4128 16.7336 5.30807 17.2009L5.30809 17.2009L5.30709 17.2052L4.48535 20.7583L10.3714 2.6836Z" fill="#FABF35" stroke="#FABF35" stroke-width="1.30223" stroke-linecap="round" stroke-linejoin="round"/>
</g>
<defs>
<clipPath id="clip0_2_295">
<rect width="8.68156" height="22.5721" fill="white" transform="matrix(-1 0 0 1 9.18707 0.934223)"/>
</clipPath>
</defs>
</svg>
