<svg width="24" height="24" viewBox="0 0 24 24" fill="none" xmlns="http://www.w3.org/2000/svg">
<path d="M10.783 2.68325L10.7836 2.68203C11.2864 1.67119 11.8392 1.385 12.2046 1.385C12.5711 1.385 13.1266 1.67247 13.6351 2.68358C13.6352 2.68388 13.6354 2.68417 13.6355 2.68447L15.6711 6.75565C15.8685 7.15722 16.2038 7.50916 16.5569 7.77098C16.9109 8.03342 17.3432 8.25018 17.7777 8.32396L17.78 8.32435L21.4722 8.93779C21.4723 8.9378 21.4723 8.93781 21.4724 8.93781C21.4724 8.93782 21.4725 8.93783 21.4725 8.93784C22.54 9.11583 22.9729 9.55161 23.086 9.9058C23.1993 10.2606 23.0985 10.8676 22.3343 11.6319L19.4636 14.5026C19.1229 14.8432 18.8887 15.3065 18.7583 15.7619C18.6278 16.2176 18.582 16.7333 18.6867 17.2005L18.6877 17.2048L18.6877 17.2048L19.5095 20.7585L19.5095 20.7586C19.8201 22.1008 19.5344 22.7066 19.2653 22.903C18.9956 23.0997 18.3297 23.1873 17.1425 22.4827L17.1419 22.4823L13.6808 20.4335L13.6766 20.431L13.6766 20.431C13.2359 20.1746 12.6993 20.0648 12.1988 20.0648C11.699 20.0648 11.163 20.1743 10.7255 20.4335C10.7254 20.4335 10.7253 20.4336 10.7253 20.4336L7.26499 22.482L10.783 2.68325ZM10.783 2.68325L8.74679 6.75565C8.5493 7.15742 8.21369 7.50965 7.8583 7.77188C7.50172 8.03499 7.06626 8.25102 6.62667 8.32429L6.62634 8.32434M10.783 2.68325L6.62634 8.32434M6.62634 8.32434L2.93411 8.93779C2.934 8.9378 2.9339 8.93782 2.93379 8.93784C1.86563 9.11594 1.42965 9.55226 1.31563 9.90698C1.20207 10.2603 1.30113 10.8662 2.07049 11.6303L2.07206 11.6319M6.62634 8.32434L2.07206 11.6319M2.07206 11.6319L4.94276 14.5026C5.28342 14.8432 5.51767 15.3065 5.64804 15.7619C5.77849 16.2176 5.82436 16.7333 5.71963 17.2005L5.71965 17.2005M2.07206 11.6319L5.71965 17.2005M5.71965 17.2005L5.71865 17.2048M5.71965 17.2005L5.71865 17.2048M5.71865 17.2048L4.89691 20.758M5.71865 17.2048L4.89691 20.758M4.89691 20.758C4.58545 22.1095 4.87046 22.7132 5.1365 22.9071C5.40363 23.1019 6.06859 23.1886 7.26446 22.4823L4.89691 20.758Z" fill="#FABF35" stroke="#FABF35" stroke-width="1.30223" stroke-linecap="round" stroke-linejoin="round"/>
</svg>
