<svg width="14" height="14" viewBox="0 0 14 14" fill="none" xmlns="http://www.w3.org/2000/svg">
<path d="M1.70538 8.8996C1.38395 8.8996 1.10269 8.76905 0.861614 8.50796C0.620538 8.24686 0.5 7.94225 0.5 7.59413V6.28866C0.5 6.21251 0.507634 6.13092 0.522902 6.04389C0.537769 5.95686 0.560269 5.87527 0.590403 5.79911L2.39847 1.19734C2.48888 0.979765 2.63955 0.794824 2.85049 0.642519C3.06143 0.490215 3.28242 0.414062 3.51345 0.414062H8.33497C8.66645 0.414062 8.95032 0.541781 9.18657 0.797217C9.42242 1.05309 9.54035 1.36053 9.54035 1.71953V8.36109C9.54035 8.53515 9.5078 8.70117 9.44271 8.85913C9.37722 9.01665 9.28923 9.15525 9.17873 9.27492L5.90914 12.7997C5.75847 12.952 5.58027 13.0445 5.37456 13.0771C5.16844 13.1097 4.96995 13.0717 4.7791 12.9629C4.58825 12.8541 4.45003 12.7018 4.36445 12.5059C4.27927 12.3101 4.26179 12.1089 4.31201 11.9022L4.99004 8.8996H1.70538ZM11.9511 0.414062C12.2826 0.414062 12.5665 0.541781 12.8027 0.797217C13.0386 1.05309 13.1565 1.36053 13.1565 1.71953V7.59413C13.1565 7.95313 13.0386 8.26035 12.8027 8.51579C12.5665 8.77166 12.2826 8.8996 11.9511 8.8996C11.6196 8.8996 11.3358 8.77166 11.0995 8.51579C10.8637 8.26035 10.7457 7.95313 10.7457 7.59413V1.71953C10.7457 1.36053 10.8637 1.05309 11.0995 0.797217C11.3358 0.541781 11.6196 0.414062 11.9511 0.414062Z" fill="white"/>
</svg>
