<svg width="14" height="14" viewBox="0 0 14 14" fill="none" xmlns="http://www.w3.org/2000/svg">
<path d="M5.6848 13.3735C5.35332 13.3735 5.06966 13.2458 4.8338 12.9904C4.59755 12.7345 4.47942 12.4271 4.47942 12.0681V5.42652C4.47942 5.25245 4.51217 5.08644 4.57766 4.92848C4.64275 4.77095 4.73054 4.63236 4.84103 4.51269L8.11063 0.987928C8.2613 0.835623 8.4397 0.743153 8.64582 0.710516C8.85153 0.677879 9.04982 0.715955 9.24067 0.824744C9.43152 0.933533 9.56954 1.08584 9.65472 1.28166C9.7403 1.47748 9.75798 1.67874 9.70776 1.88544L9.02973 4.88801H12.3144C12.6358 4.88801 12.9171 5.01856 13.1582 5.27965C13.3992 5.54074 13.5198 5.84535 13.5198 6.19348V7.49894C13.5198 7.5751 13.5121 7.65669 13.4969 7.74372C13.482 7.83075 13.4595 7.91234 13.4294 7.98849L11.6213 12.5903C11.5309 12.8078 11.3802 12.9928 11.1693 13.1451C10.9583 13.2974 10.7374 13.3735 10.5063 13.3735H5.6848ZM2.06866 13.3735C1.73718 13.3735 1.45352 13.2458 1.21766 12.9904C0.981409 12.7345 0.863281 12.4271 0.863281 12.0681V6.19348C0.863281 5.83447 0.981409 5.52704 1.21766 5.27116C1.45352 5.01573 1.73718 4.88801 2.06866 4.88801C2.40014 4.88801 2.68381 5.01573 2.91966 5.27116C3.15591 5.52704 3.27404 5.83447 3.27404 6.19348V12.0681C3.27404 12.4271 3.15591 12.7345 2.91966 12.9904C2.68381 13.2458 2.40014 13.3735 2.06866 13.3735Z" fill="white"/>
</svg>
