<svg width="24" height="30" viewBox="0 0 24 30" fill="none" xmlns="http://www.w3.org/2000/svg">
<path d="M20.4796 29.1142H3.07382C1.47166 29.1142 0.172852 27.8155 0.172852 26.2133V3.00553C0.172852 1.40337 1.47166 0.104562 3.07382 0.104562H13.2272C13.6122 0.103199 13.9816 0.256297 14.2527 0.529554L22.9556 9.23246C23.2289 9.5036 23.3819 9.873 23.3806 10.2579V26.2133C23.3806 27.8155 22.0818 29.1142 20.4796 29.1142ZM3.07382 3.00553V26.2133H18.4286L14.7067 22.4913C13.8221 23.0247 12.8096 23.3084 11.7767 23.3123C9.10957 23.3412 6.75876 21.5669 6.05522 18.9941C5.35167 16.4212 6.47256 13.6976 8.78329 12.3653C11.094 11.033 14.0126 11.4274 15.887 13.3253C17.7611 15.2231 18.1188 18.1465 16.7577 20.4403L20.4796 24.1652V10.8584L12.6267 3.00553H3.07382ZM11.7767 14.6094C10.1745 14.6094 8.87576 15.9081 8.87576 17.5104C8.87576 19.1126 10.1745 20.4113 11.7767 20.4113C13.3789 20.4113 14.6777 19.1126 14.6777 17.5104C14.6777 15.9081 13.3789 14.6094 11.7767 14.6094Z" fill="#45BBBC"/>
</svg>
