<svg width="30" height="30" viewBox="0 0 30 30" fill="none" xmlns="http://www.w3.org/2000/svg">
<path d="M14.9101 29.4159C6.89931 29.4159 0.405273 22.9218 0.405273 14.911C0.405273 6.90024 6.89931 0.406204 14.9101 0.406204C22.9208 0.406204 29.4149 6.90024 29.4149 14.911C29.4061 22.9181 22.9172 29.407 14.9101 29.4159ZM13.4596 3.3971C8.7108 3.99765 4.81804 7.45249 3.65771 12.0964C2.49736 16.7402 4.3076 21.6201 8.21582 24.3837C12.124 27.1473 17.3282 27.2275 21.3198 24.5858L21.1748 24.6888L21.3111 24.5945L21.3967 24.535L21.4895 24.4697L21.5127 24.4538L21.5258 24.4436L14.0877 17.0026C13.6836 16.5914 13.4579 16.0373 13.4596 15.4608V3.3971ZM17.563 16.3615L23.6942 22.4927L23.7044 22.4811L23.7116 22.4724L23.6971 22.4884C25.1935 20.7616 26.1427 18.6291 26.4241 16.3615H17.563ZM16.3606 3.3971V13.4606H26.4241C25.7619 8.20126 21.6199 4.05926 16.3606 3.3971Z" fill="#45BBBC"/>
</svg>
