<svg width="27" height="27" viewBox="0 0 27 27" fill="none" xmlns="http://www.w3.org/2000/svg">
<path d="M16.9236 3.18377L23.9294 10.1896V23.4905H3.62265V3.18377H16.9236ZM16.9236 0.282806H3.62265C2.02712 0.282806 0.72168 1.58824 0.72168 3.18377V23.4905C0.72168 25.0861 2.02712 26.3915 3.62265 26.3915H23.9294C25.525 26.3915 26.8304 25.0861 26.8304 23.4905V10.1896C26.8304 9.42085 26.5258 8.68111 25.9746 8.14443L18.9688 1.13859C18.4321 0.587408 17.6923 0.282806 16.9236 0.282806ZM6.52361 17.6886H21.0285V20.5896H6.52361V17.6886ZM6.52361 11.8867H21.0285V14.7876H6.52361V11.8867ZM6.52361 6.08474H16.677V8.98571H6.52361V6.08474Z" fill="#45BBBC"/>
</svg>
