<svg width="36" height="35" viewBox="0 0 36 35" fill="none" xmlns="http://www.w3.org/2000/svg">
<path d="M11.0078 14.2987H15.8428M11.8136 14.2987C13.1488 14.2987 14.2311 15.3811 14.2311 16.7161C14.2311 18.0513 13.1488 19.1336 11.8136 19.1336H11.0078L13.4253 21.5511M11.0078 16.7161H15.8428M20.6777 17.522C20.6777 21.5273 17.4306 24.7744 13.4253 24.7744C9.41988 24.7744 6.17285 21.5273 6.17285 17.522C6.17285 13.5166 9.41988 10.2696 13.4253 10.2696C17.4306 10.2696 20.6777 13.5166 20.6777 17.522Z" stroke="#45BBBC" stroke-width="2.17573" stroke-linecap="round" stroke-linejoin="round"/>
<path d="M17.7773 8.65832L23.5793 3.01755V23.3243" stroke="#45BBBC" stroke-width="2.90097" stroke-linecap="round" stroke-linejoin="round"/>
<path d="M33.7326 10.9146L27.9307 3.01755V23.3243" stroke="#45BBBC" stroke-width="2.90097" stroke-linecap="round" stroke-linejoin="round"/>
</svg>
