<svg width="33" height="27" viewBox="0 0 33 27" fill="none" xmlns="http://www.w3.org/2000/svg">
<path d="M24.1625 25.5145H31.4149V22.6136C31.4149 20.2102 29.4668 18.2621 27.0635 18.2621C25.6774 18.2621 24.4426 18.9102 23.6459 19.9199M24.1625 25.5145H9.65769M24.1625 25.5145V22.6136C24.1625 21.6617 23.9792 20.7526 23.6459 19.9199M9.65769 25.5145H2.40527V22.6136C2.40527 20.2102 4.35349 18.2621 6.75672 18.2621C8.14282 18.2621 9.37755 18.9102 10.1744 19.9199M9.65769 25.5145V22.6136C9.65769 21.6617 9.84106 20.7526 10.1744 19.9199M10.1744 19.9199C11.2438 17.2482 13.8566 15.3611 16.9101 15.3611C19.9637 15.3611 22.5764 17.2482 23.6459 19.9199M21.2616 6.65823C21.2616 9.06146 19.3134 11.0097 16.9101 11.0097C14.5068 11.0097 12.5587 9.06146 12.5587 6.65823C12.5587 4.255 14.5068 2.30678 16.9101 2.30678C19.3134 2.30678 21.2616 4.255 21.2616 6.65823ZM29.9645 11.0097C29.9645 12.6119 28.6657 13.9106 27.0635 13.9106C25.4613 13.9106 24.1625 12.6119 24.1625 11.0097C24.1625 9.40752 25.4613 8.10871 27.0635 8.10871C28.6657 8.10871 29.9645 9.40752 29.9645 11.0097ZM9.65769 11.0097C9.65769 12.6119 8.35889 13.9106 6.75672 13.9106C5.15456 13.9106 3.85576 12.6119 3.85576 11.0097C3.85576 9.40752 5.15456 8.10871 6.75672 8.10871C8.35889 8.10871 9.65769 9.40752 9.65769 11.0097Z" stroke="#45BBBC" stroke-width="2.90097" stroke-linecap="round" stroke-linejoin="round"/>
</svg>
