<svg width="29" height="28" viewBox="0 0 29 28" fill="none" xmlns="http://www.w3.org/2000/svg">
<path d="M24.0632 25.0642H3.75644V4.75738H12.4593V1.85641H3.75644C2.1609 1.85641 0.855469 3.16185 0.855469 4.75738V25.0642C0.855469 26.6597 2.1609 27.9651 3.75644 27.9651H24.0632C25.6587 27.9651 26.9642 26.6597 26.9642 25.0642V16.3613H24.0632V25.0642ZM18.2613 16.3613V22.1632H21.1622V16.3613H18.2613ZM12.4593 22.1632H15.3603V10.5593H12.4593V22.1632ZM9.55837 22.1632V13.4603H6.6574V22.1632H9.55837Z" fill="#45BBBC"/>
<path d="M22.6255 12.0101C19.527 12.0074 16.9741 9.57803 16.8189 6.48454C16.6639 3.39104 18.961 0.718625 22.0437 0.406219V2.75619C20.2925 3.05202 19.0434 4.61594 19.1425 6.38848C19.2415 8.16103 20.6571 9.57613 22.4303 9.67516C24.2035 9.77418 25.768 8.52549 26.064 6.775H28.4148C28.1121 9.74536 25.6118 12.0061 22.6249 12.0101H22.6255ZM28.4154 5.61164H26.0646C25.8169 4.14913 24.6705 3.00344 23.2074 2.75619V0.406219C25.9581 0.687744 28.1328 2.86147 28.4148 5.61106L28.4154 5.61164Z" fill="#45BBBC"/>
</svg>
