<svg width="36" height="36" viewBox="0 0 36 36" fill="none" xmlns="http://www.w3.org/2000/svg">
<path d="M11.9162 29.1178C12.7026 29.5828 13.7269 29.3301 14.1977 28.534L25.018 10.2707C25.4864 9.47879 25.2262 8.45758 24.4342 7.98924C23.6424 7.52091 22.6211 7.78272 22.1527 8.57302L11.3324 26.8363C10.8641 27.6281 11.1243 28.6494 11.9162 29.1178Z" fill="#45BBBC"/>
<path d="M9.85197 19.1959C12.6067 19.1959 14.8475 16.9551 14.8475 14.2004C14.8475 11.4457 12.6067 9.20493 9.85197 9.20493C7.09727 9.20493 4.85645 11.4457 4.85645 14.2004C4.85645 16.9551 7.09727 19.1959 9.85197 19.1959ZM9.85197 12.5353C10.7707 12.5353 11.5171 13.2817 11.5171 14.2004C11.5171 15.1192 10.7707 15.8656 9.85197 15.8656C8.93319 15.8656 8.1868 15.1192 8.1868 14.2004C8.1868 13.2817 8.93319 12.5353 9.85197 12.5353Z" fill="#45BBBC"/>
<path d="M21.502 22.9007C21.502 25.6555 23.7427 27.8963 26.4974 27.8963C29.2522 27.8963 31.4929 25.6555 31.4929 22.9007C31.4929 20.1461 29.2522 17.9052 26.4974 17.9052C23.7427 17.9052 21.502 20.1461 21.502 22.9007ZM26.4974 21.2356C27.4162 21.2356 28.1626 21.982 28.1626 22.9007C28.1626 23.8196 27.4162 24.5659 26.4974 24.5659C25.5787 24.5659 24.8323 23.8196 24.8323 22.9007C24.8323 21.982 25.5787 21.2356 26.4974 21.2356Z" fill="#45BBBC"/>
</svg>
