<svg width="112" height="15" viewBox="0 0 112 15" fill="none" xmlns="http://www.w3.org/2000/svg">
<path d="M4.91487 12.794C5.45487 12.866 5.93487 13.04 6.35487 13.316L6.22887 14H0.666873L0.792873 13.316C1.00887 13.208 1.23087 13.112 1.45887 13.028C1.69887 12.932 1.95087 12.854 2.21487 12.794L4.37487 2.606C3.87087 2.462 3.47487 2.288 3.18687 2.084L3.33087 1.4H12.7449C12.6969 1.64 12.6309 1.904 12.5469 2.192C12.4749 2.468 12.3909 2.756 12.2949 3.056C12.2109 3.344 12.1149 3.632 12.0069 3.92C11.9109 4.196 11.8089 4.454 11.7009 4.694H10.9449L10.5669 2.57H7.07487L6.06687 7.304H8.55087L9.64887 5.918H10.2069C10.1829 6.218 10.1409 6.542 10.0809 6.89C10.0329 7.238 9.96687 7.592 9.88287 7.952C9.81087 8.312 9.72687 8.66 9.63087 8.996C9.53487 9.332 9.44487 9.632 9.36087 9.896H8.80287L8.31687 8.474H5.83287L4.91487 12.794ZM12.4977 6.044V5.432C12.6777 5.36 12.9177 5.288 13.2177 5.216C13.5177 5.132 13.8357 5.06 14.1717 5C14.5077 4.94 14.8377 4.892 15.1617 4.856C15.4977 4.808 15.7917 4.784 16.0437 4.784L16.3677 5L14.7477 12.758H16.0077V13.37C15.8517 13.478 15.6657 13.58 15.4497 13.676C15.2457 13.772 15.0237 13.856 14.7837 13.928C14.5557 14 14.3217 14.054 14.0817 14.09C13.8417 14.138 13.6137 14.162 13.3977 14.162C12.9417 14.162 12.6237 14.078 12.4437 13.91C12.2757 13.73 12.1917 13.538 12.1917 13.334C12.1917 13.094 12.2097 12.86 12.2457 12.632C12.2817 12.404 12.3297 12.152 12.3897 11.876L13.6137 6.296L12.4977 6.044ZM13.9917 1.994C13.9917 1.586 14.1297 1.268 14.4057 1.04C14.6817 0.812 15.0297 0.698 15.4497 0.698C15.9057 0.698 16.2657 0.812 16.5297 1.04C16.8057 1.268 16.9437 1.586 16.9437 1.994C16.9437 2.378 16.8057 2.684 16.5297 2.912C16.2657 3.14 15.9057 3.254 15.4497 3.254C15.0297 3.254 14.6817 3.14 14.4057 2.912C14.1297 2.684 13.9917 2.378 13.9917 1.994ZM23.8505 8.87C23.9345 8.498 24.0065 8.168 24.0665 7.88C24.1385 7.592 24.1745 7.292 24.1745 6.98C24.1745 6.776 24.1265 6.602 24.0305 6.458C23.9465 6.302 23.7905 6.224 23.5625 6.224C23.3345 6.224 23.0945 6.314 22.8425 6.494C22.6025 6.662 22.3625 6.878 22.1225 7.142C21.8945 7.394 21.6785 7.676 21.4745 7.988C21.2825 8.3 21.1265 8.588 21.0065 8.852L19.9265 14H17.4425L18.9905 6.278L17.9285 6.044L17.9645 5.432C18.1325 5.348 18.3485 5.27 18.6125 5.198C18.8765 5.114 19.1645 5.042 19.4765 4.982C19.7885 4.922 20.1065 4.874 20.4305 4.838C20.7665 4.802 21.0845 4.784 21.3845 4.784L21.7445 5L21.1865 7.628H21.2765C21.4925 7.232 21.7445 6.86 22.0325 6.512C22.3205 6.164 22.6265 5.864 22.9505 5.612C23.2745 5.36 23.6165 5.162 23.9765 5.018C24.3365 4.862 24.7025 4.784 25.0745 4.784C25.5785 4.784 25.9745 4.946 26.2625 5.27C26.5505 5.594 26.6945 6.026 26.6945 6.566C26.6945 6.842 26.6645 7.16 26.6045 7.52C26.5445 7.868 26.4725 8.216 26.3885 8.564L25.3985 12.758H26.6945V13.37C26.5745 13.466 26.4125 13.562 26.2085 13.658C26.0165 13.754 25.8005 13.838 25.5605 13.91C25.3325 13.982 25.0925 14.042 24.8405 14.09C24.5885 14.138 24.3485 14.162 24.1205 14.162C23.7125 14.162 23.4125 14.084 23.2205 13.928C23.0405 13.772 22.9505 13.592 22.9505 13.388C22.9505 13.136 22.9805 12.866 23.0405 12.578C23.1005 12.29 23.1605 12.014 23.2205 11.75L23.8505 8.87ZM34.4685 8.87C34.5525 8.498 34.6245 8.168 34.6845 7.88C34.7565 7.592 34.7925 7.292 34.7925 6.98C34.7925 6.776 34.7445 6.602 34.6485 6.458C34.5645 6.302 34.4085 6.224 34.1805 6.224C33.9525 6.224 33.7125 6.314 33.4605 6.494C33.2205 6.662 32.9805 6.878 32.7405 7.142C32.5125 7.394 32.2965 7.676 32.0925 7.988C31.9005 8.3 31.7445 8.588 31.6245 8.852L30.5445 14H28.0605L29.6085 6.278L28.5465 6.044L28.5825 5.432C28.7505 5.348 28.9665 5.27 29.2305 5.198C29.4945 5.114 29.7825 5.042 30.0945 4.982C30.4065 4.922 30.7245 4.874 31.0485 4.838C31.3845 4.802 31.7025 4.784 32.0025 4.784L32.3625 5L31.8045 7.628H31.8945C32.1105 7.232 32.3625 6.86 32.6505 6.512C32.9385 6.164 33.2445 5.864 33.5685 5.612C33.8925 5.36 34.2345 5.162 34.5945 5.018C34.9545 4.862 35.3205 4.784 35.6925 4.784C36.1965 4.784 36.5925 4.946 36.8805 5.27C37.1685 5.594 37.3125 6.026 37.3125 6.566C37.3125 6.842 37.2825 7.16 37.2225 7.52C37.1625 7.868 37.0905 8.216 37.0065 8.564L36.0165 12.758H37.3125V13.37C37.1925 13.466 37.0305 13.562 36.8265 13.658C36.6345 13.754 36.4185 13.838 36.1785 13.91C35.9505 13.982 35.7105 14.042 35.4585 14.09C35.2065 14.138 34.9665 14.162 34.7385 14.162C34.3305 14.162 34.0305 14.084 33.8385 13.928C33.6585 13.772 33.5685 13.592 33.5685 13.388C33.5685 13.136 33.5985 12.866 33.6585 12.578C33.7185 12.29 33.7785 12.014 33.8385 11.75L34.4685 8.87ZM38.6965 10.544C38.6965 9.896 38.8045 9.236 39.0205 8.564C39.2365 7.88 39.5665 7.262 40.0105 6.71C40.4545 6.146 41.0125 5.684 41.6845 5.324C42.3685 4.964 43.1665 4.784 44.0785 4.784C45.1585 4.784 46.0045 5.078 46.6165 5.666C47.2285 6.254 47.5345 7.13 47.5345 8.294C47.5345 9.086 47.4145 9.842 47.1745 10.562C46.9345 11.27 46.5865 11.9 46.1305 12.452C45.6745 12.992 45.1165 13.424 44.4565 13.748C43.8085 14.06 43.0645 14.216 42.2245 14.216C41.7205 14.216 41.2525 14.144 40.8205 14C40.3885 13.844 40.0105 13.616 39.6865 13.316C39.3745 13.004 39.1285 12.62 38.9485 12.164C38.7805 11.708 38.6965 11.168 38.6965 10.544ZM43.7725 5.81C43.2925 5.81 42.8905 5.99 42.5665 6.35C42.2545 6.71 41.9965 7.166 41.7925 7.718C41.6005 8.258 41.4625 8.846 41.3785 9.482C41.2945 10.118 41.2525 10.706 41.2525 11.246C41.2525 11.858 41.3665 12.338 41.5945 12.686C41.8345 13.022 42.1585 13.19 42.5665 13.19C42.9145 13.19 43.2325 13.046 43.5205 12.758C43.8205 12.458 44.0785 12.062 44.2945 11.57C44.5105 11.066 44.6785 10.496 44.7985 9.86C44.9185 9.212 44.9785 8.54 44.9785 7.844C44.9785 7.184 44.8705 6.68 44.6545 6.332C44.4505 5.984 44.1565 5.81 43.7725 5.81ZM53.2914 10.85C53.6154 10.262 53.9094 9.668 54.1734 9.068C54.4374 8.456 54.6654 7.814 54.8574 7.142C54.8574 7.01 54.8394 6.842 54.8034 6.638C54.7794 6.422 54.7494 6.206 54.7134 5.99C54.6894 5.774 54.6594 5.576 54.6234 5.396C54.5874 5.204 54.5574 5.072 54.5334 5C54.7014 4.928 54.9054 4.874 55.1454 4.838C55.3974 4.802 55.6434 4.784 55.8834 4.784C56.1354 4.784 56.3754 4.802 56.6034 4.838C56.8314 4.874 57.0114 4.928 57.1434 5C56.9634 5.744 56.7054 6.512 56.3694 7.304C56.0454 8.084 55.6734 8.864 55.2534 9.644C54.8334 10.424 54.3774 11.186 53.8854 11.93C53.3934 12.662 52.8894 13.352 52.3734 14L50.7174 14.216L49.3854 6.278L48.2334 6.134V5.522C48.3774 5.438 48.5514 5.354 48.7554 5.27C48.9594 5.186 49.1814 5.108 49.4214 5.036C49.6734 4.964 49.9254 4.904 50.1774 4.856C50.4414 4.808 50.6994 4.784 50.9514 4.784C51.2754 4.784 51.5034 4.874 51.6354 5.054C51.7674 5.222 51.8514 5.438 51.8874 5.702L52.5714 10.886L52.6794 12.092H52.7154L53.2914 10.85ZM60.556 12.776C60.784 12.776 61.018 12.674 61.258 12.47C61.51 12.266 61.744 12.014 61.96 11.714C62.188 11.402 62.392 11.066 62.572 10.706C62.764 10.334 62.926 9.992 63.058 9.68L63.724 6.116C63.58 6.02 63.442 5.954 63.31 5.918C63.19 5.87 63.028 5.846 62.824 5.846C62.344 5.846 61.912 6.008 61.528 6.332C61.144 6.644 60.82 7.058 60.556 7.574C60.292 8.078 60.088 8.648 59.944 9.284C59.812 9.92 59.746 10.556 59.746 11.192C59.746 11.744 59.812 12.146 59.944 12.398C60.076 12.65 60.28 12.776 60.556 12.776ZM62.788 11.138C62.632 11.522 62.434 11.9 62.194 12.272C61.966 12.632 61.702 12.956 61.402 13.244C61.102 13.532 60.772 13.766 60.412 13.946C60.052 14.126 59.662 14.216 59.242 14.216C58.618 14.216 58.12 13.988 57.748 13.532C57.376 13.076 57.19 12.398 57.19 11.498C57.19 10.562 57.316 9.692 57.568 8.888C57.832 8.072 58.198 7.364 58.666 6.764C59.146 6.152 59.722 5.678 60.394 5.342C61.066 4.994 61.816 4.82 62.644 4.82C62.956 4.82 63.22 4.856 63.436 4.928C63.664 5 63.904 5.09 64.156 5.198C64.468 5.078 64.804 4.988 65.164 4.928C65.524 4.868 65.956 4.838 66.46 4.838L64.948 12.758H66.208V13.37C66.088 13.466 65.926 13.562 65.722 13.658C65.53 13.754 65.314 13.838 65.074 13.91C64.846 13.982 64.606 14.042 64.354 14.09C64.114 14.138 63.886 14.162 63.67 14.162C63.25 14.162 62.95 14.072 62.77 13.892C62.59 13.712 62.5 13.526 62.5 13.334C62.5 13.118 62.53 12.836 62.59 12.488C62.65 12.128 62.74 11.678 62.86 11.138H62.788ZM67.6745 5.432C67.9025 5.288 68.1545 5.168 68.4305 5.072C68.7065 4.964 68.9765 4.88 69.2405 4.82L69.5285 3.452C69.6125 3.38 69.7445 3.314 69.9245 3.254C70.1045 3.182 70.3025 3.122 70.5185 3.074C70.7345 3.014 70.9505 2.96 71.1665 2.912C71.3945 2.864 71.5985 2.828 71.7785 2.804L72.1565 3.02L71.7245 5H73.8305C73.8545 5.144 73.8425 5.336 73.7945 5.576C73.7585 5.804 73.6925 5.99 73.5965 6.134H71.4905L70.4465 10.796C70.3985 11.024 70.3625 11.228 70.3385 11.408C70.3145 11.576 70.3025 11.732 70.3025 11.876C70.3025 12.188 70.3805 12.416 70.5365 12.56C70.6925 12.704 70.9025 12.776 71.1665 12.776C71.4665 12.776 71.7485 12.74 72.0125 12.668C72.2765 12.596 72.5285 12.494 72.7685 12.362L73.0025 12.83C72.8585 12.986 72.6665 13.148 72.4265 13.316C72.1865 13.472 71.9165 13.622 71.6165 13.766C71.3165 13.898 70.9925 14.006 70.6445 14.09C70.2965 14.174 69.9425 14.216 69.5825 14.216C68.9585 14.216 68.4905 14.072 68.1785 13.784C67.8665 13.496 67.7105 13.1 67.7105 12.596C67.7105 12.32 67.7345 12.026 67.7825 11.714C67.8305 11.402 67.8785 11.138 67.9265 10.922L68.9705 6.134H67.6745V5.432ZM74.5719 6.044V5.432C74.7519 5.36 74.9919 5.288 75.2919 5.216C75.5919 5.132 75.9099 5.06 76.2459 5C76.5819 4.94 76.9119 4.892 77.2359 4.856C77.5719 4.808 77.8659 4.784 78.1179 4.784L78.4419 5L76.8219 12.758H78.0819V13.37C77.9259 13.478 77.7399 13.58 77.5239 13.676C77.3199 13.772 77.0979 13.856 76.8579 13.928C76.6299 14 76.3959 14.054 76.1559 14.09C75.9159 14.138 75.6879 14.162 75.4719 14.162C75.0159 14.162 74.6979 14.078 74.5179 13.91C74.3499 13.73 74.2659 13.538 74.2659 13.334C74.2659 13.094 74.2839 12.86 74.3199 12.632C74.3559 12.404 74.4039 12.152 74.4639 11.876L75.6879 6.296L74.5719 6.044ZM76.0659 1.994C76.0659 1.586 76.2039 1.268 76.4799 1.04C76.7559 0.812 77.1039 0.698 77.5239 0.698C77.9799 0.698 78.3399 0.812 78.6039 1.04C78.8799 1.268 79.0179 1.586 79.0179 1.994C79.0179 2.378 78.8799 2.684 78.6039 2.912C78.3399 3.14 77.9799 3.254 77.5239 3.254C77.1039 3.254 76.7559 3.14 76.4799 2.912C76.2039 2.684 76.0659 2.378 76.0659 1.994ZM79.5347 10.544C79.5347 9.896 79.6427 9.236 79.8587 8.564C80.0747 7.88 80.4047 7.262 80.8487 6.71C81.2927 6.146 81.8507 5.684 82.5227 5.324C83.2067 4.964 84.0047 4.784 84.9167 4.784C85.9967 4.784 86.8427 5.078 87.4547 5.666C88.0667 6.254 88.3727 7.13 88.3727 8.294C88.3727 9.086 88.2527 9.842 88.0127 10.562C87.7727 11.27 87.4247 11.9 86.9687 12.452C86.5127 12.992 85.9547 13.424 85.2947 13.748C84.6467 14.06 83.9027 14.216 83.0627 14.216C82.5587 14.216 82.0907 14.144 81.6587 14C81.2267 13.844 80.8487 13.616 80.5247 13.316C80.2127 13.004 79.9667 12.62 79.7867 12.164C79.6187 11.708 79.5347 11.168 79.5347 10.544ZM84.6107 5.81C84.1307 5.81 83.7287 5.99 83.4047 6.35C83.0927 6.71 82.8347 7.166 82.6307 7.718C82.4387 8.258 82.3007 8.846 82.2167 9.482C82.1327 10.118 82.0907 10.706 82.0907 11.246C82.0907 11.858 82.2047 12.338 82.4327 12.686C82.6727 13.022 82.9967 13.19 83.4047 13.19C83.7527 13.19 84.0707 13.046 84.3587 12.758C84.6587 12.458 84.9167 12.062 85.1327 11.57C85.3487 11.066 85.5167 10.496 85.6367 9.86C85.7567 9.212 85.8167 8.54 85.8167 7.844C85.8167 7.184 85.7087 6.68 85.4927 6.332C85.2887 5.984 84.9947 5.81 84.6107 5.81ZM95.8396 8.87C95.9236 8.498 95.9956 8.168 96.0556 7.88C96.1276 7.592 96.1636 7.292 96.1636 6.98C96.1636 6.776 96.1156 6.602 96.0196 6.458C95.9356 6.302 95.7796 6.224 95.5516 6.224C95.3236 6.224 95.0836 6.314 94.8316 6.494C94.5916 6.662 94.3516 6.878 94.1116 7.142C93.8836 7.394 93.6676 7.676 93.4636 7.988C93.2716 8.3 93.1156 8.588 92.9956 8.852L91.9156 14H89.4316L90.9796 6.278L89.9176 6.044L89.9536 5.432C90.1216 5.348 90.3376 5.27 90.6016 5.198C90.8656 5.114 91.1536 5.042 91.4656 4.982C91.7776 4.922 92.0956 4.874 92.4196 4.838C92.7556 4.802 93.0736 4.784 93.3736 4.784L93.7336 5L93.1756 7.628H93.2656C93.4816 7.232 93.7336 6.86 94.0216 6.512C94.3096 6.164 94.6156 5.864 94.9396 5.612C95.2636 5.36 95.6056 5.162 95.9656 5.018C96.3256 4.862 96.6916 4.784 97.0636 4.784C97.5676 4.784 97.9636 4.946 98.2516 5.27C98.5396 5.594 98.6836 6.026 98.6836 6.566C98.6836 6.842 98.6536 7.16 98.5936 7.52C98.5336 7.868 98.4616 8.216 98.3776 8.564L97.3876 12.758H98.6836V13.37C98.5636 13.466 98.4016 13.562 98.1976 13.658C98.0056 13.754 97.7896 13.838 97.5496 13.91C97.3216 13.982 97.0816 14.042 96.8296 14.09C96.5776 14.138 96.3376 14.162 96.1096 14.162C95.7016 14.162 95.4016 14.084 95.2096 13.928C95.0296 13.772 94.9396 13.592 94.9396 13.388C94.9396 13.136 94.9696 12.866 95.0296 12.578C95.0896 12.29 95.1496 12.014 95.2096 11.75L95.8396 8.87ZM109.248 10.202H109.986C109.986 10.454 109.974 10.742 109.95 11.066C109.926 11.39 109.896 11.72 109.86 12.056C109.824 12.392 109.776 12.728 109.716 13.064C109.668 13.4 109.614 13.712 109.554 14H99.6357V12.83L108.474 2.57H104.334L102.732 5.144H101.976C101.976 4.88 101.982 4.58 101.994 4.244C102.018 3.908 102.048 3.572 102.084 3.236C102.132 2.888 102.18 2.558 102.228 2.246C102.276 1.922 102.33 1.64 102.39 1.4H111.678V2.57L102.822 12.83H107.574L109.248 10.202Z" fill="#45BBBC"/>
</svg>
