<svg width="130" height="129" viewBox="0 0 130 129" fill="none" xmlns="http://www.w3.org/2000/svg">
<circle cx="65.1038" cy="64.5" r="64.5" fill="white"/>
<path d="M28.1646 56.4056C30.4371 47.3385 36.4138 39.7313 43.7264 34.2939C55.4936 26.675 71.3 25.9203 83.6128 32.5533C80.1725 44.5837 77.2224 56.4993 74.2724 68.4148C66.1556 70.4198 57.8405 71.7988 49.6924 73.4491C46.3345 80.7532 42.7574 88.0052 39.3159 95.1736C28.4736 85.7651 24.3594 69.9699 28.1646 56.4056Z" fill="#5367FF" stroke="#5367FF" stroke-width="0.149305"/>
<path d="M83.6124 32.5536C85.8142 34.0034 87.8803 35.5366 90.0821 36.9864C84.9723 48.7355 84.8814 62.2572 78.8951 73.7978C71.6133 77.1589 62.8595 76.0027 55.4421 79.4474C51.3641 85.8856 49.1538 93.2312 44.387 99.1584C42.707 97.9485 40.9434 96.603 39.3155 95.174C42.757 88.0055 46.334 80.7535 49.692 73.4494C57.8401 71.7992 66.1552 70.4201 74.2719 68.4152C77.222 56.4996 80.172 44.584 83.6124 32.5536Z" fill="#00FFC4" stroke="#00FFC4" stroke-width="0.149305"/>
<path d="M78.8952 73.7984C84.8814 62.2578 84.9724 48.7361 90.0822 36.987C92.0441 38.9585 93.8704 41.0135 95.9158 43.1205C91.3378 53.6071 88.7632 64.9174 86.0217 75.9565C85.3856 77.6573 85 79.765 83.6231 81.1738C76.4562 85.0252 67.6189 83.7334 60.3685 87.4493C56.7074 92.1347 54.862 97.9465 52.2443 103.112C49.6357 101.912 46.9436 100.577 44.3871 99.159C49.1539 93.2318 51.3642 85.8863 55.4422 79.448C62.8596 76.0033 71.6134 77.1595 78.8952 73.7984Z" fill="#00EBB4" stroke="#00EBB4" stroke-width="0.149305"/>
<path d="M86.0216 75.9559C88.7632 64.9167 91.3378 53.6064 95.9158 43.1199C97.7213 45.7487 99.2556 48.5445 100.79 51.3403C96.6917 60.7834 93.7725 70.6227 91.8132 80.8061C91.0001 83.7381 90.573 86.9934 88.6329 89.31C81.6537 92.8589 73.4216 91.9425 66.2441 94.8654C63.1356 97.7144 61.321 101.45 59.2038 104.998C56.9291 104.341 54.5189 103.768 52.2443 103.111C54.8619 97.9458 56.7074 92.134 60.3685 87.4486C67.6189 83.7327 76.4562 85.0245 83.6231 81.1731C85 79.7643 85.3856 77.6566 86.0216 75.9559Z" fill="#00D8A5" stroke="#00D8A5" stroke-width="0.149305"/>
<path d="M91.8152 80.807C93.7744 70.6236 96.6936 60.7843 100.792 51.3412C108.443 68.325 101.698 89.8714 85.8305 99.6405C77.9648 104.483 68.3143 106.123 59.2057 104.999C61.3229 101.451 63.1375 97.7153 66.246 94.8663C73.4236 91.9434 81.6557 92.8598 88.6348 89.3109C90.5749 86.9943 91.002 83.7389 91.8152 80.807Z" fill="#00C798" stroke="#00C798" stroke-width="0.149305"/>
</svg>
