<svg width="64" height="59" viewBox="0 0 64 59" fill="none" xmlns="http://www.w3.org/2000/svg">
<path d="M9.73749 24.3401C11.1064 18.8782 14.7067 14.2956 19.1118 11.0202C26.2003 6.43055 35.722 5.97596 43.1392 9.9716C41.0667 17.2187 39.2896 24.3965 37.5125 31.5744C32.6231 32.7822 27.6141 33.6129 22.7057 34.607C20.6829 39.007 18.5281 43.3755 16.455 47.6938C9.92362 42.0261 7.44525 32.5112 9.73749 24.3401Z" fill="#5367FF" stroke="#5367FF" stroke-width="0.0899405"/>
<path d="M43.1389 9.9718C44.4652 10.8451 45.7098 11.7688 47.0362 12.6421C43.9581 19.7197 43.9033 27.8651 40.2972 34.8171C35.9107 36.8418 30.6374 36.1453 26.1692 38.2203C23.7126 42.0987 22.3812 46.5237 19.5097 50.0942C18.4977 49.3653 17.4353 48.5548 16.4547 47.694C18.5278 43.3757 20.6826 39.0072 22.7054 34.6072C27.6138 33.6131 32.6228 32.7824 37.5122 31.5746C39.2893 24.3967 41.0664 17.2189 43.1389 9.9718Z" fill="#00FFC4" stroke="#00FFC4" stroke-width="0.0899405"/>
<path d="M40.2973 34.8174C43.9034 27.8654 43.9582 19.72 47.0363 12.6424C48.2181 13.8301 49.3183 15.068 50.5504 16.3373C47.7927 22.6543 46.2418 29.4676 44.5902 36.1175C44.2071 37.142 43.9748 38.4117 43.1454 39.2603C38.8281 41.5804 33.5045 40.8023 29.1369 43.0407C26.9315 45.8631 25.8198 49.3641 24.2429 52.4755C22.6715 51.7531 21.0498 50.949 19.5098 50.0946C22.3813 46.524 23.7127 42.0991 26.1693 38.2207C30.6375 36.1457 35.9108 36.8422 40.2973 34.8174Z" fill="#00EBB4" stroke="#00EBB4" stroke-width="0.0899405"/>
<path d="M44.5902 36.1171C46.2417 29.4672 47.7927 22.6539 50.5504 16.3369C51.6381 17.9204 52.5623 19.6046 53.4866 21.2888C51.0178 26.9773 49.2593 32.9044 48.0791 39.0389C47.5892 40.8051 47.332 42.766 46.1632 44.1616C41.959 46.2994 37 45.7474 32.6763 47.5081C30.8038 49.2243 29.7107 51.4746 28.4353 53.6118C27.0651 53.2161 25.6132 52.8708 24.2429 52.4751C25.8198 49.3637 26.9315 45.8627 29.1369 43.0403C33.5045 40.8018 38.8281 41.58 43.1454 39.2599C43.9748 38.4113 44.2071 37.1416 44.5902 36.1171Z" fill="#00D8A5" stroke="#00D8A5" stroke-width="0.0899405"/>
<path d="M48.0802 39.0394C49.2604 32.905 51.0189 26.9778 53.4877 21.2893C58.0968 31.5203 54.0333 44.4998 44.4751 50.3846C39.7368 53.3019 33.9234 54.2899 28.4364 53.6123C29.7118 51.4751 30.8049 49.2249 32.6775 47.5087C37.0012 45.7479 41.9602 46.2999 46.1644 44.1621C47.3331 42.7666 47.5903 40.8056 48.0802 39.0394Z" fill="#00C798" stroke="#00C798" stroke-width="0.0899405"/>
</svg>
